<?xml version="1.0" encoding="UTF-8" standalone="no"?>
<svg
   xmlns:dc="http://purl.org/dc/elements/1.1/"
   xmlns:cc="http://creativecommons.org/ns#"
   xmlns:rdf="http://www.w3.org/1999/02/22-rdf-syntax-ns#"
   xmlns:svg="http://www.w3.org/2000/svg"
   xmlns="http://www.w3.org/2000/svg"
   xmlns:sodipodi="http://sodipodi.sourceforge.net/DTD/sodipodi-0.dtd"
   xmlns:inkscape="http://www.inkscape.org/namespaces/inkscape"
   width="57.489999771118164mm"
   height="51.70000076293945mm"
   viewBox="-35 -22.700000762939453 57.489999771118164 51.70000076293945"
   version="1.1"
   id="svg8"
   sodipodi:docname="Copy of Makers.lugo.svg"
   inkscape:version="0.92.3 (2405546, 2018-03-11)">
  <metadata
     id="metadata14">
    <rdf:RDF>
      <cc:Work
         rdf:about="">
        <dc:format>image/svg+xml</dc:format>
        <dc:type
           rdf:resource="http://purl.org/dc/dcmitype/StillImage" />
        <dc:title>svgOutput</dc:title>
      </cc:Work>
    </rdf:RDF>
  </metadata>
  <defs
     id="defs12" />
  <sodipodi:namedview
     pagecolor="#ffffff"
     bordercolor="#666666"
     borderopacity="1"
     objecttolerance="10"
     gridtolerance="10"
     guidetolerance="10"
     inkscape:pageopacity="0"
     inkscape:pageshadow="2"
     inkscape:window-width="1316"
     inkscape:window-height="1008"
     id="namedview10"
     showgrid="false"
     inkscape:zoom="2.4155383"
     inkscape:cx="101.42047"
     inkscape:cy="81.38154"
     inkscape:window-x="604"
     inkscape:window-y="35"
     inkscape:window-maximized="0"
     inkscape:current-layer="layer1" />
  <title
     id="title2">svgOutput</title>
  <desc
     id="desc4">made with tinkercad</desc>
  <g
     inkscape:groupmode="layer"
     id="layer1"
     inkscape:label="BASE">
    <path
       transform="translate(-1.1397434e-6)"
       d="M 0.5856059789657593 23.959434509277344 L 0.49380001425743103 23.579599380493164 L 0.24210000038146973 22.53860092163086 L 0 21.537641525268555 L -1.2465026378631592 16.384000778198242 L -1.902580738067627 13.671457290649414 L -1.9376686811447144 13.526387214660645 L -1.9498116970062256 13.476181983947754 L -1.9529999494552612 13.463000297546387 L -1.8775814771652222 13.41878890991211 L -1.8660000562667847 13.411999702453613 L -1.655400037765503 13.263400077819824 L -1.3588422536849976 13.055994033813477 L -0.9607333540916443 12.781266212463379 L -0.9022766947746277 12.73668098449707 L -0.8192110657691956 12.673325538635254 L -0.7955333590507507 12.655266761779785 L -0.6656051278114319 12.536002159118652 L 0 11.880221366882324 L 0.11311769485473633 11.768773078918457 L 0.17068007588386536 11.71205997467041 L 0.3845740258693695 11.45954704284668 L 0.45859473943710327 11.360918045043945 L 0.9624131917953491 10.689608573913574 L 1.0026999711990356 10.629300117492676 L 1.056399941444397 10.539899826049805 L 1.1723037958145142 10.30457878112793 L 1.3135011196136475 10 L 1.6731475591659546 9.224202156066895 L 1.9133652448654175 8.706025123596191 L 1.9345333576202393 8.650333404541016 L 1.9974000453948975 8.44260025024414 L 2.057742118835449 8.192000389099121 L 2.20101261138916 7.5970001220703125 L 2.14874529838562 7.5970001220703125 L 0 7.5970001220703125 L -3.064659833908081 7.5970001220703125 L -1.4290000200271606 10 L -4.613999843597412 10 L -5.983485221862793 7.5970001220703125 L -6.379000186920166 6.9029998779296875 L -7.114860534667969 7.5970001220703125 L -7.715000152587891 8.163000106811523 L -7.715000152587891 10 L -8.192000389099121 10 L -10.300999641418457 10 L -10.300999641418457 8.192000389099121 L -10.300999641418457 7.5970001220703125 L -14.692523002624512 7.5970001220703125 L -14.562596321105957 8.192000389099121 L -14.524471282958984 8.366594314575195 L -14.510034561157227 8.429049491882324 L -14.486352920532227 8.531498908996582 L -14.404460906982422 8.75263500213623 L -14.378676414489746 8.822261810302734 L -13.87258529663086 10.03580093383789 L -13.767895698547363 10.231366157531738 L -13.50100040435791 10.626399993896484 L -13.136199951171875 11.194000244140625 L -13.051167488098145 11.292200088500977 L -12.586000442504883 11.829400062561035 L -12.245384216308594 12.202593803405762 L -12.147799491882324 12.288000106811523 L -11.724897384643555 12.658123016357422 L -11.614067077636719 12.751266479492188 L -11.356200218200684 12.935799598693848 L -10.771356582641602 13.319676399230957 L -10.487000465393066 13.512999534606934 L -11.181333541870117 16.384000778198242 L -13.378000259399414 25.466999053955078 L -13.74276065826416 25.322654724121094 L -14.091937065124512 25.16346549987793 L -15.302000045776367 24.64900016784668 L -16.384000778198242 24.054771423339844 L -17.10099983215332 23.660999298095703 L -23.55500030517578 27.981000900268555 L -28.208999633789062 23.32699966430664 L -23.895999908447266 16.882999420166016 L -24.178224563598633 16.384000778198242 L -24.466548919677734 15.874213218688965 L -24.724170684814453 15.345667839050293 L -25.07900047302246 14.687000274658203 L -25.30609130859375 14.15178394317627 L -25.500200271606445 13.694299697875977 L -25.561800003051758 13.546600341796875 L -25.59040069580078 13.464400291442871 L -25.981000900268555 12.387999534606934 L -26.048372268676758 12.1481294631958 L -26.09722900390625 11.97418212890625 L -26.420000076293945 10.824999809265137 L -26.515302658081055 10.806116104125977 L -26.55810546875 10.79763412475586 L -32.768001556396484 9.567124366760254 L -34 9.322999954223633 L -34 7.5970001220703125 L -34 4.192999839782715 L -34 2.742000102996826 L -32.768001556396484 2.497976779937744 L -26.43199920654297 1.2430000305175781 L -26.20168113708496 0.39242711663246166 L -26.072193145751953 1.1102230246251565e-16 L -25.927257537841797 -0.43924415111541737 L -25.81916046142578 -0.7995139360427855 L -25.71269989013672 -1.155400037765503 L -25.630199432373047 -1.3490999937057495 L -25.24163055419922 -2.289780855178833 L -25.061399459838867 -2.726099967956543 L -24.977521896362305 -2.881509304046631 L -24.72926902770996 -3.3414697647094727 L -24.606884002685547 -3.592682361602783 L -24.47654914855957 -3.8602142333984375 L -23.913000106811523 -4.861999988555908 L -23.95669174194336 -4.927287578582764 L -24.04804801940918 -5.063799858093262 L -24.077550888061523 -5.107884883880615 L -25.354585647583008 -7.016123294830322 L -25.576757431030273 -7.348109722137451 L -28.191999435424805 -11.255999565124512 L -23.538000106811523 -15.909000396728516 L -17.152000427246094 -11.635000228881836 L -16.384000778198242 -12.06820297241211 L -16.146713256835938 -12.202048301696777 L -15.625868797302246 -12.456170082092285 L -14.967900276184082 -12.809900283813477 L -14.944498062133789 -12.819755554199219 L -14.856300354003906 -12.856900215148926 L -14.594612121582031 -12.95932388305664 L -12.763799667358398 -13.67590045928955 L -12.64441967010498 -13.718719482421875 L -12.642800331115723 -13.719300270080566 L -12.40367603302002 -13.785806655883789 L -12.247405052185059 -13.829354286193848 L -11.024999618530273 -14.170000076293945 L -10.586316108703613 -16.384000778198242 L -10.300999641418457 -17.82396697998047 L -9.532999992370605 -21.700000762939453 L -8.001999855041504 -21.700000762939453 L -7.715000152587891 -21.700000762939453 L -4.692999839782715 -21.700000762939453 L -2.9519999027252197 -21.700000762939453 L -2.0202560424804688 -16.996999740600586 L -1.8988102674484253 -16.384000778198242 L -1.4579999446868896 -14.159000396728516 L -0.8867510557174683 -14.011287689208984 L 0 -13.722759246826172 L 0.2277444452047348 -13.648655891418457 L 0.5887638926506042 -13.539361000061035 L 0.9452999830245972 -13.431699752807617 L 1.0282000303268433 -13.399200439453125 L 1.1476975679397583 -13.349325180053711 L 2.0071089267730713 -12.990628242492676 L 2.406100034713745 -12.82409954071045 L 2.4803621768951416 -12.789542198181152 L 2.553299903869629 -12.755599975585938 L 3.1330695152282715 -12.438270568847656 L 3.645474672317505 -12.186902046203613 L 3.6525139808654785 -12.183448791503906 L 4.65500020980835 -11.614999771118164 L 4.721100807189941 -11.659235954284668 L 4.798284530639648 -11.710888862609863 L 6.8069281578063965 -13.055118560791016 L 7.148859024047852 -13.28394603729248 L 7.956595420837402 -13.824501037597656 L 8.09824275970459 -13.919295310974121 L 11.045999526977539 -15.892000198364258 L 14.31973648071289 -12.618263244628906 L 14.477859497070312 -12.460140228271484 L 15.699999809265137 -11.23799991607666 L 11.595915794372559 -5.106262683868408 L 11.559917449951172 -5.052479267120361 L 11.409000396728516 -4.827000141143799 L 11.698824882507324 -4.333457946777344 L 12.219669342041016 -3.309269905090332 L 12.464414596557617 -2.8505475521087646 L 12.56879997253418 -2.654900074005127 L 12.626924514770508 -2.508444309234619 L 13.254599571228027 -0.926900029182434 L 13.315600395202637 -0.7784000039100646 L 13.387100219726562 -0.5386000275611876 L 13.543251037597656 1.1102230246251565e-16 L 13.90999984741211 1.2649999856948853 L 16.384000778198242 1.7552306652069092 L 21.489999771118164 2.7669999599456787 L 21.489999771118164 4.192999839782715 L 21.489999771118164 7.5970001220703125 L 21.489999771118164 9.348999977111816 L 18.20344352722168 10 L 16.384000778198242 10.360395431518555 L 15.091574668884277 10.616397857666016 L 14.33477783203125 10.766304016113281 L 14.182873725891113 10.796393394470215 L 13.88700008392334 10.854999542236328 L 13.267184257507324 12.889915466308594 L 13.177000045776367 13.185999870300293 L 13.119500160217285 13.322600364685059 L 12.680299758911133 14.391799926757812 L 12.626227378845215 14.494444847106934 L 11.630816459655762 16.384000778198242 L 11.486000061035156 16.658899307250977 L 11.362000465393066 16.89299964904785 L 15.680999755859375 23.344999313354492 L 11.027000427246094 28 L 8.192000389099121 26.101964950561523 L 4.952126979827881 23.93286895751953 L 4.906793117523193 23.902517318725586 L 4.850086688995361 23.864551544189453 L 4.795364856719971 23.82791519165039 L 4.753890037536621 23.800148010253906 L 4.558000087738037 23.66900062561035 L 3.326594591140747 24.345258712768555 L 3.3260674476623535 24.345518112182617 L 2.3567678928375244 24.82544708251953 L 2.24780011177063 24.8794002532959 L 1.1330000162124634 25.35700035095215 L 0.9416218996047974 25.43075942993164 L 0.9409999847412109 25.430999755859375 L 0.9053999781608582 25.283000946044922 L 0.6323999762535095 24.152599334716797 L 0.6029019951820374 24.030832290649414 L 0.5856059789657593 23.959434509277344 M -7.767561435699463 -17.933876037597656 L -7.715000152587891 -17.835525512695312 L -7.647913932800293 -17.709999084472656 L -7.64552640914917 -17.70708465576172 L -7.609818458557129 -17.663494110107422 L -7.448041915893555 -17.466999053955078 L -7.401679039001465 -17.429044723510742 L -7.205783367156982 -17.26799964904785 L -7.203392505645752 -17.266714096069336 L -7.153115749359131 -17.23967742919922 L -6.928694248199463 -17.118999481201172 L -6.8719162940979 -17.101781845092773 L -6.627791404724121 -17.027999877929688 L -6.314699172973633 -16.996999740600586 L -6.256203651428223 -17.002809524536133 L -6.144000053405762 -17.01395606994629 L -6.002604007720947 -17.027999877929688 L -5.701511859893799 -17.118999481201172 L -5.65006160736084 -17.14666748046875 L -5.424421787261963 -17.26799964904785 L -5.42440128326416 -17.268016815185547 L -5.379493236541748 -17.304780960083008 L -5.182169437408447 -17.466999053955078 L -5.145498275756836 -17.51176643371582 L -4.982289791107178 -17.709999084472656 L -4.980737209320068 -17.712905883789062 L -4.955104351043701 -17.7608642578125 L -4.834248065948486 -17.98699951171875 L -4.743221759796143 -18.28700065612793 L -4.737546443939209 -18.34429931640625 L -4.728857040405273 -18.43199920654297 L -4.712210655212402 -18.600000381469727 L -4.7178826332092285 -18.65726661682129 L -4.743221759796143 -18.913000106811523 L -4.834248065948486 -19.21299934387207 L -4.8614020347595215 -19.263803482055664 L -4.982289791107178 -19.489999771118164 L -4.982320785522461 -19.49003791809082 L -5.0188775062561035 -19.534664154052734 L -5.182169437408447 -19.732999801635742 L -5.2270073890686035 -19.76970672607422 L -5.424421787261963 -19.93199920654297 L -5.426828384399414 -19.93329429626465 L -5.475712299346924 -19.95958137512207 L -5.701511859893799 -20.08099937438965 L -6.002604007720947 -20.172000885009766 L -6.060935020446777 -20.177793502807617 L -6.144000053405762 -20.186044692993164 L -6.314699172973633 -20.202999114990234 L -6.627791404724121 -20.172000885009766 L -6.684405326843262 -20.15483283996582 L -6.928694248199463 -20.08099937438965 L -6.929742813110352 -20.08043670654297 L -6.981204032897949 -20.052762985229492 L -7.205783367156982 -19.93199920654297 L -7.205803871154785 -19.931983947753906 L -7.252058029174805 -19.89411735534668 L -7.448041915893555 -19.732999801635742 L -7.486055850982666 -19.686594009399414 L -7.647913932800293 -19.489999771118164 L -7.649482250213623 -19.487085342407227 L -7.676469326019287 -19.436933517456055 L -7.715000152587891 -19.364837646484375 L -7.79614782333374 -19.21299934387207 L -7.887174129486084 -18.913000106811523 L -7.892941474914551 -18.852853775024414 L -7.917994976043701 -18.600000381469727 L -7.917591094970703 -18.595788955688477 L -7.912225246429443 -18.539831161499023 L -7.901541233062744 -18.43199920654297 L -7.887174129486084 -18.28700065612793 L -7.79614782333374 -17.98699951171875 L -7.767561435699463 -17.933876037597656 M -10.300999641418457 2.4700000286102295 L -7.715000152587891 2.4700000286102295 L -7.715000152587891 4.192999839782715 L -7.715000152587891 5.315000057220459 L -6.646635055541992 4.192999839782715 L -5.00600004196167 2.4700000286102295 L -1.6786127090454102 2.4700000286102295 L -1.565999984741211 2.4700000286102295 L -3.417527914047241 4.192999839782715 L 0 4.192999839782715 L 2.1619036197662354 4.192999839782715 L 2.136655330657959 4.0960001945495605 L 2.0993471145629883 3.952667236328125 L 1.9159213304519653 3.2774264812469482 L 1.9101393222808838 3.256141424179077 L 1.6772102117538452 2.6659035682678223 L 1.5860999822616577 2.432499885559082 L 1.5491957664489746 2.3605797290802 L 1.373740315437317 2.078540563583374 L 0.571040689945221 0.7882258892059327 L 0.46549999713897705 0.6223999857902528 L 0.44676673412323 0.5969538092613221 L 0.3896600604057312 0.5193834900856019 L 0.36419999599456787 0.48480001091957103 L 0.2367333322763443 0.3601999878883363 L 0.1793215274810791 0.3101255297660829 L 3.05179154927477e-17 0.15372157096862804 L -0.17624610662460327 1.1102230246251565e-16 L -1.5806666612625122 -1.224933385848999 L -1.7071000337600708 -1.3157999515533447 L -1.791599988937378 -1.3645333051681519 L -2.6660666465759277 -1.8368666172027588 L -2.8486154079437256 -1.9121934175491333 L -4.340883255004883 -2.374419927597046 L -4.520082473754883 -2.4299263954162598 L -4.657789707183838 -2.4712321758270264 L -5.323577880859375 -2.5560951232910156 L -5.725266456604004 -2.6033999919891357 L -5.86299991607666 -2.5971999168395996 L -6.04844331741333 -2.587877035140991 L -7.226778984069824 -2.528637170791626 L -7.613399982452393 -2.509200096130371 L -7.715000152587891 -2.4858100414276123 L -8.192000389099121 -2.3759970664978027 L -8.280599594116211 -2.355600118637085 L -8.571100234985352 -2.3078999519348145 L -8.67020034790039 -2.2799999713897705 L -9.16819953918457 -2.088599920272827 L -10.022747993469238 -1.7520262002944946 L -10.106599807739258 -1.718999981880188 L -10.300999641418457 -1.6047873497009277 L -10.644800186157227 -1.4027999639511108 L -11.019332885742188 -1.1925333738327026 L -11.026108741760254 -1.1883058547973633 L -11.076600074768066 -1.1568000316619873 L -11.607799530029297 -0.7599999904632567 L -11.772000312805176 -0.6355199813842772 L -11.836411476135254 -0.5649423003196715 L -11.891300201416016 -0.5048000216484069 L -11.939077377319336 -0.4670557975769042 L -12.405733108520508 1.1102230246251565e-16 L -12.789318084716797 0.3839128613471986 L -12.899469375610352 0.49415889382362377 L -13.400221824645996 1.1840298175811768 L -13.490599632263184 1.30239999294281 L -13.557533264160156 1.4058666229248047 L -14.21619987487793 2.692866563796997 L -14.276000022888184 2.8152999877929688 L -14.541500091552734 3.6298000812530518 L -14.576399803161621 3.7279999256134033 L -14.5829496383667 3.756958246231079 L -14.598699569702148 3.8266000747680664 L -14.643515586853027 4.081980228424072 L -14.665853500366211 4.192999839782715 L -14.66299819946289 4.192999839782715 L -10.300999641418457 4.192999839782715 L -10.300999641418457 2.4700000286102295 z"
       fill="none"
       stroke="rgb(0,0,255)"
       stroke-width="0.01mm"
       id="path6"
       style="stroke:#000000;stroke-opacity:1;stroke-width:0.1;stroke-miterlimit:4;stroke-dasharray:none" />
    <path
       inkscape:connector-curvature="0"
       style="fill:#000000;stroke:#000000;stroke-width:0.01mm;fill-opacity:1;stroke-opacity:1"
       d="M 12.751998,11 H 3.9999988 V 10 8.537 1 h 3.417999 V 8.537 H 12.751998 V 11 m -28.252,-10.061 V 11 h -2.249999 V 3.328 L -19.484002,11 h -1.899846 -0.136154 l -1.73,-7.672 V 11 h -2.25 V 0.939 h 2.25 1.363001 l 1.392999,6.122 1.383001,-6.122 h 1.900953 1.710046 M -4.6140022,10 l -1.764999,-3.097 -1.336,1.26 V 10 H -10.301001 V 2.47 h 2.5859998 v 2.845 l 2.709,-2.845 h 3.327388 0.112612 l -3.054,2.842 3.191,4.688 z"
       id="path6-3" />
  </g>
</svg>
