<?xml version="1.0" standalone="no"?>
<!DOCTYPE svg PUBLIC "-//W3C//DTD SVG 1.1//EN"
  "http://www.w3.org/Graphics/SVG/1.1/DTD/svg11.dtd">
<svg width="40.25199890136719mm" height="12.061000108718872mm" viewBox="-13.989999771118164 1.938999891281128 40.25199890136719 12.061000108718872" xmlns="http://www.w3.org/2000/svg" version="1.1">
	<title>svgOutput</title>
	<desc>made with tinkercad</desc>
<path d="M 25.261999130249023 13 L 16.510000228881836 13 L 16.510000228881836 12 L 16.510000228881836 10.536999702453613 L 16.510000228881836 3 L 19.92799949645996 3 L 19.92799949645996 10.536999702453613 L 25.261999130249023 10.536999702453613 L 25.261999130249023 13 M -2.990000009536743 2.938999891281128 L -2.990000009536743 13 L -5.239999771118164 13 L -5.239999771118164 5.328000068664551 L -6.973999977111816 13 L -8.873846054077148 13 L -9.010000228881836 13 L -10.739999771118164 5.328000068664551 L -10.739999771118164 13 L -12.989999771118164 13 L -12.989999771118164 2.938999891281128 L -10.739999771118164 2.938999891281128 L -9.376999855041504 2.938999891281128 L -7.984000205993652 9.060999870300293 L -6.60099983215332 2.938999891281128 L -4.700046062469482 2.938999891281128 L -2.990000009536743 2.938999891281128 M 7.895999908447266 12 L 6.13100004196167 8.902999877929688 L 4.795000076293945 10.163000106811523 L 4.795000076293945 12 L 2.2090001106262207 12 L 2.2090001106262207 4.46999979019165 L 4.795000076293945 4.46999979019165 L 4.795000076293945 7.315000057220459 L 7.504000186920166 4.46999979019165 L 10.831387519836426 4.46999979019165 L 10.944000244140625 4.46999979019165 L 7.889999866485596 7.311999797821045 L 11.081000328063965 12 L 7.895999908447266 12 z" fill="none" stroke="rgb(0,0,255)" stroke-width="0.01mm" />
</svg>