<?xml version="1.0" encoding="UTF-8" standalone="no"?>
<!-- Created with Inkscape (http://www.inkscape.org/) -->

<svg
   xmlns:dc="http://purl.org/dc/elements/1.1/"
   xmlns:cc="http://creativecommons.org/ns#"
   xmlns:rdf="http://www.w3.org/1999/02/22-rdf-syntax-ns#"
   xmlns:svg="http://www.w3.org/2000/svg"
   xmlns="http://www.w3.org/2000/svg"
   xmlns:sodipodi="http://sodipodi.sourceforge.net/DTD/sodipodi-0.dtd"
   xmlns:inkscape="http://www.inkscape.org/namespaces/inkscape"
   sodipodi:docname="Maker_Lugo_60mm_DXF_03.svg"
   inkscape:version="0.92.3 (2405546, 2018-03-11)"
   id="svg862"
   version="1.1"
   viewBox="0 0 59.626316 53.431629"
   height="53.431629mm"
   width="59.626316mm">
  <sodipodi:namedview
     inkscape:snap-global="false"
     inkscape:snap-bbox="true"
     borderlayer="true"
     inkscape:window-maximized="1"
     inkscape:window-y="27"
     inkscape:window-x="57"
     inkscape:window-height="1025"
     inkscape:window-width="1863"
     showgrid="false"
     inkscape:current-layer="g1416"
     inkscape:document-units="mm"
     inkscape:cy="100.83727"
     inkscape:cx="91.772694"
     inkscape:zoom="4"
     inkscape:pageshadow="2"
     inkscape:pageopacity="0.0"
     borderopacity="1.0"
     bordercolor="#666666"
     pagecolor="#ffffff"
     id="base"
     fit-margin-top="0"
     fit-margin-left="0"
     fit-margin-right="0"
     fit-margin-bottom="0">
    <inkscape:grid
       spacingx="2.54"
       spacingy="2.54"
       empspacing="1"
       type="xygrid"
       units="mm"
       id="grid1408"
       originx="-0.18490772"
       originy="-6.1749145" />
    <inkscape:grid
       spacingx="2.54"
       spacingy="2.54"
       empspacing="1"
       type="xygrid"
       units="mm"
       id="grid854"
       originx="-0.18490772"
       originy="-6.1749145" />
  </sodipodi:namedview>
  <defs
     id="defs856" />
  <metadata
     id="metadata859">
    <rdf:RDF>
      <cc:Work
         rdf:about="">
        <dc:format>image/svg+xml</dc:format>
        <dc:type
           rdf:resource="http://purl.org/dc/dcmitype/StillImage" />
        <dc:title></dc:title>
      </cc:Work>
    </rdf:RDF>
  </metadata>
  <g
     inkscape:label="[fixed] BG"
     inkscape:groupmode="layer"
     sodipodi:insensitive="true"
     id="g1414"
     transform="translate(-0.18490772,-0.39345584)">
    <rect
       x="0"
       y="0"
       width="99.5"
       height="99.5"
       style="fill:#ffffff;fill-opacity:1;stroke:none"
       id="rect1412" />
  </g>
  <g
     style="display:none"
     inkscape:label="BASE"
     id="layer2"
     inkscape:groupmode="layer"
     transform="translate(-0.18490772,-0.39345584)">
    <path
       style="fill:none;stroke:#000000;stroke-width:0.17615235;stroke-miterlimit:4;stroke-dasharray:none;stroke-opacity:1"
       id="path6"
       d="M 61.857348,84.946701 61.69564,84.277603 61.252264,82.443875 60.8258,80.680661 58.630043,71.602403 57.47436,66.824182 l -0.06183,-0.255544 -0.02132,-0.08843 -0.0053,-0.02325 0.132819,-0.07786 0.02043,-0.01233 0.37096,-0.261763 0.522397,-0.36534 0.70128,-0.483943 0.103049,-0.07856 0.146383,-0.111681 0.04175,-0.03188 0.228875,-0.210097 1.172487,-1.155137 0.199264,-0.196322 0.101464,-0.09988 0.376772,-0.44482 0.130353,-0.173686 0.88749,-1.182511 0.07099,-0.10622 0.09459,-0.15748 0.20416,-0.414522 0.248727,-0.536542 0.633532,-1.366572 0.423136,-0.912787 0.03734,-0.09812 0.1108,-0.365922 0.10622,-0.441437 0.252373,-1.048107 h -0.09213 -3.785055 -5.398471 l 2.881271,4.232941 h -5.610452 l -2.412371,-4.232941 -0.696718,-1.22248 -1.296235,1.22248 -1.05716,0.997022 V 60.35638 H 46.395983 42.68093 v -3.184817 -1.048124 h -7.735766 l 0.228875,1.048124 0.06711,0.307545 0.02537,0.109919 0.04175,0.180468 0.144269,0.389525 0.04545,0.122602 0.89149,2.13768 0.184414,0.344501 0.470133,0.695854 0.642603,0.999841 0.14973,0.172982 0.819408,0.94629 0.599992,0.657401 0.171925,0.150434 0.744966,0.651975 0.195229,0.163998 0.454227,0.325054 1.030227,0.676213 0.500889,0.340538 -1.223078,5.057351 -3.869486,15.9999 -0.642534,-0.254258 -0.615071,-0.280417 -2.131549,-0.906251 -1.905968,-1.04675 -1.263012,-0.693635 -11.368873,7.609781 -8.19813,-8.198112 7.597451,-11.351275 -0.497138,-0.878983 -0.507882,-0.898007 -0.453821,-0.931053 -0.625042,-1.160263 -0.400024,-0.942784 -0.341929,-0.80588 -0.10851,-0.260159 -0.05038,-0.144797 -0.688051,-1.896104 -0.118727,-0.422537 -0.08614,-0.306417 -0.568567,-2.024325 -0.167873,-0.03329 -0.07539,-0.01409 L 3.1046391,59.594485 0.93444223,59.164444 v -3.040425 -5.996225 -2.555971 l 2.17019687,-0.429829 11.1610129,-2.210677 0.405714,-1.498299 0.228099,-0.691275 0.255298,-0.773731 0.190421,-0.634624 0.187532,-0.626909 0.145325,-0.341207 0.684475,-1.65703 0.31748,-0.768588 0.147792,-0.273741 0.437298,-0.810248 0.215593,-0.442512 0.229579,-0.47126 0.992707,-1.764677 -0.07698,-0.115027 -0.161003,-0.240466 -0.05196,-0.07768 -2.249518,-3.36141 -0.391358,-0.584808 -4.606824,-6.88384 8.19813,-8.196369 11.249089,7.528752 1.35285,-0.763092 0.417992,-0.235762 0.917471,-0.447656 1.15903,-0.623104 0.04122,-0.01761 0.155366,-0.06535 0.460973,-0.180415 3.225015,-1.262273 0.210291,-0.07539 0.0035,-0.001 0.421233,-0.117141 0.275273,-0.0768 2.153286,-0.600045 0.772763,-3.900031 0.50258,-2.536524 1.35285,-6.8277359 h 2.696893 0.505557 5.323324 3.066812 l 1.6413,8.2844639 0.213919,1.079796 0.776497,3.919408 1.006271,0.260194 1.562066,0.508323 0.401187,0.130529 0.635927,0.192535 0.628054,0.189645 0.14603,0.05725 0.210502,0.0879 1.513871,0.631859 0.70283,0.293346 0.130882,0.06095 0.128415,0.05972 1.021278,0.558966 0.902622,0.442794 0.01233,0.007 1.76591,1.001338 0.116436,-0.07786 0.13599,-0.09107 3.538266,-2.367892 0.602318,-0.403073 1.422853,-0.952209 0.249502,-0.166992 5.192549,-3.475063 5.766752,5.76677 0.27855,0.278532 2.152828,2.152829 -7.229433,10.801203 -0.06342,0.09477 -0.265849,0.397189 0.510525,0.869382 0.917489,1.804135 0.431115,0.808046 0.183886,0.344642 0.102344,0.257993 1.105656,2.785919 0.107453,0.261587 0.125949,0.422413 0.275061,0.948756 0.646039,2.228328 4.358009,0.863551 8.994339,1.782257 v 2.511932 5.996226 3.086189 l -5.789317,1.146752 -3.204987,0.634853 -2.276645,0.45095 -1.333121,0.26407 -0.267576,0.05302 -0.521182,0.103225 -1.091827,3.584542 -0.15889,0.52157 -0.101287,0.240624 -0.773661,1.883421 -0.0953,0.180802 -1.753438,3.328505 -0.255104,0.484242 -0.218429,0.412373 7.60802,11.365349 -8.19813,8.199892 -4.993919,-3.343442 -5.707107,-3.820903 -0.0798,-0.05355 -0.09988,-0.06694 -0.09636,-0.06447 -0.0731,-0.04897 -0.345065,-0.231024 -2.169157,1.191248 -9.34e-4,4.58e-4 -1.707445,0.845408 -0.191935,0.09512 -1.963747,0.841304 -0.33712,0.13 -9.34e-4,4.23e-4 -0.06271,-0.260705 -0.480896,-1.991227 -0.05197,-0.2145 -0.03047,-0.125773 m -14.714413,-73.796062 0.09266,0.173334 0.118198,0.221124 0.0035,0.0053 0.06289,0.0768 0.284979,0.346139 0.08174,0.06676 0.345065,0.283676 0.0035,0.0018 0.0886,0.04756 0.395321,0.212581 0.100055,0.0303 0.430041,0.13 0.551515,0.05461 0.103049,-0.01057 0.197661,-0.01973 0.249062,-0.02466 0.530394,-0.160299 0.09072,-0.04879 0.39747,-0.213726 3.5e-5,-3.5e-5 0.07909,-0.06482 0.347583,-0.285754 0.06465,-0.07892 0.287498,-0.349186 0.0035,-0.0053 0.04509,-0.08455 0.212897,-0.398351 0.160299,-0.528458 0.01057,-0.100935 0.01585,-0.154486 0.02924,-0.2959357 -0.01057,-0.100935 -0.04474,-0.4504744 -0.160298,-0.5284571 -0.04791,-0.089485 -0.21295,-0.3984566 -5.3e-5,-7.04e-5 -0.06447,-0.078564 -0.287639,-0.3493629 -0.07892,-0.064648 -0.34776,-0.2858953 -0.0035,-0.00176 -0.08614,-0.046328 -0.397752,-0.2138666 -0.530377,-0.1602986 -0.102697,-0.010569 -0.146382,-0.014092 -0.300693,-0.029946 -0.551515,0.054607 -0.0997,0.030298 -0.430323,0.1300004 -0.0018,9.865e-4 -0.09072,0.048794 -0.395603,0.2127216 -3.5e-5,3.52e-5 -0.08156,0.066762 -0.345224,0.2837991 -0.06694,0.081735 -0.28512,0.3463155 -0.0035,0.00528 -0.04756,0.088428 -0.06782,0.1270059 -0.142859,0.2674697 -0.160299,0.528457 -0.01057,0.1058676 -0.04404,0.4454014 7.05e-4,0.007 0.0088,0.09864 0.01885,0.189945 0.02537,0.255421 0.160299,0.528457 0.05038,0.09354 m -4.462506,35.94199 h 4.5553 v 3.035105 1.976429 l 1.881941,-1.976429 2.890026,-3.035105 h 5.861258 0.198383 l -3.261514,3.035105 h 6.02006 3.808237 l -0.04439,-0.170868 -0.0657,-0.252479 -0.323116,-1.189451 -0.01057,-0.03752 -0.410312,-1.039721 -0.160475,-0.41114 -0.065,-0.126653 -0.309059,-0.49682 -1.413975,-2.272929 -0.185911,-0.292096 -0.03294,-0.04474 -0.100583,-0.136694 -0.04474,-0.06095 -0.224541,-0.219486 -0.101111,-0.08825 -0.315877,-0.27552 -0.310468,-0.270781 -2.473919,-2.157743 -0.222709,-0.160123 -0.148849,-0.08579 -1.5404,-0.832038 -0.321566,-0.132643 -2.628668,-0.814211 -0.315665,-0.09776 -0.242562,-0.07275 -1.172805,-0.149554 -0.707586,-0.08332 -0.242615,0.01057 -0.326674,0.01585 -2.075656,0.104282 -0.681041,0.03417 -0.17897,0.04122 -0.840247,0.193433 -0.156071,0.03594 -0.51174,0.08403 -0.174567,0.04915 -0.877221,0.337155 -1.50531,0.592876 -0.147616,0.05813 -0.34244,0.201202 -0.605612,0.355792 -0.659761,0.370396 -0.01233,0.007 -0.08896,0.05549 -0.935722,0.698972 -0.289242,0.219275 -0.113442,0.124363 -0.09671,0.105868 -0.0842,0.06641 -0.82198,0.822737 -0.675685,0.676267 -0.194032,0.194208 -0.8821,1.215222 -0.159242,0.208512 -0.117846,0.182247 -1.160245,2.26708 -0.105339,0.215681 -0.467685,1.434761 -0.06148,0.172982 -0.01233,0.05108 -0.02783,0.122602 -0.07892,0.449858 -0.03928,0.195564 h 0.0053 7.683765 z"
       inkscape:connector-curvature="0" />
  </g>
  <g
     inkscape:groupmode="layer"
     id="g1029"
     inkscape:label="BASE copy"
     style="display:inline"
     transform="translate(-0.18490772,-0.39345584)" />
  <g
     style="display:inline"
     inkscape:label="Edge.Cuts"
     inkscape:groupmode="layer"
     id="g1416"
     transform="translate(-0.18490772,-0.39345584)">
    <path
       inkscape:connector-curvature="0"
       d="m 37.334907,49.421626 -0.09846,-0.407417 -0.269975,-1.11657 -0.259677,-1.073633 -1.337011,-5.527813 -0.04398,-0.181843 -0.04398,-0.181843 -0.04398,-0.181844 -0.04398,-0.181843 -0.04398,-0.181843 -0.04398,-0.181843 -0.04398,-0.181843 -0.04398,-0.181844 -0.04398,-0.181843 -0.04398,-0.181843 -0.04398,-0.181843 -0.04398,-0.181843 -0.04398,-0.181843 -0.04398,-0.181844 -0.04398,-0.181843 -0.04398,-0.181843 -0.0024,-0.0097 -0.0024,-0.0097 -0.0024,-0.0097 -0.0024,-0.0097 -0.0024,-0.0097 -0.0024,-0.0097 -0.0024,-0.0097 -0.0024,-0.0097 -0.0024,-0.0097 -0.0024,-0.0097 -0.0024,-0.0097 -0.0024,-0.0097 -0.0024,-0.0097 -0.0024,-0.0097 -0.0024,-0.0097 -0.0024,-0.0097 c 0.127144,-0.09087 0.2526,-0.183022 0.376239,-0.276545 0.123639,-0.09352 0.245462,-0.188418 0.365342,-0.284778 0.119881,-0.09636 0.237818,-0.194183 0.353685,-0.293563 0.115868,-0.09938 0.229666,-0.200316 0.341267,-0.3029 0.111601,-0.102584 0.221005,-0.206817 0.328086,-0.31279 0.10708,-0.105973 0.211837,-0.213687 0.314144,-0.323232 0.102306,-0.109546 0.202162,-0.220924 0.29944,-0.334227 0.09728,-0.113302 0.19198,-0.228529 0.283977,-0.345773 0.092,-0.117243 0.181289,-0.236503 0.26775,-0.357872 0.08646,-0.121368 0.170091,-0.244845 0.250763,-0.370523 0.08067,-0.125677 0.158385,-0.253555 0.233014,-0.383726 0.07463,-0.13017 0.146172,-0.262634 0.214503,-0.397482 0.06833,-0.134847 0.133451,-0.27208 0.195232,-0.411789 0.06178,-0.139709 0.120223,-0.281895 0.175199,-0.42665 0.05498,-0.144755 0.106486,-0.292078 0.154404,-0.442062 0.04792,-0.149984 0.09224,-0.302629 0.132848,-0.458027 l 0.0096,-0.03989 0.0096,-0.03989 0.0096,-0.03989 0.0096,-0.03989 0.0096,-0.03989 0.0096,-0.03989 0.0096,-0.03989 0.0096,-0.03989 0.0096,-0.03989 0.0096,-0.03989 0.0096,-0.03989 0.0096,-0.03989 0.0096,-0.03989 0.0096,-0.03989 0.0096,-0.03989 0.0096,-0.03989 h -0.0035 -0.0035 -0.0035 -0.0035 -0.0035 -0.0035 -0.0035 -0.0035 -0.0035 -0.0035 -0.0035 -0.0035 -0.0035 -0.0035 -0.0035 -0.0035 H 38.867858 38.723812 38.579765 38.435719 38.291672 38.147626 38.003579 37.859532 37.715486 37.571439 37.427393 37.283346 37.1393 36.995253 36.851207 36.70716 36.501712 36.296264 36.090817 35.885369 35.679921 35.474473 35.269025 35.063577 34.85813 34.652682 34.447234 34.241786 34.036338 33.830891 33.625443 33.419995 l 0.109652,0.161092 0.109651,0.161091 0.109652,0.161092 0.109651,0.161092 0.109652,0.161091 0.109651,0.161092 0.109652,0.161092 0.109651,0.161091 0.109652,0.161092 0.109652,0.161092 0.109651,0.161092 0.109652,0.161091 0.109651,0.161092 0.109652,0.161092 0.109651,0.161091 0.109652,0.161092 H 34.960903 34.747386 34.53387 34.320353 34.106836 33.893319 33.679803 33.466286 33.252769 33.039252 32.825736 32.612219 32.398702 32.185185 31.971669 31.758152 l -0.09181,-0.16109 -0.09181,-0.16109 -0.09181,-0.16109 -0.09181,-0.161091 -0.09181,-0.16109 -0.09181,-0.16109 -0.09181,-0.16109 -0.09181,-0.16109 -0.09181,-0.16109 -0.09181,-0.16109 -0.09181,-0.16109 -0.09181,-0.161091 -0.09181,-0.16109 -0.09181,-0.16109 -0.09181,-0.16109 -0.09181,-0.16109 -0.02651,-0.04652 -0.02651,-0.04652 -0.02651,-0.04652 -0.02651,-0.04652 -0.02651,-0.04652 -0.02651,-0.04652 -0.02651,-0.04652 -0.02651,-0.04652 -0.02651,-0.04652 -0.02651,-0.04652 -0.02651,-0.04652 -0.02651,-0.04652 -0.02651,-0.04652 -0.02651,-0.04652 -0.02651,-0.04652 -0.02651,-0.04652 -0.04933,0.04652 -0.04933,0.04652 -0.04933,0.04652 -0.04933,0.04652 -0.04933,0.04652 -0.04933,0.04652 -0.04933,0.04652 -0.04933,0.04652 -0.04933,0.04652 -0.04933,0.04652 -0.04933,0.04652 -0.04933,0.04652 -0.04933,0.04652 -0.04933,0.04652 -0.04933,0.04652 -0.04933,0.04652 -0.04023,0.03794 -0.04023,0.03794 -0.04023,0.03794 -0.04023,0.03794 -0.04023,0.03794 -0.04023,0.03794 -0.04023,0.03794 -0.04023,0.03794 -0.04023,0.03794 -0.04023,0.03794 -0.04023,0.03794 -0.04023,0.03794 -0.04023,0.03794 -0.04023,0.03794 -0.04023,0.03794 -0.04023,0.03794 v 0.123148 0.123149 0.123148 0.123148 0.123149 0.123148 0.123149 0.123148 0.123148 0.123149 0.123148 0.123148 0.123149 0.123148 0.123149 0.123148 h -0.03198 -0.03198 -0.03198 -0.03198 -0.03198 -0.03198 -0.03198 -0.03198 -0.03198 -0.03198 -0.03198 -0.03198 -0.03198 -0.03198 -0.03198 -0.03198 H 27.778995 27.637613 27.49623 27.354848 27.213465 27.072083 26.9307 26.789317 26.647935 26.506552 26.36517 26.223787 26.082405 25.941022 25.79964 25.658257 V 34.327247 34.206041 34.084835 33.963629 33.842423 33.721217 33.600011 33.478805 33.3576 33.236394 33.115188 32.993982 32.872776 32.75157 v -0.121206 -0.121206 -0.03989 -0.03989 -0.03989 -0.03989 -0.03989 -0.03989 -0.03989 -0.03989 -0.03989 -0.03989 -0.03989 -0.03989 -0.03989 -0.03989 -0.03989 -0.03989 h -0.294398 -0.294397 -0.294398 -0.294397 -0.294398 -0.294397 -0.294398 -0.294397 -0.294398 -0.294397 -0.294398 -0.294397 -0.294398 -0.294397 -0.294398 -0.294397 c 0.0175,0.108642 0.03778,0.216941 0.06067,0.324798 0.02289,0.107857 0.04839,0.215271 0.07631,0.322142 0.02793,0.106871 0.05829,0.213198 0.09091,0.318881 0.03262,0.105683 0.0675,0.210722 0.104455,0.315017 0.03696,0.104294 0.076,0.207843 0.116947,0.310547 0.04095,0.102703 0.0838,0.204561 0.128388,0.305473 0.04459,0.100912 0.0909,0.200877 0.138777,0.299796 0.04787,0.09892 0.0973,0.19679 0.148113,0.293513 0.05081,0.09672 0.103002,0.1923 0.156399,0.286627 0.0534,0.09433 0.108,0.187407 0.163633,0.279136 0.05563,0.09173 0.112296,0.182111 0.169814,0.271041 0.05752,0.08893 0.115892,0.176412 0.174945,0.262342 0.05905,0.08593 0.118786,0.17031 0.179024,0.253038 0.06024,0.08273 0.120979,0.163805 0.18205,0.243129 0.06107,0.07932 0.122472,0.156898 0.184026,0.232618 0.06155,0.07572 0.123262,0.149586 0.184949,0.2215 0.03381,0.04126 0.06824,0.0818 0.103254,0.121652 0.03501,0.03986 0.07061,0.07903 0.106745,0.117564 0.03614,0.03853 0.07282,0.07643 0.110012,0.113729 0.03719,0.0373 0.07489,0.074 0.113059,0.110151 0.03817,0.03615 0.07681,0.07174 0.115882,0.106825 0.03907,0.03508 0.07858,0.06965 0.118484,0.103756 0.0399,0.0341 0.0802,0.06773 0.120862,0.10094 0.04066,0.03321 0.08168,0.06598 0.123018,0.09838 0.04134,0.0324 0.08301,0.06441 0.124953,0.09607 0.04195,0.03167 0.08418,0.063 0.126664,0.09402 0.04248,0.03103 0.08521,0.06176 0.128154,0.09223 0.04294,0.03047 0.08609,0.06069 0.12942,0.09069 0.04333,0.03 0.08683,0.05978 0.130465,0.0894 0.04364,0.02961 0.08741,0.05906 0.131287,0.08837 0.04387,0.02931 0.08785,0.05849 0.131887,0.08759 0.04404,0.0291 0.08814,0.0581 0.132264,0.08707 l 0.01906,0.01296 0.01906,0.01296 0.01906,0.01296 0.01906,0.01296 0.01906,0.01296 0.01906,0.01296 0.01906,0.01296 0.01906,0.01296 0.01906,0.01296 0.01906,0.01296 0.01906,0.01296 0.01906,0.01296 0.01906,0.01296 0.01906,0.01296 0.01906,0.01296 0.01906,0.01296 -0.04655,0.192466 -0.04655,0.192466 -0.04655,0.192466 -0.04655,0.192466 -0.04655,0.192466 -0.04655,0.192466 -0.04655,0.192466 -0.04655,0.192466 -0.04655,0.192466 -0.04655,0.192466 -0.04655,0.192466 -0.04655,0.192466 -0.04655,0.192466 -0.04655,0.192466 -0.04655,0.192466 -0.04655,0.192466 -2.356157,9.742447 -0.391243,-0.15482 -0.374522,-0.170741 -1.297914,-0.551822 -1.160557,-0.637374 -0.769056,-0.422358 -6.922584,4.633646 -4.9919,-4.991889 4.62614,-6.911868 L 10.773472,41.295786 10.464219,40.748983 10.187885,40.182059 9.8072917,39.475567 9.563715,38.901499 9.3555116,38.410794 9.2894392,38.252381 9.2587624,38.164213 8.8398036,37.009663 8.7675099,36.752377 8.7150586,36.565797 8.3688543,35.333172 8.2666354,35.312902 8.2207299,35.304322 1.5599854,33.984491 0.2385379,33.722636 v -1.851335 -3.651142 -1.556348 l 1.3214475,-0.261726 6.7960162,-1.346096 0.247042,-0.912325 0.138891,-0.420921 0.1554526,-0.47113 0.1159487,-0.386428 0.1141895,-0.381728 0.088489,-0.207763 0.4167814,-1.008978 0.1933159,-0.467998 0.08999,-0.166682 0.2662743,-0.493366 0.131276,-0.269448 0.139791,-0.286954 0.604467,-1.074524 -0.04688,-0.07004 -0.09804,-0.146422 -0.03164,-0.0473 -1.3697445,-2.046786 -0.2383007,-0.356093 -2.8051262,-4.191617 4.9918974,-4.9908239 6.849646,4.5843069 0.823759,-0.464651 0.254518,-0.143557 0.558655,-0.272581 0.705741,-0.3794124 0.0251,-0.010725 0.0946,-0.039793 0.280689,-0.1098559 1.963733,-0.7686062 0.128049,-0.045907 0.0021,-6.084e-4 0.256492,-0.071333 0.167615,-0.046765 1.31115,-0.3653716 0.470541,-2.3747552 0.306025,-1.5445069 0.823759,-4.15745438 h 1.642156 0.307837 3.241409 1.867402 l 0.999399,5.04446598 0.130256,0.6574953 0.472815,2.386554 0.612725,0.158434 0.951152,0.3095209 0.244286,0.079475 0.38722,0.1172354 0.382426,0.1154758 0.08892,0.034859 0.128175,0.053525 0.921807,0.3847435 0.427958,0.1786202 0.0797,0.037109 0.07819,0.03636 0.621863,0.340359 0.549613,0.269619 0.0075,0.0042 1.075275,0.609721 0.0709,-0.04741 0.08281,-0.05545 2.154474,-1.4418244 0.366755,-0.2454341 0.866385,-0.5798066 0.151923,-0.1016824 3.161779,-2.1159888 3.511414,3.5114233 0.169611,0.1696 1.310872,1.310872 -4.402051,6.576925 -0.03861,0.0577 -0.161878,0.241852 0.310863,0.529373 0.558665,1.098549 0.262509,0.492025 0.11197,0.209855 0.06231,0.157093 0.67324,1.696365 0.06543,0.159283 0.07669,0.257209 0.167486,0.577704 0.393377,1.356845 2.653621,0.525821 5.476715,1.085229 v 1.529533 3.651142 1.879201 l -3.525155,0.698265 -1.951537,0.386567 -1.386265,0.274585 -0.811747,0.160794 -0.162929,0.03229 -0.31735,0.06286 -0.664822,2.182651 -0.09675,0.317588 -0.06168,0.146517 -0.471086,1.146828 -0.05803,0.110092 -1.067681,2.026749 -0.155334,0.294858 -0.133004,0.251097 4.632575,6.920438 -4.991896,4.992969 -3.040831,-2.035845 -3.475096,-2.326573 -0.04859,-0.03261 -0.06082,-0.04076 -0.05867,-0.03926 -0.04451,-0.02981 -0.210112,-0.140673 -1.320815,0.72536 -5.68e-4,2.78e-4 -1.039675,0.514775 -0.116871,0.05792 -1.195739,0.512275 -0.205274,0.07916 -5.68e-4,2.59e-4 -0.03819,-0.158746 -0.292821,-1.212471 -0.03164,-0.130611 -0.01855,-0.07658"
       id="path1027"
       style="display:inline;fill:none;stroke:#000000;stroke-width:0.10726036;stroke-miterlimit:4;stroke-dasharray:none;stroke-opacity:1"
       sodipodi:nodetypes="cccccccccccccccccccccccccccccccccccccssssssssssssssscccccccccccccccccccccccccccccccccccccccccccccccccccccccccccccccccccccccccccccccccccccccccccccccccccccccccccccccccccccccccccccccccccccccccccccccccccccccccccccccccccccccccccccccccccccccccccccccccccccccccccccccccccccccccccccccccccccccccccccccccccccccccccccccccssssssssssssssscssssssssssssssscccccccccccccccccccccccccccccccccccccccccccccccccccccccccccccccccccccccccccccccccccccccccccccccccccccccccccccccccccccccccccccccccccccccccccccccccccccccccccccccccccccccccccccccccccccccc" />
    <path
       style="display:inline;fill:none;stroke:#000000;stroke-width:0.107;stroke-miterlimit:4;stroke-dasharray:none;stroke-opacity:1"
       id="path1032"
       d="m 25.658093,26.372101 h 0.08668 0.08668 0.08668 0.08668 0.08668 0.08668 0.08668 0.08668 0.08668 0.08668 0.08668 0.08668 0.08668 0.08668 0.08668 0.08668 0.08668 0.08668 0.08668 0.08668 0.08668 0.08668 0.08668 0.08668 0.08668 0.08668 0.08668 0.08668 0.08668 0.08668 0.08668 0.08668 v 0.05775 0.05775 0.05775 0.05775 0.05775 0.05775 0.05775 0.05775 0.05775 0.05775 0.05775 0.05775 0.05775 0.05775 0.05775 0.05775 0.05775 0.05775 0.05775 0.05775 0.05775 0.05775 0.05775 0.05775 0.05775 0.05775 0.05775 0.05775 0.05775 0.05775 0.05775 0.05775 0.03761 0.03761 0.03761 0.03761 0.03761 0.03761 0.03761 0.03761 0.03761 0.03761 0.03761 0.03761 0.03761 0.03761 0.03761 0.03761 0.03761 0.03761 0.03761 0.03761 0.03761 0.03761 0.03761 0.03761 0.03761 0.03761 0.03761 0.03761 0.03761 0.03761 0.03761 0.03761 l 0.03581,-0.03761 0.03581,-0.03761 0.03581,-0.03761 0.03581,-0.03761 0.03581,-0.03761 0.03581,-0.03761 0.03581,-0.03761 0.03581,-0.03761 0.03581,-0.03761 0.03581,-0.03761 0.03581,-0.03761 0.03581,-0.03761 0.03581,-0.03761 0.03581,-0.03761 0.03581,-0.03761 0.03581,-0.03761 0.03581,-0.03761 0.03581,-0.03761 0.03581,-0.03761 0.03581,-0.03761 0.03581,-0.03761 0.03581,-0.03761 0.03581,-0.03761 0.03581,-0.03761 0.03581,-0.03761 0.03581,-0.03761 0.03581,-0.03761 0.03581,-0.03761 0.03581,-0.03761 0.03581,-0.03761 0.03581,-0.03761 0.03581,-0.03761 0.05499,-0.05775 0.05499,-0.05775 0.05499,-0.05775 0.05499,-0.05775 0.05499,-0.05775 0.05499,-0.05775 0.05499,-0.05775 0.05499,-0.05775 0.05499,-0.05775 0.05499,-0.05775 0.05499,-0.05775 0.05499,-0.05775 0.05499,-0.05775 0.05499,-0.05775 0.05499,-0.05775 0.05499,-0.05775 0.05499,-0.05775 0.05499,-0.05775 0.05499,-0.05775 0.05499,-0.05775 0.05499,-0.05775 0.05499,-0.05775 0.05499,-0.05775 0.05499,-0.05775 0.05499,-0.05775 0.05499,-0.05775 0.05499,-0.05775 0.05499,-0.05775 0.05499,-0.05775 0.05499,-0.05775 0.05499,-0.05775 0.05499,-0.05775 h 0.11153 0.11153 0.11153 0.11153 0.11153 0.11153 0.11153 0.11153 0.11153 0.11153 0.11153 0.11153 0.11153 0.11153 0.11153 0.111529 0.11153 0.11153 0.11153 0.11153 0.11153 0.11153 0.11153 0.11153 0.11153 0.11153 0.11153 0.11153 0.11153 0.11153 0.11153 0.11153 0.0038 0.0038 0.0038 0.0038 0.0038 0.0038 0.0038 0.0038 0.0038 0.0038 0.0038 0.0038 0.0038 0.0038 0.0038 0.0038 0.0038 0.0038 0.0038 0.0038 0.0038 0.0038 0.0038 0.0038 0.0038 0.0038 0.0038 0.0038 0.0038 0.0038 0.0038 0.0038 l -0.06206,0.05775 -0.06206,0.05775 -0.06206,0.05775 -0.06206,0.05775 -0.06206,0.05775 -0.06206,0.05775 -0.06206,0.05775 -0.06206,0.05775 -0.06206,0.05775 -0.06206,0.05775 -0.06206,0.05775 -0.06206,0.05775 -0.06206,0.05775 -0.06206,0.05775 -0.06206,0.05775 -0.06206,0.05775 -0.06206,0.05775 -0.06206,0.05775 -0.06206,0.05775 -0.06206,0.05775 -0.06206,0.05775 -0.06206,0.05775 -0.06206,0.05775 -0.06206,0.05775 -0.06206,0.05775 -0.06206,0.05775 -0.06206,0.05775 -0.06206,0.05775 -0.06206,0.05775 -0.06206,0.05775 -0.06206,0.05775 -0.06206,0.05775 h 0.114552 0.114551 0.114552 0.114552 0.114551 0.114552 0.114552 0.114552 0.114551 0.114552 0.114552 0.114551 0.114552 0.114552 0.114551 0.114552 0.114552 0.114551 0.114552 0.114552 0.114551 0.114552 0.114552 0.114552 0.114551 0.114552 0.114552 0.114551 0.114552 0.114552 0.114551 0.114552 0.07246 0.07247 0.07246 0.07247 0.07246 0.07246 0.07247 0.07246 0.07247 0.07246 0.07246 0.07246 0.07246 0.07247 0.07246 0.07247 0.07246 0.07246 0.07247 0.07246 0.07247 0.07246 0.07246 0.07247 0.07246 0.07246 0.07246 0.07246 0.07247 0.07246 0.07247 0.07246 c -0.0072,-0.04172 -0.01493,-0.0834 -0.02326,-0.125028 -0.0083,-0.04163 -0.01722,-0.0832 -0.02665,-0.124712 -0.0094,-0.04151 -0.01941,-0.08297 -0.0299,-0.124357 -0.01049,-0.04139 -0.0215,-0.08271 -0.033,-0.123963 -0.0115,-0.04125 -0.0235,-0.08243 -0.03596,-0.12353 -0.01246,-0.0411 -0.0254,-0.08212 -0.03877,-0.12306 -0.01338,-0.04094 -0.0272,-0.08179 -0.04144,-0.122549 -0.01424,-0.04076 -0.0289,-0.08143 -0.04396,-0.122001 -0.01506,-0.04057 -0.03051,-0.08104 -0.04634,-0.121414 -0.01583,-0.04037 -0.03202,-0.08063 -0.04857,-0.120787 -0.01654,-0.04015 -0.03344,-0.0802 -0.05065,-0.120123 -0.01722,-0.03993 -0.03475,-0.07973 -0.05259,-0.119419 -0.01784,-0.03969 -0.03598,-0.07925 -0.05439,-0.118677 -0.01841,-0.03943 -0.0371,-0.07873 -0.05604,-0.117896 -0.01894,-0.03916 -0.03813,-0.07819 -0.05754,-0.117076 -0.01941,-0.03889 -0.03905,-0.07763 -0.0589,-0.116218 -0.01984,-0.03859 -0.03989,-0.07703 -0.06011,-0.115321 -0.02022,-0.03829 -0.04062,-0.07642 -0.06118,-0.114385 -0.02056,-0.03797 -0.04127,-0.07577 -0.0621,-0.11341 -0.02084,-0.03764 -0.04181,-0.07511 -0.06288,-0.112397 -0.02107,-0.03729 -0.04225,-0.07441 -0.06351,-0.111346 -0.02126,-0.03693 -0.0426,-0.07369 -0.064,-0.110254 -0.0214,-0.03656 -0.04285,-0.07294 -0.06434,-0.109125 -0.02149,-0.03618 -0.04301,-0.07217 -0.06454,-0.107957 -0.02153,-0.03579 -0.04307,-0.07137 -0.06459,-0.10675 -0.02152,-0.03538 -0.04303,-0.07055 -0.0645,-0.105505 -0.02147,-0.03496 -0.04289,-0.0697 -0.06426,-0.10422 -0.02136,-0.03452 -0.04266,-0.06882 -0.06387,-0.102897 -0.02121,-0.03407 -0.04233,-0.06792 -0.06334,-0.101535 -0.02101,-0.03361 -0.04191,-0.06699 -0.06267,-0.100135 -0.02076,-0.03314 -0.04138,-0.06604 -0.06185,-0.0987 -0.02046,-0.03266 -0.04076,-0.06506 -0.06088,-0.09722 -0.02035,-0.03075 -0.04111,-0.06132 -0.06225,-0.09171 -0.02114,-0.03039 -0.04268,-0.06059 -0.06458,-0.09062 -0.0219,-0.03002 -0.04417,-0.05986 -0.06678,-0.08952 -0.02261,-0.02965 -0.04557,-0.05912 -0.06886,-0.0884 -0.02329,-0.02928 -0.0469,-0.05836 -0.07082,-0.08726 -0.02392,-0.02889 -0.04814,-0.0576 -0.07265,-0.0861 -0.02451,-0.02851 -0.04931,-0.05682 -0.07436,-0.08493 -0.02506,-0.02811 -0.05038,-0.05603 -0.07595,-0.08374 -0.02557,-0.02771 -0.05138,-0.05523 -0.07741,-0.08253 -0.02604,-0.02731 -0.05229,-0.05441 -0.07875,-0.08131 -0.02646,-0.0269 -0.05312,-0.05359 -0.07997,-0.08006 -0.02685,-0.02648 -0.05387,-0.05275 -0.08106,-0.0788 -0.02719,-0.02606 -0.05454,-0.0519 -0.08203,-0.07753 -0.02749,-0.02563 -0.05512,-0.05104 -0.08288,-0.07623 -0.02775,-0.02519 -0.05563,-0.05016 -0.0836,-0.07491 -0.02797,-0.02475 -0.05605,-0.04928 -0.0842,-0.07358 -0.02815,-0.0243 -0.05638,-0.04838 -0.08467,-0.07223 -0.02829,-0.02385 -0.05664,-0.04747 -0.08503,-0.07087 -0.02839,-0.02339 -0.05681,-0.04656 -0.08525,-0.06948 -0.02844,-0.02293 -0.0569,-0.04562 -0.08536,-0.06808 -0.02846,-0.02246 -0.05691,-0.04468 -0.08534,-0.06666 -0.02843,-0.02198 -0.05684,-0.04372 -0.0852,-0.06522 -0.02836,-0.0215 -0.05668,-0.04276 -0.08493,-0.06377 -0.02825,-0.02101 -0.05644,-0.04178 -0.08455,-0.0623 -0.0281,-0.02052 -0.05612,-0.04079 -0.08403,-0.06081 -0.02791,-0.02002 -0.05572,-0.03979 -0.0834,-0.0593 -0.02768,-0.01951 -0.05523,-0.03877 -0.08264,-0.05777 -0.02741,-0.019 -0.05466,-0.03775 -0.08176,-0.05623 -0.02709,-0.01849 -0.05401,-0.03671 -0.08075,-0.05467 -0.02674,-0.01796 -0.05328,-0.03566 -0.07962,-0.05309 -0.02634,-0.01743 -0.05247,-0.0346 -0.07836,-0.05149 -0.0259,-0.0169 -0.05157,-0.03353 -0.07699,-0.04988 -0.04275,-0.02454 -0.08555,-0.04868 -0.128404,-0.07243 -0.04286,-0.02375 -0.08577,-0.0471 -0.128728,-0.07006 -0.04296,-0.02296 -0.08598,-0.04554 -0.129043,-0.06773 -0.04306,-0.02219 -0.08618,-0.04401 -0.129347,-0.06544 -0.04317,-0.02144 -0.08638,-0.0425 -0.12964,-0.06319 -0.04326,-0.02069 -0.08657,-0.04102 -0.129925,-0.06097 -0.04335,-0.01996 -0.08675,-0.03956 -0.130197,-0.05879 -0.04344,-0.01924 -0.08693,-0.03812 -0.130462,-0.05665 -0.04353,-0.01853 -0.0871,-0.03671 -0.130714,-0.05455 -0.04361,-0.01784 -0.08726,-0.03533 -0.130957,-0.05248 -0.04369,-0.01715 -0.08742,-0.03397 -0.13119,-0.05045 -0.04377,-0.01648 -0.08757,-0.03263 -0.131412,-0.04846 -0.04384,-0.01582 -0.08772,-0.03132 -0.131624,-0.0465 -0.04391,-0.01518 -0.08785,-0.03004 -0.131827,-0.04458 -0.04397,-0.01454 -0.08798,-0.02877 -0.132018,-0.0427 -0.04404,-0.01392 -0.0881,-0.02754 -0.1322,-0.04085 -0.0441,-0.01331 -0.08822,-0.02633 -0.132372,-0.03904 -0.04415,-0.01272 -0.08833,-0.02514 -0.132533,-0.03727 -0.0442,-0.01213 -0.08843,-0.02398 -0.132683,-0.03554 -0.04425,-0.01156 -0.08853,-0.02284 -0.132825,-0.03384 -0.0443,-0.011 -0.08862,-0.02173 -0.132955,-0.03218 -0.04434,-0.01046 -0.0887,-0.02064 -0.133076,-0.03056 -0.04438,-0.0099 -0.08877,-0.01958 -0.133186,-0.02897 -0.04441,-0.0094 -0.08884,-0.01854 -0.133286,-0.02743 -0.04444,-0.0089 -0.0889,-0.01753 -0.133376,-0.02592 -0.04447,-0.0084 -0.08896,-0.01654 -0.133455,-0.02444 -0.0445,-0.0079 -0.08901,-0.01557 -0.133525,-0.02301 -0.04452,-0.0074 -0.08905,-0.01463 -0.133584,-0.0216 -0.04454,-0.007 -0.08908,-0.01372 -0.133633,-0.02024 -0.04455,-0.0065 -0.08911,-0.01283 -0.133672,-0.01892 -0.04456,-0.0061 -0.08913,-0.01196 -0.1337,-0.01763 -0.04457,-0.0057 -0.08914,-0.01112 -0.133719,-0.01638 -0.05205,-0.0043 -0.104035,-0.008 -0.155947,-0.01097 -0.05191,-0.003 -0.103754,-0.0054 -0.155521,-0.0071 -0.05177,-0.0018 -0.103461,-0.0029 -0.155078,-0.0034 -0.05162,-5.41e-4 -0.103157,-4.83e-4 -0.154617,1.53e-4 -0.05146,6.36e-4 -0.102841,0.0019 -0.154138,0.0036 -0.0513,0.0018 -0.102512,0.0041 -0.153641,0.007 -0.05113,0.0029 -0.102173,0.0063 -0.153128,0.01022 -0.05095,0.0039 -0.10182,0.0084 -0.152594,0.01335 -0.05078,0.005 -0.101457,0.01042 -0.152045,0.01636 -0.05059,0.0059 -0.101082,0.01237 -0.151478,0.01925 -0.0504,0.0069 -0.100694,0.01423 -0.150891,0.02203 -0.0502,0.0078 -0.100295,0.01603 -0.150289,0.02469 -0.04999,0.0087 -0.09988,0.01774 -0.149668,0.02723 -0.04978,0.0095 -0.09946,0.01938 -0.149029,0.02966 -0.04957,0.01028 -0.09903,0.02094 -0.148372,0.03197 -0.04935,0.01103 -0.09858,0.02243 -0.147698,0.03417 -0.04912,0.01174 -0.09812,0.02383 -0.147006,0.03625 -0.04889,0.01242 -0.09765,0.02516 -0.146297,0.03821 -0.04865,0.01305 -0.09717,0.02641 -0.145569,0.04006 -0.0484,0.01365 -0.09667,0.02758 -0.144823,0.04179 -0.04815,0.01421 -0.09617,0.02868 -0.144061,0.04341 -0.04789,0.01472 -0.09565,0.0297 -0.143279,0.0449 -0.04763,0.0152 -0.09512,0.03064 -0.142481,0.04629 -0.04736,0.01565 -0.09458,0.0315 -0.141665,0.04755 -0.04708,0.01605 -0.09403,0.03229 -0.14083,0.0487 -0.0468,0.01641 -0.09346,0.033 -0.139979,0.04974 -0.04652,0.01674 -0.09289,0.03363 -0.139109,0.05066 -0.04622,0.01703 -0.0923,0.03419 -0.138221,0.05146 -0.04592,0.01727 -0.0917,0.03466 -0.137317,0.05215 -0.04562,0.01748 -0.09108,0.03506 -0.136393,0.05271 -0.04531,0.01765 -0.09046,0.03538 -0.135453,0.05317 -0.04499,0.01778 -0.08982,0.03563 -0.134494,0.05351 -0.04513,0.0229 -0.08998,0.04611 -0.134542,0.06963 -0.04456,0.02352 -0.08884,0.04736 -0.132832,0.07151 -0.04399,0.02415 -0.08771,0.0486 -0.13114,0.07337 -0.04343,0.02477 -0.08659,0.04984 -0.129464,0.07522 -0.04288,0.02538 -0.08548,0.05106 -0.127806,0.07705 -0.04233,0.02599 -0.08438,0.05228 -0.126163,0.07887 -0.04178,0.02659 -0.08329,0.05349 -0.124538,0.08068 -0.04124,0.02719 -0.08222,0.05469 -0.12293,0.08248 -0.04071,0.02779 -0.08116,0.05588 -0.121339,0.08426 -0.04018,0.02838 -0.0801,0.05706 -0.119765,0.08603 -0.03966,0.02897 -0.07906,0.05823 -0.118207,0.08779 -0.03915,0.02955 -0.07803,0.0594 -0.116667,0.08953 -0.03863,0.03013 -0.07702,0.06055 -0.115144,0.09126 -0.03813,0.03071 -0.07601,0.0617 -0.113636,0.09298 -0.03763,0.03128 -0.07501,0.06284 -0.112147,0.09468 -0.03714,0.03184 -0.07403,0.06397 -0.110674,0.09637 -0.03665,0.0324 -0.07305,0.06509 -0.109218,0.09805 -0.03617,0.03296 -0.07209,0.0662 -0.107779,0.09971 -0.03569,0.03351 -0.07114,0.0673 -0.106357,0.101362 -0.03522,0.03406 -0.0702,0.0684 -0.104952,0.102999 -0.03475,0.0346 -0.06927,0.06948 -0.103563,0.104624 -0.03429,0.03514 -0.06836,0.07055 -0.102192,0.106234 -0.03384,0.03568 -0.06745,0.07162 -0.100838,0.107832 -0.03339,0.03621 -0.06655,0.07268 -0.0995,0.109416 -0.03295,0.03674 -0.06567,0.07373 -0.09818,0.110988 -0.03251,0.03726 -0.0648,0.07477 -0.09688,0.112546 -0.03208,0.03777 -0.06394,0.0758 -0.09559,0.114091 -0.03165,0.03829 -0.06309,0.07683 -0.09432,0.115622 -0.03123,0.0388 -0.06225,0.07784 -0.09307,0.117141 -0.03082,0.0393 -0.06142,0.07885 -0.09183,0.118646 -0.03041,0.0398 -0.06061,0.07985 -0.09061,0.120138 -0.03,0.04029 -0.0598,0.08083 -0.08941,0.121617 -0.0189,0.03019 -0.03773,0.06039 -0.05647,0.0906 -0.01874,0.03021 -0.03739,0.06044 -0.05595,0.09068 -0.01856,0.03024 -0.03702,0.06051 -0.05539,0.09079 -0.01836,0.03029 -0.03663,0.0606 -0.05478,0.09094 -0.01816,0.03034 -0.0362,0.06071 -0.05414,0.09112 -0.01793,0.03041 -0.03575,0.06085 -0.05345,0.09134 -0.01769,0.03049 -0.03527,0.06101 -0.05271,0.09159 -0.01744,0.03057 -0.03476,0.0612 -0.05193,0.09187 -0.01718,0.03067 -0.03421,0.0614 -0.05111,0.09219 -0.01689,0.03079 -0.03364,0.06163 -0.05024,0.09255 -0.0166,0.03091 -0.03305,0.06189 -0.04933,0.09293 -0.01629,0.03105 -0.03242,0.06216 -0.04838,0.09335 -0.01596,0.03119 -0.03176,0.06246 -0.04738,0.09381 -0.01562,0.03135 -0.03107,0.06278 -0.04634,0.0943 -0.01527,0.03152 -0.03036,0.06313 -0.04526,0.09483 -0.0149,0.0317 -0.02961,0.06349 -0.04413,0.09538 -0.01452,0.03189 -0.02884,0.06388 -0.04296,0.09598 -0.01412,0.03209 -0.02804,0.06429 -0.04174,0.0966 -0.01371,0.03231 -0.0272,0.06473 -0.04048,0.09727 -0.01328,0.03254 -0.02634,0.06519 -0.03918,0.09796 -0.01284,0.03277 -0.02545,0.06567 -0.03784,0.09869 -0.01238,0.03302 -0.02453,0.06617 -0.03645,0.09945 -0.01191,0.03328 -0.02359,0.0667 -0.03501,0.100253 -0.01143,0.03355 -0.02261,0.06725 -0.03354,0.101087 -0.01093,0.03384 -0.0216,0.06782 -0.03201,0.101953 -0.01041,0.03413 -0.02057,0.06842 -0.03045,0.102854 -0.0099,0.03444 -0.0195,0.06903 -0.02884,0.10379 -0.0093,0.03476 -0.01841,0.06967 -0.02719,0.10476 -0.0088,0.03509 -0.01728,0.07034 -0.02549,0.105763 -0.0082,0.03543 -0.01613,0.07102 -0.02376,0.106802 -0.0076,0.03578 -0.01495,0.07173 -0.02197,0.107874 -0.007,0.03614 -0.01374,0.07247 -0.02015,0.108981 l -7.48e-4,0.0037 -7.47e-4,0.0037 -7.47e-4,0.0037 -7.48e-4,0.0037 -7.48e-4,0.0037 -7.47e-4,0.0037 -7.47e-4,0.0037 -7.48e-4,0.0037 -7.47e-4,0.0037 -7.48e-4,0.0037 -7.47e-4,0.0037 -7.48e-4,0.0037 -7.47e-4,0.0037 -7.48e-4,0.0037 -7.47e-4,0.0037 -7.48e-4,0.0037 -7.47e-4,0.0037 -7.48e-4,0.0037 -7.47e-4,0.0037 -7.48e-4,0.0037 -7.47e-4,0.0037 -7.48e-4,0.0037 -7.47e-4,0.0037 -7.48e-4,0.0037 -7.47e-4,0.0037 -7.48e-4,0.0037 -7.47e-4,0.0037 -7.48e-4,0.0037 -7.47e-4,0.0037 -7.48e-4,0.0037 -7.47e-4,0.0037 -7.48e-4,0.0037 h 10e-5 10e-5 10e-5 10e-5 10e-5 10e-5 1e-4 10e-5 10e-5 10e-5 10e-5 10e-5 10e-5 10e-5 10e-5 10e-5 10e-5 10e-5 10e-5 10e-5 10e-5 1e-4 10e-5 10e-5 10e-5 10e-5 10e-5 10e-5 10e-5 10e-5 10e-5 10e-5 0.146209 0.14621 0.146209 0.146209 0.146209 0.14621 0.146209 0.146209 0.146209 0.14621 0.146209 0.146209 0.146209 0.146209 0.14621 0.146209 0.146209 0.14621 0.146209 0.146209 0.146209 0.14621 0.146209 0.146209 0.146209 0.14621 0.146209 0.146209 0.146209 0.14621 0.146209 0.146209 l 1.9e-5,-0.05772 2e-5,-0.05772 1.9e-5,-0.05772 1.9e-5,-0.05772 2e-5,-0.05772 1.9e-5,-0.05772 1.9e-5,-0.05772 2e-5,-0.05772 1.9e-5,-0.05772 1.9e-5,-0.05772 1.9e-5,-0.05772 2e-5,-0.05772 1.9e-5,-0.05772 1.9e-5,-0.05772 2e-5,-0.05772 1.9e-5,-0.05772 1.9e-5,-0.05772 2e-5,-0.05772 1.9e-5,-0.05772 1.9e-5,-0.05772 2e-5,-0.05772 1.9e-5,-0.05772 1.9e-5,-0.05772 2e-5,-0.05772 1.9e-5,-0.05772 1.9e-5,-0.05772 1.9e-5,-0.05772 2e-5,-0.05772 1.9e-5,-0.05772 1.9e-5,-0.05772 2e-5,-0.05772 z"
       inkscape:connector-curvature="0"
       sodipodi:nodetypes="cccccccccccccccccccccccccccccccccccccccccccccccccccccccccccccccccccccccccccccccccccccccccccccccccccccccccccccccccccccccccccccccccccccccccccccccccccccccccccccccccccccccccccccccccccccccccccccccccccccccccccccccccccccccccccccccccccccccccccccccccccccccccccccccccccccccccccccccccccccccccccccccccccccccccccccccccccccccccccccccccssssssssssssssssssssssssssssssscssssssssssssssssssssssssssssssscssssssssssssssssssssssssssssssscssssssssssssssssssssssssssssssscssssssssssssssssssssssssssssssscsssssssssssssssssssssssssssssssccccccccccccccccccccccccccccccccccccccccccccccccccccccccccccccccccccccccccccccccccccccccccccccccccccccccccccccccccccccccccccccccc" />
  </g>
  <g
     id="g1034"
     inkscape:groupmode="layer"
     inkscape:label="Edge.Cuts copy"
     style="display:none"
     transform="translate(-0.18490772,-0.39345584)" />
  <g
     id="g1038"
     inkscape:groupmode="layer"
     inkscape:label="Edge.Cuts copy 1"
     style="display:none"
     transform="translate(-0.18490772,-0.39345584)">
    <path
       style="display:inline;fill:none;stroke:#000000;stroke-width:0.10726036;stroke-miterlimit:4;stroke-dasharray:none;stroke-opacity:1"
       id="path1036"
       d="m 37.334907,49.421626 -0.09846,-0.407417 -0.269975,-1.11657 -0.259677,-1.073633 -1.337011,-5.527813 -0.703703,-2.909491 -0.03764,-0.155603 -0.01299,-0.05385 -0.0032,-0.01416 0.08088,-0.04741 0.01244,-0.0075 0.22588,-0.159389 0.31809,-0.222458 0.427015,-0.294676 0.06275,-0.04783 0.08913,-0.068 0.02543,-0.01941 0.139362,-0.12793 0.713936,-0.70337 0.121333,-0.119542 0.06178,-0.06082 0.22942,-0.270853 0.07937,-0.105759 0.540399,-0.720039 0.04322,-0.06467 0.0576,-0.09589 0.124314,-0.252405 0.151452,-0.326704 0.385761,-0.832115 0.257651,-0.555802 0.02273,-0.05975 0.06747,-0.222812 0.06467,-0.268795 0.153671,-0.638199 h -0.0561 -2.304745 -3.287165 l 1.754425,2.577467 h -3.416268 l -1.468909,-2.577442 -0.424236,-0.744376 -0.789287,0.744376 -0.643712,0.607093 v 1.970374 h -0.51163 -2.262121 v -1.939295 -0.63821 h -4.71036 l 0.139363,0.63821 0.04086,0.187266 0.01545,0.06693 0.02543,0.109888 0.08785,0.237185 0.02767,0.07465 0.542835,1.301647 0.112291,0.20977 0.286267,0.42371 0.391285,0.60881 0.09117,0.10533 0.498943,0.576202 0.365339,0.400296 0.104687,0.0916 0.453614,0.396992 0.118876,0.09986 0.276582,0.197928 0.627312,0.411751 0.304995,0.207355 -0.74474,3.079456 -2.356157,9.742447 -0.391243,-0.15482 -0.374522,-0.170741 -1.297914,-0.551822 -1.160557,-0.637374 -0.769056,-0.422358 -6.922584,4.633646 -4.9919,-4.991889 4.62614,-6.911868 L 10.773472,41.295786 10.464219,40.748983 10.187885,40.182059 9.8072917,39.475567 9.563715,38.901499 9.3555116,38.410794 9.2894392,38.252381 9.2587624,38.164213 8.8398036,37.009663 8.7675099,36.752377 8.7150586,36.565797 8.3688543,35.333172 8.2666354,35.312902 8.2207299,35.304322 1.5599854,33.984491 0.2385379,33.722636 v -1.851335 -3.651142 -1.556348 l 1.3214475,-0.261726 6.7960162,-1.346096 0.247042,-0.912325 0.138891,-0.420921 0.1554526,-0.47113 0.1159487,-0.386428 0.1141895,-0.381728 0.088489,-0.207763 0.4167814,-1.008978 0.1933159,-0.467998 0.08999,-0.166682 0.2662743,-0.493366 0.131276,-0.269448 0.139791,-0.286954 0.604467,-1.074524 -0.04688,-0.07004 -0.09804,-0.146422 -0.03164,-0.0473 -1.3697445,-2.046786 -0.2383007,-0.356093 -2.8051262,-4.191617 4.9918974,-4.9908239 6.849646,4.5843069 0.823759,-0.464651 0.254518,-0.143557 0.558655,-0.272581 0.705741,-0.3794124 0.0251,-0.010725 0.0946,-0.039793 0.280689,-0.1098559 1.963733,-0.7686062 0.128049,-0.045907 0.0021,-6.084e-4 0.256492,-0.071333 0.167615,-0.046765 1.31115,-0.3653716 0.470541,-2.3747552 0.306025,-1.5445069 0.823759,-4.15745438 h 1.642156 0.307837 3.241409 1.867402 l 0.999399,5.04446598 0.130256,0.6574953 0.472815,2.386554 0.612725,0.158434 0.951152,0.3095209 0.244286,0.079475 0.38722,0.1172354 0.382426,0.1154758 0.08892,0.034859 0.128175,0.053525 0.921807,0.3847435 0.427958,0.1786202 0.0797,0.037109 0.07819,0.03636 0.621863,0.340359 0.549613,0.269619 0.0075,0.0042 1.075275,0.609721 0.0709,-0.04741 0.08281,-0.05545 2.154474,-1.4418247 0.366755,-0.2454341 0.866385,-0.5798066 0.151923,-0.1016824 3.161779,-2.1159888 3.511414,3.5114236 0.169611,0.1696 1.310872,1.310872 -4.402051,6.576925 -0.03861,0.0577 -0.161878,0.241852 0.310863,0.529373 0.558665,1.098549 0.262509,0.492025 0.11197,0.209855 0.06231,0.157093 0.67324,1.696365 0.06543,0.159283 0.07669,0.257209 0.167486,0.577704 0.393377,1.356845 2.653621,0.525821 5.476715,1.085229 v 1.529533 3.651142 1.879201 l -3.525155,0.698265 -1.951537,0.386567 -1.386265,0.274585 -0.811747,0.160794 -0.162929,0.03229 -0.31735,0.06286 -0.664822,2.182651 -0.09675,0.317588 -0.06168,0.146517 -0.471086,1.146828 -0.05803,0.110092 -1.067681,2.026749 -0.155334,0.294858 -0.133004,0.251097 4.632575,6.920438 -4.991896,4.992969 -3.040831,-2.035845 -3.475096,-2.326573 -0.04859,-0.03261 -0.06082,-0.04076 -0.05867,-0.03926 -0.04451,-0.02981 -0.210112,-0.140673 -1.320815,0.72536 -5.68e-4,2.78e-4 -1.039675,0.514775 -0.116871,0.05792 -1.195739,0.512275 -0.205274,0.07916 -5.68e-4,2.59e-4 -0.03819,-0.158746 -0.292821,-1.212471 -0.03164,-0.130611 -0.01855,-0.07658 m -8.959704,-44.93492 0.05642,0.1055442 0.07197,0.134644 0.0021,0.00323 0.0383,0.046764 0.173525,0.2107663 0.04977,0.040651 0.210112,0.1727322 0.0021,0.0011 0.05395,0.02896 0.240713,0.129442 0.06092,0.01845 0.261854,0.079157 0.335822,0.033252 0.06275,-0.00644 0.120357,-0.012014 0.151656,-0.015015 0.32296,-0.097607 0.05524,-0.029709 0.242022,-0.1301392 2.1e-5,-2.13e-5 0.04816,-0.039469 0.211646,-0.1739976 0.03937,-0.048054 0.17506,-0.2126218 0.0021,-0.00323 0.02745,-0.051483 0.129635,-0.2425587 0.09761,-0.3217816 0.0065,-0.06146 0.0097,-0.094068 L 31.65346,3.772003 31.64696,3.710544 31.61972,3.436247 31.52211,3.1144659 31.49294,3.0599779 31.363273,2.817355 l -3.2e-5,-4.29e-5 -0.03926,-0.047839 -0.175146,-0.2127295 -0.04806,-0.039364 -0.211753,-0.1740837 -0.0021,-0.00107 -0.05246,-0.028209 -0.242194,-0.1302248 -0.32295,-0.097607 -0.06254,-0.00644 -0.08913,-0.00858 -0.183094,-0.018234 -0.335821,0.03325 -0.06071,0.018449 -0.262027,0.079159 -0.0011,6.007e-4 -0.05524,0.029711 -0.240886,0.1295277 -2.1e-5,2.14e-5 -0.04966,0.040652 -0.210209,0.1728072 -0.04076,0.049769 -0.17361,0.2108739 -0.0021,0.00322 -0.02896,0.053845 -0.0413,0.077334 -0.08699,0.1628641 -0.09761,0.321781 -0.0065,0.064463 -0.02682,0.271208 4.3e-4,0.00426 0.0053,0.060063 0.01148,0.1156588 0.01545,0.1555276 0.09761,0.321781 0.03067,0.056958 M 25.658093,26.372101 h 2.773754 v 1.848097 1.203461 l 1.145926,-1.203461 1.759757,-1.848097 h 3.568959 0.120797 l -1.985957,1.848097 h 3.665654 2.318861 l -0.02703,-0.104043 -0.04001,-0.153736 -0.196747,-0.724265 -0.0065,-0.02284 -0.249841,-0.633092 -0.09772,-0.250346 -0.03958,-0.07712 -0.188188,-0.302517 -0.860979,-1.384002 -0.113202,-0.177859 -0.02006,-0.02724 -0.06124,-0.08324 -0.02724,-0.03711 -0.136724,-0.133646 -0.06157,-0.05374 -0.19234,-0.167766 -0.189046,-0.16488 -1.506386,-1.313864 -0.135609,-0.0975 -0.09063,-0.05224 -0.93796,-0.506633 -0.195804,-0.08077 -1.600613,-0.495779 -0.19221,-0.05953 -0.147698,-0.04429 -0.714129,-0.09107 -0.430854,-0.05073 -0.14773,0.0065 -0.198914,0.0097 -1.26388,0.06349 -0.414691,0.02081 -0.108976,0.0251 -0.511632,0.117783 -0.09503,0.02188 -0.311602,0.05116 -0.106295,0.02993 -0.534146,0.205295 -0.916593,0.361007 -0.08989,0.03539 -0.208515,0.122514 -0.36876,0.216644 -0.401734,0.225537 -0.0075,0.0042 -0.05417,0.03379 -0.569767,0.425609 -0.176121,0.133519 -0.06907,0.07572 -0.05888,0.06446 -0.05128,0.04044 -0.50051,0.50097 -0.411429,0.411784 -0.118147,0.118255 -0.537116,0.739956 -0.09696,0.126965 -0.07176,0.110972 -0.70648,1.38044 -0.06414,0.131329 -0.284777,0.873636 -0.03743,0.105331 -0.0075,0.03111 -0.01695,0.07465 -0.04806,0.273922 -0.02392,0.11908 h 0.0032 4.678696 z"
       inkscape:connector-curvature="0" />
  </g>
  <g
     inkscape:label="B.Cu-disabled"
     inkscape:groupmode="layer"
     id="g1418"
     transform="translate(-0.18490772,-0.39345584)" />
  <g
     inkscape:label="B.Mask-disabled"
     inkscape:groupmode="layer"
     id="g1420"
     transform="translate(-0.18490772,-0.39345584)" />
  <g
     inkscape:label="B.Silk-disabled"
     inkscape:groupmode="layer"
     id="g1422"
     transform="translate(-0.18490772,-0.39345584)" />
  <g
     style="display:inline"
     inkscape:label="F.Cu-disabled"
     inkscape:groupmode="layer"
     id="g1424"
     transform="translate(-0.18490772,-0.39345584)" />
  <g
     inkscape:label="F.Mask-disabled"
     inkscape:groupmode="layer"
     id="g1426"
     transform="translate(-0.18490772,-0.39345584)" />
  <g
     style="display:none"
     inkscape:label="F.Silk-disaabled"
     inkscape:groupmode="layer"
     id="g1428"
     transform="translate(-0.18490772,-0.39345584)">
    <path
       sodipodi:nodetypes="ccccccccccccccccccccccccccccccccccccccccccccccccccccccccccccccccsssssssssssssssssssssssssssssssssccccccccccccccccccccccccccccccccccccccccccccccccccccccccccccccccccccccccccccccccccccccccccccccccccccccccccccccccccccccccccccccccsssssssssssssssssssssssssssssssssssssssssssssssccccccccccccccccccccccccccccccccssssssssssssssssssssssssssssssssssssssssssssssssssssssssssssssssscccccccccccccccccccccccccccccccccccccccccccccccccccccccccccccccc"
       inkscape:connector-curvature="0"
       id="path1505"
       d="M 10.334317,31.865686 V 31.531749 31.197811 30.863872 30.529934 30.195995 29.862057 29.52812 29.194182 28.860244 28.526306 28.192368 27.858429 27.524491 27.190553 26.856615 26.522677 l 0.117476,0.0013 0.117477,0.0013 0.117477,0.0013 0.117476,0.0013 0.117477,0.0013 0.117477,0.0013 0.117476,0.0013 0.117476,0.0013 0.117477,0.0013 0.117478,0.0013 0.117475,0.0013 0.117477,0.0013 0.117477,0.0013 0.117477,0.0013 0.117476,0.0013 0.117477,0.0013 0.117476,0.0013 0.117477,0.0013 0.117476,0.0013 0.117477,0.0013 0.117477,0.0013 0.117476,0.0013 0.117477,0.0013 0.117476,0.0013 0.117477,0.0013 0.117477,0.0013 0.117477,0.0013 0.117475,0.0013 0.117477,0.0013 0.117477,0.0013 0.117477,0.0013 0.117476,0.0013 0.04557,0.201067 0.04557,0.201065 0.04557,0.201066 0.04557,0.201066 0.04557,0.201066 0.04557,0.201066 0.04557,0.201065 0.04557,0.201064 0.04557,0.201067 0.04557,0.201066 0.04557,0.201065 0.04557,0.201067 0.04557,0.201065 0.04557,0.201066 0.04557,0.201065 0.04557,0.201067 c 0.02506,0.110585 0.04991,0.219916 0.0745,0.327714 0.02458,0.107791 0.04889,0.214063 0.07287,0.318523 0.02397,0.104456 0.04761,0.207113 0.07084,0.307686 0.02323,0.100576 0.04607,0.199063 0.06842,0.295198 0.02236,0.09613 0.04425,0.189911 0.0656,0.281059 0.02135,0.09114 0.04218,0.179663 0.06239,0.265273 0.02021,0.08561 0.03983,0.168313 0.05878,0.247838 0.01894,0.07953 0.03722,0.155864 0.05477,0.228751 0.01754,0.07289 0.03435,0.142316 0.05036,0.208015 0.01601,0.0657 0.03122,0.127669 0.04556,0.185634 0.01434,0.05796 0.02782,0.111921 0.04036,0.161597 0.01254,0.04967 0.02415,0.09508 0.03476,0.135917 0.01065,0.04084 0.02022,0.07712 0.02876,0.108585 0.0086,0.03145 0.01603,0.05809 0.02238,0.0796 0.0063,0.02152 0.01156,0.03794 0.01558,0.04897 0.004,0.01104 0.0068,0.01669 0.0084,0.01669 0.0015,0 0.0043,-0.0057 0.0084,-0.01669 0.004,-0.01104 0.0092,-0.02745 0.01553,-0.04897 0.0063,-0.02152 0.01377,-0.04814 0.02228,-0.0796 0.0085,-0.03146 0.01807,-0.06775 0.02863,-0.108585 0.01054,-0.04084 0.02212,-0.08624 0.03459,-0.135917 0.01248,-0.04967 0.02589,-0.10364 0.04015,-0.161597 0.01427,-0.05797 0.0294,-0.119933 0.04533,-0.185634 0.01593,-0.0657 0.03265,-0.13513 0.0501,-0.208015 0.01745,-0.07289 0.03563,-0.149228 0.05449,-0.228751 0.01884,-0.07953 0.03836,-0.162228 0.05847,-0.247838 0.0201,-0.08561 0.04082,-0.174126 0.06206,-0.265273 0.02125,-0.09114 0.04301,-0.184926 0.06526,-0.281059 0.02225,-0.09613 0.04495,-0.194627 0.06805,-0.295198 0.0231,-0.100576 0.04662,-0.203226 0.07046,-0.307686 0.02384,-0.104456 0.04802,-0.210727 0.07247,-0.318523 0.02445,-0.107792 0.04916,-0.217129 0.07409,-0.327714 l 0.04532,-0.201067 0.04532,-0.201065 0.04532,-0.201066 0.04532,-0.201065 0.04532,-0.201067 0.04532,-0.201065 0.04532,-0.201066 0.04532,-0.201067 0.04532,-0.201064 0.04532,-0.201065 0.04532,-0.201066 0.04532,-0.201066 0.04532,-0.201066 0.04532,-0.201066 0.04532,-0.201065 0.04532,-0.201067 0.117602,-0.0013 0.117601,-0.0013 0.117602,-0.0013 0.117601,-0.0013 0.1176,-0.0013 0.117602,-0.0013 0.1176,-0.0013 0.117602,-0.0013 0.117602,-0.0013 0.1176,-0.0013 0.117602,-0.0013 0.117602,-0.0013 0.1176,-0.0013 0.117601,-0.0013 0.117601,-0.0013 0.117602,-0.0013 0.117601,-0.0013 0.117601,-0.0013 0.117602,-0.0013 0.117602,-0.0013 0.1176,-0.0013 0.117602,-0.0013 0.117602,-0.0013 0.117599,-0.0013 0.117602,-0.0013 0.117601,-0.0013 0.117602,-0.0013 0.117601,-0.0013 0.117601,-0.0013 0.117602,-0.0013 0.117601,-0.0013 0.117602,-0.0013 v 0.333938 0.333938 0.333938 0.333938 0.333939 0.333938 0.333938 0.333938 0.333938 0.333937 0.333938 0.333939 0.333938 0.333939 0.333938 0.333937 0.333939 0.333938 0.333937 0.333938 0.333939 0.333938 0.333939 0.333937 0.333938 0.333938 0.333938 0.333938 0.33394 0.333937 0.333938 0.333938 l -0.07208,2e-6 h -0.07208 l -0.07208,1e-6 -0.07208,2e-6 -0.07208,1e-6 h -0.07208 l -0.07208,2e-6 -0.07208,1e-6 -0.07208,2e-6 h -0.07208 l -0.07208,1e-6 -0.07208,3e-6 -0.07208,10e-7 h -0.07208 l -0.07208,2e-6 -0.07208,10e-7 -0.07208,2e-6 h -0.07208 l -0.07208,10e-7 -0.07208,2e-6 -0.07208,10e-7 h -0.07208 l -0.07208,3e-6 -0.07208,1e-6 -0.07208,2e-6 h -0.07208 l -0.07208,10e-7 -0.07208,2e-6 -0.07208,10e-7 h -0.07208 l -0.07208,10e-7 -0.07208,2e-6 0.0013,-0.252913 0.0013,-0.252914 0.0013,-0.252914 0.0013,-0.252914 0.0013,-0.252914 0.0013,-0.252913 0.0013,-0.252914 0.0013,-0.252916 0.0013,-0.252914 0.0013,-0.252914 0.0013,-0.252914 0.0013,-0.252913 0.0013,-0.252914 0.0013,-0.252914 0.0013,-0.252914 0.0013,-0.252914 c 8.01e-4,-0.139102 0.0014,-0.276625 0.0018,-0.41222 4.81e-4,-0.135596 9.62e-4,-0.269265 0.0011,-0.400661 3.2e-4,-0.131396 4.81e-4,-0.260522 4.81e-4,-0.387028 3.8e-5,-0.126506 -3.7e-5,-0.250394 -1.61e-4,-0.371319 -1.6e-4,-0.120925 -4.8e-4,-0.238886 -8.01e-4,-0.353535 -3.2e-4,-0.114652 -9.61e-4,-0.225994 -0.0014,-0.33368 -6.42e-4,-0.107683 -0.0013,-0.211715 -0.0021,-0.311746 -8.01e-4,-0.100032 -0.0017,-0.196057 -0.0027,-0.28774 -9.62e-4,-0.09167 -0.0021,-0.179014 -0.0033,-0.261655 -0.0011,-0.08264 -0.0024,-0.160592 -0.0038,-0.233502 -0.0013,-0.07291 -0.0028,-0.140782 -0.0043,-0.20327 -0.0014,-0.06249 -0.0032,-0.11959 -0.0048,-0.170964 -0.0016,-0.05137 -0.0035,-0.09701 -0.0053,-0.136583 -0.0018,-0.03957 -0.0038,-0.07306 -0.0058,-0.100131 -0.002,-0.02707 -0.004,-0.04772 -0.0062,-0.0616 -0.0021,-0.01388 -0.0043,-0.021 -0.0065,-0.021 -0.0023,0 -0.0059,0.0062 -0.01087,0.01837 -0.0049,0.01215 -0.01117,0.03021 -0.01864,0.0539 -0.0075,0.02369 -0.01616,0.05299 -0.02602,0.08761 -0.0099,0.03462 -0.02087,0.07456 -0.03296,0.11951 -0.0121,0.04495 -0.02527,0.09491 -0.03946,0.149592 -0.01418,0.05467 -0.02937,0.114064 -0.0455,0.177861 -0.01613,0.06379 -0.03319,0.132 -0.05112,0.204311 -0.01792,0.07231 -0.03671,0.148728 -0.05628,0.22895 -0.01957,0.08022 -0.03994,0.164244 -0.06101,0.251769 -0.02107,0.08752 -0.04286,0.178553 -0.06529,0.272777 -0.02243,0.09423 -0.04549,0.191649 -0.06913,0.291967 -0.02364,0.100315 -0.04783,0.203536 -0.07253,0.309343 -0.02469,0.105803 -0.04987,0.21421 -0.07547,0.324902 -0.0256,0.110694 -0.05162,0.223677 -0.07798,0.338647 -0.02636,0.114972 -0.05307,0.231933 -0.08005,0.350578 -0.02697,0.118646 -0.05423,0.238976 -0.08168,0.36069 -0.02745,0.121715 -0.05478,0.242935 -0.08193,0.363316 -0.02715,0.120381 -0.05411,0.23992 -0.08081,0.358277 -0.0267,0.118354 -0.05313,0.235524 -0.07922,0.351163 -0.02609,0.115638 -0.05184,0.229745 -0.07716,0.341975 -0.02532,0.11223 -0.05023,0.222583 -0.07463,0.330715 -0.0244,0.108128 -0.0483,0.214036 -0.07164,0.317376 -0.02332,0.103336 -0.04608,0.204108 -0.06817,0.301964 -0.02209,0.09786 -0.04353,0.192795 -0.06424,0.284476 -0.0207,0.09169 -0.04068,0.180103 -0.05983,0.264916 -0.01916,0.08482 -0.0375,0.166024 -0.05495,0.243281 -0.01745,0.07726 -0.03401,0.150562 -0.04962,0.21957 -0.01559,0.06901 -0.03023,0.133718 -0.0438,0.193784 -0.01358,0.06006 -0.02613,0.115491 -0.03754,0.165926 -0.01141,0.05044 -0.0217,0.09588 -0.03079,0.135989 -0.0091,0.04011 -0.01697,0.07489 -0.02357,0.103978 -0.0066,0.02909 -0.01192,0.05251 -0.0159,0.0699 l -0.0072,0.03161 -0.0072,0.03161 -0.0072,0.03161 -0.0072,0.03161 -0.0072,0.03161 -0.0072,0.03161 -0.0072,0.03161 -0.0072,0.03161 -0.0072,0.03161 -0.0072,0.03161 -0.0072,0.03161 -0.0072,0.03161 -0.0072,0.03161 -0.0072,0.03161 -0.0072,0.03161 -0.0072,0.03161 h -0.0648 -0.0648 -0.0648 -0.0648 -0.0648 -0.0648 -0.0648 -0.0648 -0.0648 -0.0648 -0.0648 -0.0648 -0.0648 -0.0648 -0.0648 -0.0648 c -0.04731,0 -0.09277,-1.07e-4 -0.13648,-3.2e-4 -0.0437,-1.61e-4 -0.08562,-4.82e-4 -0.125824,-9.62e-4 -0.0402,-4.8e-4 -0.07867,-9.62e-4 -0.115466,-0.0016 -0.0368,-6.41e-4 -0.07192,-0.0014 -0.105412,-0.0024 -0.03349,-9.61e-4 -0.06536,-0.002 -0.09564,-0.0032 -0.03029,-0.0011 -0.059,-0.0025 -0.08618,-0.0039 -0.02718,-0.0014 -0.05284,-0.003 -0.07702,-0.0048 -0.02418,-0.0017 -0.04688,-0.0036 -0.06815,-0.0055 -0.02127,-0.002 -0.04111,-0.0041 -0.05957,-0.0064 -0.01846,-0.0023 -0.03555,-0.0048 -0.0513,-0.0074 -0.01576,-0.0026 -0.03019,-0.0053 -0.04334,-0.0083 -0.01315,-0.0029 -0.02502,-0.006 -0.03566,-0.0092 -0.01065,-0.0033 -0.02005,-0.0066 -0.02828,-0.01022 -0.0083,-0.0036 -0.01528,-0.0073 -0.0212,-0.01121 -0.0059,-0.0039 -0.01076,-0.0079 -0.01442,-0.01225 -0.0037,-0.0042 -0.0063,-0.0087 -0.0079,-0.0133 -0.0012,-0.0035 -0.0039,-0.01384 -0.0082,-0.03078 -0.0042,-0.01692 -0.0099,-0.04039 -0.01693,-0.07007 -0.0071,-0.02968 -0.01548,-0.06556 -0.02522,-0.107303 -0.0098,-0.04174 -0.02079,-0.08934 -0.03306,-0.142446 -0.01227,-0.05311 -0.02577,-0.111731 -0.04042,-0.175521 -0.01465,-0.06379 -0.03044,-0.132745 -0.04731,-0.206521 -0.01687,-0.07378 -0.0348,-0.152375 -0.05372,-0.235448 -0.01892,-0.08307 -0.03884,-0.170621 -0.05966,-0.262299 -0.02082,-0.09168 -0.04256,-0.187485 -0.06513,-0.287077 -0.02257,-0.09959 -0.04598,-0.202964 -0.07014,-0.309777 -0.02416,-0.106814 -0.04908,-0.217063 -0.07466,-0.330404 -0.02559,-0.113343 -0.05186,-0.229778 -0.07872,-0.34896 -0.02686,-0.119181 -0.05433,-0.241106 -0.08231,-0.365435 -0.02798,-0.124329 -0.05649,-0.251057 -0.08543,-0.37984 -0.02894,-0.128784 -0.05832,-0.259623 -0.08807,-0.392169 -0.02974,-0.132547 -0.05986,-0.266803 -0.09024,-0.402424 -0.0304,-0.13562 -0.06054,-0.269698 -0.09038,-0.401899 -0.02983,-0.132201 -0.05935,-0.262524 -0.08846,-0.390632 -0.02911,-0.128106 -0.05782,-0.253999 -0.08606,-0.377339 -0.02823,-0.12334 -0.05599,-0.244129 -0.08318,-0.362026 -0.02719,-0.1179 -0.05382,-0.232908 -0.07981,-0.34469 -0.02598,-0.111783 -0.05133,-0.220339 -0.07595,-0.325332 -0.02463,-0.104988 -0.04852,-0.20642 -0.07162,-0.303947 -0.02309,-0.09753 -0.04538,-0.191155 -0.06679,-0.280544 -0.02141,-0.08938 -0.04192,-0.17454 -0.06149,-0.255115 -0.01955,-0.08058 -0.03814,-0.156576 -0.0557,-0.227666 -0.01754,-0.07108 -0.03405,-0.137264 -0.04941,-0.198191 -0.01537,-0.06093 -0.02961,-0.116605 -0.04265,-0.166694 -0.01304,-0.0501 -0.02486,-0.0946 -0.0354,-0.133177 -0.01054,-0.03858 -0.0198,-0.07123 -0.02768,-0.09763 -0.0079,-0.0264 -0.0144,-0.04653 -0.01946,-0.06007 -0.0051,-0.01354 -0.0087,-0.02048 -0.01076,-0.02048 -0.0021,-4e-6 -0.0041,0.0071 -0.0062,0.02098 -0.0021,0.01388 -0.004,0.03451 -0.006,0.06158 -0.002,0.02707 -0.0039,0.06055 -0.0058,0.10012 -0.0018,0.03956 -0.0038,0.0852 -0.0055,0.136568 -0.0018,0.05137 -0.0036,0.108466 -0.0053,0.170951 -0.0017,0.06249 -0.0034,0.130352 -0.005,0.203259 -0.0016,0.07291 -0.0032,0.15085 -0.0047,0.233487 -0.0015,0.08264 -0.0029,0.169969 -0.0043,0.261647 -0.0014,0.09168 -0.0027,0.187702 -0.0039,0.287729 -0.0012,0.100022 -0.0024,0.204054 -0.0035,0.311737 -0.0011,0.107683 -0.0021,0.21902 -0.003,0.333668 -9.29e-4,0.11465 -0.0018,0.232607 -0.0026,0.35353 -7.7e-4,0.120922 -0.0014,0.244808 -0.0021,0.371312 -5.94e-4,0.126505 -0.0011,0.255629 -0.0015,0.387023 -4.01e-4,0.131395 -7.21e-4,0.265064 -9.29e-4,0.400658 -2.08e-4,0.135595 -3.2e-4,0.273115 -3.2e-4,0.412216 v 0.252913 0.252914 0.252913 0.252911 0.252914 0.252913 0.252911 0.252914 0.252913 0.252913 0.252911 0.252914 0.252913 0.252912 0.252913 0.252913 h -0.06978 -0.07081 -0.07082 -0.07081 -0.07081 -0.07081 -0.07081 -0.07082 -0.07081 -0.07081 -0.07082 -0.07081 -0.07082 -0.07081 -0.07081 -0.07081 -0.07081 -0.07082 -0.07081 -0.07081 -0.07081 -0.07081 -0.07081 -0.07081 -0.07082 -0.07081 -0.07081 -0.07081 -0.07082 -0.07081 -0.07081 -0.07082 v -0.333938 -0.333938 -0.333938 -0.33394 -0.333937 -0.333938 -0.333937 -0.333939 -0.333938 -0.333937 -0.333939 -0.333938 -0.333939 -0.333938 -0.333937 z"
       style="fill:#800000;fill-opacity:1;stroke:#000000;stroke-width:0.03058851;stroke-miterlimit:4;stroke-dasharray:none;stroke-opacity:1" />
    <path
       sodipodi:nodetypes="ccccccccccccccccccccccccccccccccccccccccccccccccccccccccccccccccsssssssssssssssssssssssssssssssssccccccccccccccccccccccccccccccccccccccccccccccccccccccccccccccccsssssssssssssssscccccccccccccccccccccccccccccccsssssssssssssssscccccccccccccccccccccccccccccccccccccccccccccccccccccccccccccccccsssssssssssssssssssssssssssssssccccccccccccccccccccccccccccccccccccccccccccccccccccccccccccccccccccccccccccccccccccccccccccccccc"
       inkscape:connector-curvature="0"
       id="path1507"
       d="M 25.726788,32.133848 V 31.888523 31.643196 31.397871 31.152546 30.907222 30.661894 30.41657 30.171245 29.92592 29.680593 29.435268 29.189943 28.944619 28.699291 28.453966 28.208642 h 0.08346 0.08346 0.08346 0.08346 0.08346 0.08346 0.08346 0.08346 0.08346 0.08346 0.08346 0.08346 0.08346 0.08346 0.08346 0.08346 0.08346 0.08346 0.08346 0.08346 0.08346 0.08346 0.08346 0.08346 0.08346 0.08346 0.08346 0.08346 0.08346 0.08346 0.08346 0.08346 v 0.09105 0.09105 0.09105 0.09105 0.09105 0.09105 0.09105 0.09104 0.09105 0.09104 0.09105 0.09104 0.09105 0.09104 0.09105 0.09105 c 0,0.05103 1.27e-4,0.10138 3.21e-4,0.15092 3.21e-4,0.04954 6.66e-4,0.09828 0.0012,0.146109 4.81e-4,0.04783 0.0012,0.09474 0.0017,0.140617 6.66e-4,0.04588 0.0014,0.09073 0.0024,0.134447 9.69e-4,0.04372 0.002,0.08629 0.003,0.127598 0.0012,0.04132 0.0024,0.08137 0.0036,0.120068 0.0013,0.0387 0.0027,0.07602 0.0041,0.111858 0.0014,0.03584 0.003,0.0702 0.0047,0.102967 0.0016,0.03276 0.0034,0.06393 0.0051,0.0934 0.0018,0.02946 0.0037,0.05722 0.0057,0.08316 0.002,0.02593 0.0039,0.05004 0.0061,0.07222 0.0021,0.02218 0.0042,0.04242 0.0064,0.06062 0.0022,0.01819 0.0045,0.03434 0.0067,0.04833 0.0023,0.01399 0.0047,0.02581 0.0071,0.03536 0.0024,0.0096 0.0049,0.01682 0.0074,0.02171 0.0025,0.0049 0.005,0.0074 0.0076,0.0074 0.0025,0 0.0075,-0.0025 0.01472,-0.0076 0.0073,-0.005 0.01679,-0.01243 0.0285,-0.02218 0.01172,-0.0098 0.0256,-0.0218 0.04155,-0.03605 0.01594,-0.01425 0.03393,-0.03068 0.05384,-0.04917 0.01991,-0.0185 0.04174,-0.03905 0.06537,-0.06154 0.02363,-0.02249 0.04905,-0.04692 0.07615,-0.07318 0.02709,-0.02624 0.05586,-0.05431 0.08618,-0.08406 0.03031,-0.02974 0.06217,-0.06119 0.09545,-0.0942 0.03327,-0.033 0.06797,-0.06757 0.103966,-0.103586 0.03599,-0.03601 0.07328,-0.07346 0.11174,-0.112228 0.03846,-0.03876 0.07808,-0.07885 0.118755,-0.120125 0.04068,-0.04127 0.08238,-0.08374 0.125019,-0.127271 0.04263,-0.04354 0.08619,-0.08813 0.130528,-0.133675 0.04434,-0.04554 0.08948,-0.09202 0.135284,-0.139328 0.04581,-0.0473 0.09227,-0.09542 0.139287,-0.144238 0.04701,-0.04882 0.09457,-0.09833 0.142539,-0.148399 l 0.08722,-0.09105 0.08722,-0.09105 0.08722,-0.09105 0.08722,-0.09105 0.08722,-0.09105 0.08722,-0.09105 0.08722,-0.09105 0.08722,-0.09105 0.08722,-0.09105 0.08722,-0.09105 0.08722,-0.09105 0.08722,-0.09105 0.08722,-0.09105 0.08722,-0.09105 0.08722,-0.09105 0.08722,-0.09105 0.109262,8.9e-5 0.109264,9.1e-5 0.109262,9.1e-5 0.109264,8.9e-5 0.109263,9e-5 0.109263,8.9e-5 0.109262,9.2e-5 0.109262,9e-5 0.109264,8.9e-5 0.109262,9e-5 0.109262,9.1e-5 0.109265,9e-5 0.109262,9.1e-5 0.109263,8.9e-5 0.109263,9.1e-5 0.109262,9e-5 0.109263,8.9e-5 0.109262,9.1e-5 0.109263,9.1e-5 0.109264,8.9e-5 0.109263,9e-5 0.109263,8.9e-5 0.109262,9.2e-5 0.109263,9e-5 0.109264,9e-5 0.109262,8.9e-5 0.109262,9.1e-5 0.109265,9.1e-5 0.109263,8.9e-5 0.109262,9e-5 0.109262,9.1e-5 0.109264,9e-5 -0.03288,0.03154 -0.03289,0.03154 -0.03288,0.03154 -0.03287,0.03154 -0.03288,0.03154 -0.03289,0.03154 -0.03288,0.03154 -0.03288,0.03154 -0.03288,0.03154 -0.03288,0.03154 -0.03289,0.03154 -0.03288,0.03154 -0.03288,0.03154 -0.03288,0.03154 -0.03288,0.03154 -0.03289,0.03154 c -0.01808,0.01734 -0.03778,0.03621 -0.05897,0.05644 -0.02118,0.02023 -0.04386,0.04186 -0.06788,0.06475 -0.02403,0.02289 -0.0494,0.04702 -0.07599,0.07229 -0.02659,0.02528 -0.0544,0.05167 -0.0833,0.07908 -0.0289,0.02741 -0.05887,0.05583 -0.0898,0.08511 -0.03093,0.0293 -0.06281,0.05945 -0.0955,0.09038 -0.0327,0.03093 -0.06621,0.0626 -0.100402,0.0949 -0.0342,0.03231 -0.06907,0.06524 -0.10451,0.09866 -0.03543,0.03343 -0.07141,0.06737 -0.107803,0.101674 -0.03639,0.03431 -0.0732,0.06899 -0.110297,0.103923 -0.03709,0.03493 -0.07447,0.0701 -0.111992,0.105412 -0.03753,0.03531 -0.0752,0.07072 -0.112883,0.10614 -0.03769,0.03543 -0.0754,0.07083 -0.112976,0.106119 -0.03759,0.03529 -0.07505,0.07044 -0.112264,0.105346 -0.03722,0.03491 -0.07418,0.06955 -0.110752,0.103815 -0.03657,0.03426 -0.07277,0.06815 -0.108433,0.101521 l -0.06486,0.06068 -0.06486,0.06068 -0.06486,0.06068 -0.06486,0.06068 -0.06486,0.06068 -0.06486,0.06068 -0.06486,0.06068 -0.06486,0.06068 -0.06486,0.06068 -0.06486,0.06068 -0.06486,0.06068 -0.06486,0.06068 -0.06485,0.06068 -0.06486,0.06068 -0.06485,0.06068 -0.06486,0.06068 0.02629,0.03794 0.02629,0.03794 0.02629,0.03794 0.02629,0.03794 0.02629,0.03794 0.02629,0.03794 0.02629,0.03794 0.02629,0.03794 0.02629,0.03794 0.02629,0.03794 0.02629,0.03794 0.02629,0.03794 0.02629,0.03794 0.02629,0.03794 0.02629,0.03794 0.02629,0.03794 c 0.01445,0.02087 0.03094,0.04473 0.04931,0.07139 0.01838,0.02666 0.03864,0.0561 0.06065,0.08812 0.02201,0.03203 0.04576,0.06664 0.07113,0.103608 0.02536,0.03698 0.05233,0.07633 0.08076,0.117844 0.02842,0.04151 0.05831,0.08519 0.08951,0.130818 0.03121,0.04563 0.06372,0.09321 0.09742,0.142539 0.0337,0.04933 0.06857,0.100403 0.104478,0.153004 0.0359,0.05261 0.07285,0.106749 0.110679,0.162215 0.03783,0.05547 0.07655,0.112259 0.11602,0.170169 0.03947,0.05791 0.07969,0.116934 0.120505,0.176868 0.04082,0.05993 0.08224,0.120774 0.124134,0.182313 0.04188,0.06154 0.08424,0.123776 0.126909,0.186503 0.04268,0.06273 0.08566,0.125942 0.128824,0.189436 0.04317,0.0635 0.08651,0.127271 0.129885,0.191117 0.04337,0.06385 0.08679,0.127762 0.13009,0.19154 0.04331,0.06378 0.08649,0.127416 0.129441,0.190707 l 0.07808,0.115078 0.07808,0.115074 0.07808,0.115076 0.07808,0.115074 0.07808,0.115076 0.07808,0.115074 0.07808,0.115078 0.07808,0.115074 0.07808,0.115075 0.07808,0.115076 0.07808,0.115075 0.07808,0.115076 0.07808,0.115074 0.07808,0.115077 0.07808,0.115074 0.07808,0.115076 -0.102739,-3.1e-5 -0.102728,-3e-5 -0.102727,-2.9e-5 -0.102739,-3e-5 -0.102728,-3e-5 -0.102738,-3.2e-5 -0.102728,-2.8e-5 -0.102728,-3e-5 -0.102728,-3.1e-5 -0.102738,-3e-5 -0.102728,-3e-5 -0.102728,-3e-5 -0.102728,-2.9e-5 -0.102739,-3.1e-5 -0.102727,-2.9e-5 -0.102739,-3.1e-5 -0.102728,-3e-5 -0.102738,-3e-5 -0.102739,-2.9e-5 -0.102739,-3.1e-5 -0.102728,-3.1e-5 -0.102738,-2.8e-5 -0.102728,-3e-5 -0.102739,-3.1e-5 -0.102727,-3e-5 -0.102739,-3.1e-5 -0.102739,-2.9e-5 -0.102728,-3e-5 -0.102738,-3.1e-5 -0.102739,-2.9e-5 -0.102728,-3.1e-5 -0.102738,-2.9e-5 -0.05751,-0.10113 -0.05751,-0.10113 -0.05751,-0.101131 -0.05751,-0.10113 -0.05751,-0.10113 -0.05751,-0.101131 -0.05751,-0.10113 -0.05751,-0.10113 -0.05751,-0.101131 -0.05751,-0.10113 -0.05751,-0.10113 -0.05751,-0.101131 -0.05751,-0.10113 -0.05751,-0.10113 -0.05751,-0.101131 -0.05751,-0.10113 c -0.03164,-0.05562 -0.06299,-0.110614 -0.09399,-0.164833 -0.031,-0.05422 -0.06165,-0.107672 -0.09186,-0.160212 -0.03021,-0.05254 -0.05998,-0.104173 -0.08923,-0.154759 -0.02924,-0.05059 -0.05798,-0.100119 -0.0861,-0.148476 -0.02812,-0.04835 -0.05564,-0.09552 -0.08248,-0.141369 -0.02683,-0.04585 -0.05298,-0.09037 -0.07835,-0.133426 -0.02538,-0.04306 -0.04999,-0.08466 -0.07374,-0.124658 -0.02376,-0.04 -0.04665,-0.0784 -0.06863,-0.115057 -0.02196,-0.03665 -0.043,-0.07158 -0.06301,-0.104629 -0.02002,-0.03305 -0.03901,-0.06422 -0.0569,-0.09337 -0.0179,-0.02916 -0.03469,-0.05629 -0.05029,-0.08128 -0.01561,-0.02498 -0.03004,-0.04782 -0.0432,-0.06837 -0.01315,-0.02054 -0.02505,-0.0388 -0.03559,-0.05462 -0.01054,-0.01581 -0.01973,-0.02921 -0.02749,-0.04003 -0.0077,-0.01087 -0.01408,-0.01908 -0.0189,-0.02464 -0.0048,-0.0055 -0.0082,-0.0084 -0.0098,-0.0084 -0.0017,0 -0.0046,0.0013 -0.0087,0.0037 -0.004,0.0024 -0.0093,0.006 -0.0157,0.01076 -0.0063,0.0047 -0.01379,0.01054 -0.02229,0.01748 -0.0085,0.007 -0.01801,0.01487 -0.02849,0.02384 -0.01043,0.009 -0.02194,0.01894 -0.0343,0.02984 -0.01236,0.01091 -0.02563,0.02276 -0.03973,0.03549 -0.0141,0.01273 -0.02905,0.02634 -0.04476,0.04076 -0.01572,0.01442 -0.03221,0.02968 -0.0494,0.04569 -0.0172,0.01601 -0.03511,0.03278 -0.05366,0.05024 -0.01856,0.01746 -0.03775,0.03562 -0.05753,0.05442 -0.01978,0.0188 -0.04013,0.03824 -0.06101,0.05826 -0.02088,0.02002 -0.04226,0.04061 -0.06409,0.06173 -0.02184,0.02111 -0.04412,0.04274 -0.06679,0.06482 -0.02268,0.02208 -0.04573,0.04463 -0.06911,0.06757 -0.02338,0.02294 -0.04708,0.04627 -0.07103,0.06995 -0.02395,0.02367 -0.04816,0.04767 -0.07256,0.07196 l -0.04436,0.04415 -0.04436,0.04415 -0.04436,0.04415 -0.04436,0.04415 -0.04436,0.04415 -0.04436,0.04415 -0.04436,0.04415 -0.04436,0.04415 -0.04436,0.04415 -0.04436,0.04415 -0.04436,0.04415 -0.04436,0.04415 -0.04436,0.04415 -0.04436,0.04415 -0.04436,0.04415 -0.04436,0.04415 v 0.05701 0.05701 0.05701 0.05701 0.05701 0.05701 0.05701 0.05701 0.05701 0.05701 0.05701 0.05701 0.05701 0.05701 0.05701 0.05701 0.05701 0.05701 0.05701 0.05701 0.05701 0.05701 0.05701 0.05701 0.05701 0.05701 0.05701 0.05701 0.05701 0.05701 0.05701 0.05701 h -0.08346 -0.08346 -0.08346 -0.08346 -0.08346 -0.08346 -0.08346 -0.08346 -0.08346 -0.08346 -0.08346 -0.08346 -0.08346 -0.08346 -0.08346 -0.08346 -0.08346 -0.08346 -0.08346 -0.08346 -0.08346 -0.08346 -0.08346 -0.08346 -0.08346 -0.08346 -0.08346 -0.08346 -0.08346 -0.08346 -0.08346 -0.08346 v -0.245269 -0.245332 -0.245332 -0.245334 -0.24533 -0.245333 -0.245332 -0.245333 -0.245333 -0.245331 -0.245332 -0.245333 -0.245332 -0.245333 -0.245332 z"
       style="fill:#800000;fill-opacity:1;stroke:#000000;stroke-width:0.03058851;stroke-miterlimit:4;stroke-dasharray:none;stroke-opacity:1" />
    <path
       sodipodi:nodetypes="ccccccccccccccccccccccccccccccccccccccccccccccccccccccccccccccccccccccccccccccccccccccccccccccccccccccccccccccccccccccccccccccccccccccccccccccccccccccccccccccccccccccccccccccccccccccccccccccccccccccccccccccccccccccccccccccccccccccccccccccccccccccccccccccccccccccccccccccccccccccccccccccccccccccccccccccccccccccccccccccccccccccccccccccccccccccccccccccccccccccccccccccccccccccccccccccccc"
       inkscape:connector-curvature="0"
       id="path1509"
       d="M 41.655038,31.907645 V 31.741987 31.576328 31.410672 31.245014 31.079355 30.913697 30.748039 30.582382 30.416724 30.251066 30.085408 29.919749 29.754092 29.588435 29.422776 29.257119 29.09146 28.925802 28.760146 28.594487 28.428829 28.26317 28.097513 27.931854 27.766197 27.60054 27.434881 27.269223 27.103565 26.937908 26.77225 26.606592 h 0.05564 0.05564 0.05564 0.05564 0.05564 0.05564 0.05564 0.05564 0.05564 0.05564 0.05564 0.05564 0.05564 0.05564 0.05564 0.05564 0.05564 0.05564 0.05564 0.05564 0.05564 0.05564 0.05564 0.05564 0.05564 0.05564 0.05564 0.05564 0.05564 0.05564 0.05564 0.05564 0.05564 0.05564 0.05564 0.05564 0.05564 0.05564 0.05564 0.05564 0.05564 0.05564 0.05564 0.05564 0.05564 0.05564 0.05564 0.05564 0.05564 0.05564 0.05564 0.05564 0.05564 0.05564 0.05564 0.05564 0.05564 0.05564 0.05564 0.05564 0.05564 0.05564 0.05564 0.05564 v 0.125192 0.125191 0.125192 0.125192 0.125192 0.125192 0.125192 0.125191 0.125193 0.125191 0.125193 0.125191 0.125192 0.125192 0.125191 0.125193 0.125191 0.125193 0.125191 0.125192 0.125192 0.125191 0.125193 0.125191 0.125192 0.125192 0.125192 0.125192 0.125192 0.125191 0.125193 0.125191 0.125192 0.125192 0.125191 0.125193 0.125191 0.125193 0.125191 0.125192 0.125192 0.125191 0.125193 0.125191 0.125192 0.125192 0.125192 0.12519 0.125193 0.125191 0.125191 0.125193 0.125191 0.125193 0.125191 0.125192 0.125192 0.125192 0.125192 0.125191 0.125193 0.125191 0.125192 0.125192 h 0.08852 0.08853 0.08852 0.08852 0.08852 0.08851 0.08853 0.08852 0.08851 0.08852 0.08852 0.08852 0.08851 0.08852 0.08853 0.08852 0.08852 0.08852 0.08852 0.08851 0.08853 0.08852 0.08852 0.08851 0.08852 0.08853 0.08851 0.08852 0.08852 0.08852 0.08851 0.08852 0.08852 0.08851 0.08852 0.08852 0.08852 0.08851 0.08853 0.08852 0.08851 0.08852 0.08852 0.08852 0.08851 0.08852 0.08852 0.08851 0.08852 0.08852 0.08852 0.08851 0.08853 0.08852 0.08852 0.08851 0.08852 0.08853 0.08851 0.08852 0.08852 0.08852 0.08851 0.08852 v 0.04047 0.04047 0.04047 0.04047 0.04047 0.04047 0.04047 0.04047 0.04047 0.04047 0.04047 0.04047 0.04047 0.04047 0.04047 0.04047 0.04047 0.04047 0.04047 0.04047 0.04047 0.04047 0.04047 0.04046 0.04047 0.04047 0.04047 0.04047 0.04047 0.04046 0.04047 0.04047 0.04047 0.04047 0.04047 0.04047 0.04047 0.04047 0.04047 0.04047 0.04047 0.04047 0.04047 0.04047 0.04047 0.04047 0.04047 0.04047 0.04047 0.04047 0.04047 0.04047 0.04047 0.04047 0.04047 0.04046 0.04047 0.04047 0.04047 0.04047 0.04047 0.04046 0.04047 0.04047 h -0.144255 -0.144159 -0.14416 -0.144161 -0.14416 -0.14416 -0.144161 -0.144161 -0.144159 -0.14416 -0.144161 -0.14416 -0.14416 -0.144161 -0.144161 -0.14416 -0.144159 -0.144161 -0.14416 -0.144161 -0.14416 -0.144161 -0.14416 -0.144159 -0.144161 -0.14416 -0.144161 -0.14416 -0.144161 -0.14416 -0.144159 -0.144161 -0.144161 -0.14416 -0.14416 -0.144161 -0.14416 -0.144159 -0.144161 -0.144162 -0.144159 -0.14416 -0.144161 -0.14416 H 44.393892 44.24973 44.105569 43.961409 43.81725 43.673089 43.528929 43.384963 43.240801 43.09664 42.95248 42.808321 42.66416 42.52 42.375841 42.231679 42.087518 41.943358 41.799199 41.655038 V 37.043038 36.87738 36.711723 36.546065 36.380407 36.214748 36.049092 35.883434 35.717775 35.552118 35.386459 35.220802 35.055145 34.889486 34.723828 34.558172 34.392513 34.226855 34.061196 33.895539 33.729882 33.564223 33.398566 33.232907 33.067249 32.901593 32.735934 32.570276 32.404618 32.238961 32.073303 Z"
       style="fill:#800000;fill-opacity:1;stroke:#000000;stroke-width:0.03058851;stroke-miterlimit:4;stroke-dasharray:none;stroke-opacity:1" />
  </g>
  <g
     style="display:inline"
     inkscape:label="Drill"
     inkscape:groupmode="layer"
     id="g1430"
     transform="translate(-0.18490772,-0.39345584)" />
  <g
     inkscape:label="B.Adhes-disabled"
     inkscape:groupmode="layer"
     id="g878"
     transform="translate(-0.18490772,-0.39345584)" />
  <g
     inkscape:label="F.Adhes-disabled"
     inkscape:groupmode="layer"
     id="g880"
     transform="translate(-0.18490772,-0.39345584)" />
  <g
     inkscape:label="B.Paste-disabled"
     inkscape:groupmode="layer"
     id="g882"
     transform="translate(-0.18490772,-0.39345584)" />
  <g
     inkscape:label="F.Paste-disabled"
     inkscape:groupmode="layer"
     id="g884"
     transform="translate(-0.18490772,-0.39345584)" />
  <g
     inkscape:label="B.SilkS-disabled"
     inkscape:groupmode="layer"
     id="g886"
     transform="translate(-0.18490772,-0.39345584)" />
  <g
     inkscape:label="F.SilkS-disabled"
     inkscape:groupmode="layer"
     id="g888"
     transform="translate(-0.18490772,-0.39345584)" />
  <g
     inkscape:label="Dwgs.User-disabled"
     inkscape:groupmode="layer"
     id="g890"
     transform="translate(-0.18490772,-0.39345584)" />
  <g
     inkscape:label="Cmts.User-disabled"
     inkscape:groupmode="layer"
     id="g892"
     transform="translate(-0.18490772,-0.39345584)" />
  <g
     inkscape:label="Eco1.User-disabled"
     inkscape:groupmode="layer"
     id="g894"
     transform="translate(-0.18490772,-0.39345584)" />
  <g
     inkscape:label="Eco2.User-disabled"
     inkscape:groupmode="layer"
     id="g896"
     transform="translate(-0.18490772,-0.39345584)" />
  <g
     inkscape:label="Margin-disabled"
     inkscape:groupmode="layer"
     id="g898"
     transform="translate(-0.18490772,-0.39345584)" />
  <g
     inkscape:label="B.CrtYd-disabled"
     inkscape:groupmode="layer"
     id="g900"
     transform="translate(-0.18490772,-0.39345584)" />
  <g
     inkscape:label="F.CrtYd-disabled"
     inkscape:groupmode="layer"
     id="g902"
     transform="translate(-0.18490772,-0.39345584)" />
  <g
     inkscape:label="B.Fab-disabled"
     inkscape:groupmode="layer"
     id="g904"
     transform="translate(-0.18490772,-0.39345584)" />
  <g
     inkscape:label="F.Fab-disabled"
     inkscape:groupmode="layer"
     id="g906"
     transform="translate(-0.18490772,-0.39345584)" />
</svg>
