<?xml version="1.0" encoding="UTF-8" standalone="no"?>
<!-- Created with Inkscape (http://www.inkscape.org/) -->

<svg
   xmlns:dc="http://purl.org/dc/elements/1.1/"
   xmlns:cc="http://creativecommons.org/ns#"
   xmlns:rdf="http://www.w3.org/1999/02/22-rdf-syntax-ns#"
   xmlns:svg="http://www.w3.org/2000/svg"
   xmlns="http://www.w3.org/2000/svg"
   xmlns:sodipodi="http://sodipodi.sourceforge.net/DTD/sodipodi-0.dtd"
   xmlns:inkscape="http://www.inkscape.org/namespaces/inkscape"
   sodipodi:docname="Maker_Lugo_100mm.svg"
   inkscape:version="0.92.3 (2405546, 2018-03-11)"
   id="svg862"
   version="1.1"
   viewBox="0 0 99.5 99.5"
   height="99.5mm"
   width="99.5mm">
  <sodipodi:namedview
     inkscape:snap-global="false"
     inkscape:snap-bbox="true"
     borderlayer="true"
     inkscape:window-maximized="1"
     inkscape:window-y="27"
     inkscape:window-x="57"
     inkscape:window-height="1025"
     inkscape:window-width="1863"
     showgrid="true"
     inkscape:current-layer="g1418"
     inkscape:document-units="mm"
     inkscape:cy="183.18788"
     inkscape:cx="155.71528"
     inkscape:zoom="2"
     inkscape:pageshadow="2"
     inkscape:pageopacity="0.0"
     borderopacity="1.0"
     bordercolor="#666666"
     pagecolor="#ffffff"
     id="base">
    <inkscape:grid
       spacingx="2.54"
       spacingy="2.54"
       empspacing="1"
       type="xygrid"
       units="mm"
       id="grid1408" />
  </sodipodi:namedview>
  <defs
     id="defs856" />
  <metadata
     id="metadata859">
    <rdf:RDF>
      <cc:Work
         rdf:about="">
        <dc:format>image/svg+xml</dc:format>
        <dc:type
           rdf:resource="http://purl.org/dc/dcmitype/StillImage" />
        <dc:title></dc:title>
      </cc:Work>
    </rdf:RDF>
  </metadata>
  <g
     inkscape:label="[fixed] BG"
     inkscape:groupmode="layer"
     sodipodi:insensitive="true"
     id="g1414">
    <rect
       x="0"
       y="0"
       width="99.5"
       height="99.5"
       style="stroke:none;fill-opacity:1;fill:#FFFFFF"
       id="rect1412" />
  </g>
  <g
     style="display:none"
     inkscape:label="BASE"
     id="layer2"
     inkscape:groupmode="layer">
    <path
       style="fill:none;stroke:#000000;stroke-width:0.17615235;stroke-miterlimit:4;stroke-dasharray:none;stroke-opacity:1"
       id="path6"
       d="M 61.857348,84.946701 61.69564,84.277603 61.252264,82.443875 60.8258,80.680661 58.630043,71.602403 57.47436,66.824182 l -0.06183,-0.255544 -0.02132,-0.08843 -0.0053,-0.02325 0.132819,-0.07786 0.02043,-0.01233 0.37096,-0.261763 0.522397,-0.36534 0.70128,-0.483943 0.103049,-0.07856 0.146383,-0.111681 0.04175,-0.03188 0.228875,-0.210097 1.172487,-1.155137 0.199264,-0.196322 0.101464,-0.09988 0.376772,-0.44482 0.130353,-0.173686 0.88749,-1.182511 0.07099,-0.10622 0.09459,-0.15748 0.20416,-0.414522 0.248727,-0.536542 0.633532,-1.366572 0.423136,-0.912787 0.03734,-0.09812 0.1108,-0.365922 0.10622,-0.441437 0.252373,-1.048107 h -0.09213 -3.785055 -5.398471 l 2.881271,4.232941 h -5.610452 l -2.412371,-4.232941 -0.696718,-1.22248 -1.296235,1.22248 -1.05716,0.997022 V 60.35638 H 46.395983 42.68093 v -3.184817 -1.048124 h -7.735766 l 0.228875,1.048124 0.06711,0.307545 0.02537,0.109919 0.04175,0.180468 0.144269,0.389525 0.04545,0.122602 0.89149,2.13768 0.184414,0.344501 0.470133,0.695854 0.642603,0.999841 0.14973,0.172982 0.819408,0.94629 0.599992,0.657401 0.171925,0.150434 0.744966,0.651975 0.195229,0.163998 0.454227,0.325054 1.030227,0.676213 0.500889,0.340538 -1.223078,5.057351 -3.869486,15.9999 -0.642534,-0.254258 -0.615071,-0.280417 -2.131549,-0.906251 -1.905968,-1.04675 -1.263012,-0.693635 -11.368873,7.609781 -8.19813,-8.198112 7.597451,-11.351275 -0.497138,-0.878983 -0.507882,-0.898007 -0.453821,-0.931053 -0.625042,-1.160263 -0.400024,-0.942784 -0.341929,-0.80588 -0.10851,-0.260159 -0.05038,-0.144797 -0.688051,-1.896104 -0.118727,-0.422537 -0.08614,-0.306417 -0.568567,-2.024325 -0.167873,-0.03329 -0.07539,-0.01409 L 3.1046391,59.594485 0.93444223,59.164444 v -3.040425 -5.996225 -2.555971 l 2.17019687,-0.429829 11.1610129,-2.210677 0.405714,-1.498299 0.228099,-0.691275 0.255298,-0.773731 0.190421,-0.634624 0.187532,-0.626909 0.145325,-0.341207 0.684475,-1.65703 0.31748,-0.768588 0.147792,-0.273741 0.437298,-0.810248 0.215593,-0.442512 0.229579,-0.47126 0.992707,-1.764677 -0.07698,-0.115027 -0.161003,-0.240466 -0.05196,-0.07768 -2.249518,-3.36141 -0.391358,-0.584808 -4.606824,-6.88384 8.19813,-8.196369 11.249089,7.528752 1.35285,-0.763092 0.417992,-0.235762 0.917471,-0.447656 1.15903,-0.623104 0.04122,-0.01761 0.155366,-0.06535 0.460973,-0.180415 3.225015,-1.262273 0.210291,-0.07539 0.0035,-0.001 0.421233,-0.117141 0.275273,-0.0768 2.153286,-0.600045 0.772763,-3.900031 0.50258,-2.536524 1.35285,-6.8277359 h 2.696893 0.505557 5.323324 3.066812 l 1.6413,8.2844639 0.213919,1.079796 0.776497,3.919408 1.006271,0.260194 1.562066,0.508323 0.401187,0.130529 0.635927,0.192535 0.628054,0.189645 0.14603,0.05725 0.210502,0.0879 1.513871,0.631859 0.70283,0.293346 0.130882,0.06095 0.128415,0.05972 1.021278,0.558966 0.902622,0.442794 0.01233,0.007 1.76591,1.001338 0.116436,-0.07786 0.13599,-0.09107 3.538266,-2.367892 0.602318,-0.403073 1.422853,-0.952209 0.249502,-0.166992 5.192549,-3.475063 5.766752,5.76677 0.27855,0.278532 2.152828,2.152829 -7.229433,10.801203 -0.06342,0.09477 -0.265849,0.397189 0.510525,0.869382 0.917489,1.804135 0.431115,0.808046 0.183886,0.344642 0.102344,0.257993 1.105656,2.785919 0.107453,0.261587 0.125949,0.422413 0.275061,0.948756 0.646039,2.228328 4.358009,0.863551 8.994339,1.782257 v 2.511932 5.996226 3.086189 l -5.789317,1.146752 -3.204987,0.634853 -2.276645,0.45095 -1.333121,0.26407 -0.267576,0.05302 -0.521182,0.103225 -1.091827,3.584542 -0.15889,0.52157 -0.101287,0.240624 -0.773661,1.883421 -0.0953,0.180802 -1.753438,3.328505 -0.255104,0.484242 -0.218429,0.412373 7.60802,11.365349 -8.19813,8.199892 -4.993919,-3.343442 -5.707107,-3.820903 -0.0798,-0.05355 -0.09988,-0.06694 -0.09636,-0.06447 -0.0731,-0.04897 -0.345065,-0.231024 -2.169157,1.191248 -9.34e-4,4.58e-4 -1.707445,0.845408 -0.191935,0.09512 -1.963747,0.841304 -0.33712,0.13 -9.34e-4,4.23e-4 -0.06271,-0.260705 -0.480896,-1.991227 -0.05197,-0.2145 -0.03047,-0.125773 m -14.714413,-73.796062 0.09266,0.173334 0.118198,0.221124 0.0035,0.0053 0.06289,0.0768 0.284979,0.346139 0.08174,0.06676 0.345065,0.283676 0.0035,0.0018 0.0886,0.04756 0.395321,0.212581 0.100055,0.0303 0.430041,0.13 0.551515,0.05461 0.103049,-0.01057 0.197661,-0.01973 0.249062,-0.02466 0.530394,-0.160299 0.09072,-0.04879 0.39747,-0.213726 3.5e-5,-3.5e-5 0.07909,-0.06482 0.347583,-0.285754 0.06465,-0.07892 0.287498,-0.349186 0.0035,-0.0053 0.04509,-0.08455 0.212897,-0.398351 0.160299,-0.528458 0.01057,-0.100935 0.01585,-0.154486 0.02924,-0.2959357 -0.01057,-0.100935 -0.04474,-0.4504744 -0.160298,-0.5284571 -0.04791,-0.089485 -0.21295,-0.3984566 -5.3e-5,-7.04e-5 -0.06447,-0.078564 -0.287639,-0.3493629 -0.07892,-0.064648 -0.34776,-0.2858953 -0.0035,-0.00176 -0.08614,-0.046328 -0.397752,-0.2138666 -0.530377,-0.1602986 -0.102697,-0.010569 -0.146382,-0.014092 -0.300693,-0.029946 -0.551515,0.054607 -0.0997,0.030298 -0.430323,0.1300004 -0.0018,9.865e-4 -0.09072,0.048794 -0.395603,0.2127216 -3.5e-5,3.52e-5 -0.08156,0.066762 -0.345224,0.2837991 -0.06694,0.081735 -0.28512,0.3463155 -0.0035,0.00528 -0.04756,0.088428 -0.06782,0.1270059 -0.142859,0.2674697 -0.160299,0.528457 -0.01057,0.1058676 -0.04404,0.4454014 7.05e-4,0.007 0.0088,0.09864 0.01885,0.189945 0.02537,0.255421 0.160299,0.528457 0.05038,0.09354 m -4.462506,35.94199 h 4.5553 v 3.035105 1.976429 l 1.881941,-1.976429 2.890026,-3.035105 h 5.861258 0.198383 l -3.261514,3.035105 h 6.02006 3.808237 l -0.04439,-0.170868 -0.0657,-0.252479 -0.323116,-1.189451 -0.01057,-0.03752 -0.410312,-1.039721 -0.160475,-0.41114 -0.065,-0.126653 -0.309059,-0.49682 -1.413975,-2.272929 -0.185911,-0.292096 -0.03294,-0.04474 -0.100583,-0.136694 -0.04474,-0.06095 -0.224541,-0.219486 -0.101111,-0.08825 -0.315877,-0.27552 -0.310468,-0.270781 -2.473919,-2.157743 -0.222709,-0.160123 -0.148849,-0.08579 -1.5404,-0.832038 -0.321566,-0.132643 -2.628668,-0.814211 -0.315665,-0.09776 -0.242562,-0.07275 -1.172805,-0.149554 -0.707586,-0.08332 -0.242615,0.01057 -0.326674,0.01585 -2.075656,0.104282 -0.681041,0.03417 -0.17897,0.04122 -0.840247,0.193433 -0.156071,0.03594 -0.51174,0.08403 -0.174567,0.04915 -0.877221,0.337155 -1.50531,0.592876 -0.147616,0.05813 -0.34244,0.201202 -0.605612,0.355792 -0.659761,0.370396 -0.01233,0.007 -0.08896,0.05549 -0.935722,0.698972 -0.289242,0.219275 -0.113442,0.124363 -0.09671,0.105868 -0.0842,0.06641 -0.82198,0.822737 -0.675685,0.676267 -0.194032,0.194208 -0.8821,1.215222 -0.159242,0.208512 -0.117846,0.182247 -1.160245,2.26708 -0.105339,0.215681 -0.467685,1.434761 -0.06148,0.172982 -0.01233,0.05108 -0.02783,0.122602 -0.07892,0.449858 -0.03928,0.195564 h 0.0053 7.683765 z"
       inkscape:connector-curvature="0" />
  </g>
  <g
     style="display:inline"
     inkscape:label="Edge.Cuts"
     inkscape:groupmode="layer"
     id="g1416">
    <path
       transform="scale(0.26458333)"
       sodipodi:nodetypes="ccccccccccccccccccccccccccccccccsssssssssssssssscssssssssssssssscsssssssscccccccccccccccsssssssscsssssssssssssssscccccccccccccccssssssssssssssssscccccccccccccccccccccccccccccccsssssssssssssssscssssssssssssssssccccccccccccccccssssssssssssssscssssssscssssssssssssssscsssssssssssssssscccccccccccccccccccccccccccccccsssssssssssssssscssssssscccccccccccccccccccccccccccccccccccccccccccccccccccccccccccccccccssssssscssssssscssssssscsssssssssssssssscccccccccccccccsssssssscssssssssssssssscssssssscssssssscssssssssssssssscssssssscssssssssssssssssssssssssccccccccccccccccccccccccccccccccccccccccccccccccsssssssscccccccccccccccccccccccccccccccccccccccccccccccccccccccccccccccsssssssscssssssscssssssscssssssscssssssssssssssscssssssscssssssssssssssssssssssssssssssssc"
       inkscape:connector-curvature="0"
       id="path2097"
       d="m 57.896121,331.96847 -1.886595,-1.88735 -1.886595,-1.88736 -1.886595,-1.88735 -1.886595,-1.88736 -1.886596,-1.88735 -1.886595,-1.88736 -1.886595,-1.88736 -1.886595,-1.88735 1.789411,-2.68367 1.789412,-2.68366 1.789411,-2.68367 1.789412,-2.68367 1.789411,-2.68366 1.789411,-2.68367 1.789412,-2.68366 1.789411,-2.68367 1.789411,-2.68367 1.789412,-2.68367 1.789411,-2.68366 1.789411,-2.68367 1.789411,-2.68367 1.789412,-2.68366 1.789411,-2.68367 1.789411,-2.68367 -0.199714,-0.34731 -0.199713,-0.34731 -0.199714,-0.34731 -0.199714,-0.34731 -0.199714,-0.34731 -0.199714,-0.34731 -0.199713,-0.34731 -0.199714,-0.34731 -1.064883,-1.88971 -1.052493,-1.94254 -1.036978,-1.98804 -1.018338,-2.02618 -0.996574,-2.05697 -0.971685,-2.08041 -0.943672,-2.0965 -0.912533,-2.10525 -0.878269,-2.10664 -0.840881,-2.10069 -0.800369,-2.08738 -0.75673,-2.06673 -0.709967,-2.03872 -0.66008,-2.00337 -0.607068,-1.96066 -0.55093,-1.91062 -0.387436,-1.35971 -0.34828,-1.13427 -0.317275,-0.92739 -0.294418,-0.73909 -0.141186,-0.30473 -0.138525,-0.26463 -0.136887,-0.22683 -0.136268,-0.19137 -0.136663,-0.15822 -0.138083,-0.12739 -0.140516,-0.0989 -0.143973,-0.0727 -0.224891,-0.0667 -0.455263,-0.11103 -1.551857,-0.34494 -2.324001,-0.49183 -2.996586,-0.61833 -3.56961,-0.7245 -4.043075,-0.81028 -4.416981,-0.87571 -4.691326,-0.92079 -4.688293,-0.91751 -4.408289,-0.86632 -4.029334,-0.79542 -3.551428,-0.70483 -2.9745725,-0.59454 -2.2987671,-0.46454 -1.5240112,-0.31485 -0.6503052,-0.14544 -0.1442346,-0.0644 -0.06579,-0.0509 -0.061742,-0.0676 -0.057821,-0.0874 -0.054028,-0.11033 -0.097188,-0.30219 -0.083547,-0.43196 -0.070926,-0.58699 -0.059327,-0.76728 -0.048749,-0.97284 -0.039191,-1.20366 -0.030654,-1.45973 -0.039779,-3.78877 -0.017879,-5.11625 -0.00414,-6.64584 v -2.67418 -2.67419 -2.67418 -2.67418 -2.67419 -2.67418 -2.67419 -2.67418 l 3.1036425,-0.62019 3.1036421,-0.62019 3.103642,-0.62019 3.103643,-0.62019 3.103642,-0.6202 3.103643,-0.62019 3.103642,-0.62019 3.103643,-0.62019 6.070412,-1.22236 5.175929,-1.06282 4.31198,-0.91017 3.478566,-0.76442 2.675683,-0.62556 1.046302,-0.26287 0.857033,-0.23073 0.671579,-0.19947 0.489941,-0.16907 0.312122,-0.13953 0.09057,-0.0589 0.04755,-0.0519 0.122785,-0.29078 0.197151,-0.54746 0.261297,-0.77241 0.315219,-0.96562 0.358921,-1.12711 0.3924,-1.25686 0.415658,-1.35489 0.428694,-1.42118 0.510589,-1.67151 0.524362,-1.64529 0.539636,-1.62269 0.55641,-1.60369 0.574685,-1.58829 0.59446,-1.57651 0.615737,-1.56832 0.638514,-1.56374 0.662791,-1.56277 0.68857,-1.5654 0.715849,-1.57164 0.744629,-1.58148 0.774908,-1.59494 0.80669,-1.61198 0.839971,-1.63265 0.874754,-1.65691 0.475504,-0.88973 0.475503,-0.88972 0.475504,-0.88972 0.475504,-0.88973 0.475504,-0.88972 0.475503,-0.88973 0.475504,-0.88972 0.475504,-0.88973 -1.750969,-2.62534 -1.75097,-2.62535 -1.750969,-2.62534 -1.75097,-2.62535 -1.750969,-2.62535 -1.750969,-2.62534 -1.75097,-2.62534 -1.750969,-2.62535 -2.813863,-4.22682 -2.625087,-3.958343 -2.378858,-3.602156 -2.075173,-3.158255 -1.714035,-2.626641 -1.295444,-2.007314 -0.819399,-1.300272 -0.213229,-0.357586 -0.07267,-0.147933 0.07769,-0.116625 0.227944,-0.265726 0.875946,-0.947274 1.384844,-1.449235 1.832323,-1.888234 2.218383,-2.26427 2.543024,-2.577344 2.806248,-2.827456 3.008051,-3.014606 1.871806,-1.871026 1.871805,-1.871026 1.871806,-1.871026 1.871805,-1.871026 1.871806,-1.871025 1.871806,-1.871026 1.871805,-1.871026 1.871806,-1.871026 2.650856,1.766233 2.650856,1.766234 2.650857,1.766233 2.650856,1.766233 2.650856,1.766234 2.650857,1.766233 2.650856,1.766234 2.650856,1.766233 2.650857,1.766233 2.650856,1.766233 2.65086,1.766233 2.65085,1.766233 2.65086,1.766234 2.65086,1.766233 2.65085,1.766233 2.65086,1.766233 0.93628,-0.500587 0.93627,-0.500587 0.93628,-0.500587 0.93628,-0.500586 0.93627,-0.500587 0.93628,-0.500587 0.93627,-0.500587 0.93628,-0.500587 1.59326,-0.836218 1.64028,-0.830621 1.68102,-0.822465 1.7155,-0.811751 1.74371,-0.798479 1.76565,-0.782647 1.78133,-0.764258 1.79073,-0.743309 1.79386,-0.719802 1.79073,-0.693738 1.78134,-0.665113 1.76566,-0.633931 1.74372,-0.60019 1.71552,-0.56389 1.68105,-0.525033 1.6403,-0.483615 1.15829,-0.342838 1.09598,-0.347493 1.00859,-0.342564 0.89609,-0.328053 0.75853,-0.303959 0.59586,-0.270282 0.40811,-0.227023 0.12581,-0.0943 0.0695,-0.07989 0.057,-0.189329 0.1078,-0.447161 0.35417,-1.599415 1.16604,-5.540345 1.59235,-7.750238 1.79789,-8.865587 1.78266,-8.886389 1.54665,-7.812645 1.08989,-5.644356 0.30467,-1.667024 0.10769,-0.714497 0.0281,-0.01712 0.0833,-0.0169 0.32673,-0.03306 1.2556,-0.06258 1.98505,-0.05671 2.62647,-0.04947 3.17986,-0.04086 3.6452,-0.03088 4.02251,-0.01953 4.31177,-0.0068 h 2.68307 2.68307 2.68307 2.68306 2.68307 2.68307 2.68307 2.68307 l 0.0747,0.359375 0.0747,0.359375 0.0747,0.359375 0.0747,0.359375 0.0747,0.359375 0.0747,0.359375 0.0747,0.359375 0.0747,0.359375 0.2087,1.025855 0.36615,1.823703 0.50333,2.519665 0.62022,3.113739 0.71685,3.605928 0.79321,3.996229 0.84929,4.284645 0.88509,4.471172 1.05285,5.273941 0.92608,4.535302 0.8027,3.811613 0.68271,3.102876 0.56611,2.409089 0.24039,0.949047 0.2125,0.781207 0.18505,0.615237 0.15801,0.451134 0.13139,0.288901 0.0559,0.0842 0.0494,0.04434 0.29354,0.122379 0.56262,0.202813 0.79874,0.272468 1.00189,0.331348 1.17209,0.379448 1.30932,0.416772 1.41359,0.443319 1.48489,0.459088 1.58109,0.497247 1.6893,0.552688 1.74521,0.589682 1.74883,0.608231 1.70015,0.608333 1.59917,0.58999 1.44591,0.5532 1.24034,0.497964 1.03165,0.440615 1.17326,0.523792 2.66359,1.242298 2.90661,1.410561 2.93399,1.469196 2.74572,1.418202 2.34181,1.257581 0.95205,0.534299 0.7702,0.453033 0.56141,0.358062 0.19397,0.139136 0.13167,0.110255 0.10877,0.09144 0.1273,0.0853 0.14119,0.0773 0.15045,0.06743 0.15508,0.0557 0.15506,0.0421 0.15043,0.02663 0.14116,0.0093 0.17596,-0.07289 0.38548,-0.213881 1.35498,-0.821904 2.05942,-1.299403 2.67477,-1.719273 3.20103,-2.081516 3.6382,-2.386127 3.98628,-2.63311 4.24526,-2.822463 2.63337,-1.756321 2.63337,-1.756321 2.63337,-1.756321 2.63336,-1.756322 2.63337,-1.756321 2.63337,-1.756321 2.63337,-1.756321 2.63337,-1.756321 1.89335,1.892589 1.89335,1.892588 1.89335,1.892589 1.89335,1.892588 1.89336,1.892589 1.89335,1.892589 1.89335,1.892588 1.89335,1.892589 1.89335,1.892588 1.89335,1.892588 1.89335,1.892588 1.89336,1.892588 1.89335,1.892589 1.89335,1.892588 1.89335,1.892588 1.89335,1.892588 -1.77727,2.642343 -1.77728,2.642343 -1.77727,2.642343 -1.77727,2.642344 -1.77728,2.642344 -1.77727,2.64234 -1.77728,2.64235 -1.77727,2.64234 -2.85613,4.25097 -2.66453,3.97476 -2.41459,3.61091 -2.10635,3.15944 -1.73979,2.62032 -1.31491,1.99356 -0.8317,1.27918 -0.2902,0.47716 0.0779,0.19159 0.22328,0.46075 0.35301,0.69964 0.46707,0.90831 0.56549,1.0867 0.64823,1.23487 0.71534,1.35277 0.76677,1.44042 0.83879,1.59709 0.8217,1.61778 0.80392,1.63676 0.78547,1.65408 0.76634,1.66971 0.74652,1.68367 0.72601,1.69593 0.70484,1.70652 0.68297,1.71543 0.66043,1.72265 0.6372,1.7282 0.61329,1.73206 0.5887,1.73424 0.56342,1.73474 0.53748,1.73356 0.51083,1.7307 0.24036,0.83554 0.24035,0.83554 0.24036,0.83554 0.24036,0.83554 0.24036,0.83555 0.24035,0.83554 0.24036,0.83554 0.24036,0.83554 3.14176,0.61951 3.14176,0.61951 3.14176,0.61951 3.14177,0.61951 3.14176,0.61952 3.14176,0.61951 3.14176,0.61951 3.14176,0.61951 3.14176,0.61951 3.14176,0.61951 3.14176,0.61951 3.14176,0.61951 3.14177,0.61952 3.14176,0.61951 3.14176,0.61951 3.14176,0.61951 2.5e-4,2.68778 2.5e-4,2.68779 2.5e-4,2.68778 2.5e-4,2.68778 2.5e-4,2.68779 2.5e-4,2.68778 2.5e-4,2.68779 2.5e-4,2.68778 2.5e-4,2.68778 2.5e-4,2.68779 2.5e-4,2.68778 2.5e-4,2.68778 2.5e-4,2.68779 2.5e-4,2.68778 2.5e-4,2.68779 2.5e-4,2.68778 -3.14909,0.62024 -3.14909,0.62024 -3.1491,0.62024 -3.14909,0.62024 -3.14909,0.62024 -3.1491,0.62024 -3.14909,0.62024 -3.14909,0.62024 -3.14909,0.62024 -3.1491,0.62024 -3.14909,0.62024 -3.1491,0.62024 -3.14909,0.62025 -3.14909,0.62024 -3.1491,0.62024 -3.14909,0.62024 -0.29581,0.97322 -0.2958,0.97323 -0.29581,0.97322 -0.2958,0.97323 -0.29581,0.97322 -0.2958,0.97323 -0.2958,0.97322 -0.29581,0.97323 -0.55775,1.81204 -0.54203,1.71087 -0.53207,1.62349 -0.52786,1.54987 -0.5294,1.49003 -0.53669,1.44398 -0.54975,1.41168 -0.56854,1.39318 -0.5931,1.38845 -0.62341,1.39749 -0.65947,1.42031 -0.70129,1.4569 -0.74885,1.50728 -0.80217,1.57142 -0.86125,1.64934 -0.92607,1.74105 -0.83137,1.56076 -0.77594,1.47597 -0.7035,1.35743 -0.61404,1.20517 -0.5076,1.01919 -0.38413,0.79948 -0.24366,0.54604 -0.0638,0.16745 -0.0224,0.0914 0.0722,0.16095 0.21349,0.37137 0.82217,1.32975 1.30096,2.0385 1.72203,2.65857 2.08534,3.18996 2.39093,3.63268 2.63877,3.98671 2.82888,4.25207 2.82903,4.24958 2.63923,3.97958 2.39169,3.6214 2.08636,3.17505 1.72328,2.6405 1.30243,2.0178 0.82382,1.3069 0.21438,0.35931 0.0731,0.14852 -0.0776,0.11657 -0.22778,0.26556 -0.8753,0.94663 -1.38384,1.44822 -1.83098,1.8869 -2.21676,2.26264 -2.54117,2.57549 -2.80419,2.8254 -3.00585,3.01241 -1.87044,1.86966 -1.87044,1.86966 -1.87043,1.86966 -1.87044,1.86965 -1.87044,1.86966 -1.87043,1.86966 -1.87044,1.86966 -1.87044,1.86966 -2.62535,-1.76102 -2.62535,-1.76102 -2.62536,-1.76102 -2.62535,-1.76102 -2.62535,-1.76102 -2.62535,-1.76102 -2.62536,-1.76102 -2.62535,-1.76102 -4.23281,-2.83531 -3.97549,-2.65531 -3.62926,-2.41648 -3.1941,-2.1188 -2.67004,-1.76228 -2.05706,-1.34689 -1.35516,-0.87268 -0.56436,-0.33961 -0.0985,-0.0102 -0.15416,0.0218 -0.46195,0.13404 -0.64492,0.24468 -0.8016,0.34359 -0.93199,0.43075 -1.03611,0.50618 -1.11393,0.56986 -1.16547,0.6218 -1.08466,0.5801 -1.2149,0.63141 -2.71152,1.36571 -2.90538,1.41783 -2.88114,1.36788 -2.63881,1.21583 -2.17839,0.96171 -0.84837,0.35365 -0.65149,0.25184 -0.42733,0.13728 -0.12109,0.0217 -0.0548,-0.0118 -0.24419,-0.91921 -0.62079,-2.5005 -2.15467,-8.84286 -3.01118,-12.46201 -3.43453,-14.27721 -3.42469,-14.28841 -2.98168,-12.49563 -2.1055,-8.89889 -0.58882,-2.53691 -0.20733,-0.96124 0.0157,-0.0653 0.0445,-0.0832 0.16963,-0.21518 0.26724,-0.27166 0.35302,-0.31796 0.42694,-0.35407 0.48905,-0.37999 0.53929,-0.39571 0.57771,-0.40125 0.75719,-0.53643 0.82683,-0.63095 0.88522,-0.71452 0.93238,-0.78714 0.96826,-0.84882 0.99293,-0.89955 1.00631,-0.93933 1.00847,-0.96816 0.99937,-0.98604 0.97903,-0.99298 0.94743,-0.98896 0.90459,-0.974 0.85049,-0.9481 0.78515,-0.91123 0.70856,-0.86343 0.62073,-0.80467 0.57282,-0.81397 0.61639,-0.95342 0.65069,-1.07377 0.67575,-1.17499 0.69157,-1.25709 0.69814,-1.32008 0.69547,-1.36395 0.68355,-1.3887 0.66238,-1.39434 0.63198,-1.38087 0.59232,-1.34826 0.54342,-1.29655 0.48528,-1.22573 0.41788,-1.13577 0.34125,-1.02671 0.25537,-0.89852 0.16404,-0.64596 0.16319,-0.63715 0.15805,-0.61192 0.14859,-0.57028 0.13486,-0.51222 0.11681,-0.43776 0.0945,-0.34688 0.0678,-0.23959 0.0261,-0.1453 -0.005,-0.0662 -0.0213,-0.0621 -0.0399,-0.0581 -0.0612,-0.0543 -0.0853,-0.0506 -0.11198,-0.047 -0.31492,-0.0837 -0.4542,-0.0709 -0.61511,-0.0592 -0.79763,-0.0485 -1.00177,-0.0389 -1.22751,-0.0302 -3.21874,-0.039 -4.38109,-0.0172 -5.71638,-0.004 -3.67281,0.006 -3.42641,0.0166 -3.10502,0.0263 -2.70863,0.0348 -2.23725,0.0421 -1.69088,0.0482 -1.06953,0.0532 -0.27831,0.0282 -0.0949,0.0289 0.10779,0.21456 0.30894,0.50459 0.48842,0.76182 0.64623,0.98623 0.7824,1.17783 0.8969,1.33662 0.98973,1.46259 1.0609,1.55576 0.66016,0.96448 0.66017,0.96449 0.66016,0.96448 0.66016,0.96448 0.66017,0.96449 0.66016,0.96448 0.66017,0.96449 0.66016,0.96448 -1.23829,-6.3e-4 -1.23829,-6.2e-4 -1.23829,-6.3e-4 -1.23829,-6.2e-4 -1.23828,-6.3e-4 -1.23829,-6.2e-4 -1.23829,-6.3e-4 -1.23829,-6.2e-4 -1.23829,-5e-4 -1.23829,-5e-4 -1.23829,-5e-4 -1.23829,-5e-4 -1.23828,-5e-4 -1.23829,-5e-4 -1.23829,-5e-4 -1.23829,-5e-4 -0.74712,-1.31184 -0.74712,-1.31184 -0.74712,-1.31184 -0.74713,-1.31184 -0.74712,-1.31184 -0.74712,-1.31184 -0.74712,-1.31184 -0.74712,-1.31184 -0.74712,-1.31184 -0.74713,-1.31184 -0.74712,-1.31184 -0.74712,-1.31184 -0.74712,-1.31184 -0.74713,-1.31184 -0.74712,-1.31184 -0.74712,-1.31184 -0.22163,0.20208 -0.22163,0.20208 -0.22162,0.20209 -0.22163,0.20208 -0.22163,0.20208 -0.22163,0.20208 -0.22162,0.20209 -0.22163,0.20208 -0.41995,0.38584 -0.51507,0.47805 -0.5901,0.55136 -0.64505,0.60575 -0.67991,0.64124 -0.69467,0.65781 -0.68935,0.65549 -0.66393,0.63426 -0.39063,0.37414 -0.39062,0.37414 -0.39063,0.37415 -0.39062,0.37414 -0.39063,0.37414 -0.39062,0.37414 -0.39063,0.37415 -0.39062,0.37414 v 0.73618 0.73618 0.73618 0.73618 0.73619 0.73618 0.73618 0.73618 0.73618 0.73618 0.73618 0.73618 0.73618 0.73618 0.73618 0.73618 h -1 -1 -1 -1 -1 -1 -1 -1 -1 -1 -1 -1 -1 -1 -1 -1 v -1 -1 -1 -1 -1 -1 -1 -1 -1 -1 -1 -1 -1 -1 -1 -1 h -1.91294 -1.91293 -1.91294 -1.91294 -1.91293 -1.91294 -1.91293 -1.91294 l -4.15826,0.007 -3.36967,0.0216 -2.65024,0.0396 -1.99999,0.0605 -1.41888,0.0843 -0.51315,0.052 -0.3938,0.0591 -0.28312,0.0665 -0.18106,0.0743 -0.055,0.0402 -0.0327,0.0423 -0.0115,0.0444 0.009,0.0466 0.0618,0.18888 0.082,0.29367 0.0987,0.38361 0.11187,0.45874 0.1215,0.51904 0.12759,0.56451 0.13013,0.59517 0.12913,0.61099 0.20489,0.8697 0.2715,0.96649 0.33202,1.04946 0.38641,1.11858 0.43471,1.17388 0.47689,1.21533 0.51296,1.24296 0.54293,1.25674 0.56679,1.25669 0.58454,1.24281 0.59617,1.21508 0.60171,1.17353 0.60113,1.11813 0.59444,1.04891 0.58165,0.96585 0.56275,0.86895 0.72329,1.0396 0.76742,1.04432 0.80757,1.04499 0.84378,1.04164 0.87601,1.03424 0.90429,1.0228 0.92862,1.00733 0.94897,0.98783 0.96538,0.96427 0.97782,0.93668 0.98629,0.90506 0.99082,0.86939 0.99137,0.82969 0.98798,0.78595 0.98062,0.73817 0.96929,0.68636 0.90365,0.62529 0.84302,0.59566 0.76395,0.55211 0.66643,0.49464 0.55045,0.42325 0.41602,0.33795 0.26315,0.23872 0.0685,0.0778 0.0233,0.0478 -0.0536,0.30142 -0.15617,0.71682 -0.59304,2.56862 -2.11896,8.89862 -3.0011,12.43083 -3.44918,14.18348 -3.46322,14.15658 -3.04321,12.35012 -2.18914,8.76411 -0.63866,2.48119 -0.18161,0.66805 -0.0808,0.2493 -0.0764,0.0365 -0.13318,0.007 -0.18738,-0.0212 -0.23906,-0.0484 -0.62304,-0.17385 -0.7994,-0.26928 -0.95552,-0.35581 -1.0914,-0.43346 -1.20704,-0.50225 -1.30245,-0.56215 -1.37763,-0.61319 -1.43255,-0.65535 -1.46725,-0.68863 -1.48171,-0.71304 -1.47593,-0.72857 -1.44992,-0.73523 -1.40367,-0.73302 -1.33718,-0.72192 -1.18548,-0.64774 -1.12093,-0.60428 -1.03078,-0.5476 -0.91501,-0.47769 -0.77365,-0.39456 -0.60668,-0.2982 -0.4141,-0.18862 -0.19593,-0.0658 -0.14663,0.0722 -0.35435,0.21183 -1.2884,0.81394 -1.98892,1.28681 -2.60253,1.70262 -3.12922,2.06135 -3.56902,2.363 -3.921903,2.6076 -4.18788,2.79512 -4.190976,2.80139 -3.930778,2.62557 -3.583051,2.39142 -3.147794,2.09894 -2.625007,1.74813 -2.01469,1.33899 -1.316843,0.87151 -0.531466,0.34571 -0.04697,-0.004 -0.08546,-0.043 -0.282361,-0.19941 -0.424274,-0.34422 -0.558179,-0.48143 -1.486031,-1.34417 -1.925524,-1.80203 -2.300933,-2.19922 -2.61226,-2.53574 -2.859503,-2.81159 -3.042663,-3.02677 -1.14e-4,-5.6e-4"
       style="fill:none;fill-opacity:1;stroke:#000000;stroke-width:0.37795275;stroke-miterlimit:4;stroke-dasharray:none;stroke-opacity:1" />
    <path
       sodipodi:nodetypes="csssssssssssssscssssssssssssssssc"
       inkscape:connector-curvature="0"
       id="path2183"
       d="m 192.71191,47.741021 c 0.66501,-0.306181 1.28401,-0.677887 1.85332,-1.104805 0.5693,-0.426918 1.08891,-0.909048 1.55513,-1.436073 0.46622,-0.527026 0.87906,-1.098948 1.23482,-1.705452 0.35576,-0.606504 0.65445,-1.247589 0.89238,-1.912941 0.23792,-0.665352 0.41509,-1.35497 0.5278,-2.058541 0.11271,-0.70357 0.16097,-1.421093 0.1411,-2.142252 -0.0199,-0.721159 -0.1079,-1.445956 -0.26775,-2.164074 -0.15984,-0.718119 -0.39152,-1.429559 -0.69871,-2.124007 -0.44009,-0.994877 -0.99871,-1.878033 -1.64885,-2.6475 -0.65013,-0.769468 -1.39179,-1.425246 -2.19796,-1.96537 -0.80617,-0.540123 -1.67685,-0.964591 -2.58503,-1.271436 -0.90817,-0.306845 -1.85384,-0.496067 -2.81001,-0.5657 -0.95616,-0.06963 -1.9228,-0.01967 -2.87293,0.151839 -0.95012,0.171514 -1.88372,0.464585 -2.77378,0.88118 -0.89006,0.416595 -1.73659,0.956715 -2.51257,1.622325 -0.77597,0.66561 -1.48141,1.456711 -2.08928,2.375271 -0.19857,0.300056 -0.38055,0.631328 -0.54513,0.98697 -0.16458,0.355643 -0.31175,0.735656 -0.44069,1.133196 -0.12894,0.39754 -0.23966,0.812607 -0.33133,1.238357 -0.0917,0.425749 -0.1643,0.86218 -0.21706,1.30245 -0.0528,0.44027 -0.0856,0.884378 -0.0979,1.32548 -0.0122,0.441103 -0.004,0.879199 0.0263,1.307444 0.03,0.428246 0.0815,0.846642 0.15531,1.248343 0.0738,0.401701 0.16996,0.786707 0.28926,1.148175 0.25338,0.767737 0.58945,1.486826 0.99544,2.151978 0.40599,0.665152 0.8819,1.276367 1.41493,1.828356 0.53304,0.551988 1.12321,1.04475 1.75772,1.472996 0.63451,0.428246 1.31337,0.791976 2.02378,1.0859 0.71042,0.293925 1.4524,0.518043 2.21315,0.667067 0.76076,0.149023 1.54028,0.222951 2.32581,0.216495 0.78552,-0.0065 1.57703,-0.0933 2.36174,-0.265813 0.78472,-0.172515 1.56265,-0.430705 2.32099,-0.779858 z"
       style="display:inline;fill:none;fill-opacity:1;stroke:#000000;stroke-width:0.37795275;stroke-miterlimit:4;stroke-dasharray:none;stroke-opacity:1"
       transform="scale(0.26458333)" />
    <path
       style="display:inline;fill:none;fill-opacity:1;stroke:#000000;stroke-width:0.37795275;stroke-miterlimit:4;stroke-dasharray:none;stroke-opacity:1"
       d="m 187.60542,188.17287 1.11828,-1.18139 1.11828,-1.18139 1.11829,-1.18139 1.11828,-1.18139 1.11828,-1.1814 1.11828,-1.18139 1.11829,-1.18139 1.11828,-1.18139 1.33228,-0.006 1.33228,-0.006 1.33228,-0.006 1.33227,-0.006 1.33228,-0.006 1.33228,-0.006 1.33228,-0.006 1.33228,-0.006 1.33228,-0.006 1.33227,-0.006 1.33228,-0.006 1.33228,-0.006 1.33228,-0.006 1.33227,-0.006 1.33228,-0.006 1.33228,-0.006 -0.51978,0.49142 -0.51978,0.49142 -0.51977,0.49142 -0.51978,0.49142 -0.51978,0.49143 -0.51978,0.49142 -0.51977,0.49142 -0.51978,0.49142 c -0.28588,0.27028 -0.57669,0.544 -0.86847,0.81755 -0.29178,0.27354 -0.58454,0.54691 -0.87432,0.81648 -0.28978,0.26957 -0.57658,0.53534 -0.85645,0.7937 -0.27986,0.25836 -0.5528,0.5093 -0.81486,0.7492 -0.26205,0.2399 -0.51322,0.46877 -0.74954,0.68299 -0.23633,0.21421 -0.45782,0.41377 -0.66052,0.59505 -0.2027,0.18129 -0.38661,0.3443 -0.54777,0.48542 -0.16116,0.14111 -0.29958,0.26034 -0.4113,0.35405 -0.11172,0.0937 -0.2209,0.1885 -0.32643,0.28311 -0.10553,0.0946 -0.20741,0.18906 -0.30453,0.2821 -0.0971,0.093 -0.18947,0.18465 -0.27596,0.27361 -0.0865,0.089 -0.1671,0.17527 -0.24074,0.25768 -0.0736,0.0824 -0.14028,0.16091 -0.19884,0.23427 -0.0586,0.0734 -0.10902,0.14159 -0.15028,0.20342 -0.0413,0.0618 -0.0733,0.11729 -0.0951,0.16511 -0.0217,0.0478 -0.0332,0.088 -0.0332,0.11933 0,0.0333 0.12503,0.0653 0.36581,0.096 0.24078,0.0307 0.59729,0.0599 1.06027,0.0875 0.46297,0.0276 1.0324,0.0536 1.69899,0.0776 0.66659,0.0241 1.43034,0.0463 2.28197,0.0665 0.85163,0.0202 1.79113,0.0382 2.80922,0.054 1.01809,0.0158 2.11476,0.0293 3.28072,0.0402 1.16597,0.011 2.40123,0.0194 3.6965,0.0251 1.29526,0.006 2.65053,0.009 4.05652,0.009 1.88659,0 3.60232,-0.002 5.16042,-0.007 1.55809,-0.005 2.95856,-0.0119 4.21464,-0.022 1.25608,-0.0102 2.36777,-0.0233 3.34831,-0.0399 0.98054,-0.0166 1.82993,-0.0365 2.56141,-0.0603 0.73147,-0.0238 1.34504,-0.0515 1.85393,-0.0834 0.50889,-0.0319 0.91311,-0.0681 1.22589,-0.10899 0.31279,-0.0409 0.53414,-0.0865 0.67729,-0.13719 0.14315,-0.0507 0.20811,-0.10656 0.20811,-0.16797 0,-0.11939 -0.0275,-0.31526 -0.0778,-0.57225 -0.0503,-0.257 -0.12355,-0.57513 -0.215,-0.93906 -0.0915,-0.36392 -0.20118,-0.77364 -0.32453,-1.21381 -0.12335,-0.44017 -0.26035,-0.91079 -0.40637,-1.39652 -0.14602,-0.48573 -0.30108,-0.98658 -0.46055,-1.48719 -0.15947,-0.50062 -0.32336,-1.001 -0.48705,-1.48582 -0.16369,-0.48481 -0.32719,-0.95406 -0.48589,-1.39239 -0.15869,-0.43833 -0.31258,-0.84576 -0.45705,-1.20693 -0.0707,-0.17673 -0.16791,-0.39484 -0.28822,-0.64818 -0.12032,-0.25334 -0.26372,-0.54189 -0.42678,-0.8595 -0.16306,-0.3176 -0.34577,-0.66426 -0.5447,-1.03379 -0.19893,-0.36953 -0.41407,-0.76193 -0.64199,-1.17104 -0.22792,-0.40911 -0.46861,-0.83493 -0.71865,-1.27127 -0.25003,-0.43635 -0.50941,-0.88323 -0.77468,-1.33447 -0.26527,-0.45124 -0.53645,-0.90684 -0.81008,-1.36062 -0.27364,-0.45379 -0.54973,-0.90577 -0.82485,-1.34976 -0.47721,-0.77013 -0.90254,-1.45288 -1.2942,-2.06906 -0.39165,-0.61618 -0.74963,-1.16579 -1.09214,-1.66963 -0.3425,-0.50385 -0.66954,-0.96194 -0.99931,-1.39508 -0.32978,-0.43313 -0.66228,-0.84133 -1.01573,-1.24538 -0.35345,-0.40406 -0.72784,-0.80398 -1.14137,-1.22058 -0.41354,-0.4166 -0.86622,-0.84988 -1.37625,-1.32065 -0.51003,-0.47076 -1.07742,-0.97902 -1.72035,-1.54558 -0.64294,-0.56656 -1.36144,-1.19142 -2.1737,-1.89539 -1.00546,-0.87142 -1.94246,-1.66727 -2.82898,-2.39804 -0.88652,-0.73077 -1.72257,-1.39645 -2.52614,-2.00755 -0.80358,-0.6111 -1.57467,-1.16761 -2.33129,-1.68001 -0.75661,-0.51241 -1.49874,-0.98072 -2.24439,-1.41542 -0.74565,-0.4347 -1.4948,-0.8358 -2.26547,-1.21378 -0.77067,-0.37797 -1.56285,-0.73283 -2.39453,-1.07507 -0.83168,-0.34223 -1.70287,-0.67184 -2.63156,-0.99931 -0.92868,-0.32748 -1.91487,-0.65281 -2.97655,-0.98651 -1.01917,-0.32033 -1.97547,-0.6094 -2.88386,-0.86924 -0.90838,-0.25984 -1.76885,-0.49045 -2.59635,-0.69386 -0.8275,-0.20341 -1.62204,-0.37962 -2.39855,-0.53067 -0.77652,-0.15105 -1.53502,-0.27693 -2.29045,-0.37969 -0.75543,-0.10275 -1.50779,-0.18238 -2.27203,-0.24091 -0.76424,-0.0585 -1.54036,-0.096 -2.34332,-0.11433 -0.80295,-0.0184 -1.63273,-0.0177 -2.50429,5e-5 -0.87157,0.0177 -1.78491,0.0525 -2.75498,0.10223 -1.31974,0.0677 -2.60602,0.16549 -3.86367,0.29484 -1.25765,0.12935 -2.48667,0.29025 -3.6919,0.48411 -1.20524,0.19385 -2.38668,0.42068 -3.54917,0.68188 -1.1625,0.2612 -2.30603,0.55679 -3.43546,0.88818 -1.12942,0.33138 -2.24473,0.69857 -3.35076,1.10298 -1.10603,0.40441 -2.20278,0.84605 -3.29509,1.32632 -1.09232,0.48027 -2.18018,0.99918 -3.26845,1.55815 -1.08827,0.55897 -2.17693,1.158 -3.27082,1.79851 -0.57517,0.33678 -1.21932,0.76246 -1.91277,1.25872 -0.69345,0.49626 -1.43619,1.06311 -2.20854,1.68224 -0.77234,0.61912 -1.57429,1.29053 -2.38615,1.9959 -0.81187,0.70538 -1.63364,1.44472 -2.44564,2.19973 -0.81199,0.755 -1.61421,1.52567 -2.38696,2.29368 -0.77275,0.76802 -1.51603,1.53339 -2.21015,2.2778 -0.69412,0.74441 -1.33908,1.46786 -1.91519,2.15205 -0.57611,0.68419 -1.08336,1.32911 -1.50208,1.91646 -0.37255,0.52259 -0.75634,1.09736 -1.14555,1.71247 -0.38921,0.6151 -0.78383,1.27054 -1.17803,1.95447 -0.39421,0.68393 -0.78799,1.39634 -1.17554,2.12538 -0.38754,0.72905 -0.76884,1.47473 -1.13806,2.2252 -0.36922,0.75047 -0.72636,1.50572 -1.0656,2.25391 -0.33924,0.74819 -0.66057,1.48931 -0.95817,2.21152 -0.2976,0.72221 -0.57146,1.42551 -0.81576,2.09804 -0.24429,0.67253 -0.45903,1.3143 -0.63836,1.91346 -0.24163,0.80728 -0.47726,1.50346 -0.67085,2.10371 -0.1936,0.60026 -0.34515,1.10458 -0.41861,1.52813 -0.0735,0.42355 -0.0688,0.76633 0.0499,1.0435 0.11876,0.27716 0.35166,0.48871 0.73473,0.64981 0.38308,0.1611 0.91634,0.27174 1.63583,0.34709 0.71949,0.0753 1.62521,0.11539 2.7532,0.13531 1.128,0.0199 2.47827,0.0197 4.08686,0.0145 1.60859,-0.005 3.4755,-0.0154 5.63678,-0.0154 h 1.875 1.875 1.875 1.875 1.875 1.875 1.875 1.875 v -0.71875 -0.71875 -0.71875 -0.71875 -0.71875 -0.71875 -0.71875 -0.71875 -0.71875 -0.71875 -0.71875 -0.71875 -0.71875 -0.71875 -0.71875 -0.71875 h 1 1 1 1 1 1 1 1 1 1 1 1 1 1 1 1 v 1.1875 1.1875 1.1875 1.1875 1.1875 1.1875 1.1875 1.1875 c 0,0.65313 0.003,1.29141 0.009,1.90835 0.006,0.61694 0.0142,1.21255 0.0251,1.78032 0.0109,0.56778 0.0242,1.10772 0.0396,1.61333 0.0155,0.50562 0.033,0.97691 0.0525,1.40738 0.0194,0.43046 0.0407,0.82011 0.0635,1.16245 0.0228,0.34233 0.0472,0.63735 0.0728,0.87856 0.0256,0.24121 0.0525,0.42861 0.0803,0.55571 0.0279,0.1271 0.0566,0.1939 0.0861,0.1939 0.0295,0 0.12119,-0.0665 0.26872,-0.1929 0.14753,-0.12644 0.35089,-0.31288 0.60367,-0.55285 0.25277,-0.23997 0.55497,-0.53348 0.90016,-0.87405 0.3452,-0.34057 0.73341,-0.72822 1.15821,-1.15647 0.42481,-0.42825 0.88621,-0.89712 1.37781,-1.40013 0.49159,-0.50302 1.01337,-1.04018 1.55894,-1.60503 0.54556,-0.56486 1.11491,-1.1574 1.70163,-1.77117 0.58671,-0.61377 1.1908,-1.24876 1.80586,-1.89853 v 1e-5 1e-5 0 1e-5 10e-6 1e-5 0 z"
       id="path2179"
       inkscape:connector-curvature="0"
       sodipodi:nodetypes="scccccccccccccccccccccccccccccccssssssscssssssssssssssssssssssssssssssscssssssssssssssssssssssssssssssssssssssscssssssssssssssscsssssssscccccccccccccccccccccccccccccccccccccccccccccccsssssssssssssssscccccccccs"
       transform="scale(0.26458333)" />
  </g>
  <g
     inkscape:label="B.Cu-disabled"
     inkscape:groupmode="layer"
     id="g1418" />
  <g
     inkscape:label="B.Mask-disabled"
     inkscape:groupmode="layer"
     id="g1420" />
  <g
     inkscape:label="B.Silk-disabled"
     inkscape:groupmode="layer"
     id="g1422" />
  <g
     style="display:inline"
     inkscape:label="F.Cu"
     inkscape:groupmode="layer"
     id="g1424" />
  <g
     inkscape:label="F.Mask-disabled"
     inkscape:groupmode="layer"
     id="g1426" />
  <g
     style="display:none"
     inkscape:label="F.Silk"
     inkscape:groupmode="layer"
     id="g1428">
    <path
       transform="scale(0.26458333)"
       sodipodi:nodetypes="ccccccccccccccccccccccccccccccccccccccccccccccccccccccccccccccccsssssssssssssssssssssssssssssssssccccccccccccccccccccccccccccccccccccccccccccccccccccccccccccccccccccccccccccccccccccccccccccccccccccccccccccccccccccccccccccccccsssssssssssssssssssssssssssssssssssssssssssssssccccccccccccccccccccccccccccccccssssssssssssssssssssssssssssssssssssssssssssssssssssssssssssssssscccccccccccccccccccccccccccccccccccccccccccccccccccccccccccccccc"
       inkscape:connector-curvature="0"
       id="path1505"
       d="m 61.108502,201.00087 v -2.08402 -2.08402 -2.08402 -2.08403 -2.08402 -2.08402 -2.08402 -2.08402 -2.08402 -2.08402 -2.08402 -2.08403 -2.08402 -2.08402 -2.08402 -2.08402 l 0.733141,0.008 0.733141,0.008 0.733141,0.008 0.733141,0.008 0.733141,0.008 0.733141,0.008 0.733141,0.008 0.733141,0.008 0.733142,0.008 0.733141,0.008 0.733141,0.008 0.733141,0.008 0.733141,0.008 0.733141,0.008 0.733141,0.008 0.733141,0.008 0.733141,0.008 0.733141,0.008 0.733141,0.008 0.733141,0.008 0.733141,0.008 0.733141,0.008 0.733141,0.008 0.733141,0.008 0.733141,0.008 0.733141,0.008 0.733141,0.008 0.733141,0.008 0.733141,0.008 0.733141,0.008 0.733141,0.008 0.733141,0.008 0.284346,1.2548 0.284346,1.2548 0.284346,1.2548 0.284346,1.2548 0.284346,1.2548 0.284346,1.2548 0.284346,1.2548 0.284346,1.25479 0.284347,1.2548 0.284346,1.2548 0.284346,1.2548 0.284346,1.2548 0.284346,1.2548 0.284346,1.2548 0.284346,1.2548 0.284346,1.2548 c 0.15639,0.69014 0.311501,1.37244 0.464918,2.04518 0.153418,0.67273 0.305143,1.33591 0.454762,1.98782 0.14962,0.65191 0.297133,1.29254 0.442128,1.92019 0.144995,0.62764 0.287472,1.2423 0.427016,1.84225 0.139545,0.59995 0.276158,1.18519 0.409427,1.75402 0.133269,0.56883 0.263193,1.12123 0.38936,1.6555 0.126167,0.53427 0.248577,1.0504 0.366816,1.54669 0.118239,0.49628 0.232308,0.97271 0.341793,1.42758 0.109486,0.45486 0.214388,0.88816 0.314294,1.29817 0.09991,0.41002 0.194816,0.79675 0.284317,1.15849 0.0895,0.36173 0.173592,0.69847 0.251861,1.00849 0.07827,0.31003 0.150717,0.59334 0.21693,0.84822 0.06621,0.25488 0.12619,0.48133 0.179519,0.67764 0.05333,0.1963 0.100011,0.36247 0.139632,0.49677 0.03962,0.1343 0.07218,0.23675 0.09727,0.30561 0.02509,0.0689 0.0427,0.10416 0.05242,0.10416 0.0097,0 0.02729,-0.0353 0.05229,-0.10416 0.025,-0.0689 0.05743,-0.17131 0.09689,-0.30561 0.03945,-0.1343 0.08593,-0.30047 0.139014,-0.49677 0.05308,-0.19631 0.11278,-0.42276 0.178675,-0.67764 0.06589,-0.25488 0.13799,-0.53819 0.215873,-0.84822 0.07788,-0.31002 0.161556,-0.64676 0.250606,-1.00849 0.08905,-0.36174 0.183478,-0.74847 0.282873,-1.15849 0.0994,-0.41001 0.203758,-0.84331 0.312677,-1.29817 0.108919,-0.45487 0.222395,-0.9313 0.340016,-1.42758 0.117621,-0.49629 0.239387,-1.01242 0.364889,-1.54669 0.125501,-0.53427 0.254737,-1.08667 0.387297,-1.6555 0.132561,-0.56883 0.268445,-1.15407 0.407242,-1.75402 0.138798,-0.59995 0.280509,-1.21461 0.424722,-1.84225 0.144213,-0.62765 0.290929,-1.26828 0.439736,-1.92019 0.148808,-0.65191 0.299707,-1.31509 0.452286,-1.98782 0.15258,-0.67274 0.306841,-1.35504 0.462372,-2.04518 l 0.282783,-1.2548 0.282784,-1.2548 0.282783,-1.2548 0.282784,-1.2548 0.282783,-1.2548 0.28278,-1.2548 0.28279,-1.2548 0.28278,-1.2548 0.28279,-1.25479 0.28278,-1.2548 0.28278,-1.2548 0.28279,-1.2548 0.28278,-1.2548 0.28278,-1.2548 0.28279,-1.2548 0.28278,-1.2548 0.73392,-0.008 0.73392,-0.008 0.73392,-0.008 0.73392,-0.008 0.73391,-0.008 0.73392,-0.008 0.73392,-0.008 0.73392,-0.008 0.73392,-0.008 0.73392,-0.008 0.73392,-0.008 0.73392,-0.008 0.73391,-0.008 0.73392,-0.008 0.73392,-0.008 0.73392,-0.008 0.73392,-0.008 0.73392,-0.008 0.73392,-0.008 0.73392,-0.008 0.73392,-0.008 0.73392,-0.008 0.73392,-0.008 0.73391,-0.008 0.73392,-0.008 0.73392,-0.008 0.73392,-0.008 0.73392,-0.008 0.73392,-0.008 0.73392,-0.008 0.73392,-0.008 0.73392,-0.008 v 2.08402 2.08402 2.08402 2.08402 2.08403 2.08402 2.08402 2.08402 2.08402 2.08402 2.08402 2.08402 2.08403 2.08402 2.08402 2.08402 2.08402 2.08402 2.08402 2.08402 2.08403 2.08402 2.08402 2.08402 2.08402 2.08402 2.08402 2.08402 2.08403 2.08402 2.08402 2.08402 l -0.44983,1e-5 h -0.44984 l -0.44983,10e-6 -0.44984,1e-5 -0.44983,1e-5 h -0.44983 l -0.44984,1e-5 -0.44983,1e-5 -0.44983,1e-5 h -0.44984 l -0.44983,1e-5 -0.44984,1e-5 -0.44983,1e-5 h -0.44983 l -0.44984,10e-6 -0.44983,1e-5 -0.44983,1e-5 h -0.44984 l -0.44983,1e-5 -0.44984,1e-5 -0.44983,1e-5 h -0.44983 l -0.44984,1e-5 -0.44983,1e-5 -0.44983,1e-5 h -0.44984 l -0.44983,10e-6 -0.44983,1e-5 -0.44984,1e-5 h -0.44983 l -0.44984,1e-5 -0.44983,1e-5 0.008,-1.57837 0.008,-1.57837 0.008,-1.57837 0.008,-1.57837 0.008,-1.57837 0.008,-1.57837 0.008,-1.57837 0.008,-1.57838 0.008,-1.57837 0.008,-1.57837 0.008,-1.57837 0.008,-1.57837 0.008,-1.57837 0.008,-1.57837 0.008,-1.57837 0.008,-1.57837 c 0.005,-0.8681 0.009,-1.72634 0.0117,-2.57256 0.003,-0.84622 0.006,-1.68041 0.007,-2.50042 0.002,-0.82001 0.003,-1.62585 0.003,-2.41534 2.4e-4,-0.78949 -2.3e-4,-1.56265 -10e-4,-2.31731 -0.001,-0.75466 -0.003,-1.49082 -0.005,-2.20632 -0.002,-0.71551 -0.006,-1.41037 -0.009,-2.08241 -0.004,-0.67204 -0.008,-1.32126 -0.0131,-1.94552 -0.005,-0.62426 -0.0106,-1.22355 -0.0168,-1.79571 -0.006,-0.57216 -0.013,-1.11719 -0.0203,-1.63293 -0.007,-0.51575 -0.0152,-1.00221 -0.0237,-1.45722 -0.008,-0.45502 -0.0174,-0.87859 -0.0269,-1.26856 -0.009,-0.38996 -0.0195,-0.74633 -0.03,-1.06694 -0.0105,-0.3206 -0.0215,-0.60545 -0.0329,-0.85238 -0.0115,-0.24693 -0.0234,-0.45594 -0.0357,-0.62487 -0.0124,-0.16894 -0.0252,-0.2978 -0.0384,-0.38442 -0.0132,-0.0866 -0.0269,-0.13102 -0.0409,-0.13102 -0.014,0 -0.0367,0.0388 -0.0675,0.11464 -0.0308,0.0758 -0.0697,0.18855 -0.11632,0.33637 -0.0466,0.14781 -0.10088,0.3307 -0.16238,0.54676 -0.0615,0.21606 -0.13021,0.4653 -0.20568,0.74583 -0.0755,0.28053 -0.1577,0.59235 -0.24622,0.93357 -0.0885,0.34122 -0.18334,0.71184 -0.28399,1.10998 -0.10066,0.39813 -0.20715,0.82378 -0.31901,1.27506 -0.11186,0.45127 -0.2291,0.92817 -0.35125,1.42881 -0.12215,0.50064 -0.24921,1.02501 -0.38073,1.57123 -0.13152,0.54623 -0.26748,1.1143 -0.40745,1.70233 -0.13996,0.58803 -0.28391,1.19603 -0.4314,1.82209 -0.14748,0.62607 -0.2985,1.27021 -0.45259,1.93053 -0.15408,0.66032 -0.31124,1.33683 -0.47101,2.02763 -0.15977,0.69081 -0.32215,1.39591 -0.48668,2.11341 -0.16452,0.71751 -0.3312,1.44743 -0.49957,2.18786 -0.16836,0.74044 -0.33842,1.49139 -0.5097,2.25098 -0.17128,0.75959 -0.34188,1.51609 -0.51132,2.26736 -0.16943,0.75126 -0.3377,1.49728 -0.50431,2.23591 -0.1666,0.73862 -0.33156,1.46985 -0.49437,2.19152 -0.16281,0.72167 -0.32348,1.43378 -0.48152,2.13418 -0.15804,0.7004 -0.31344,1.38908 -0.46573,2.0639 -0.15229,0.67481 -0.30147,1.33575 -0.44704,1.98066 -0.14557,0.64491 -0.28753,1.27379 -0.4254,1.88448 -0.13787,0.61069 -0.27165,1.20319 -0.40085,1.77535 -0.1292,0.57216 -0.25383,1.12397 -0.37338,1.65327 -0.11955,0.52931 -0.23404,1.03611 -0.34298,1.51825 -0.10893,0.48214 -0.21231,0.93962 -0.30965,1.37028 -0.0973,0.43066 -0.18864,0.8345 -0.27341,1.20936 -0.0848,0.37486 -0.16301,0.72075 -0.23424,1.0355 -0.0712,0.31474 -0.13543,0.59836 -0.19214,0.84867 -0.0567,0.25032 -0.10591,0.46735 -0.14713,0.64892 -0.0412,0.18158 -0.0744,0.3277 -0.0992,0.43621 l -0.045,0.19729 -0.045,0.1973 -0.045,0.19729 -0.045,0.1973 -0.045,0.19729 -0.045,0.1973 -0.045,0.19729 -0.045,0.1973 -0.045,0.19729 -0.045,0.1973 -0.045,0.19729 -0.045,0.1973 -0.045,0.19729 -0.045,0.1973 -0.045,0.19729 -0.045,0.1973 h -0.40442 -0.404421 -0.40442 -0.40442 -0.404421 -0.40442 -0.40442 -0.40442 -0.40442 -0.40442 -0.40442 -0.40442 -0.404421 -0.40442 -0.40442 -0.40442 c -0.295203,0 -0.579013,-6.7e-4 -0.851739,-0.002 -0.272726,-0.001 -0.534369,-0.003 -0.785238,-0.006 -0.250869,-0.003 -0.490965,-0.006 -0.720597,-0.0105 -0.229633,-0.004 -0.448802,-0.009 -0.657817,-0.0151 -0.209016,-0.006 -0.407878,-0.0124 -0.596897,-0.0198 -0.189019,-0.007 -0.368194,-0.0156 -0.537836,-0.0246 -0.169642,-0.009 -0.32975,-0.0189 -0.480636,-0.0297 -0.150885,-0.0108 -0.292547,-0.0224 -0.425295,-0.0349 -0.132748,-0.0125 -0.256583,-0.0259 -0.371815,-0.0403 -0.115232,-0.0144 -0.22186,-0.0297 -0.320195,-0.0459 -0.09834,-0.0163 -0.188377,-0.0335 -0.270435,-0.0516 -0.08206,-0.0182 -0.156133,-0.0374 -0.222535,-0.0576 -0.0664,-0.0202 -0.125129,-0.0414 -0.176494,-0.0637 -0.05137,-0.0223 -0.09537,-0.0456 -0.132315,-0.07 -0.03695,-0.0244 -0.06684,-0.0498 -0.09,-0.0764 -0.02315,-0.0266 -0.03956,-0.0542 -0.04954,-0.083 -0.0075,-0.0217 -0.02465,-0.0864 -0.0509,-0.19205 -0.02625,-0.10561 -0.06163,-0.2521 -0.105637,-0.4373 -0.04401,-0.18521 -0.09665,-0.40913 -0.157436,-0.66962 -0.06078,-0.26048 -0.129712,-0.55752 -0.206292,-0.88897 -0.07658,-0.33144 -0.160813,-0.69729 -0.252209,-1.09538 -0.0914,-0.39809 -0.189953,-0.82843 -0.295184,-1.28885 -0.10523,-0.46042 -0.217133,-0.95093 -0.335218,-1.46937 -0.118086,-0.51844 -0.242353,-1.0648 -0.372313,-1.63694 -0.129959,-0.57214 -0.265611,-1.17004 -0.406464,-1.79157 -0.140854,-0.62152 -0.28691,-1.26665 -0.437677,-1.93324 -0.150768,-0.66659 -0.306247,-1.35463 -0.465948,-2.06197 -0.159701,-0.70734 -0.323623,-1.43398 -0.491277,-2.17776 -0.167654,-0.74378 -0.33904,-1.50469 -0.513667,-2.28059 -0.174627,-0.7759 -0.352495,-1.56678 -0.533115,-2.37048 -0.18062,-0.80371 -0.36399,-1.62024 -0.549622,-2.44743 -0.185632,-0.82719 -0.373525,-1.66505 -0.563189,-2.51142 -0.189664,-0.84637 -0.377838,-1.68312 -0.56402,-2.50815 -0.186181,-0.82503 -0.370369,-1.63834 -0.55206,-2.43783 -0.181691,-0.79948 -0.360885,-1.58515 -0.537078,-2.35488 -0.176193,-0.76973 -0.349385,-1.52354 -0.519072,-2.25931 -0.169688,-0.73578 -0.33587,-1.45352 -0.498044,-2.15112 -0.162174,-0.69761 -0.32034,-1.37508 -0.473993,-2.03031 -0.153653,-0.65523 -0.302794,-1.28822 -0.446918,-1.89686 -0.144124,-0.60865 -0.283233,-1.19295 -0.416821,-1.7508 -0.133588,-0.55785 -0.261656,-1.08926 -0.3837,-1.59211 -0.122044,-0.50285 -0.238064,-0.97715 -0.347557,-1.4208 -0.109492,-0.44364 -0.212457,-0.85663 -0.30839,-1.23686 -0.09593,-0.38023 -0.184835,-0.7277 -0.266201,-1.0403 -0.08137,-0.31261 -0.155197,-0.59035 -0.220989,-0.83112 -0.06579,-0.24078 -0.123543,-0.44458 -0.172753,-0.60931 -0.04921,-0.16474 -0.08987,-0.2904 -0.121494,-0.37488 -0.03162,-0.0845 -0.05419,-0.1278 -0.06721,-0.12783 -0.01302,-3e-5 -0.0259,0.0443 -0.03859,0.13093 -0.01269,0.0866 -0.02521,0.21542 -0.03751,0.38433 -0.0123,0.1689 -0.02439,0.37789 -0.03623,0.62479 -0.01184,0.2469 -0.02344,0.53172 -0.03476,0.85229 -0.01132,0.32058 -0.02236,0.67692 -0.03309,1.06686 -0.01073,0.38995 -0.02116,0.81349 -0.03124,1.26848 -0.01008,0.45499 -0.01982,0.94142 -0.02918,1.45714 -0.0094,0.51573 -0.01835,1.06073 -0.02693,1.63287 -0.0086,0.57214 -0.01676,1.1714 -0.02449,1.79564 -0.0077,0.62424 -0.01503,1.27345 -0.02186,1.94547 -0.0068,0.67202 -0.01318,1.36685 -0.01903,2.08234 -0.0058,0.7155 -0.0112,1.45164 -0.016,2.20629 -0.0048,0.75464 -0.0091,1.52778 -0.01279,2.31726 -0.0037,0.78948 -0.0068,1.59531 -0.0094,2.41531 -0.0025,0.82 -0.0045,1.65419 -0.0058,2.5004 -0.0013,0.84621 -0.002,1.70444 -0.002,2.57254 v 1.57836 1.57837 1.57836 1.57836 1.57837 1.57836 1.57836 1.57837 1.57836 1.57836 1.57836 1.57837 1.57836 1.57836 1.57837 1.57836 H 74.808696 74.366755 73.924813 73.482871 73.040929 72.598988 72.157046 71.715104 71.273162 70.831221 70.389279 69.947337 69.505395 69.063453 68.621512 68.17957 67.737628 67.295687 66.853745 66.411803 65.969861 65.52792 65.085978 64.644036 64.202094 63.760153 63.318211 62.876269 62.434327 61.992385 61.550444 61.108502 v -2.08402 -2.08402 -2.08402 -2.08403 -2.08402 -2.08402 -2.08402 -2.08402 -2.08402 -2.08402 -2.08402 -2.08402 -2.08403 -2.08402 -2.08402 z"
       style="fill:#800000;fill-opacity:1;stroke:#000000;stroke-width:0.19089496;stroke-miterlimit:4;stroke-dasharray:none;stroke-opacity:1" />
    <path
       transform="scale(0.26458333)"
       sodipodi:nodetypes="ccccccccccccccccccccccccccccccccccccccccccccccccccccccccccccccccsssssssssssssssssssssssssssssssssccccccccccccccccccccccccccccccccccccccccccccccccccccccccccccccccsssssssssssssssscccccccccccccccccccccccccccccccsssssssssssssssscccccccccccccccccccccccccccccccccccccccccccccccccccccccccccccccccsssssssssssssssssssssssssssssssccccccccccccccccccccccccccccccccccccccccccccccccccccccccccccccccccccccccccccccccccccccccccccccccc"
       inkscape:connector-curvature="0"
       id="path1507"
       d="m 161.61868,202.77795 v -1.53101 -1.53102 -1.53101 -1.53101 -1.53101 -1.53102 -1.53101 -1.53101 -1.53101 -1.53102 -1.53101 -1.53101 -1.53101 -1.53102 -1.53101 -1.53101 h 0.52086 0.52086 0.52086 0.52086 0.52086 0.52086 0.52086 0.52086 0.52086 0.52086 0.52086 0.52086 0.52086 0.52086 0.52086 0.52086 0.52086 0.52086 0.52086 0.52086 0.52086 0.52086 0.52086 0.52086 0.52086 0.52086 0.52086 0.52086 0.52086 0.52086 0.52086 0.52086 v 0.56821 0.56821 0.56821 0.56821 0.56821 0.56821 0.56821 0.56821 0.56822 0.56821 0.56821 0.56821 0.56821 0.56821 0.56821 0.56821 c 0,0.31848 7.9e-4,0.63267 0.002,0.94185 0.002,0.30918 0.004,0.61336 0.007,0.91183 0.003,0.29847 0.007,0.59122 0.0111,0.87756 0.004,0.28634 0.009,0.56626 0.0152,0.83905 0.006,0.2728 0.0121,0.53847 0.019,0.7963 0.007,0.25784 0.0146,0.50785 0.0227,0.74932 0.008,0.24146 0.0169,0.47439 0.0261,0.69807 0.009,0.22369 0.0191,0.43812 0.0293,0.64261 0.0103,0.20448 0.0211,0.39901 0.0323,0.58289 0.0113,0.18387 0.023,0.35708 0.0351,0.51893 0.0121,0.16184 0.0247,0.31232 0.0377,0.45073 0.013,0.13841 0.0263,0.26474 0.0401,0.37829 0.0137,0.11355 0.0278,0.21433 0.0422,0.30161 0.0144,0.0873 0.0292,0.16109 0.0442,0.22069 0.015,0.0596 0.0303,0.10501 0.0459,0.13552 0.0156,0.0305 0.0314,0.0461 0.0474,0.0461 0.0157,0 0.0466,-0.016 0.0918,-0.0472 0.0452,-0.0312 0.10476,-0.0776 0.17788,-0.13839 0.0731,-0.0608 0.1598,-0.13606 0.25926,-0.22495 0.0995,-0.0889 0.21171,-0.19144 0.33595,-0.30686 0.12424,-0.11541 0.26047,-0.2437 0.40792,-0.38409 0.14745,-0.14039 0.30612,-0.29287 0.47521,-0.45668 0.1691,-0.1638 0.34862,-0.33893 0.53779,-0.52459 0.18917,-0.18567 0.38799,-0.38188 0.59568,-0.58786 0.20768,-0.20597 0.42422,-0.42172 0.64885,-0.64645 0.22463,-0.22473 0.45733,-0.45845 0.69734,-0.70038 0.24,-0.24194 0.48731,-0.49208 0.74112,-0.74967 0.25382,-0.25758 0.51415,-0.52259 0.78021,-0.79427 0.26606,-0.27168 0.53785,-0.55001 0.81459,-0.83423 0.27674,-0.28421 0.55842,-0.57431 0.84427,-0.86951 0.28585,-0.29521 0.57587,-0.59552 0.86926,-0.90015 0.2934,-0.30464 0.59018,-0.6136 0.88955,-0.92612 l 0.54432,-0.56821 0.54431,-0.56821 0.54432,-0.56821 0.54432,-0.56821 0.54431,-0.56821 0.54432,-0.56821 0.54431,-0.56821 0.54432,-0.56822 0.54432,-0.56821 0.54431,-0.56821 0.54432,-0.56821 0.54431,-0.56821 0.54432,-0.56821 0.54432,-0.56821 0.54431,-0.56821 0.54432,-0.56821 0.68188,5.6e-4 0.68188,5.6e-4 0.68188,5.7e-4 0.68189,5.6e-4 0.68188,5.6e-4 0.68188,5.6e-4 0.68188,5.7e-4 0.68188,5.6e-4 0.68188,5.6e-4 0.68188,5.6e-4 0.68188,5.7e-4 0.68189,5.6e-4 0.68188,5.6e-4 0.68188,5.6e-4 0.68188,5.7e-4 0.68188,5.6e-4 0.68188,5.6e-4 0.68188,5.6e-4 0.68188,5.7e-4 0.68189,5.6e-4 0.68188,5.6e-4 0.68188,5.6e-4 0.68188,5.7e-4 0.68188,5.6e-4 0.68188,5.6e-4 0.68188,5.6e-4 0.68188,5.7e-4 0.68189,5.6e-4 0.68188,5.6e-4 0.68188,5.6e-4 0.68188,5.7e-4 0.68188,5.6e-4 -0.20519,0.19684 -0.20518,0.19684 -0.20519,0.19685 -0.20519,0.19684 -0.20518,0.19684 -0.20519,0.19684 -0.20519,0.19684 -0.20518,0.19684 -0.20519,0.19685 -0.20519,0.19684 -0.20519,0.19684 -0.20518,0.19684 -0.20519,0.19684 -0.20519,0.19685 -0.20518,0.19684 -0.20519,0.19684 c -0.11285,0.10826 -0.23581,0.22595 -0.36803,0.35226 -0.13222,0.12632 -0.27371,0.26127 -0.42363,0.40407 -0.14992,0.1428 -0.30828,0.29345 -0.47423,0.45115 -0.16596,0.15771 -0.33951,0.32247 -0.51983,0.49351 -0.18032,0.17104 -0.36741,0.34835 -0.56042,0.53115 -0.19302,0.1828 -0.39197,0.37108 -0.59602,0.56406 -0.20404,0.19299 -0.41319,0.39067 -0.62659,0.59227 -0.21341,0.20159 -0.43108,0.4071 -0.65219,0.61573 -0.2211,0.20864 -0.44563,0.4204 -0.67276,0.63449 -0.22713,0.2141 -0.45685,0.43054 -0.68833,0.64853 -0.23149,0.21799 -0.46474,0.43753 -0.69891,0.65783 -0.23418,0.22031 -0.46929,0.44138 -0.70448,0.66243 -0.2352,0.22105 -0.4705,0.44208 -0.70505,0.66229 -0.23455,0.22022 -0.46837,0.43963 -0.70061,0.65745 -0.23224,0.21781 -0.46291,0.43403 -0.69117,0.64787 -0.22826,0.21383 -0.45411,0.42529 -0.67672,0.63357 l -0.40475,0.3787 -0.40475,0.3787 -0.40474,0.3787 -0.40475,0.3787 -0.40475,0.3787 -0.40475,0.3787 -0.40475,0.3787 -0.40475,0.37869 -0.40474,0.3787 -0.40475,0.3787 -0.40475,0.3787 -0.40475,0.3787 -0.40475,0.3787 -0.40474,0.3787 -0.40475,0.3787 -0.40475,0.3787 0.16402,0.23675 0.16402,0.23676 0.16402,0.23675 0.16403,0.23676 0.16402,0.23675 0.16402,0.23676 0.16402,0.23675 0.16402,0.23675 0.16402,0.23676 0.16402,0.23675 0.16402,0.23676 0.16403,0.23675 0.16402,0.23676 0.16402,0.23675 0.16402,0.23676 0.16402,0.23675 c 0.0902,0.13022 0.1931,0.27915 0.30778,0.44549 0.11468,0.16635 0.24115,0.35011 0.37852,0.54998 0.13736,0.19986 0.28563,0.41584 0.4439,0.64661 0.15828,0.23078 0.32656,0.47636 0.50396,0.73543 0.17739,0.25907 0.36391,0.53164 0.55865,0.8164 0.19475,0.28476 0.39772,0.58171 0.60802,0.88955 0.21031,0.30784 0.42795,0.62656 0.65204,0.95486 0.22409,0.3283 0.45463,0.66618 0.69072,1.01234 0.23609,0.34615 0.47773,0.70058 0.72405,1.06198 0.24631,0.36139 0.49729,0.72976 0.75204,1.10379 0.25475,0.37403 0.51328,0.75372 0.77469,1.13777 0.26141,0.38405 0.52571,0.77246 0.792,1.16392 0.26629,0.39145 0.53457,0.78597 0.80396,1.18222 0.26939,0.39626 0.53988,0.79426 0.81058,1.19271 0.2707,0.39844 0.54162,0.79733 0.81186,1.19535 0.27024,0.39802 0.5398,0.79517 0.8078,1.19016 l 0.48727,0.71816 0.48726,0.71815 0.48726,0.71816 0.48727,0.71815 0.48727,0.71816 0.48726,0.71815 0.48727,0.71816 0.48726,0.71815 0.48726,0.71816 0.48727,0.71816 0.48726,0.71815 0.48727,0.71816 0.48726,0.71815 0.48727,0.71816 0.48726,0.71815 0.48727,0.71816 -0.64113,-1.9e-4 -0.64113,-1.9e-4 -0.64113,-1.8e-4 -0.64113,-1.9e-4 -0.64112,-1.9e-4 -0.64113,-1.9e-4 -0.64113,-1.8e-4 -0.64113,-1.9e-4 -0.64113,-1.9e-4 -0.64113,-1.9e-4 -0.64113,-1.8e-4 -0.64112,-1.9e-4 -0.64113,-1.9e-4 -0.64113,-1.9e-4 -0.64113,-1.8e-4 -0.64113,-1.9e-4 -0.64113,-1.9e-4 -0.64113,-1.9e-4 -0.64113,-1.8e-4 -0.64113,-1.9e-4 -0.64112,-1.9e-4 -0.64113,-1.8e-4 -0.64113,-1.9e-4 -0.64113,-1.9e-4 -0.64113,-1.9e-4 -0.64113,-1.9e-4 -0.64113,-1.8e-4 -0.64112,-1.9e-4 -0.64113,-1.9e-4 -0.64113,-1.8e-4 -0.64113,-1.9e-4 -0.64113,-1.9e-4 -0.35891,-0.63114 -0.3589,-0.63114 -0.35891,-0.63113 -0.3589,-0.63114 -0.35891,-0.63114 -0.3589,-0.63114 -0.35891,-0.63114 -0.3589,-0.63113 -0.35891,-0.63114 -0.3589,-0.63114 -0.35891,-0.63114 -0.3589,-0.63114 -0.35891,-0.63114 -0.3589,-0.63113 -0.35891,-0.63114 -0.3589,-0.63114 c -0.1974,-0.34713 -0.3931,-0.69031 -0.58657,-1.02868 -0.19348,-0.33837 -0.38474,-0.67194 -0.57327,-0.99984 -0.18853,-0.32789 -0.37432,-0.65012 -0.55686,-0.96581 -0.18253,-0.31569 -0.36182,-0.62485 -0.53734,-0.92661 -0.17552,-0.30177 -0.34726,-0.59613 -0.51473,-0.88224 -0.16746,-0.28611 -0.33063,-0.56396 -0.48901,-0.83268 -0.15837,-0.26873 -0.31194,-0.52834 -0.46019,-0.77796 -0.14825,-0.24962 -0.29117,-0.48925 -0.42827,-0.71804 -0.13709,-0.22879 -0.26834,-0.44673 -0.39324,-0.65296 -0.1249,-0.20623 -0.24344,-0.40074 -0.35512,-0.58269 -0.11167,-0.18194 -0.21647,-0.35132 -0.31389,-0.50725 -0.0974,-0.15594 -0.18744,-0.29844 -0.26956,-0.42664 -0.0821,-0.1282 -0.15633,-0.2421 -0.22212,-0.34084 -0.0658,-0.0987 -0.12316,-0.18231 -0.17159,-0.24986 -0.0484,-0.0676 -0.0879,-0.11908 -0.11796,-0.15372 -0.03,-0.0346 -0.0506,-0.0524 -0.0612,-0.0524 -0.0106,0 -0.0289,0.008 -0.0544,0.0229 -0.0255,0.0151 -0.0583,0.0376 -0.098,0.0671 -0.0396,0.0295 -0.0861,0.066 -0.1391,0.10909 -0.053,0.0431 -0.11236,0.0928 -0.17781,0.14881 -0.0654,0.056 -0.13694,0.11819 -0.21408,0.18627 -0.0771,0.0681 -0.15992,0.14203 -0.24793,0.22147 -0.088,0.0794 -0.18127,0.16436 -0.27935,0.2544 -0.0981,0.09 -0.201,0.18519 -0.30834,0.28508 -0.10734,0.0999 -0.21911,0.20452 -0.3349,0.3135 -0.11579,0.10898 -0.2356,0.22233 -0.35903,0.33965 -0.12343,0.11733 -0.25048,0.23864 -0.38074,0.36355 -0.13026,0.12492 -0.26373,0.25344 -0.40001,0.38519 -0.13628,0.13175 -0.27536,0.26673 -0.41685,0.40456 -0.14149,0.13783 -0.28538,0.27852 -0.43127,0.42168 -0.14589,0.14316 -0.29378,0.28879 -0.44326,0.43653 -0.14948,0.14773 -0.30055,0.29756 -0.45281,0.44912 l -0.27684,0.27556 -0.27684,0.27555 -0.27683,0.27556 -0.27684,0.27555 -0.27684,0.27556 -0.27684,0.27555 -0.27684,0.27556 -0.27684,0.27556 -0.27683,0.27555 -0.27684,0.27556 -0.27684,0.27555 -0.27684,0.27556 -0.27684,0.27555 -0.27683,0.27556 -0.27684,0.27555 -0.27684,0.27556 v 0.35579 0.35579 0.35579 0.35579 0.35579 0.35579 0.35579 0.35579 0.35579 0.35579 0.35579 0.35579 0.35579 0.35579 0.35579 0.35579 0.35579 0.35579 0.35579 0.35579 0.35579 0.35579 0.35579 0.35579 0.35579 0.35579 0.35579 0.35579 0.35579 0.35579 0.35579 0.35579 h -0.52086 -0.52086 -0.52086 -0.52086 -0.52086 -0.52086 -0.52086 -0.52086 -0.52086 -0.52086 -0.52086 -0.52086 -0.52086 -0.52086 -0.52086 -0.52086 -0.52086 -0.52086 -0.52086 -0.52086 -0.52086 -0.52086 -0.52086 -0.52086 -0.52086 -0.52086 -0.52086 -0.52086 -0.52086 -0.52086 -0.52086 -0.52086 v -1.53105 -1.53106 -1.53105 -1.53106 -1.53105 -1.53106 -1.53105 -1.53106 -1.53106 -1.53105 -1.53105 -1.53106 -1.53105 -1.53106 -1.53106 z"
       style="fill:#800000;fill-opacity:1;stroke:#000000;stroke-width:0.19089496;stroke-miterlimit:4;stroke-dasharray:none;stroke-opacity:1" />
    <path
       transform="scale(0.26458333)"
       sodipodi:nodetypes="ccccccccccccccccccccccccccccccccccccccccccccccccccccccccccccccccccccccccccccccccccccccccccccccccccccccccccccccccccccccccccccccccccccccccccccccccccccccccccccccccccccccccccccccccccccccccccccccccccccccccccccccccccccccccccccccccccccccccccccccccccccccccccccccccccccccccccccccccccccccccccccccccccccccccccccccccccccccccccccccccccccccccccccccccccccccccccccccccccccccccccccccccccccccccccccccccc"
       inkscape:connector-curvature="0"
       id="path1509"
       d="m 256.57302,201.26272 v -1.03383 -1.03383 -1.03382 -1.03383 -1.03383 -1.03383 -1.03383 -1.03382 -1.03383 -1.03383 -1.03383 -1.03383 -1.03383 -1.03382 -1.03383 -1.03383 -1.03383 -1.03383 -1.03382 -1.03383 -1.03383 -1.03383 -1.03383 -1.03383 -1.03382 -1.03383 -1.03383 -1.03383 -1.03383 -1.03382 -1.03383 -1.03383 h 0.34724 0.34724 0.34724 0.34724 0.34724 0.34724 0.34724 0.34724 0.34724 0.34724 0.34724 0.34724 0.34724 0.34724 0.34724 0.34724 0.34724 0.34724 0.34724 0.34724 0.34724 0.34724 0.34724 0.34724 0.34724 0.34724 0.34724 0.34724 0.34724 0.34724 0.34724 0.34724 0.34724 0.34724 0.34724 0.34724 0.34724 0.34724 0.34724 0.34724 0.34724 0.34724 0.34724 0.34724 0.34724 0.34724 0.34724 0.34724 0.34724 0.34724 0.34724 0.34724 0.34724 0.34724 0.34724 0.34724 0.34724 0.34724 0.34724 0.34724 0.34724 0.34724 0.34724 0.34724 v 0.78129 0.78129 0.78129 0.78129 0.78129 0.78129 0.78129 0.78129 0.78129 0.78129 0.78129 0.78129 0.78129 0.78129 0.78129 0.78129 0.78129 0.78129 0.78129 0.78129 0.78129 0.78129 0.78129 0.78129 0.78129 0.78129 0.78129 0.78129 0.78129 0.78129 0.78129 0.78129 0.78129 0.78129 0.78129 0.78129 0.78129 0.78129 0.78129 0.78129 0.78129 0.78129 0.78129 0.78129 0.78129 0.78129 0.78129 0.78128 0.78129 0.78129 0.78129 0.78129 0.78129 0.78129 0.78129 0.78129 0.78129 0.78129 0.78129 0.78129 0.78129 0.78129 0.78129 0.78129 h 0.55243 0.55242 0.55243 0.55243 0.55243 0.55242 0.55243 0.55243 0.55242 0.55243 0.55243 0.55243 0.55242 0.55243 0.55243 0.55242 0.55243 0.55243 0.55243 0.55242 0.55243 0.55243 0.55243 0.55242 0.55243 0.55243 0.55242 0.55243 0.55243 0.55243 0.55242 0.55243 0.55243 0.55242 0.55243 0.55243 0.55243 0.55242 0.55243 0.55243 0.55242 0.55243 0.55243 0.55243 0.55242 0.55243 0.55243 0.55242 0.55243 0.55243 0.55243 0.55242 0.55243 0.55243 0.55243 0.55242 0.55243 0.55243 0.55242 0.55243 0.55243 0.55243 0.55242 0.55243 v 0.25254 0.25254 0.25253 0.25254 0.25254 0.25254 0.25254 0.25253 0.25254 0.25254 0.25254 0.25254 0.25254 0.25253 0.25254 0.25254 0.25254 0.25254 0.25253 0.25254 0.25254 0.25254 0.25254 0.25253 0.25254 0.25254 0.25254 0.25254 0.25254 0.25253 0.25254 0.25254 0.25254 0.25254 0.25253 0.25254 0.25254 0.25254 0.25254 0.25253 0.25254 0.25254 0.25254 0.25254 0.25254 0.25253 0.25254 0.25254 0.25254 0.25254 0.25253 0.25254 0.25254 0.25254 0.25254 0.25253 0.25254 0.25254 0.25254 0.25254 0.25254 0.25253 0.25254 0.25254 h -0.89967 -0.89966 -0.89967 -0.89967 -0.89967 -0.89966 -0.89967 -0.89967 -0.89966 -0.89967 -0.89967 -0.89967 -0.89966 -0.89967 -0.89967 -0.89967 -0.89966 -0.89967 -0.89967 -0.89966 -0.89967 -0.89967 -0.89967 -0.89966 -0.89967 -0.89967 -0.89966 -0.89967 -0.89967 -0.89967 -0.89966 -0.89967 -0.89967 -0.89966 -0.89967 -0.89967 -0.89967 -0.89966 -0.89967 -0.89967 -0.89966 -0.89967 -0.89967 -0.89967 -0.89966 -0.89967 -0.89967 -0.89967 -0.89966 -0.89967 -0.89967 -0.89966 -0.89967 -0.89967 -0.89967 -0.89966 -0.89967 -0.89967 -0.89966 -0.89967 -0.89967 -0.89967 -0.89966 -0.89967 v -1.03383 -1.03383 -1.03382 -1.03383 -1.03383 -1.03383 -1.03382 -1.03383 -1.03383 -1.03383 -1.03383 -1.03382 -1.03383 -1.03383 -1.03383 -1.03382 -1.03383 -1.03383 -1.03383 -1.03383 -1.03382 -1.03383 -1.03383 -1.03383 -1.03383 -1.03382 -1.03383 -1.03383 -1.03383 -1.03382 -1.03383 z"
       style="fill:#800000;fill-opacity:1;stroke:#000000;stroke-width:0.19089496;stroke-miterlimit:4;stroke-dasharray:none;stroke-opacity:1" />
  </g>
  <g
     style="display:inline"
     inkscape:label="Drill"
     inkscape:groupmode="layer"
     id="g1430" />
</svg>
