<?xml version="1.0" encoding="UTF-8" standalone="no"?>
<!-- Created with Inkscape (http://www.inkscape.org/) -->

<svg
   xmlns:dc="http://purl.org/dc/elements/1.1/"
   xmlns:cc="http://creativecommons.org/ns#"
   xmlns:rdf="http://www.w3.org/1999/02/22-rdf-syntax-ns#"
   xmlns:svg="http://www.w3.org/2000/svg"
   xmlns="http://www.w3.org/2000/svg"
   xmlns:sodipodi="http://sodipodi.sourceforge.net/DTD/sodipodi-0.dtd"
   xmlns:inkscape="http://www.inkscape.org/namespaces/inkscape"
   sodipodi:docname="Maker_Lugo_100mm_02.svg"
   inkscape:version="0.92.3 (2405546, 2018-03-11)"
   id="svg862"
   version="1.1"
   viewBox="0 0 99.5 99.5"
   height="99.5mm"
   width="99.5mm">
  <sodipodi:namedview
     inkscape:snap-global="false"
     inkscape:snap-bbox="true"
     borderlayer="true"
     inkscape:window-maximized="1"
     inkscape:window-y="27"
     inkscape:window-x="57"
     inkscape:window-height="1025"
     inkscape:window-width="1863"
     showgrid="true"
     inkscape:current-layer="g1416"
     inkscape:document-units="mm"
     inkscape:cy="197.54223"
     inkscape:cx="179.72993"
     inkscape:zoom="2"
     inkscape:pageshadow="2"
     inkscape:pageopacity="0.0"
     borderopacity="1.0"
     bordercolor="#666666"
     pagecolor="#ffffff"
     id="base">
    <inkscape:grid
       spacingx="2.54"
       spacingy="2.54"
       empspacing="1"
       type="xygrid"
       units="mm"
       id="grid1408" />
  </sodipodi:namedview>
  <defs
     id="defs856" />
  <metadata
     id="metadata859">
    <rdf:RDF>
      <cc:Work
         rdf:about="">
        <dc:format>image/svg+xml</dc:format>
        <dc:type
           rdf:resource="http://purl.org/dc/dcmitype/StillImage" />
        <dc:title></dc:title>
      </cc:Work>
    </rdf:RDF>
  </metadata>
  <g
     inkscape:label="[fixed] BG"
     inkscape:groupmode="layer"
     sodipodi:insensitive="true"
     id="g1414">
    <rect
       x="0"
       y="0"
       width="99.5"
       height="99.5"
       style="stroke:none;fill-opacity:1;fill:#FFFFFF"
       id="rect1412" />
  </g>
  <g
     style="display:none"
     inkscape:label="BASE"
     id="layer2"
     inkscape:groupmode="layer">
    <path
       style="fill:none;stroke:#000000;stroke-width:0.17615235;stroke-miterlimit:4;stroke-dasharray:none;stroke-opacity:1"
       id="path6"
       d="M 61.857348,84.946701 61.69564,84.277603 61.252264,82.443875 60.8258,80.680661 58.630043,71.602403 57.47436,66.824182 l -0.06183,-0.255544 -0.02132,-0.08843 -0.0053,-0.02325 0.132819,-0.07786 0.02043,-0.01233 0.37096,-0.261763 0.522397,-0.36534 0.70128,-0.483943 0.103049,-0.07856 0.146383,-0.111681 0.04175,-0.03188 0.228875,-0.210097 1.172487,-1.155137 0.199264,-0.196322 0.101464,-0.09988 0.376772,-0.44482 0.130353,-0.173686 0.88749,-1.182511 0.07099,-0.10622 0.09459,-0.15748 0.20416,-0.414522 0.248727,-0.536542 0.633532,-1.366572 0.423136,-0.912787 0.03734,-0.09812 0.1108,-0.365922 0.10622,-0.441437 0.252373,-1.048107 h -0.09213 -3.785055 -5.398471 l 2.881271,4.232941 h -5.610452 l -2.412371,-4.232941 -0.696718,-1.22248 -1.296235,1.22248 -1.05716,0.997022 V 60.35638 H 46.395983 42.68093 v -3.184817 -1.048124 h -7.735766 l 0.228875,1.048124 0.06711,0.307545 0.02537,0.109919 0.04175,0.180468 0.144269,0.389525 0.04545,0.122602 0.89149,2.13768 0.184414,0.344501 0.470133,0.695854 0.642603,0.999841 0.14973,0.172982 0.819408,0.94629 0.599992,0.657401 0.171925,0.150434 0.744966,0.651975 0.195229,0.163998 0.454227,0.325054 1.030227,0.676213 0.500889,0.340538 -1.223078,5.057351 -3.869486,15.9999 -0.642534,-0.254258 -0.615071,-0.280417 -2.131549,-0.906251 -1.905968,-1.04675 -1.263012,-0.693635 -11.368873,7.609781 -8.19813,-8.198112 7.597451,-11.351275 -0.497138,-0.878983 -0.507882,-0.898007 -0.453821,-0.931053 -0.625042,-1.160263 -0.400024,-0.942784 -0.341929,-0.80588 -0.10851,-0.260159 -0.05038,-0.144797 -0.688051,-1.896104 -0.118727,-0.422537 -0.08614,-0.306417 -0.568567,-2.024325 -0.167873,-0.03329 -0.07539,-0.01409 L 3.1046391,59.594485 0.93444223,59.164444 v -3.040425 -5.996225 -2.555971 l 2.17019687,-0.429829 11.1610129,-2.210677 0.405714,-1.498299 0.228099,-0.691275 0.255298,-0.773731 0.190421,-0.634624 0.187532,-0.626909 0.145325,-0.341207 0.684475,-1.65703 0.31748,-0.768588 0.147792,-0.273741 0.437298,-0.810248 0.215593,-0.442512 0.229579,-0.47126 0.992707,-1.764677 -0.07698,-0.115027 -0.161003,-0.240466 -0.05196,-0.07768 -2.249518,-3.36141 -0.391358,-0.584808 -4.606824,-6.88384 8.19813,-8.196369 11.249089,7.528752 1.35285,-0.763092 0.417992,-0.235762 0.917471,-0.447656 1.15903,-0.623104 0.04122,-0.01761 0.155366,-0.06535 0.460973,-0.180415 3.225015,-1.262273 0.210291,-0.07539 0.0035,-0.001 0.421233,-0.117141 0.275273,-0.0768 2.153286,-0.600045 0.772763,-3.900031 0.50258,-2.536524 1.35285,-6.8277359 h 2.696893 0.505557 5.323324 3.066812 l 1.6413,8.2844639 0.213919,1.079796 0.776497,3.919408 1.006271,0.260194 1.562066,0.508323 0.401187,0.130529 0.635927,0.192535 0.628054,0.189645 0.14603,0.05725 0.210502,0.0879 1.513871,0.631859 0.70283,0.293346 0.130882,0.06095 0.128415,0.05972 1.021278,0.558966 0.902622,0.442794 0.01233,0.007 1.76591,1.001338 0.116436,-0.07786 0.13599,-0.09107 3.538266,-2.367892 0.602318,-0.403073 1.422853,-0.952209 0.249502,-0.166992 5.192549,-3.475063 5.766752,5.76677 0.27855,0.278532 2.152828,2.152829 -7.229433,10.801203 -0.06342,0.09477 -0.265849,0.397189 0.510525,0.869382 0.917489,1.804135 0.431115,0.808046 0.183886,0.344642 0.102344,0.257993 1.105656,2.785919 0.107453,0.261587 0.125949,0.422413 0.275061,0.948756 0.646039,2.228328 4.358009,0.863551 8.994339,1.782257 v 2.511932 5.996226 3.086189 l -5.789317,1.146752 -3.204987,0.634853 -2.276645,0.45095 -1.333121,0.26407 -0.267576,0.05302 -0.521182,0.103225 -1.091827,3.584542 -0.15889,0.52157 -0.101287,0.240624 -0.773661,1.883421 -0.0953,0.180802 -1.753438,3.328505 -0.255104,0.484242 -0.218429,0.412373 7.60802,11.365349 -8.19813,8.199892 -4.993919,-3.343442 -5.707107,-3.820903 -0.0798,-0.05355 -0.09988,-0.06694 -0.09636,-0.06447 -0.0731,-0.04897 -0.345065,-0.231024 -2.169157,1.191248 -9.34e-4,4.58e-4 -1.707445,0.845408 -0.191935,0.09512 -1.963747,0.841304 -0.33712,0.13 -9.34e-4,4.23e-4 -0.06271,-0.260705 -0.480896,-1.991227 -0.05197,-0.2145 -0.03047,-0.125773 m -14.714413,-73.796062 0.09266,0.173334 0.118198,0.221124 0.0035,0.0053 0.06289,0.0768 0.284979,0.346139 0.08174,0.06676 0.345065,0.283676 0.0035,0.0018 0.0886,0.04756 0.395321,0.212581 0.100055,0.0303 0.430041,0.13 0.551515,0.05461 0.103049,-0.01057 0.197661,-0.01973 0.249062,-0.02466 0.530394,-0.160299 0.09072,-0.04879 0.39747,-0.213726 3.5e-5,-3.5e-5 0.07909,-0.06482 0.347583,-0.285754 0.06465,-0.07892 0.287498,-0.349186 0.0035,-0.0053 0.04509,-0.08455 0.212897,-0.398351 0.160299,-0.528458 0.01057,-0.100935 0.01585,-0.154486 0.02924,-0.2959357 -0.01057,-0.100935 -0.04474,-0.4504744 -0.160298,-0.5284571 -0.04791,-0.089485 -0.21295,-0.3984566 -5.3e-5,-7.04e-5 -0.06447,-0.078564 -0.287639,-0.3493629 -0.07892,-0.064648 -0.34776,-0.2858953 -0.0035,-0.00176 -0.08614,-0.046328 -0.397752,-0.2138666 -0.530377,-0.1602986 -0.102697,-0.010569 -0.146382,-0.014092 -0.300693,-0.029946 -0.551515,0.054607 -0.0997,0.030298 -0.430323,0.1300004 -0.0018,9.865e-4 -0.09072,0.048794 -0.395603,0.2127216 -3.5e-5,3.52e-5 -0.08156,0.066762 -0.345224,0.2837991 -0.06694,0.081735 -0.28512,0.3463155 -0.0035,0.00528 -0.04756,0.088428 -0.06782,0.1270059 -0.142859,0.2674697 -0.160299,0.528457 -0.01057,0.1058676 -0.04404,0.4454014 7.05e-4,0.007 0.0088,0.09864 0.01885,0.189945 0.02537,0.255421 0.160299,0.528457 0.05038,0.09354 m -4.462506,35.94199 h 4.5553 v 3.035105 1.976429 l 1.881941,-1.976429 2.890026,-3.035105 h 5.861258 0.198383 l -3.261514,3.035105 h 6.02006 3.808237 l -0.04439,-0.170868 -0.0657,-0.252479 -0.323116,-1.189451 -0.01057,-0.03752 -0.410312,-1.039721 -0.160475,-0.41114 -0.065,-0.126653 -0.309059,-0.49682 -1.413975,-2.272929 -0.185911,-0.292096 -0.03294,-0.04474 -0.100583,-0.136694 -0.04474,-0.06095 -0.224541,-0.219486 -0.101111,-0.08825 -0.315877,-0.27552 -0.310468,-0.270781 -2.473919,-2.157743 -0.222709,-0.160123 -0.148849,-0.08579 -1.5404,-0.832038 -0.321566,-0.132643 -2.628668,-0.814211 -0.315665,-0.09776 -0.242562,-0.07275 -1.172805,-0.149554 -0.707586,-0.08332 -0.242615,0.01057 -0.326674,0.01585 -2.075656,0.104282 -0.681041,0.03417 -0.17897,0.04122 -0.840247,0.193433 -0.156071,0.03594 -0.51174,0.08403 -0.174567,0.04915 -0.877221,0.337155 -1.50531,0.592876 -0.147616,0.05813 -0.34244,0.201202 -0.605612,0.355792 -0.659761,0.370396 -0.01233,0.007 -0.08896,0.05549 -0.935722,0.698972 -0.289242,0.219275 -0.113442,0.124363 -0.09671,0.105868 -0.0842,0.06641 -0.82198,0.822737 -0.675685,0.676267 -0.194032,0.194208 -0.8821,1.215222 -0.159242,0.208512 -0.117846,0.182247 -1.160245,2.26708 -0.105339,0.215681 -0.467685,1.434761 -0.06148,0.172982 -0.01233,0.05108 -0.02783,0.122602 -0.07892,0.449858 -0.03928,0.195564 h 0.0053 7.683765 z"
       inkscape:connector-curvature="0" />
  </g>
  <g
     inkscape:groupmode="layer"
     id="g2607"
     inkscape:label="BASE copy"
     style="display:none" />
  <g
     style="display:inline"
     inkscape:label="Edge.Cuts"
     inkscape:groupmode="layer"
     id="g1416">
    <path
       sodipodi:nodetypes="sssssscccscsccsscsccccccsccccccscsscccccccsscscccccsccccscssscccscsscsccsscccsccccccccccssccscscs"
       inkscape:connector-curvature="0"
       id="path2369"
       d="M14.313113 87.826706L12.784963 86.289905L11.533541 85.016439L11.051959 84.519854L10.687985 84.13878L10.457764 83.889778L10.397854 83.819978L10.377434 83.789408L10.396654 83.750448L10.453044 83.656048L10.669724 83.312505L11.465541 82.087621L12.64335 80.30026L14.081608 78.135927L15.519867 75.969378L16.697676 74.175987L17.15093 73.477485L17.493493 72.94218L17.710172 72.593377L17.766562 72.496197L17.785782 72.454377L17.777482 72.414647L17.753682 72.350357L17.666272 72.161524L17.536906 71.914694L17.378915 71.636709L17.110559 71.171662L16.845256 70.692237L16.583655 70.199956L16.32641 69.696334L16.07417 69.1829L15.827589 68.661168L15.587317 68.132663L15.354006 67.598903L15.128307 67.06141L14.910873 66.521702L14.702355 65.981304L14.503403 65.441731L14.314671 64.904511L14.136809 64.371158L13.970469 63.843198L13.816303 63.322146L13.344266 61.671392L6.7014755 60.363361L0.05868438 59.055327L0.05868438 53.391L0.05977938 51.631347L0.06450938 50.276706L0.07503348 49.273565L0.08314348 48.887083L0.09351248 48.568408L0.10641038 48.31085L0.12210728 48.107721L0.14087338 47.952331L0.16297858 47.837992L0.18869318 47.758012L0.20298838 47.728822L0.21828708 47.705692L0.23462328 47.687832L0.25203048 47.674362L0.29019348 47.657322L0.46225339 47.618852L0.86548143 47.535512L2.260719 47.255112L4.2664622 46.857851L6.6732662 46.385461L9.0843132 45.909258L11.101609 45.501618L12.513946 45.205853L12.927251 45.113463L13.049137 45.083513L13.110117 45.065283L13.173997 45.031763L13.234697 44.985723L13.291467 44.928283L13.343537 44.860563L13.390147 44.783673L13.430537 44.698743L13.463937 44.606883L13.489597 44.509203L13.535677 44.314642L13.599857 44.073419L13.774368 43.475381L13.996843 42.763877L14.25099 41.98769L14.520519 41.195609L14.789139 40.436416L15.04056 39.758898L15.154731 39.466015L15.258492 39.211843L15.387606 38.915165L15.547496 38.56468L15.731846 38.173327L15.934334 37.754047L16.14864 37.319783L16.368447 36.883478L16.587433 36.458073L16.799279 36.056507L17.184282 35.323661L17.493613 34.709378L17.610058 34.466821L17.695768 34.278052L17.746818 34.151118L17.758108 34.113358L17.759208 34.094068L17.451887 33.622067L16.644414 32.406532L14.019812 28.481494L10.320044 22.963083L14.339005 18.942502L18.357965 14.921921L23.950063 18.683239L29.54216 22.444558L30.223319 22.042931L30.688888 21.776085L31.187241 21.504746L31.714 21.230763L32.264789 20.955985L32.835228 20.682262L33.420944 20.411443L34.017555 20.145378L34.620686 19.885914L35.22596 19.634901L35.828999 19.394189L36.425425 19.165627L37.010863 18.951063L37.580932 18.752347L38.131257 18.571329L38.65746 18.409857L39.155166 18.26978L40.482416 17.915212L41.782261 11.31461L43.082106 4.7140079L48.753791 4.7140079L54.425476 4.7140079L54.496726 5.0116641L54.623216 5.6220642L54.914945 7.0640071L55.820392 11.580378L56.309429 14.017529L56.715144 16.017563L56.995295 17.373791L57.075085 17.745886L57.107645 17.879521L57.282971 17.940401L57.734591 18.085407L59.193011 18.540973L59.754992 18.71786L60.299822 18.896187L60.829136 19.076665L61.344574 19.26L61.847774 19.446904L62.34037 19.638085L62.824002 19.834252L63.300308 20.036114L63.770922 20.24438L64.237483 20.45976L64.701626 20.682962L65.16499 20.914696L65.629215 21.155671L66.095935 21.406595L66.566785 21.668179L67.043408 21.941131L67.948492 22.466912L73.56554 18.724341L79.182589 14.981769L83.191309 18.988873L87.20003 22.995977L83.450016 28.596081L79.700005 34.196183L80.699098 36.090772L80.929648 36.534507L81.154224 36.979962L81.372725 37.426878L81.58504 37.874995L81.791066 38.324051L81.990694 38.773784L82.183818 39.223933L82.370336 39.674235L82.550137 40.124435L82.723119 40.574266L82.889171 41.02347L83.048191 41.471785L83.20007 41.918952L83.344701 42.364707L83.481983 42.808789L83.611806 43.250936L83.732578 43.662906L83.845791 44.027571L83.950767 44.343166L84.046827 44.607918L84.133307 44.820066L84.209517 44.977835L84.243557 45.035775L84.274777 45.079455L84.303097 45.108655L84.328417 45.123155L84.859547 45.235545L86.159003 45.497911L90.281542 46.316021L96.73076 47.588699L97.425292 47.727544L97.425292 53.404188L97.425292 59.080828L97.127635 59.153118L96.512416 59.279528L95.057353 59.570273L90.497854 60.471703L88.036208 60.958767L86.014619 61.363627L84.642109 61.644083L84.264578 61.724463L84.127698 61.757923L84.107378 61.807723L84.063918 61.93495L83.918382 62.387438L83.712716 63.046909L83.468548 63.844885L83.182763 64.763775L83.045942 65.183655L82.910864 65.582684L82.7758 65.965009L82.639023 66.334775L82.498802 66.696127L82.353414 67.053212L82.201127 67.410174L82.040213 67.771158L81.868946 68.140313L81.685595 68.521781L81.488432 68.919709L81.275731 69.338243L80.796798 70.253707L80.573432 70.681231L80.367327 71.088774L80.182833 71.466798L80.024292 71.805755L79.896059 72.096109L79.802479 72.328313L79.770049 72.419633L79.747909 72.492833L79.736609 72.546723L79.736686 72.580113L79.761376 72.630643L79.822236 72.73482L80.044978 73.092574L80.38983 73.630284L80.841702 74.324858L82.006101 76.092229L83.417404 78.209965L84.828057 80.319647L85.990678 82.065095L86.784772 83.264925L87.005964 83.603554L87.089834 83.737762L87.086534 83.749222L87.072064 83.771712L87.010964 83.848372L86.770125 84.118266L86.390053 84.52447L85.893515 85.044024L85.303269 85.653963L84.642081 86.331328L83.197908 87.79649L81.743092 89.255821L80.459714 90.525625L79.939218 91.032051L79.529868 91.422213L79.254421 91.673149L79.174021 91.739229L79.149391 91.756159L79.135631 91.761859L79.096511 91.742649L79.001941 91.686269L78.658091 91.469588L77.432684 90.673772L75.644971 89.495963L73.480507 88.057704L71.31666 86.619445L69.53062 85.441637L68.307689 84.64582L67.9653 84.42914L67.8715 84.37275L67.83317 84.35354L67.75756 84.38184L67.577135 84.46295L66.949067 84.760836L66.043423 85.201706L64.954654 85.740064L63.847161 86.284267L62.890536 86.741041L62.500747 86.921667L62.187015 87.062462L61.962119 87.157442L61.886979 87.185882L61.838839 87.200622L61.50811 87.274642L59.071387 77.182069L57.334059 69.971925L56.792801 67.71455L56.578861 66.809445L56.573361 66.767495L56.574155 66.725515L56.581555 66.682905L56.596345 66.639065L56.619075 66.593385L56.650325 66.545265L56.690685 66.494095L56.740735 66.439265L56.872265 66.316233L57.049605 66.171326L57.277445 65.99971L57.560475 65.796539L57.776005 65.63858L58.004084 65.460812L58.242391 65.265536L58.488607 65.055047L58.740406 64.831646L58.995469 64.597627L59.251475 64.355293L59.506102 64.106936L59.757028 63.85486L60.001931 63.60136L60.23849 63.348733L60.464383 63.099281L60.677291 62.855298L60.87489 62.619084L61.054856 62.392936L61.214874 62.179153L61.312944 62.037905L61.414867 61.880938L61.520142 61.709499L61.628256 61.524825L61.850972 61.120738L62.078942 60.678606L62.308092 60.208351L62.534353 59.719906L62.753653 59.223194L62.961917 58.728142L63.155076 58.244677L63.329053 57.782731L63.479781 57.352222L63.603183 56.963083L63.653363 56.787127L63.695183 56.625239L63.728143 56.478655L63.751713 56.348617L63.765423 56.236365L63.768723 56.143145L63.761123 56.070195L63.753123 56.041705L63.742173 56.018735L63.732473 56.013235L63.710593 56.007735L63.631403 55.997045L63.339946 55.976825L62.887595 55.958485L62.294183 55.942505L61.579546 55.929305L60.763513 55.919305L59.865919 55.913005L58.906595 55.910905L57.5456 55.912505L56.464518 55.917905L55.633927 55.928305L55.024409 55.944865L54.793362 55.955815L54.606547 55.968725L54.460291 55.983755L54.350917 56.001055L54.274747 56.020765L54.228097 56.043045L54.214707 56.055185L54.207307 56.068015L54.205407 56.081565L54.208607 56.095825L54.248697 56.170755L54.336057 56.31373L54.630631 56.770393L55.048464 57.398982L55.545679 58.132664L56.037299 58.858061L56.439892 59.464089L56.711915 59.887362L56.785985 60.010658L56.811835 60.064488L56.798555 60.072588L56.759615 60.080488L56.609975 60.095438L56.373395 60.108988L56.060374 60.120818L55.246963 60.137958L54.253686 60.144258L51.695546 60.144258L50.283605 57.654182L49.721238 56.668001L49.233796 55.823594L48.873484 55.21071L48.757316 55.019136L48.692506 54.919094L48.661756 54.880074L48.630826 54.849164L48.598036 54.827494L48.561706 54.816224L48.520156 54.816488L48.471716 54.829428L48.414696 54.856198L48.347426 54.897928L48.268216 54.955758L48.175396 55.030828L47.94221 55.237256L47.634431 55.526345L47.238628 55.90722L45.963908 57.140398L45.963908 58.642311L45.963908 60.144221L43.847241 60.144221L41.730574 60.144221L41.730574 58.027554L41.730574 55.910888L37.74478 55.910888L33.758988 55.910888L33.848648 56.586787L33.891488 56.851989L33.951788 57.136871L34.028578 57.439097L34.120868 57.75633L34.227678 58.086228L34.348018 58.426459L34.480905 58.774679L34.625357 59.128557L34.780387 59.48575L34.945011 59.843921L35.118241 60.200736L35.299097 60.553854L35.486594 60.900937L35.679745 61.239646L35.877566 61.567647L36.079076 61.882599L36.26553 62.155258L36.467907 62.432824L36.684553 62.713632L36.91382 62.996008L37.154056 63.278284L37.403611 63.55879L37.660831 63.835851L37.924068 64.107803L38.191673 64.372972L38.46199 64.629683L38.73337 64.876275L39.004163 65.111072L39.272715 65.332404L39.537381 65.538601L39.796506 65.727993L40.048439 65.898908L40.252835 66.034481L40.443613 66.16618L40.616595 66.290746L40.767593 66.404924L40.892431 66.50546L40.986921 66.5891L41.046881 66.65259L41.062601 66.67577L41.068101 66.69268L41.013281 66.944743L40.8575 67.613967L40.300364 69.965203L38.605178 77.047955L36.899918 84.121794L36.33019 86.461891L36.16622 87.123873L36.10196 87.367581L36.08593 87.371181L36.04996 87.364781L35.92256 87.324131L35.72848 87.249701L35.476417 87.145532L34.833157 86.864124L34.062402 86.512209L33.233766 86.122086L32.416865 85.726053L31.681318 85.356406L31.365805 85.191571L31.09674 85.045447L29.657211 84.243008L24.106462 87.945071L21.9391 89.387143L20.141163 90.576887L18.89982 91.390904L18.546362 91.618453L18.402241 91.705793L18.389231 91.703693L18.366191 91.691393L18.291081 91.637263L18.17902 91.545443L18.032099 91.417919L17.642063 91.063719L17.137745 90.590575L16.535917 90.014403L15.853351 89.351108L15.106818 88.616601L14.313091 87.826793L14.313091 87.826793"
       style="fill:#000000;fill-opacity:1;stroke:#000000;stroke-width:0.05;stroke-miterlimit:4;stroke-dasharray:none;stroke-opacity:1" />
    <path
       inkscape:connector-curvature="0"
       id="path2419"
       d="M49.89442 12.991311L50.000594 12.944581L50.103589 12.894491L50.203399 12.841151L50.300019 12.784661L50.393439 12.725131L50.483669 12.662671L50.570689 12.597381L50.654509 12.529371L50.735119 12.458741L50.812519 12.385591L50.957649 12.232183L51.089874 12.069991L51.209159 11.899861L51.315471 11.722637L51.408781 11.539164L51.489051 11.350288L51.556251 11.156853L51.610341 10.959704L51.651291 10.759686L51.679071 10.557644L51.693651 10.354423L51.694951 10.150868L51.683021 9.9478235L51.657781 9.7461351L51.619211 9.5466475L51.567271 9.3502054L51.501931 9.1576539L51.423151 8.9698381L51.330901 8.7876026L51.225152 8.6117925L51.105867 8.4432527L51.041137 8.3619727L50.973007 8.2828277L50.901477 8.2059227L50.826547 8.1313637L50.748207 8.0592557L50.666457 7.9897047L50.581287 7.9228157L50.492697 7.8586957L50.400687 7.7974487L50.305247 7.7391817L50.206377 7.6839997L50.104065 7.6320077L49.915803 7.5481187L49.726359 7.4778087L49.536206 7.4207897L49.345809 7.3767747L49.155639 7.3454757L48.966169 7.3266057L48.777865 7.3198757L48.591196 7.3249957L48.406631 7.3416857L48.22464 7.3696537L48.045694 7.4086117L47.870262 7.4582727L47.698812 7.5183497L47.531812 7.5885537L47.369734 7.6685977L47.213048 7.7581937L47.062219 7.8570537L46.917722 7.9648913L46.780022 8.081418L46.649591 8.2063466L46.526896 8.3393891L46.412408 8.480258L46.306598 8.6286657L46.209928 8.7843244L46.122878 8.9469465L46.045908 9.1162447L45.979498 9.2919309L45.924108 9.4737177L45.880208 9.6613173L45.848278 9.8544422L45.828778 10.052805L45.822178 10.256117L45.825078 10.368695L45.833578 10.482122L45.847628 10.596159L45.866998 10.71057L45.891528 10.825116L45.921028 10.93956L45.955338 11.053662L45.994288 11.167186L46.037698 11.279893L46.085398 11.391545L46.137218 11.501904L46.192988 11.610732L46.252538 11.717791L46.315698 11.822844L46.382288 11.925652L46.452138 12.025978L46.525078 12.123578L46.600938 12.218228L46.679548 12.309678L46.760728 12.397688L46.844318 12.482028L46.930138 12.562458L47.018018 12.638738L47.107788 12.710628L47.199278 12.777898L47.292308 12.840308L47.386718 12.897618L47.482318 12.949588L47.578958 12.995978L47.676448 13.036558L47.774628 13.071078L47.873328 13.099318L47.983074 13.123588L48.101533 13.143368L48.227314 13.158748L48.359018 13.169788L48.495254 13.176588L48.634632 13.179188L48.775752 13.177688L48.917223 13.172088L49.05765 13.162588L49.195641 13.149188L49.329801 13.131968L49.458737 13.111018L49.581054 13.086398L49.695359 13.058188L49.800259 13.026468L49.894359 12.991308L49.894359 12.991311"
       style="display:inline;fill:#000000;fill-opacity:1;stroke:#000000;stroke-width:0.05;stroke-miterlimit:4;stroke-dasharray:none;stroke-opacity:1"
       sodipodi:nodetypes="sssssssssssssssssssssssscssssssss" />
    <path
       inkscape:connector-curvature="0"
       d="M41.503334 47.026611L46.058634 47.026611L46.058634 50.061716L46.058634 52.038145L47.940575 50.061716L50.830601 47.026611L56.691859 47.026611L56.890242 47.026611L53.628728 50.061716L59.648788 50.061716L63.457025 50.061716L63.412635 49.890848L63.346935 49.638369L63.023819 48.448918L63.013249 48.411398L62.818899 47.880502L62.600985 47.374558L62.352991 46.86845L62.068403 46.337064L61.543078 45.438136L61.275009 45.014459L60.995607 44.601054L60.699075 44.192735L60.379615 43.784311L60.031431 43.370596L59.648725 42.946399L59.263843 42.568131L58.729865 42.048297L58.19496 41.562607L57.653141 41.110021L57.098422 40.6895L56.524816 40.300005L55.926337 39.940496L55.296999 39.609935L54.630814 39.307281L53.973112 39.045515L53.405578 38.854397L52.250193 38.509606L51.773911 38.384882L51.269691 38.297282L50.271114 38.17301L49.198569 38.13691L48.100109 38.14581L47.544165 38.17108L46.985346 38.21231L46.424854 38.27107L45.86389 38.34893L45.303656 38.44746L44.745353 38.568228L44.190182 38.712802L43.639345 38.882751L43.094043 39.079644L42.555477 39.305048L42.024849 39.560534L41.50336 39.847669L40.875131 40.273176L40.276195 40.707264L39.70572 41.149841L39.162873 41.600812L38.646823 42.060084L38.156738 42.527563L37.691786 43.003156L37.251134 43.48677L36.833951 43.97831L36.439405 44.477684L36.066664 44.984797L35.714896 45.499557L35.383269 46.02187L35.07095 46.551642L34.777109 47.088779L34.500912 47.633189L34.301831 48.183913L34.123565 48.736358L33.97191 49.295039L33.852667 49.864472L33.813387 50.060036L33.818687 50.060036L41.502452 50.060036L41.503334 47.026588"
       id="path2605"
       style="display:inline;fill:#000000;fill-opacity:1;stroke:#000000;stroke-width:0.17615235;stroke-miterlimit:4;stroke-dasharray:none;stroke-opacity:1"
       sodipodi:nodetypes="cccccccccccccccccccccccccccc" />
  </g>
  <g
     inkscape:label="B.Cu-disabled"
     inkscape:groupmode="layer"
     id="g1418" />
  <g
     inkscape:label="B.Mask-disabled"
     inkscape:groupmode="layer"
     id="g1420" />
  <g
     inkscape:label="B.Silk-disabled"
     inkscape:groupmode="layer"
     id="g1422" />
  <g
     style="display:inline"
     inkscape:label="F.Cu"
     inkscape:groupmode="layer"
     id="g1424" />
  <g
     inkscape:label="F.Mask-disabled"
     inkscape:groupmode="layer"
     id="g1426" />
  <g
     style="display:inline"
     inkscape:label="F.Silk"
     inkscape:groupmode="layer"
     id="g1428">
    <path
       transform="scale(0.26458333)"
       sodipodi:nodetypes="ccccccccccccccccccccccccccccccccccccccccccccccccccccccccccccccccsssssssssssssssssssssssssssssssssccccccccccccccccccccccccccccccccccccccccccccccccccccccccccccccccccccccccccccccccccccccccccccccccccccccccccccccccccccccccccccccccsssssssssssssssssssssssssssssssssssssssssssssssccccccccccccccccccccccccccccccccssssssssssssssssssssssssssssssssssssssssssssssssssssssssssssssssscccccccccccccccccccccccccccccccccccccccccccccccccccccccccccccccc"
       inkscape:connector-curvature="0"
       id="path1505"
       d="m 61.108502,201.00087 v -2.08402 -2.08402 -2.08402 -2.08403 -2.08402 -2.08402 -2.08402 -2.08402 -2.08402 -2.08402 -2.08402 -2.08403 -2.08402 -2.08402 -2.08402 -2.08402 l 0.733141,0.008 0.733141,0.008 0.733141,0.008 0.733141,0.008 0.733141,0.008 0.733141,0.008 0.733141,0.008 0.733141,0.008 0.733142,0.008 0.733141,0.008 0.733141,0.008 0.733141,0.008 0.733141,0.008 0.733141,0.008 0.733141,0.008 0.733141,0.008 0.733141,0.008 0.733141,0.008 0.733141,0.008 0.733141,0.008 0.733141,0.008 0.733141,0.008 0.733141,0.008 0.733141,0.008 0.733141,0.008 0.733141,0.008 0.733141,0.008 0.733141,0.008 0.733141,0.008 0.733141,0.008 0.733141,0.008 0.733141,0.008 0.284346,1.2548 0.284346,1.2548 0.284346,1.2548 0.284346,1.2548 0.284346,1.2548 0.284346,1.2548 0.284346,1.2548 0.284346,1.25479 0.284347,1.2548 0.284346,1.2548 0.284346,1.2548 0.284346,1.2548 0.284346,1.2548 0.284346,1.2548 0.284346,1.2548 0.284346,1.2548 c 0.15639,0.69014 0.311501,1.37244 0.464918,2.04518 0.153418,0.67273 0.305143,1.33591 0.454762,1.98782 0.14962,0.65191 0.297133,1.29254 0.442128,1.92019 0.144995,0.62764 0.287472,1.2423 0.427016,1.84225 0.139545,0.59995 0.276158,1.18519 0.409427,1.75402 0.133269,0.56883 0.263193,1.12123 0.38936,1.6555 0.126167,0.53427 0.248577,1.0504 0.366816,1.54669 0.118239,0.49628 0.232308,0.97271 0.341793,1.42758 0.109486,0.45486 0.214388,0.88816 0.314294,1.29817 0.09991,0.41002 0.194816,0.79675 0.284317,1.15849 0.0895,0.36173 0.173592,0.69847 0.251861,1.00849 0.07827,0.31003 0.150717,0.59334 0.21693,0.84822 0.06621,0.25488 0.12619,0.48133 0.179519,0.67764 0.05333,0.1963 0.100011,0.36247 0.139632,0.49677 0.03962,0.1343 0.07218,0.23675 0.09727,0.30561 0.02509,0.0689 0.0427,0.10416 0.05242,0.10416 0.0097,0 0.02729,-0.0353 0.05229,-0.10416 0.025,-0.0689 0.05743,-0.17131 0.09689,-0.30561 0.03945,-0.1343 0.08593,-0.30047 0.139014,-0.49677 0.05308,-0.19631 0.11278,-0.42276 0.178675,-0.67764 0.06589,-0.25488 0.13799,-0.53819 0.215873,-0.84822 0.07788,-0.31002 0.161556,-0.64676 0.250606,-1.00849 0.08905,-0.36174 0.183478,-0.74847 0.282873,-1.15849 0.0994,-0.41001 0.203758,-0.84331 0.312677,-1.29817 0.108919,-0.45487 0.222395,-0.9313 0.340016,-1.42758 0.117621,-0.49629 0.239387,-1.01242 0.364889,-1.54669 0.125501,-0.53427 0.254737,-1.08667 0.387297,-1.6555 0.132561,-0.56883 0.268445,-1.15407 0.407242,-1.75402 0.138798,-0.59995 0.280509,-1.21461 0.424722,-1.84225 0.144213,-0.62765 0.290929,-1.26828 0.439736,-1.92019 0.148808,-0.65191 0.299707,-1.31509 0.452286,-1.98782 0.15258,-0.67274 0.306841,-1.35504 0.462372,-2.04518 l 0.282783,-1.2548 0.282784,-1.2548 0.282783,-1.2548 0.282784,-1.2548 0.282783,-1.2548 0.28278,-1.2548 0.28279,-1.2548 0.28278,-1.2548 0.28279,-1.25479 0.28278,-1.2548 0.28278,-1.2548 0.28279,-1.2548 0.28278,-1.2548 0.28278,-1.2548 0.28279,-1.2548 0.28278,-1.2548 0.73392,-0.008 0.73392,-0.008 0.73392,-0.008 0.73392,-0.008 0.73391,-0.008 0.73392,-0.008 0.73392,-0.008 0.73392,-0.008 0.73392,-0.008 0.73392,-0.008 0.73392,-0.008 0.73392,-0.008 0.73391,-0.008 0.73392,-0.008 0.73392,-0.008 0.73392,-0.008 0.73392,-0.008 0.73392,-0.008 0.73392,-0.008 0.73392,-0.008 0.73392,-0.008 0.73392,-0.008 0.73392,-0.008 0.73391,-0.008 0.73392,-0.008 0.73392,-0.008 0.73392,-0.008 0.73392,-0.008 0.73392,-0.008 0.73392,-0.008 0.73392,-0.008 0.73392,-0.008 v 2.08402 2.08402 2.08402 2.08402 2.08403 2.08402 2.08402 2.08402 2.08402 2.08402 2.08402 2.08402 2.08403 2.08402 2.08402 2.08402 2.08402 2.08402 2.08402 2.08402 2.08403 2.08402 2.08402 2.08402 2.08402 2.08402 2.08402 2.08402 2.08403 2.08402 2.08402 2.08402 l -0.44983,1e-5 h -0.44984 l -0.44983,10e-6 -0.44984,1e-5 -0.44983,1e-5 h -0.44983 l -0.44984,1e-5 -0.44983,1e-5 -0.44983,1e-5 h -0.44984 l -0.44983,1e-5 -0.44984,1e-5 -0.44983,1e-5 h -0.44983 l -0.44984,10e-6 -0.44983,1e-5 -0.44983,1e-5 h -0.44984 l -0.44983,1e-5 -0.44984,1e-5 -0.44983,1e-5 h -0.44983 l -0.44984,1e-5 -0.44983,1e-5 -0.44983,1e-5 h -0.44984 l -0.44983,10e-6 -0.44983,1e-5 -0.44984,1e-5 h -0.44983 l -0.44984,1e-5 -0.44983,1e-5 0.008,-1.57837 0.008,-1.57837 0.008,-1.57837 0.008,-1.57837 0.008,-1.57837 0.008,-1.57837 0.008,-1.57837 0.008,-1.57838 0.008,-1.57837 0.008,-1.57837 0.008,-1.57837 0.008,-1.57837 0.008,-1.57837 0.008,-1.57837 0.008,-1.57837 0.008,-1.57837 c 0.005,-0.8681 0.009,-1.72634 0.0117,-2.57256 0.003,-0.84622 0.006,-1.68041 0.007,-2.50042 0.002,-0.82001 0.003,-1.62585 0.003,-2.41534 2.4e-4,-0.78949 -2.3e-4,-1.56265 -10e-4,-2.31731 -0.001,-0.75466 -0.003,-1.49082 -0.005,-2.20632 -0.002,-0.71551 -0.006,-1.41037 -0.009,-2.08241 -0.004,-0.67204 -0.008,-1.32126 -0.0131,-1.94552 -0.005,-0.62426 -0.0106,-1.22355 -0.0168,-1.79571 -0.006,-0.57216 -0.013,-1.11719 -0.0203,-1.63293 -0.007,-0.51575 -0.0152,-1.00221 -0.0237,-1.45722 -0.008,-0.45502 -0.0174,-0.87859 -0.0269,-1.26856 -0.009,-0.38996 -0.0195,-0.74633 -0.03,-1.06694 -0.0105,-0.3206 -0.0215,-0.60545 -0.0329,-0.85238 -0.0115,-0.24693 -0.0234,-0.45594 -0.0357,-0.62487 -0.0124,-0.16894 -0.0252,-0.2978 -0.0384,-0.38442 -0.0132,-0.0866 -0.0269,-0.13102 -0.0409,-0.13102 -0.014,0 -0.0367,0.0388 -0.0675,0.11464 -0.0308,0.0758 -0.0697,0.18855 -0.11632,0.33637 -0.0466,0.14781 -0.10088,0.3307 -0.16238,0.54676 -0.0615,0.21606 -0.13021,0.4653 -0.20568,0.74583 -0.0755,0.28053 -0.1577,0.59235 -0.24622,0.93357 -0.0885,0.34122 -0.18334,0.71184 -0.28399,1.10998 -0.10066,0.39813 -0.20715,0.82378 -0.31901,1.27506 -0.11186,0.45127 -0.2291,0.92817 -0.35125,1.42881 -0.12215,0.50064 -0.24921,1.02501 -0.38073,1.57123 -0.13152,0.54623 -0.26748,1.1143 -0.40745,1.70233 -0.13996,0.58803 -0.28391,1.19603 -0.4314,1.82209 -0.14748,0.62607 -0.2985,1.27021 -0.45259,1.93053 -0.15408,0.66032 -0.31124,1.33683 -0.47101,2.02763 -0.15977,0.69081 -0.32215,1.39591 -0.48668,2.11341 -0.16452,0.71751 -0.3312,1.44743 -0.49957,2.18786 -0.16836,0.74044 -0.33842,1.49139 -0.5097,2.25098 -0.17128,0.75959 -0.34188,1.51609 -0.51132,2.26736 -0.16943,0.75126 -0.3377,1.49728 -0.50431,2.23591 -0.1666,0.73862 -0.33156,1.46985 -0.49437,2.19152 -0.16281,0.72167 -0.32348,1.43378 -0.48152,2.13418 -0.15804,0.7004 -0.31344,1.38908 -0.46573,2.0639 -0.15229,0.67481 -0.30147,1.33575 -0.44704,1.98066 -0.14557,0.64491 -0.28753,1.27379 -0.4254,1.88448 -0.13787,0.61069 -0.27165,1.20319 -0.40085,1.77535 -0.1292,0.57216 -0.25383,1.12397 -0.37338,1.65327 -0.11955,0.52931 -0.23404,1.03611 -0.34298,1.51825 -0.10893,0.48214 -0.21231,0.93962 -0.30965,1.37028 -0.0973,0.43066 -0.18864,0.8345 -0.27341,1.20936 -0.0848,0.37486 -0.16301,0.72075 -0.23424,1.0355 -0.0712,0.31474 -0.13543,0.59836 -0.19214,0.84867 -0.0567,0.25032 -0.10591,0.46735 -0.14713,0.64892 -0.0412,0.18158 -0.0744,0.3277 -0.0992,0.43621 l -0.045,0.19729 -0.045,0.1973 -0.045,0.19729 -0.045,0.1973 -0.045,0.19729 -0.045,0.1973 -0.045,0.19729 -0.045,0.1973 -0.045,0.19729 -0.045,0.1973 -0.045,0.19729 -0.045,0.1973 -0.045,0.19729 -0.045,0.1973 -0.045,0.19729 -0.045,0.1973 h -0.40442 -0.404421 -0.40442 -0.40442 -0.404421 -0.40442 -0.40442 -0.40442 -0.40442 -0.40442 -0.40442 -0.40442 -0.404421 -0.40442 -0.40442 -0.40442 c -0.295203,0 -0.579013,-6.7e-4 -0.851739,-0.002 -0.272726,-0.001 -0.534369,-0.003 -0.785238,-0.006 -0.250869,-0.003 -0.490965,-0.006 -0.720597,-0.0105 -0.229633,-0.004 -0.448802,-0.009 -0.657817,-0.0151 -0.209016,-0.006 -0.407878,-0.0124 -0.596897,-0.0198 -0.189019,-0.007 -0.368194,-0.0156 -0.537836,-0.0246 -0.169642,-0.009 -0.32975,-0.0189 -0.480636,-0.0297 -0.150885,-0.0108 -0.292547,-0.0224 -0.425295,-0.0349 -0.132748,-0.0125 -0.256583,-0.0259 -0.371815,-0.0403 -0.115232,-0.0144 -0.22186,-0.0297 -0.320195,-0.0459 -0.09834,-0.0163 -0.188377,-0.0335 -0.270435,-0.0516 -0.08206,-0.0182 -0.156133,-0.0374 -0.222535,-0.0576 -0.0664,-0.0202 -0.125129,-0.0414 -0.176494,-0.0637 -0.05137,-0.0223 -0.09537,-0.0456 -0.132315,-0.07 -0.03695,-0.0244 -0.06684,-0.0498 -0.09,-0.0764 -0.02315,-0.0266 -0.03956,-0.0542 -0.04954,-0.083 -0.0075,-0.0217 -0.02465,-0.0864 -0.0509,-0.19205 -0.02625,-0.10561 -0.06163,-0.2521 -0.105637,-0.4373 -0.04401,-0.18521 -0.09665,-0.40913 -0.157436,-0.66962 -0.06078,-0.26048 -0.129712,-0.55752 -0.206292,-0.88897 -0.07658,-0.33144 -0.160813,-0.69729 -0.252209,-1.09538 -0.0914,-0.39809 -0.189953,-0.82843 -0.295184,-1.28885 -0.10523,-0.46042 -0.217133,-0.95093 -0.335218,-1.46937 -0.118086,-0.51844 -0.242353,-1.0648 -0.372313,-1.63694 -0.129959,-0.57214 -0.265611,-1.17004 -0.406464,-1.79157 -0.140854,-0.62152 -0.28691,-1.26665 -0.437677,-1.93324 -0.150768,-0.66659 -0.306247,-1.35463 -0.465948,-2.06197 -0.159701,-0.70734 -0.323623,-1.43398 -0.491277,-2.17776 -0.167654,-0.74378 -0.33904,-1.50469 -0.513667,-2.28059 -0.174627,-0.7759 -0.352495,-1.56678 -0.533115,-2.37048 -0.18062,-0.80371 -0.36399,-1.62024 -0.549622,-2.44743 -0.185632,-0.82719 -0.373525,-1.66505 -0.563189,-2.51142 -0.189664,-0.84637 -0.377838,-1.68312 -0.56402,-2.50815 -0.186181,-0.82503 -0.370369,-1.63834 -0.55206,-2.43783 -0.181691,-0.79948 -0.360885,-1.58515 -0.537078,-2.35488 -0.176193,-0.76973 -0.349385,-1.52354 -0.519072,-2.25931 -0.169688,-0.73578 -0.33587,-1.45352 -0.498044,-2.15112 -0.162174,-0.69761 -0.32034,-1.37508 -0.473993,-2.03031 -0.153653,-0.65523 -0.302794,-1.28822 -0.446918,-1.89686 -0.144124,-0.60865 -0.283233,-1.19295 -0.416821,-1.7508 -0.133588,-0.55785 -0.261656,-1.08926 -0.3837,-1.59211 -0.122044,-0.50285 -0.238064,-0.97715 -0.347557,-1.4208 -0.109492,-0.44364 -0.212457,-0.85663 -0.30839,-1.23686 -0.09593,-0.38023 -0.184835,-0.7277 -0.266201,-1.0403 -0.08137,-0.31261 -0.155197,-0.59035 -0.220989,-0.83112 -0.06579,-0.24078 -0.123543,-0.44458 -0.172753,-0.60931 -0.04921,-0.16474 -0.08987,-0.2904 -0.121494,-0.37488 -0.03162,-0.0845 -0.05419,-0.1278 -0.06721,-0.12783 -0.01302,-3e-5 -0.0259,0.0443 -0.03859,0.13093 -0.01269,0.0866 -0.02521,0.21542 -0.03751,0.38433 -0.0123,0.1689 -0.02439,0.37789 -0.03623,0.62479 -0.01184,0.2469 -0.02344,0.53172 -0.03476,0.85229 -0.01132,0.32058 -0.02236,0.67692 -0.03309,1.06686 -0.01073,0.38995 -0.02116,0.81349 -0.03124,1.26848 -0.01008,0.45499 -0.01982,0.94142 -0.02918,1.45714 -0.0094,0.51573 -0.01835,1.06073 -0.02693,1.63287 -0.0086,0.57214 -0.01676,1.1714 -0.02449,1.79564 -0.0077,0.62424 -0.01503,1.27345 -0.02186,1.94547 -0.0068,0.67202 -0.01318,1.36685 -0.01903,2.08234 -0.0058,0.7155 -0.0112,1.45164 -0.016,2.20629 -0.0048,0.75464 -0.0091,1.52778 -0.01279,2.31726 -0.0037,0.78948 -0.0068,1.59531 -0.0094,2.41531 -0.0025,0.82 -0.0045,1.65419 -0.0058,2.5004 -0.0013,0.84621 -0.002,1.70444 -0.002,2.57254 v 1.57836 1.57837 1.57836 1.57836 1.57837 1.57836 1.57836 1.57837 1.57836 1.57836 1.57836 1.57837 1.57836 1.57836 1.57837 1.57836 H 74.808696 74.366755 73.924813 73.482871 73.040929 72.598988 72.157046 71.715104 71.273162 70.831221 70.389279 69.947337 69.505395 69.063453 68.621512 68.17957 67.737628 67.295687 66.853745 66.411803 65.969861 65.52792 65.085978 64.644036 64.202094 63.760153 63.318211 62.876269 62.434327 61.992385 61.550444 61.108502 v -2.08402 -2.08402 -2.08402 -2.08403 -2.08402 -2.08402 -2.08402 -2.08402 -2.08402 -2.08402 -2.08402 -2.08402 -2.08403 -2.08402 -2.08402 z"
       style="fill:#800000;fill-opacity:1;stroke:#000000;stroke-width:0.19089496;stroke-miterlimit:4;stroke-dasharray:none;stroke-opacity:1" />
    <path
       sodipodi:nodetypes="ccccccccccccccccccccccccccccccccccccccccccccccccccccccccccccccccsssssssssssssssssssssssssssssssssccccccccccccccccccccccccccccccccccccccccccccccccccccccccccccccccsssssssssssssssscccccccccccccccccccccccccccccccsssssssssssssssscccccccccccccccccccccccccccccccccccccccccccccccccccccccccccccccccsssssssssssssssssssssssssssssssccccccccccccccccccccccccccccccccccccccccccccccccccccccccccccccccccccccccccccccccccccccccccccccccc"
       inkscape:connector-curvature="0"
       id="path1507"
       d="m 41.58428,53.624267 v -0.40508 -0.405082 -0.40508 -0.40508 -0.405079 -0.405083 -0.405079 -0.40508 -0.40508 -0.405082 -0.40508 -0.40508 -0.405079 -0.405083 -0.40508 -0.405079 h 0.137811 0.137811 0.13781 0.137811 0.137811 0.137811 0.137811 0.137811 0.137811 0.137811 0.13781 0.137811 0.137811 0.137811 0.137811 0.137811 0.137811 0.137811 0.13781 0.137811 0.137811 0.137811 0.137811 0.137811 0.137811 0.137811 0.13781 0.137811 0.137811 0.137811 0.137811 0.137811 v 0.150339 0.150339 0.150338 0.150339 0.150339 0.150339 0.150339 0.150339 0.150341 0.150339 0.150339 0.150339 0.150339 0.150339 0.150339 0.150339 c 0,0.08426 2.09e-4,0.167394 5.29e-4,0.249198 5.29e-4,0.0818 0.0011,0.162284 0.0019,0.241255 7.94e-4,0.07897 0.0019,0.156426 0.0029,0.232187 0.0011,0.07576 0.0024,0.149823 0.004,0.221999 0.0016,0.07218 0.0032,0.14247 0.005,0.210688 0.0019,0.06822 0.0039,0.134368 0.006,0.198257 0.0021,0.06389 0.0045,0.125516 0.0069,0.184698 0.0024,0.05918 0.0051,0.115919 0.0078,0.170024 0.0027,0.0541 0.0056,0.105571 0.0085,0.154223 0.003,0.04865 0.0061,0.09448 0.0093,0.1373 0.0032,0.04282 0.0065,0.08263 0.01,0.119256 0.0034,0.03662 0.007,0.07005 0.01061,0.100089 0.0036,0.03004 0.0074,0.05671 0.01117,0.0798 0.0038,0.0231 0.0077,0.04262 0.01169,0.05839 0.004,0.01577 0.008,0.02778 0.01214,0.03586 0.0041,0.0081 0.0083,0.0122 0.01254,0.0122 0.0042,0 0.01233,-0.0042 0.02429,-0.01249 0.01196,-0.0083 0.02772,-0.02053 0.04706,-0.03662 0.01934,-0.01609 0.04228,-0.036 0.0686,-0.05952 0.02633,-0.02352 0.05602,-0.05065 0.08889,-0.08119 0.03287,-0.03054 0.06892,-0.06448 0.107929,-0.101624 0.03901,-0.03714 0.08099,-0.07749 0.125733,-0.120829 0.04474,-0.04334 0.09224,-0.08968 0.14229,-0.138798 0.05005,-0.04912 0.102656,-0.101039 0.157607,-0.155538 0.05495,-0.0545 0.112242,-0.11158 0.171675,-0.17104 0.05943,-0.05946 0.121002,-0.121298 0.184504,-0.185309 0.0635,-0.06401 0.128935,-0.130196 0.196088,-0.19835 0.06716,-0.06815 0.136036,-0.138269 0.206431,-0.210151 0.07039,-0.07188 0.142306,-0.145523 0.215527,-0.220723 0.07322,-0.0752 0.147749,-0.151953 0.22338,-0.230058 0.07563,-0.07811 0.152365,-0.157565 0.229991,-0.238165 0.07763,-0.0806 0.156152,-0.162348 0.23536,-0.245036 l 0.144018,-0.150338 0.144016,-0.150339 0.144018,-0.150339 0.144018,-0.150339 0.144015,-0.150339 0.144018,-0.150339 0.144016,-0.150339 0.144018,-0.150341 0.144018,-0.150339 0.144015,-0.150339 0.144018,-0.150339 0.144015,-0.150339 0.144018,-0.150339 0.144018,-0.150339 0.144016,-0.150339 0.144018,-0.150338 0.180414,1.48e-4 0.180414,1.48e-4 0.180414,1.51e-4 0.180417,1.48e-4 0.180414,1.48e-4 0.180414,1.48e-4 0.180414,1.51e-4 0.180414,1.48e-4 0.180414,1.48e-4 0.180414,1.48e-4 0.180414,1.51e-4 0.180417,1.48e-4 0.180414,1.49e-4 0.180414,1.48e-4 0.180414,1.51e-4 0.180414,1.48e-4 0.180414,1.48e-4 0.180414,1.48e-4 0.180414,1.51e-4 0.180417,1.48e-4 0.180414,1.48e-4 0.180414,1.48e-4 0.180414,1.51e-4 0.180414,1.48e-4 0.180415,1.49e-4 0.180414,1.48e-4 0.180414,1.51e-4 0.180416,1.48e-4 0.180415,1.48e-4 0.180414,1.48e-4 0.180414,1.51e-4 0.180414,1.48e-4 -0.05429,0.05208 -0.05429,0.05208 -0.05429,0.05208 -0.05429,0.05208 -0.05429,0.05208 -0.05429,0.05208 -0.05429,0.05208 -0.05429,0.05208 -0.05429,0.05208 -0.05429,0.05208 -0.05429,0.05208 -0.05429,0.05208 -0.05429,0.05208 -0.05429,0.05208 -0.05429,0.05208 -0.05429,0.05208 c -0.02986,0.02864 -0.06239,0.05978 -0.09737,0.0932 -0.03498,0.03342 -0.07242,0.06913 -0.112086,0.106911 -0.03967,0.03778 -0.08157,0.07764 -0.125473,0.119366 -0.04391,0.04173 -0.08983,0.08532 -0.137538,0.130575 -0.04771,0.04525 -0.09721,0.09217 -0.148278,0.140533 -0.05107,0.04837 -0.103709,0.09818 -0.157697,0.149241 -0.05399,0.05106 -0.109323,0.103365 -0.165785,0.156705 -0.05647,0.05334 -0.114057,0.107712 -0.172559,0.162912 -0.0585,0.0552 -0.117906,0.111231 -0.178001,0.167875 -0.06009,0.05665 -0.120875,0.113914 -0.182121,0.171591 -0.06125,0.05768 -0.122962,0.115763 -0.18492,0.17405 -0.06196,0.05829 -0.124166,0.116782 -0.186393,0.175268 -0.06223,0.05849 -0.124487,0.116967 -0.186545,0.175231 -0.06206,0.05827 -0.123923,0.116319 -0.18537,0.173951 -0.06145,0.05763 -0.122478,0.114837 -0.182872,0.171415 -0.06039,0.05658 -0.12015,0.112525 -0.179048,0.167632 l -0.107091,0.100198 -0.10709,0.100198 -0.107087,0.100197 -0.10709,0.100198 -0.10709,0.100198 -0.10709,0.100197 -0.107091,0.100198 -0.10709,0.100195 -0.107087,0.100198 -0.10709,0.100198 -0.10709,0.100197 -0.10709,0.100198 -0.10709,0.100198 -0.107088,0.100197 -0.10709,0.100198 -0.10709,0.100198 0.0434,0.06264 0.0434,0.06264 0.0434,0.06264 0.0434,0.06264 0.0434,0.06264 0.0434,0.06264 0.0434,0.06264 0.0434,0.06264 0.0434,0.06264 0.0434,0.06264 0.0434,0.06264 0.0434,0.06264 0.0434,0.06264 0.0434,0.06264 0.0434,0.06264 0.0434,0.06264 c 0.02387,0.03445 0.05109,0.07386 0.08143,0.117869 0.03034,0.04401 0.0638,0.09263 0.10015,0.145516 0.03634,0.05288 0.07557,0.110024 0.117449,0.171082 0.04188,0.06106 0.0864,0.126037 0.133339,0.194583 0.04693,0.06855 0.09628,0.140663 0.147809,0.216005 0.05153,0.07534 0.105231,0.153911 0.160872,0.235361 0.05564,0.08145 0.113229,0.165777 0.172519,0.25264 0.05929,0.08686 0.120288,0.17626 0.182753,0.267848 0.06247,0.09158 0.1264,0.185362 0.191572,0.280982 0.06517,0.09562 0.131575,0.193082 0.198977,0.292044 0.0674,0.09896 0.135805,0.199422 0.20497,0.301035 0.06916,0.101614 0.139094,0.20438 0.20955,0.307954 0.07046,0.103571 0.141438,0.207955 0.212715,0.312796 0.07128,0.104844 0.142843,0.210148 0.214466,0.315571 0.07162,0.105421 0.143303,0.21096 0.214804,0.31627 0.0715,0.105309 0.142822,0.210389 0.213731,0.314896 l 0.128923,0.190014 0.128921,0.19001 0.128921,0.190013 0.128923,0.190011 0.128924,0.190013 0.128921,0.19001 0.128923,0.190014 0.128921,0.19001 0.128921,0.190013 0.128924,0.190013 0.12892,0.190011 0.128924,0.190013 0.128921,0.190011 0.128923,0.190013 0.128921,0.19001 0.128924,0.190013 -0.169633,-5e-5 -0.169632,-5e-5 -0.169632,-4.8e-5 -0.169633,-5e-5 -0.169629,-5e-5 -0.169633,-5.1e-5 -0.169632,-4.7e-5 -0.169632,-5e-5 -0.169632,-5.1e-5 -0.169633,-5e-5 -0.169632,-4.8e-5 -0.16963,-5e-5 -0.169632,-5e-5 -0.169632,-5e-5 -0.169633,-4.8e-5 -0.169632,-5e-5 -0.169632,-5.1e-5 -0.169633,-5e-5 -0.169632,-4.7e-5 -0.169632,-5.1e-5 -0.16963,-5e-5 -0.169632,-4.8e-5 -0.169632,-5e-5 -0.169633,-5e-5 -0.169632,-5e-5 -0.169632,-5.1e-5 -0.169633,-4.7e-5 -0.169629,-5.1e-5 -0.169633,-5e-5 -0.169632,-4.8e-5 -0.169632,-5e-5 -0.169633,-5e-5 -0.09496,-0.166989 -0.09496,-0.166989 -0.09496,-0.166987 -0.09496,-0.166989 -0.09496,-0.166989 -0.09496,-0.166989 -0.09496,-0.166989 -0.09496,-0.166987 -0.09496,-0.166989 -0.09496,-0.166989 -0.09496,-0.166989 -0.09496,-0.166989 -0.09496,-0.166989 -0.09496,-0.166987 -0.09496,-0.166989 -0.09496,-0.166989 c -0.05223,-0.09184 -0.104008,-0.182645 -0.155197,-0.272172 -0.05119,-0.08953 -0.101796,-0.177784 -0.151677,-0.264541 -0.04988,-0.08675 -0.09904,-0.172011 -0.147336,-0.255537 -0.04829,-0.08353 -0.09573,-0.165325 -0.142172,-0.245165 -0.04644,-0.07984 -0.09188,-0.157727 -0.136189,-0.233426 -0.04431,-0.0757 -0.08748,-0.149215 -0.129383,-0.220314 -0.0419,-0.0711 -0.08254,-0.13979 -0.121759,-0.205835 -0.03922,-0.06605 -0.07704,-0.129447 -0.113313,-0.189981 -0.03627,-0.06053 -0.071,-0.118198 -0.104045,-0.172763 -0.03305,-0.05457 -0.06441,-0.106029 -0.09396,-0.15417 -0.02955,-0.04814 -0.05727,-0.09295 -0.08305,-0.13421 -0.02577,-0.04126 -0.04959,-0.07896 -0.07132,-0.112881 -0.02172,-0.03392 -0.04136,-0.06406 -0.05877,-0.09018 -0.01741,-0.02611 -0.03259,-0.04824 -0.0454,-0.06611 -0.01281,-0.01789 -0.02326,-0.03151 -0.03121,-0.04067 -0.0079,-0.0092 -0.01339,-0.01386 -0.01619,-0.01386 -0.0028,0 -0.0076,0.0021 -0.01439,0.0061 -0.0067,0.004 -0.01543,0.0099 -0.02593,0.01775 -0.01048,0.0078 -0.02278,0.01746 -0.0368,0.02886 -0.01402,0.0114 -0.02973,0.02455 -0.04704,0.03937 -0.0173,0.01482 -0.03623,0.03127 -0.05664,0.04928 -0.0204,0.01802 -0.04231,0.03758 -0.0656,0.0586 -0.02328,0.02101 -0.04796,0.04349 -0.07391,0.06731 -0.02596,0.02381 -0.05318,0.049 -0.08158,0.07543 -0.0284,0.02643 -0.05797,0.05411 -0.08861,0.08295 -0.03064,0.02884 -0.06234,0.05883 -0.09499,0.08987 -0.03266,0.03104 -0.06627,0.06314 -0.100737,0.09619 -0.03447,0.03305 -0.06978,0.06706 -0.105836,0.101915 -0.03606,0.03486 -0.07286,0.07057 -0.110292,0.10704 -0.03744,0.03647 -0.07551,0.07369 -0.114107,0.111569 -0.0386,0.03788 -0.07773,0.07641 -0.117279,0.115499 -0.03955,0.03909 -0.07952,0.07873 -0.119806,0.11883 l -0.07325,0.07291 -0.07325,0.07291 -0.07325,0.07291 -0.07325,0.07291 -0.07325,0.07291 -0.07325,0.07291 -0.07325,0.07291 -0.07325,0.07291 -0.07325,0.07291 -0.07325,0.07291 -0.07325,0.07291 -0.07325,0.07291 -0.07325,0.07291 -0.07324,0.07291 -0.07325,0.07291 -0.07325,0.07291 v 0.09414 0.09414 0.09414 0.09414 0.09414 0.09414 0.09414 0.09414 0.09414 0.09414 0.09414 0.09414 0.09414 0.09414 0.09414 0.09414 0.09414 0.09414 0.09414 0.09414 0.09414 0.09414 0.09414 0.09414 0.09414 0.09414 0.09414 0.09414 0.09414 0.09414 0.09414 0.09414 h -0.137811 -0.137811 -0.13781 -0.137811 -0.137811 -0.137811 -0.137811 -0.137811 -0.137811 -0.137811 -0.13781 -0.137811 -0.137811 -0.137811 -0.137811 -0.137811 -0.137811 -0.137811 -0.13781 -0.137811 -0.137811 -0.137811 -0.137811 -0.137811 -0.137811 -0.13781 -0.137811 -0.137811 -0.137811 -0.137811 -0.137811 -0.137811 v -0.405091 -0.405092 -0.405091 -0.405093 -0.40509 -0.405093 -0.40509 -0.405093 -0.405093 -0.405091 -0.40509 -0.405093 -0.40509 -0.405093 -0.405093 z"
       style="fill:#800000;fill-opacity:1;stroke:#000000;stroke-width:0.05050762;stroke-miterlimit:4;stroke-dasharray:none;stroke-opacity:1" />
    <path
       transform="scale(0.26458333)"
       sodipodi:nodetypes="ccccccccccccccccccccccccccccccccccccccccccccccccccccccccccccccccccccccccccccccccccccccccccccccccccccccccccccccccccccccccccccccccccccccccccccccccccccccccccccccccccccccccccccccccccccccccccccccccccccccccccccccccccccccccccccccccccccccccccccccccccccccccccccccccccccccccccccccccccccccccccccccccccccccccccccccccccccccccccccccccccccccccccccccccccccccccccccccccccccccccccccccccccccccccccccccccc"
       inkscape:connector-curvature="0"
       id="path1509"
       d="m 256.57302,201.26272 v -1.03383 -1.03383 -1.03382 -1.03383 -1.03383 -1.03383 -1.03383 -1.03382 -1.03383 -1.03383 -1.03383 -1.03383 -1.03383 -1.03382 -1.03383 -1.03383 -1.03383 -1.03383 -1.03382 -1.03383 -1.03383 -1.03383 -1.03383 -1.03383 -1.03382 -1.03383 -1.03383 -1.03383 -1.03383 -1.03382 -1.03383 -1.03383 h 0.34724 0.34724 0.34724 0.34724 0.34724 0.34724 0.34724 0.34724 0.34724 0.34724 0.34724 0.34724 0.34724 0.34724 0.34724 0.34724 0.34724 0.34724 0.34724 0.34724 0.34724 0.34724 0.34724 0.34724 0.34724 0.34724 0.34724 0.34724 0.34724 0.34724 0.34724 0.34724 0.34724 0.34724 0.34724 0.34724 0.34724 0.34724 0.34724 0.34724 0.34724 0.34724 0.34724 0.34724 0.34724 0.34724 0.34724 0.34724 0.34724 0.34724 0.34724 0.34724 0.34724 0.34724 0.34724 0.34724 0.34724 0.34724 0.34724 0.34724 0.34724 0.34724 0.34724 0.34724 v 0.78129 0.78129 0.78129 0.78129 0.78129 0.78129 0.78129 0.78129 0.78129 0.78129 0.78129 0.78129 0.78129 0.78129 0.78129 0.78129 0.78129 0.78129 0.78129 0.78129 0.78129 0.78129 0.78129 0.78129 0.78129 0.78129 0.78129 0.78129 0.78129 0.78129 0.78129 0.78129 0.78129 0.78129 0.78129 0.78129 0.78129 0.78129 0.78129 0.78129 0.78129 0.78129 0.78129 0.78129 0.78129 0.78129 0.78129 0.78128 0.78129 0.78129 0.78129 0.78129 0.78129 0.78129 0.78129 0.78129 0.78129 0.78129 0.78129 0.78129 0.78129 0.78129 0.78129 0.78129 h 0.55243 0.55242 0.55243 0.55243 0.55243 0.55242 0.55243 0.55243 0.55242 0.55243 0.55243 0.55243 0.55242 0.55243 0.55243 0.55242 0.55243 0.55243 0.55243 0.55242 0.55243 0.55243 0.55243 0.55242 0.55243 0.55243 0.55242 0.55243 0.55243 0.55243 0.55242 0.55243 0.55243 0.55242 0.55243 0.55243 0.55243 0.55242 0.55243 0.55243 0.55242 0.55243 0.55243 0.55243 0.55242 0.55243 0.55243 0.55242 0.55243 0.55243 0.55243 0.55242 0.55243 0.55243 0.55243 0.55242 0.55243 0.55243 0.55242 0.55243 0.55243 0.55243 0.55242 0.55243 v 0.25254 0.25254 0.25253 0.25254 0.25254 0.25254 0.25254 0.25253 0.25254 0.25254 0.25254 0.25254 0.25254 0.25253 0.25254 0.25254 0.25254 0.25254 0.25253 0.25254 0.25254 0.25254 0.25254 0.25253 0.25254 0.25254 0.25254 0.25254 0.25254 0.25253 0.25254 0.25254 0.25254 0.25254 0.25253 0.25254 0.25254 0.25254 0.25254 0.25253 0.25254 0.25254 0.25254 0.25254 0.25254 0.25253 0.25254 0.25254 0.25254 0.25254 0.25253 0.25254 0.25254 0.25254 0.25254 0.25253 0.25254 0.25254 0.25254 0.25254 0.25254 0.25253 0.25254 0.25254 h -0.89967 -0.89966 -0.89967 -0.89967 -0.89967 -0.89966 -0.89967 -0.89967 -0.89966 -0.89967 -0.89967 -0.89967 -0.89966 -0.89967 -0.89967 -0.89967 -0.89966 -0.89967 -0.89967 -0.89966 -0.89967 -0.89967 -0.89967 -0.89966 -0.89967 -0.89967 -0.89966 -0.89967 -0.89967 -0.89967 -0.89966 -0.89967 -0.89967 -0.89966 -0.89967 -0.89967 -0.89967 -0.89966 -0.89967 -0.89967 -0.89966 -0.89967 -0.89967 -0.89967 -0.89966 -0.89967 -0.89967 -0.89967 -0.89966 -0.89967 -0.89967 -0.89966 -0.89967 -0.89967 -0.89967 -0.89966 -0.89967 -0.89967 -0.89966 -0.89967 -0.89967 -0.89967 -0.89966 -0.89967 v -1.03383 -1.03383 -1.03382 -1.03383 -1.03383 -1.03383 -1.03382 -1.03383 -1.03383 -1.03383 -1.03383 -1.03382 -1.03383 -1.03383 -1.03383 -1.03382 -1.03383 -1.03383 -1.03383 -1.03383 -1.03382 -1.03383 -1.03383 -1.03383 -1.03383 -1.03382 -1.03383 -1.03383 -1.03383 -1.03382 -1.03383 z"
       style="fill:#800000;fill-opacity:1;stroke:#000000;stroke-width:0.19089496;stroke-miterlimit:4;stroke-dasharray:none;stroke-opacity:1" />
  </g>
  <g
     style="display:inline"
     inkscape:label="Drill"
     inkscape:groupmode="layer"
     id="g1430" />
</svg>
