  0
SECTION
  2
HEADER
  9
$ACADVER
  1
AC1014
  9
$HANDSEED
  5
FFFF
  9
$MEASUREMENT
 70
     1
  0
ENDSEC
  0
SECTION
  2
TABLES
  0
TABLE
  2
VPORT
  5
8
330
0
100
AcDbSymbolTable
 70
     4
  0
VPORT
  5
2E
330
8
100
AcDbSymbolTableRecord
100
AcDbViewportTableRecord
  2
*ACTIVE
 70
     0
 10
0.0
 20
0.0
 11
1.0
 21
1.0
 12
210.0
 22
148.5
 13
0.0
 23
0.0
 14
10.0
 24
10.0
 15
10.0
 25
10.0
 16
0.0
 26
0.0
 36
1.0
 17
0.0
 27
0.0
 37
0.0
 40
341.0
 41
1.24
 42
50.0
 43
0.0
 44
0.0
 50
0.0
 51
0.0
 71
     0
 72
   100
 73
     1
 74
     3
 75
     0
 76
     0
 77
     0
 78
     0
  0
ENDTAB
  0
TABLE
  2
LTYPE
  5
5
330
0
100
AcDbSymbolTable
 70
     1
  0
LTYPE
  5
14
330
5
100
AcDbSymbolTableRecord
100
AcDbLinetypeTableRecord
  2
BYBLOCK
 70
     0
  3

 72
    65
 73
     0
 40
0.0
  0
LTYPE
  5
15
330
5
100
AcDbSymbolTableRecord
100
AcDbLinetypeTableRecord
  2
BYLAYER
 70
     0
  3

 72
    65
 73
     0
 40
0.0
  0
LTYPE
  5
16
330
5
100
AcDbSymbolTableRecord
100
AcDbLinetypeTableRecord
  2
CONTINUOUS
 70
     0
  3
Solid line
 72
    65
 73
     0
 40
0.0
  0
ENDTAB
  0
TABLE
  2
LAYER
  5
2
100
AcDbSymbolTable
 70
3
  0
LAYER
  5
50
100
AcDbSymbolTableRecord
100
AcDbLayerTableRecord
  2
0
 70
0
  6
CONTINUOUS
  0
LAYER
  5
51
100
AcDbSymbolTableRecord
100
AcDbLayerTableRecord
  2
Layer_1
 70
0
  6
CONTINUOUS
  0
LAYER
  5
52
100
AcDbSymbolTableRecord
100
AcDbLayerTableRecord
  2
BASE
 70
0
  6
CONTINUOUS
  0
ENDTAB
  0
TABLE
  2
STYLE
  5
3
330
0
100
AcDbSymbolTable
 70
     1
  0
STYLE
  5
11
330
3
100
AcDbSymbolTableRecord
100
AcDbTextStyleTableRecord
  2
STANDARD
 70
     0
 40
0.0
 41
1.0
 50
0.0
 71
     0
 42
2.5
  3
txt
  4

  0
ENDTAB
  0
TABLE
  2
VIEW
  5
6
330
0
100
AcDbSymbolTable
 70
     0
  0
ENDTAB
  0
TABLE
  2
UCS
  5
7
330
0
100
AcDbSymbolTable
 70
     0
  0
ENDTAB
  0
TABLE
  2
APPID
  5
9
330
0
100
AcDbSymbolTable
 70
     2
  0
APPID
  5
12
330
9
100
AcDbSymbolTableRecord
100
AcDbRegAppTableRecord
  2
ACAD
 70
     0
  0
ENDTAB
  0
TABLE
  2
DIMSTYLE
  5
A
330
0
100
AcDbSymbolTable
 70
     1
  0
DIMSTYLE
105
27
330
A
100
AcDbSymbolTableRecord
100
AcDbDimStyleTableRecord
  2
ISO-25
 70
     0
  3

  4

  5

  6

  7

 40
1.0
 41
2.5
 42
0.625
 43
3.75
 44
1.25
 45
0.0
 46
0.0
 47
0.0
 48
0.0
140
2.5
141
2.5
142
0.0
143
0.03937007874016
144
1.0
145
0.0
146
1.0
147
0.625
 71
     0
 72
     0
 73
     0
 74
     0
 75
     0
 76
     0
 77
     1
 78
     8
170
     0
171
     3
172
     1
173
     0
174
     0
175
     0
176
     0
177
     0
178
     0
270
     2
271
     2
272
     2
273
     2
274
     3
340
11
275
     0
280
     0
281
     0
282
     0
283
     0
284
     8
285
     0
286
     0
287
     3
288
     0
  0
ENDTAB
  0
TABLE
  2
BLOCK_RECORD
  5
1
330
0
100
AcDbSymbolTable
 70
     1
  0
BLOCK_RECORD
  5
1F
330
1
100
AcDbSymbolTableRecord
100
AcDbBlockTableRecord
  2
*MODEL_SPACE
  0
BLOCK_RECORD
  5
1B
330
1
100
AcDbSymbolTableRecord
100
AcDbBlockTableRecord
  2
*PAPER_SPACE
  0
ENDTAB
  0
ENDSEC
  0
SECTION
  2
BLOCKS
  0
BLOCK
  5
20
330
1F
100
AcDbEntity
  8
0
100
AcDbBlockBegin
  2
*MODEL_SPACE
 70
     0
 10
0.0
 20
0.0
 30
0.0
  3
*MODEL_SPACE
  1

  0
ENDBLK
  5
21
330
1F
100
AcDbEntity
  8
0
100
AcDbBlockEnd
  0
BLOCK
  5
1C
330
1B
100
AcDbEntity
 67
     1
  8
0
100
AcDbBlockBegin
  2
*PAPER_SPACE
  1

  0
ENDBLK
  5
1D
330
1B
100
AcDbEntity
 67
     1
  8
0
100
AcDbBlockEnd
  0
ENDSEC
  0
SECTION
  2
ENTITIES
  0
SPLINE
  5
100
100
AcDbEntity
  8
BASE
 62
7
100
AcDbSpline
 70
8
 71
3
 72
8
 73
4
 74
0
 40
0
 40
0
 40
0
 40
0
 40
1
 40
1
 40
1
 40
1
 10
34.489751
 20
15.714078
 30
0.0
 10
34.616894
 20
15.804948
 30
0.0
 10
34.742351
 20
15.897101
 30
0.0
 10
34.865988
 20
15.990624
 30
0.0
  0
SPLINE
  5
101
100
AcDbEntity
  8
BASE
 62
7
100
AcDbSpline
 70
8
 71
3
 72
8
 73
4
 74
0
 40
0
 40
0
 40
0
 40
0
 40
1
 40
1
 40
1
 40
1
 10
34.865988
 20
15.990624
 30
0.0
 10
34.989628
 20
16.084144
 30
0.0
 10
35.111453
 20
16.179041
 30
0.0
 10
35.231333
 20
16.275403
 30
0.0
  0
SPLINE
  5
102
100
AcDbEntity
  8
BASE
 62
7
100
AcDbSpline
 70
8
 71
3
 72
8
 73
4
 74
0
 40
0
 40
0
 40
0
 40
0
 40
1
 40
1
 40
1
 40
1
 10
35.231333
 20
16.275403
 30
0.0
 10
35.351213
 20
16.371763
 30
0.0
 10
35.469148
 20
16.469586
 30
0.0
 10
35.585017
 20
16.568966
 30
0.0
  0
SPLINE
  5
103
100
AcDbEntity
  8
BASE
 62
7
100
AcDbSpline
 70
8
 71
3
 72
8
 73
4
 74
0
 40
0
 40
0
 40
0
 40
0
 40
1
 40
1
 40
1
 40
1
 10
35.585017
 20
16.568966
 30
0.0
 10
35.700884
 20
16.668346
 30
0.0
 10
35.814684
 20
16.769282
 30
0.0
 10
35.926285
 20
16.871863
 30
0.0
  0
SPLINE
  5
104
100
AcDbEntity
  8
BASE
 62
7
100
AcDbSpline
 70
8
 71
3
 72
8
 73
4
 74
0
 40
0
 40
0
 40
0
 40
0
 40
1
 40
1
 40
1
 40
1
 10
35.926285
 20
16.871863
 30
0.0
 10
36.037884
 20
16.974448
 30
0.0
 10
36.147289
 20
17.078680
 30
0.0
 10
36.254371
 20
17.184654
 30
0.0
  0
SPLINE
  5
105
100
AcDbEntity
  8
BASE
 62
7
100
AcDbSpline
 70
8
 71
3
 72
8
 73
4
 74
0
 40
0
 40
0
 40
0
 40
0
 40
1
 40
1
 40
1
 40
1
 10
36.254371
 20
17.184654
 30
0.0
 10
36.361450
 20
17.290627
 30
0.0
 10
36.466207
 20
17.398342
 30
0.0
 10
36.568513
 20
17.507887
 30
0.0
  0
SPLINE
  5
106
100
AcDbEntity
  8
BASE
 62
7
100
AcDbSpline
 70
8
 71
3
 72
8
 73
4
 74
0
 40
0
 40
0
 40
0
 40
0
 40
1
 40
1
 40
1
 40
1
 10
36.568513
 20
17.507887
 30
0.0
 10
36.670820
 20
17.617433
 30
0.0
 10
36.770676
 20
17.728812
 30
0.0
 10
36.867953
 20
17.842114
 30
0.0
  0
SPLINE
  5
107
100
AcDbEntity
  8
BASE
 62
7
100
AcDbSpline
 70
8
 71
3
 72
8
 73
4
 74
0
 40
0
 40
0
 40
0
 40
0
 40
1
 40
1
 40
1
 40
1
 10
36.867953
 20
17.842114
 30
0.0
 10
36.965233
 20
17.955417
 30
0.0
 10
37.059935
 20
18.070643
 30
0.0
 10
37.151930
 20
18.187888
 30
0.0
  0
SPLINE
  5
108
100
AcDbEntity
  8
BASE
 62
7
100
AcDbSpline
 70
8
 71
3
 72
8
 73
4
 74
0
 40
0
 40
0
 40
0
 40
0
 40
1
 40
1
 40
1
 40
1
 10
37.151930
 20
18.187888
 30
0.0
 10
37.243930
 20
18.305130
 30
0.0
 10
37.333220
 20
18.424391
 30
0.0
 10
37.419681
 20
18.545758
 30
0.0
  0
SPLINE
  5
109
100
AcDbEntity
  8
BASE
 62
7
100
AcDbSpline
 70
8
 71
3
 72
8
 73
4
 74
0
 40
0
 40
0
 40
0
 40
0
 40
1
 40
1
 40
1
 40
1
 10
37.419681
 20
18.545758
 30
0.0
 10
37.506141
 20
18.667127
 30
0.0
 10
37.589771
 20
18.790603
 30
0.0
 10
37.670445
 20
18.916280
 30
0.0
  0
SPLINE
  5
10a
100
AcDbEntity
  8
BASE
 62
7
100
AcDbSpline
 70
8
 71
3
 72
8
 73
4
 74
0
 40
0
 40
0
 40
0
 40
0
 40
1
 40
1
 40
1
 40
1
 10
37.670445
 20
18.916280
 30
0.0
 10
37.751115
 20
19.041957
 30
0.0
 10
37.828830
 20
19.169836
 30
0.0
 10
37.903458
 20
19.300008
 30
0.0
  0
SPLINE
  5
10b
100
AcDbEntity
  8
BASE
 62
7
100
AcDbSpline
 70
8
 71
3
 72
8
 73
4
 74
0
 40
0
 40
0
 40
0
 40
0
 40
1
 40
1
 40
1
 40
1
 10
37.903458
 20
19.300008
 30
0.0
 10
37.978088
 20
19.430178
 30
0.0
 10
38.049630
 20
19.562641
 30
0.0
 10
38.117961
 20
19.697489
 30
0.0
  0
SPLINE
  5
10c
100
AcDbEntity
  8
BASE
 62
7
100
AcDbSpline
 70
8
 71
3
 72
8
 73
4
 74
0
 40
0
 40
0
 40
0
 40
0
 40
1
 40
1
 40
1
 40
1
 10
38.117961
 20
19.697489
 30
0.0
 10
38.186291
 20
19.832337
 30
0.0
 10
38.251411
 20
19.969571
 30
0.0
 10
38.313192
 20
20.109279
 30
0.0
  0
SPLINE
  5
10d
100
AcDbEntity
  8
BASE
 62
7
100
AcDbSpline
 70
8
 71
3
 72
8
 73
4
 74
0
 40
0
 40
0
 40
0
 40
0
 40
1
 40
1
 40
1
 40
1
 10
38.313192
 20
20.109279
 30
0.0
 10
38.374972
 20
20.248986
 30
0.0
 10
38.433416
 20
20.391174
 30
0.0
 10
38.488391
 20
20.535930
 30
0.0
  0
SPLINE
  5
10e
100
AcDbEntity
  8
BASE
 62
7
100
AcDbSpline
 70
8
 71
3
 72
8
 73
4
 74
0
 40
0
 40
0
 40
0
 40
0
 40
1
 40
1
 40
1
 40
1
 10
38.488391
 20
20.535930
 30
0.0
 10
38.543371
 20
20.680683
 30
0.0
 10
38.594878
 20
20.828006
 30
0.0
 10
38.642796
 20
20.977990
 30
0.0
  0
SPLINE
  5
10f
100
AcDbEntity
  8
BASE
 62
7
100
AcDbSpline
 70
8
 71
3
 72
8
 73
4
 74
0
 40
0
 40
0
 40
0
 40
0
 40
1
 40
1
 40
1
 40
1
 10
38.642796
 20
20.977990
 30
0.0
 10
38.690716
 20
21.127975
 30
0.0
 10
38.735036
 20
21.280621
 30
0.0
 10
38.775644
 20
21.436018
 30
0.0
  0
LWPOLYLINE
  5
110
100
AcDbEntity
  8
BASE
 62
7
100
AcDbPolyline
 90
37
 70
0
 10
37.196956
 20
4.523954
 30
0.0
 10
37.098496
 20
4.931370
 30
0.0
 10
36.828520
 20
6.047941
 30
0.0
 10
36.568842
 20
7.121572
 30
0.0
 10
35.231831
 20
12.649387
 30
0.0
 10
35.187851
 20
12.831230
 30
0.0
 10
35.143871
 20
13.013073
 30
0.0
 10
35.099891
 20
13.194916
 30
0.0
 10
35.055911
 20
13.376759
 30
0.0
 10
35.011931
 20
13.558602
 30
0.0
 10
34.967951
 20
13.740444
 30
0.0
 10
34.923971
 20
13.922287
 30
0.0
 10
34.879991
 20
14.104133
 30
0.0
 10
34.836011
 20
14.285976
 30
0.0
 10
34.792031
 20
14.467818
 30
0.0
 10
34.748051
 20
14.649661
 30
0.0
 10
34.704071
 20
14.831504
 30
0.0
 10
34.660091
 20
15.013347
 30
0.0
 10
34.616111
 20
15.195192
 30
0.0
 10
34.572131
 20
15.377035
 30
0.0
 10
34.528151
 20
15.558878
 30
0.0
 10
34.525751
 20
15.568578
 30
0.0
 10
34.523351
 20
15.578278
 30
0.0
 10
34.520951
 20
15.587978
 30
0.0
 10
34.518551
 20
15.597678
 30
0.0
 10
34.516151
 20
15.607378
 30
0.0
 10
34.513751
 20
15.617078
 30
0.0
 10
34.511351
 20
15.626778
 30
0.0
 10
34.508951
 20
15.636478
 30
0.0
 10
34.506551
 20
15.646178
 30
0.0
 10
34.504151
 20
15.655878
 30
0.0
 10
34.501751
 20
15.665578
 30
0.0
 10
34.499351
 20
15.675278
 30
0.0
 10
34.496951
 20
15.684978
 30
0.0
 10
34.494551
 20
15.694678
 30
0.0
 10
34.492151
 20
15.704378
 30
0.0
 10
34.489751
 20
15.714078
 30
0.0
  0
SPLINE
  5
111
100
AcDbEntity
  8
BASE
 62
7
100
AcDbSpline
 70
8
 71
3
 72
8
 73
4
 74
0
 40
0
 40
0
 40
0
 40
0
 40
1
 40
1
 40
1
 40
1
 10
20.809945
 20
22.074665
 30
0.0
 10
20.827445
 20
21.966024
 30
0.0
 10
20.847725
 20
21.857725
 30
0.0
 10
20.870615
 20
21.749868
 30
0.0
  0
SPLINE
  5
112
100
AcDbEntity
  8
BASE
 62
7
100
AcDbSpline
 70
8
 71
3
 72
8
 73
4
 74
0
 40
0
 40
0
 40
0
 40
0
 40
1
 40
1
 40
1
 40
1
 10
20.870615
 20
21.749868
 30
0.0
 10
20.893505
 20
21.642010
 30
0.0
 10
20.919005
 20
21.534597
 30
0.0
 10
20.946925
 20
21.427727
 30
0.0
  0
SPLINE
  5
113
100
AcDbEntity
  8
BASE
 62
7
100
AcDbSpline
 70
8
 71
3
 72
8
 73
4
 74
0
 40
0
 40
0
 40
0
 40
0
 40
1
 40
1
 40
1
 40
1
 10
20.946925
 20
21.427727
 30
0.0
 10
20.974855
 20
21.320854
 30
0.0
 10
21.005215
 20
21.214528
 30
0.0
 10
21.037835
 20
21.108846
 30
0.0
  0
SPLINE
  5
114
100
AcDbEntity
  8
BASE
 62
7
100
AcDbSpline
 70
8
 71
3
 72
8
 73
4
 74
0
 40
0
 40
0
 40
0
 40
0
 40
1
 40
1
 40
1
 40
1
 10
21.037835
 20
21.108846
 30
0.0
 10
21.070455
 20
21.003160
 30
0.0
 10
21.105335
 20
20.898124
 30
0.0
 10
21.142289
 20
20.793827
 30
0.0
  0
SPLINE
  5
115
100
AcDbEntity
  8
BASE
 62
7
100
AcDbSpline
 70
8
 71
3
 72
8
 73
4
 74
0
 40
0
 40
0
 40
0
 40
0
 40
1
 40
1
 40
1
 40
1
 10
21.142289
 20
20.793827
 30
0.0
 10
21.179249
 20
20.689534
 30
0.0
 10
21.218289
 20
20.585984
 30
0.0
 10
21.259237
 20
20.483281
 30
0.0
  0
SPLINE
  5
116
100
AcDbEntity
  8
BASE
 62
7
100
AcDbSpline
 70
8
 71
3
 72
8
 73
4
 74
0
 40
0
 40
0
 40
0
 40
0
 40
1
 40
1
 40
1
 40
1
 10
21.259237
 20
20.483281
 30
0.0
 10
21.300187
 20
20.380577
 30
0.0
 10
21.343037
 20
20.278721
 30
0.0
 10
21.387625
 20
20.177809
 30
0.0
  0
SPLINE
  5
117
100
AcDbEntity
  8
BASE
 62
7
100
AcDbSpline
 70
8
 71
3
 72
8
 73
4
 74
0
 40
0
 40
0
 40
0
 40
0
 40
1
 40
1
 40
1
 40
1
 10
21.387625
 20
20.177809
 30
0.0
 10
21.432215
 20
20.076897
 30
0.0
 10
21.478525
 20
19.976932
 30
0.0
 10
21.526401
 20
19.878012
 30
0.0
  0
SPLINE
  5
118
100
AcDbEntity
  8
BASE
 62
7
100
AcDbSpline
 70
8
 71
3
 72
8
 73
4
 74
0
 40
0
 40
0
 40
0
 40
0
 40
1
 40
1
 40
1
 40
1
 10
21.526401
 20
19.878012
 30
0.0
 10
21.574271
 20
19.779092
 30
0.0
 10
21.623701
 20
19.681223
 30
0.0
 10
21.674514
 20
19.584499
 30
0.0
  0
SPLINE
  5
119
100
AcDbEntity
  8
BASE
 62
7
100
AcDbSpline
 70
8
 71
3
 72
8
 73
4
 74
0
 40
0
 40
0
 40
0
 40
0
 40
1
 40
1
 40
1
 40
1
 10
21.674514
 20
19.584499
 30
0.0
 10
21.725324
 20
19.487779
 30
0.0
 10
21.777516
 20
19.392197
 30
0.0
 10
21.830914
 20
19.297871
 30
0.0
  0
SPLINE
  5
11a
100
AcDbEntity
  8
BASE
 62
7
100
AcDbSpline
 70
8
 71
3
 72
8
 73
4
 74
0
 40
0
 40
0
 40
0
 40
0
 40
1
 40
1
 40
1
 40
1
 10
21.830914
 20
19.297871
 30
0.0
 10
21.884314
 20
19.203541
 30
0.0
 10
21.938914
 20
19.110464
 30
0.0
 10
21.994547
 20
19.018735
 30
0.0
  0
SPLINE
  5
11b
100
AcDbEntity
  8
BASE
 62
7
100
AcDbSpline
 70
8
 71
3
 72
8
 73
4
 74
0
 40
0
 40
0
 40
0
 40
0
 40
1
 40
1
 40
1
 40
1
 10
21.994547
 20
19.018735
 30
0.0
 10
22.050177
 20
18.927005
 30
0.0
 10
22.106843
 20
18.836625
 30
0.0
 10
22.164361
 20
18.747693
 30
0.0
  0
SPLINE
  5
11c
100
AcDbEntity
  8
BASE
 62
7
100
AcDbSpline
 70
8
 71
3
 72
8
 73
4
 74
0
 40
0
 40
0
 40
0
 40
0
 40
1
 40
1
 40
1
 40
1
 10
22.164361
 20
18.747693
 30
0.0
 10
22.221881
 20
18.658763
 30
0.0
 10
22.280253
 20
18.571282
 30
0.0
 10
22.339305
 20
18.485354
 30
0.0
  0
SPLINE
  5
11d
100
AcDbEntity
  8
BASE
 62
7
100
AcDbSpline
 70
8
 71
3
 72
8
 73
4
 74
0
 40
0
 40
0
 40
0
 40
0
 40
1
 40
1
 40
1
 40
1
 10
22.339305
 20
18.485354
 30
0.0
 10
22.398355
 20
18.399424
 30
0.0
 10
22.458091
 20
18.315041
 30
0.0
 10
22.518329
 20
18.232314
 30
0.0
  0
SPLINE
  5
11e
100
AcDbEntity
  8
BASE
 62
7
100
AcDbSpline
 70
8
 71
3
 72
8
 73
4
 74
0
 40
0
 40
0
 40
0
 40
0
 40
1
 40
1
 40
1
 40
1
 10
22.518329
 20
18.232314
 30
0.0
 10
22.578569
 20
18.149584
 30
0.0
 10
22.639309
 20
18.068511
 30
0.0
 10
22.700379
 20
17.989186
 30
0.0
  0
SPLINE
  5
11f
100
AcDbEntity
  8
BASE
 62
7
100
AcDbSpline
 70
8
 71
3
 72
8
 73
4
 74
0
 40
0
 40
0
 40
0
 40
0
 40
1
 40
1
 40
1
 40
1
 10
22.700379
 20
17.989186
 30
0.0
 10
22.761449
 20
17.909866
 30
0.0
 10
22.822852
 20
17.832288
 30
0.0
 10
22.884406
 20
17.756567
 30
0.0
  0
SPLINE
  5
120
100
AcDbEntity
  8
BASE
 62
7
100
AcDbSpline
 70
8
 71
3
 72
8
 73
4
 74
0
 40
0
 40
0
 40
0
 40
0
 40
1
 40
1
 40
1
 40
1
 10
22.884406
 20
17.756567
 30
0.0
 10
22.945956
 20
17.680847
 30
0.0
 10
23.007668
 20
17.606982
 30
0.0
 10
23.069354
 20
17.535068
 30
0.0
  0
SPLINE
  5
121
100
AcDbEntity
  8
BASE
 62
7
100
AcDbSpline
 70
8
 71
3
 72
8
 73
4
 74
0
 40
0
 40
0
 40
0
 40
0
 40
1
 40
1
 40
1
 40
1
 10
23.069354
 20
17.535068
 30
0.0
 10
23.103164
 20
17.493808
 30
0.0
 10
23.137594
 20
17.453268
 30
0.0
 10
23.172609
 20
17.413415
 30
0.0
  0
SPLINE
  5
122
100
AcDbEntity
  8
BASE
 62
7
100
AcDbSpline
 70
8
 71
3
 72
8
 73
4
 74
0
 40
0
 40
0
 40
0
 40
0
 40
1
 40
1
 40
1
 40
1
 10
23.172609
 20
17.413415
 30
0.0
 10
23.207619
 20
17.373555
 30
0.0
 10
23.243219
 20
17.334385
 30
0.0
 10
23.279354
 20
17.295851
 30
0.0
  0
SPLINE
  5
123
100
AcDbEntity
  8
BASE
 62
7
100
AcDbSpline
 70
8
 71
3
 72
8
 73
4
 74
0
 40
0
 40
0
 40
0
 40
0
 40
1
 40
1
 40
1
 40
1
 10
23.279354
 20
17.295851
 30
0.0
 10
23.315494
 20
17.257321
 30
0.0
 10
23.352174
 20
17.219421
 30
0.0
 10
23.389366
 20
17.182122
 30
0.0
  0
SPLINE
  5
124
100
AcDbEntity
  8
BASE
 62
7
100
AcDbSpline
 70
8
 71
3
 72
8
 73
4
 74
0
 40
0
 40
0
 40
0
 40
0
 40
1
 40
1
 40
1
 40
1
 10
23.389366
 20
17.182122
 30
0.0
 10
23.426556
 20
17.144822
 30
0.0
 10
23.464256
 20
17.108122
 30
0.0
 10
23.502425
 20
17.071971
 30
0.0
  0
SPLINE
  5
125
100
AcDbEntity
  8
BASE
 62
7
100
AcDbSpline
 70
8
 71
3
 72
8
 73
4
 74
0
 40
0
 40
0
 40
0
 40
0
 40
1
 40
1
 40
1
 40
1
 10
23.502425
 20
17.071971
 30
0.0
 10
23.540595
 20
17.035821
 30
0.0
 10
23.579235
 20
17.000231
 30
0.0
 10
23.618307
 20
16.965145
 30
0.0
  0
SPLINE
  5
126
100
AcDbEntity
  8
BASE
 62
7
100
AcDbSpline
 70
8
 71
3
 72
8
 73
4
 74
0
 40
0
 40
0
 40
0
 40
0
 40
1
 40
1
 40
1
 40
1
 10
23.618307
 20
16.965145
 30
0.0
 10
23.657377
 20
16.930065
 30
0.0
 10
23.696887
 20
16.895495
 30
0.0
 10
23.736790
 20
16.861391
 30
0.0
  0
SPLINE
  5
127
100
AcDbEntity
  8
BASE
 62
7
100
AcDbSpline
 70
8
 71
3
 72
8
 73
4
 74
0
 40
0
 40
0
 40
0
 40
0
 40
1
 40
1
 40
1
 40
1
 10
23.736790
 20
16.861391
 30
0.0
 10
23.776690
 20
16.827291
 30
0.0
 10
23.816990
 20
16.793661
 30
0.0
 10
23.857653
 20
16.760450
 30
0.0
  0
SPLINE
  5
128
100
AcDbEntity
  8
BASE
 62
7
100
AcDbSpline
 70
8
 71
3
 72
8
 73
4
 74
0
 40
0
 40
0
 40
0
 40
0
 40
1
 40
1
 40
1
 40
1
 10
23.857653
 20
16.760450
 30
0.0
 10
23.898313
 20
16.727240
 30
0.0
 10
23.939333
 20
16.694470
 30
0.0
 10
23.980670
 20
16.662070
 30
0.0
  0
SPLINE
  5
129
100
AcDbEntity
  8
BASE
 62
7
100
AcDbSpline
 70
8
 71
3
 72
8
 73
4
 74
0
 40
0
 40
0
 40
0
 40
0
 40
1
 40
1
 40
1
 40
1
 10
23.980670
 20
16.662070
 30
0.0
 10
24.022010
 20
16.629670
 30
0.0
 10
24.063680
 20
16.597660
 30
0.0
 10
24.105624
 20
16.566000
 30
0.0
  0
SPLINE
  5
12a
100
AcDbEntity
  8
BASE
 62
7
100
AcDbSpline
 70
8
 71
3
 72
8
 73
4
 74
0
 40
0
 40
0
 40
0
 40
0
 40
1
 40
1
 40
1
 40
1
 10
24.105624
 20
16.566000
 30
0.0
 10
24.147574
 20
16.534330
 30
0.0
 10
24.189804
 20
16.503000
 30
0.0
 10
24.232288
 20
16.471980
 30
0.0
  0
SPLINE
  5
12b
100
AcDbEntity
  8
BASE
 62
7
100
AcDbSpline
 70
8
 71
3
 72
8
 73
4
 74
0
 40
0
 40
0
 40
0
 40
0
 40
1
 40
1
 40
1
 40
1
 10
24.232288
 20
16.471980
 30
0.0
 10
24.274768
 20
16.440950
 30
0.0
 10
24.317498
 20
16.410220
 30
0.0
 10
24.360441
 20
16.379750
 30
0.0
  0
SPLINE
  5
12c
100
AcDbEntity
  8
BASE
 62
7
100
AcDbSpline
 70
8
 71
3
 72
8
 73
4
 74
0
 40
0
 40
0
 40
0
 40
0
 40
1
 40
1
 40
1
 40
1
 10
24.360441
 20
16.379750
 30
0.0
 10
24.403381
 20
16.349280
 30
0.0
 10
24.446531
 20
16.319060
 30
0.0
 10
24.489862
 20
16.289060
 30
0.0
  0
SPLINE
  5
12d
100
AcDbEntity
  8
BASE
 62
7
100
AcDbSpline
 70
8
 71
3
 72
8
 73
4
 74
0
 40
0
 40
0
 40
0
 40
0
 40
1
 40
1
 40
1
 40
1
 10
24.489862
 20
16.289060
 30
0.0
 10
24.533192
 20
16.259060
 30
0.0
 10
24.576692
 20
16.229280
 30
0.0
 10
24.620327
 20
16.199660
 30
0.0
  0
SPLINE
  5
12e
100
AcDbEntity
  8
BASE
 62
7
100
AcDbSpline
 70
8
 71
3
 72
8
 73
4
 74
0
 40
0
 40
0
 40
0
 40
0
 40
1
 40
1
 40
1
 40
1
 10
24.620327
 20
16.199660
 30
0.0
 10
24.663967
 20
16.170050
 30
0.0
 10
24.707737
 20
16.140600
 30
0.0
 10
24.751614
 20
16.111290
 30
0.0
  0
SPLINE
  5
12f
100
AcDbEntity
  8
BASE
 62
7
100
AcDbSpline
 70
8
 71
3
 72
8
 73
4
 74
0
 40
0
 40
0
 40
0
 40
0
 40
1
 40
1
 40
1
 40
1
 10
24.751614
 20
16.111290
 30
0.0
 10
24.795484
 20
16.081980
 30
0.0
 10
24.839464
 20
16.052800
 30
0.0
 10
24.883500
 20
16.023700
 30
0.0
  0
SPLINE
  5
130
100
AcDbEntity
  8
BASE
 62
7
100
AcDbSpline
 70
8
 71
3
 72
8
 73
4
 74
0
 40
0
 40
0
 40
0
 40
0
 40
1
 40
1
 40
1
 40
1
 10
24.883500
 20
16.023700
 30
0.0
 10
24.927540
 20
15.994600
 30
0.0
 10
24.971640
 20
15.965600
 30
0.0
 10
25.015765
 20
15.936630
 30
0.0
  0
LWPOLYLINE
  5
131
100
AcDbEntity
  8
BASE
 62
7
100
AcDbPolyline
 90
257
 70
0
 10
38.775644
 20
21.436018
 30
0.0
 10
38.785244
 20
21.475908
 30
0.0
 10
38.794844
 20
21.515798
 30
0.0
 10
38.804444
 20
21.555688
 30
0.0
 10
38.814044
 20
21.595578
 30
0.0
 10
38.823644
 20
21.635468
 30
0.0
 10
38.833244
 20
21.675358
 30
0.0
 10
38.842844
 20
21.715248
 30
0.0
 10
38.852444
 20
21.755138
 30
0.0
 10
38.862044
 20
21.795028
 30
0.0
 10
38.871644
 20
21.834918
 30
0.0
 10
38.881244
 20
21.874808
 30
0.0
 10
38.890844
 20
21.914698
 30
0.0
 10
38.900444
 20
21.954588
 30
0.0
 10
38.910044
 20
21.994478
 30
0.0
 10
38.919644
 20
22.034368
 30
0.0
 10
38.929244
 20
22.074258
 30
0.0
 10
38.925744
 20
22.074258
 30
0.0
 10
38.922244
 20
22.074258
 30
0.0
 10
38.918744
 20
22.074258
 30
0.0
 10
38.915244
 20
22.074258
 30
0.0
 10
38.911744
 20
22.074258
 30
0.0
 10
38.908244
 20
22.074258
 30
0.0
 10
38.904744
 20
22.074258
 30
0.0
 10
38.901244
 20
22.074258
 30
0.0
 10
38.897744
 20
22.074258
 30
0.0
 10
38.894244
 20
22.074258
 30
0.0
 10
38.890744
 20
22.074258
 30
0.0
 10
38.887244
 20
22.074258
 30
0.0
 10
38.883744
 20
22.074258
 30
0.0
 10
38.880244
 20
22.074258
 30
0.0
 10
38.876744
 20
22.074258
 30
0.0
 10
38.873244
 20
22.074258
 30
0.0
 10
38.729906
 20
22.074258
 30
0.0
 10
38.585859
 20
22.074258
 30
0.0
 10
38.441811
 20
22.074258
 30
0.0
 10
38.297767
 20
22.074258
 30
0.0
 10
38.153720
 20
22.074258
 30
0.0
 10
38.009673
 20
22.074258
 30
0.0
 10
37.865626
 20
22.074258
 30
0.0
 10
37.721579
 20
22.074258
 30
0.0
 10
37.577534
 20
22.074258
 30
0.0
 10
37.433487
 20
22.074258
 30
0.0
 10
37.289440
 20
22.074258
 30
0.0
 10
37.145393
 20
22.074258
 30
0.0
 10
37.001348
 20
22.074258
 30
0.0
 10
36.857301
 20
22.074258
 30
0.0
 10
36.713254
 20
22.074258
 30
0.0
 10
36.569207
 20
22.074258
 30
0.0
 10
36.363758
 20
22.074258
 30
0.0
 10
36.158312
 20
22.074258
 30
0.0
 10
35.952865
 20
22.074258
 30
0.0
 10
35.747416
 20
22.074258
 30
0.0
 10
35.541968
 20
22.074258
 30
0.0
 10
35.336521
 20
22.074258
 30
0.0
 10
35.131072
 20
22.074258
 30
0.0
 10
34.925623
 20
22.074258
 30
0.0
 10
34.720177
 20
22.074258
 30
0.0
 10
34.514728
 20
22.074258
 30
0.0
 10
34.309282
 20
22.074258
 30
0.0
 10
34.103833
 20
22.074258
 30
0.0
 10
33.898386
 20
22.074258
 30
0.0
 10
33.692937
 20
22.074258
 30
0.0
 10
33.487491
 20
22.074258
 30
0.0
 10
33.282042
 20
22.074258
 30
0.0
 10
33.391693
 20
21.913166
 30
0.0
 10
33.501345
 20
21.752075
 30
0.0
 10
33.610996
 20
21.590983
 30
0.0
 10
33.720647
 20
21.429892
 30
0.0
 10
33.830301
 20
21.268800
 30
0.0
 10
33.939950
 20
21.107709
 30
0.0
 10
34.049604
 20
20.946617
 30
0.0
 10
34.159255
 20
20.785525
 30
0.0
 10
34.268906
 20
20.624434
 30
0.0
 10
34.378558
 20
20.463342
 30
0.0
 10
34.488209
 20
20.302251
 30
0.0
 10
34.597860
 20
20.141159
 30
0.0
 10
34.707511
 20
19.980068
 30
0.0
 10
34.817165
 20
19.818973
 30
0.0
 10
34.926814
 20
19.657884
 30
0.0
 10
35.036468
 20
19.496790
 30
0.0
 10
34.823440
 20
19.496790
 30
0.0
 10
34.609924
 20
19.496790
 30
0.0
 10
34.396408
 20
19.496790
 30
0.0
 10
34.182892
 20
19.496790
 30
0.0
 10
33.969373
 20
19.496790
 30
0.0
 10
33.755857
 20
19.496790
 30
0.0
 10
33.542341
 20
19.496790
 30
0.0
 10
33.328825
 20
19.496790
 30
0.0
 10
33.115306
 20
19.496790
 30
0.0
 10
32.901790
 20
19.496790
 30
0.0
 10
32.688274
 20
19.496790
 30
0.0
 10
32.474758
 20
19.496790
 30
0.0
 10
32.261239
 20
19.496790
 30
0.0
 10
32.047723
 20
19.496790
 30
0.0
 10
31.834207
 20
19.496790
 30
0.0
 10
31.620691
 20
19.496790
 30
0.0
 10
31.528881
 20
19.657882
 30
0.0
 10
31.437071
 20
19.818971
 30
0.0
 10
31.345261
 20
19.980062
 30
0.0
 10
31.253451
 20
20.141151
 30
0.0
 10
31.161641
 20
20.302243
 30
0.0
 10
31.069831
 20
20.463332
 30
0.0
 10
30.978021
 20
20.624423
 30
0.0
 10
30.886211
 20
20.785512
 30
0.0
 10
30.794401
 20
20.946604
 30
0.0
 10
30.702591
 20
21.107693
 30
0.0
 10
30.610781
 20
21.268782
 30
0.0
 10
30.518971
 20
21.429873
 30
0.0
 10
30.427161
 20
21.590965
 30
0.0
 10
30.335351
 20
21.752054
 30
0.0
 10
30.243541
 20
21.913143
 30
0.0
 10
30.151731
 20
22.074234
 30
0.0
 10
30.125221
 20
22.120754
 30
0.0
 10
30.098711
 20
22.167274
 30
0.0
 10
30.072201
 20
22.213794
 30
0.0
 10
30.045691
 20
22.260314
 30
0.0
 10
30.019181
 20
22.306834
 30
0.0
 10
29.992671
 20
22.353354
 30
0.0
 10
29.966161
 20
22.399874
 30
0.0
 10
29.939651
 20
22.446394
 30
0.0
 10
29.913141
 20
22.492914
 30
0.0
 10
29.886631
 20
22.539434
 30
0.0
 10
29.860121
 20
22.585954
 30
0.0
 10
29.833611
 20
22.632474
 30
0.0
 10
29.807101
 20
22.678994
 30
0.0
 10
29.780591
 20
22.725514
 30
0.0
 10
29.754081
 20
22.772034
 30
0.0
 10
29.727571
 20
22.818554
 30
0.0
 10
29.678241
 20
22.772034
 30
0.0
 10
29.628911
 20
22.725514
 30
0.0
 10
29.579581
 20
22.678994
 30
0.0
 10
29.530251
 20
22.632474
 30
0.0
 10
29.480921
 20
22.585954
 30
0.0
 10
29.431591
 20
22.539434
 30
0.0
 10
29.382261
 20
22.492914
 30
0.0
 10
29.332931
 20
22.446394
 30
0.0
 10
29.283601
 20
22.399874
 30
0.0
 10
29.234271
 20
22.353354
 30
0.0
 10
29.184941
 20
22.306834
 30
0.0
 10
29.135611
 20
22.260314
 30
0.0
 10
29.086281
 20
22.213794
 30
0.0
 10
29.036951
 20
22.167274
 30
0.0
 10
28.987621
 20
22.120754
 30
0.0
 10
28.938291
 20
22.074234
 30
0.0
 10
28.898061
 20
22.036294
 30
0.0
 10
28.857831
 20
21.998354
 30
0.0
 10
28.817601
 20
21.960414
 30
0.0
 10
28.777371
 20
21.922474
 30
0.0
 10
28.737141
 20
21.884534
 30
0.0
 10
28.696911
 20
21.846594
 30
0.0
 10
28.656681
 20
21.808654
 30
0.0
 10
28.616451
 20
21.770714
 30
0.0
 10
28.576221
 20
21.732774
 30
0.0
 10
28.535991
 20
21.694834
 30
0.0
 10
28.495761
 20
21.656894
 30
0.0
 10
28.455531
 20
21.618954
 30
0.0
 10
28.415301
 20
21.581014
 30
0.0
 10
28.375071
 20
21.543074
 30
0.0
 10
28.334841
 20
21.505134
 30
0.0
 10
28.294611
 20
21.467194
 30
0.0
 10
28.294611
 20
21.344046
 30
0.0
 10
28.294611
 20
21.220898
 30
0.0
 10
28.294611
 20
21.097751
 30
0.0
 10
28.294611
 20
20.974600
 30
0.0
 10
28.294611
 20
20.851453
 30
0.0
 10
28.294611
 20
20.728305
 30
0.0
 10
28.294611
 20
20.605155
 30
0.0
 10
28.294611
 20
20.482007
 30
0.0
 10
28.294611
 20
20.358859
 30
0.0
 10
28.294611
 20
20.235712
 30
0.0
 10
28.294611
 20
20.112561
 30
0.0
 10
28.294611
 20
19.989414
 30
0.0
 10
28.294611
 20
19.866266
 30
0.0
 10
28.294611
 20
19.743118
 30
0.0
 10
28.294611
 20
19.619968
 30
0.0
 10
28.294611
 20
19.496820
 30
0.0
 10
28.262631
 20
19.496820
 30
0.0
 10
28.230651
 20
19.496820
 30
0.0
 10
28.198671
 20
19.496820
 30
0.0
 10
28.166691
 20
19.496820
 30
0.0
 10
28.134711
 20
19.496820
 30
0.0
 10
28.102731
 20
19.496820
 30
0.0
 10
28.070751
 20
19.496820
 30
0.0
 10
28.038771
 20
19.496820
 30
0.0
 10
28.006791
 20
19.496820
 30
0.0
 10
27.974811
 20
19.496820
 30
0.0
 10
27.942831
 20
19.496820
 30
0.0
 10
27.910851
 20
19.496820
 30
0.0
 10
27.878871
 20
19.496820
 30
0.0
 10
27.846891
 20
19.496820
 30
0.0
 10
27.814911
 20
19.496820
 30
0.0
 10
27.782931
 20
19.496820
 30
0.0
 10
27.641532
 20
19.496820
 30
0.0
 10
27.500152
 20
19.496820
 30
0.0
 10
27.358769
 20
19.496820
 30
0.0
 10
27.217386
 20
19.496820
 30
0.0
 10
27.076004
 20
19.496820
 30
0.0
 10
26.934621
 20
19.496820
 30
0.0
 10
26.793238
 20
19.496820
 30
0.0
 10
26.651855
 20
19.496820
 30
0.0
 10
26.510473
 20
19.496820
 30
0.0
 10
26.369090
 20
19.496820
 30
0.0
 10
26.227708
 20
19.496820
 30
0.0
 10
26.086325
 20
19.496820
 30
0.0
 10
25.944943
 20
19.496820
 30
0.0
 10
25.803560
 20
19.496820
 30
0.0
 10
25.662178
 20
19.496820
 30
0.0
 10
25.520795
 20
19.496820
 30
0.0
 10
25.520795
 20
19.618336
 30
0.0
 10
25.520795
 20
19.739541
 30
0.0
 10
25.520795
 20
19.860747
 30
0.0
 10
25.520795
 20
19.981952
 30
0.0
 10
25.520795
 20
20.103161
 30
0.0
 10
25.520795
 20
20.224366
 30
0.0
 10
25.520795
 20
20.345572
 30
0.0
 10
25.520795
 20
20.466778
 30
0.0
 10
25.520795
 20
20.587983
 30
0.0
 10
25.520795
 20
20.709189
 30
0.0
 10
25.520795
 20
20.830394
 30
0.0
 10
25.520795
 20
20.951600
 30
0.0
 10
25.520795
 20
21.072806
 30
0.0
 10
25.520795
 20
21.194011
 30
0.0
 10
25.520795
 20
21.315220
 30
0.0
 10
25.520795
 20
21.436425
 30
0.0
 10
25.520795
 20
21.476315
 30
0.0
 10
25.520795
 20
21.516205
 30
0.0
 10
25.520795
 20
21.556095
 30
0.0
 10
25.520795
 20
21.595985
 30
0.0
 10
25.520795
 20
21.635875
 30
0.0
 10
25.520795
 20
21.675765
 30
0.0
 10
25.520795
 20
21.715655
 30
0.0
 10
25.520795
 20
21.755545
 30
0.0
 10
25.520795
 20
21.795435
 30
0.0
 10
25.520795
 20
21.835325
 30
0.0
 10
25.520795
 20
21.875215
 30
0.0
 10
25.520795
 20
21.915105
 30
0.0
 10
25.520795
 20
21.954995
 30
0.0
 10
25.520795
 20
21.994885
 30
0.0
 10
25.520795
 20
22.034775
 30
0.0
 10
25.520795
 20
22.074665
 30
0.0
 10
25.225907
 20
22.074665
 30
0.0
 10
24.931511
 20
22.074665
 30
0.0
 10
24.637112
 20
22.074665
 30
0.0
 10
24.342716
 20
22.074665
 30
0.0
 10
24.048317
 20
22.074665
 30
0.0
 10
23.753921
 20
22.074665
 30
0.0
 10
23.459522
 20
22.074665
 30
0.0
 10
23.165126
 20
22.074665
 30
0.0
 10
22.870727
 20
22.074665
 30
0.0
 10
22.576331
 20
22.074665
 30
0.0
 10
22.281933
 20
22.074665
 30
0.0
 10
21.987536
 20
22.074665
 30
0.0
 10
21.693138
 20
22.074665
 30
0.0
 10
21.398741
 20
22.074665
 30
0.0
 10
21.104343
 20
22.074665
 30
0.0
 10
20.809945
 20
22.074665
 30
0.0
  0
LWPOLYLINE
  5
132
100
AcDbEntity
  8
BASE
 62
7
100
AcDbPolyline
 90
184
 70
0
 10
25.015765
 20
15.936630
 30
0.0
 10
25.034825
 20
15.923670
 30
0.0
 10
25.053885
 20
15.910700
 30
0.0
 10
25.072945
 20
15.897740
 30
0.0
 10
25.092005
 20
15.884770
 30
0.0
 10
25.111065
 20
15.871800
 30
0.0
 10
25.130125
 20
15.858840
 30
0.0
 10
25.149185
 20
15.845870
 30
0.0
 10
25.168245
 20
15.832910
 30
0.0
 10
25.187305
 20
15.819950
 30
0.0
 10
25.206365
 20
15.806990
 30
0.0
 10
25.225425
 20
15.794020
 30
0.0
 10
25.244485
 20
15.781050
 30
0.0
 10
25.263545
 20
15.768090
 30
0.0
 10
25.282605
 20
15.755120
 30
0.0
 10
25.301665
 20
15.742160
 30
0.0
 10
25.320725
 20
15.729190
 30
0.0
 10
25.274175
 20
15.536724
 30
0.0
 10
25.227625
 20
15.344258
 30
0.0
 10
25.181075
 20
15.151792
 30
0.0
 10
25.134525
 20
14.959327
 30
0.0
 10
25.087975
 20
14.766858
 30
0.0
 10
25.041425
 20
14.574392
 30
0.0
 10
24.994875
 20
14.381926
 30
0.0
 10
24.948325
 20
14.189461
 30
0.0
 10
24.901775
 20
13.996995
 30
0.0
 10
24.855225
 20
13.804529
 30
0.0
 10
24.808675
 20
13.612063
 30
0.0
 10
24.762125
 20
13.419597
 30
0.0
 10
24.715575
 20
13.227131
 30
0.0
 10
24.669025
 20
13.034665
 30
0.0
 10
24.622475
 20
12.842200
 30
0.0
 10
24.575925
 20
12.649734
 30
0.0
 10
22.219768
 20
2.907286
 30
0.0
 10
21.828535
 20
3.062274
 30
0.0
 10
21.454013
 20
3.233015
 30
0.0
 10
20.156099
 20
3.784835
 30
0.0
 10
18.995542
 20
4.422211
 30
0.0
 10
18.226486
 20
4.844568
 30
0.0
 10
11.303902
 20
0.210923
 30
0.0
 10
6.312003
 20
5.202811
 30
0.0
 10
10.938142
 20
12.114680
 30
0.0
 10
10.635531
 20
12.649882
 30
0.0
 10
10.326278
 20
13.196686
 30
0.0
 10
10.049944
 20
13.763611
 30
0.0
 10
9.669351
 20
14.470102
 30
0.0
 10
9.425774
 20
15.044171
 30
0.0
 10
9.217570
 20
15.534875
 30
0.0
 10
9.151500
 20
15.693289
 30
0.0
 10
9.120820
 20
15.781459
 30
0.0
 10
8.701862
 20
16.936008
 30
0.0
 10
8.629572
 20
17.193294
 30
0.0
 10
8.577122
 20
17.379876
 30
0.0
 10
8.230917
 20
18.612501
 30
0.0
 10
8.128698
 20
18.632771
 30
0.0
 10
8.082788
 20
18.641371
 30
0.0
 10
1.422043
 20
19.961203
 30
0.0
 10
0.100596
 20
20.223056
 30
0.0
 10
0.100596
 20
22.074357
 30
0.0
 10
0.100596
 20
25.725499
 30
0.0
 10
0.100596
 20
27.281846
 30
0.0
 10
1.422043
 20
27.543572
 30
0.0
 10
8.218060
 20
28.889668
 30
0.0
 10
8.465102
 20
29.801993
 30
0.0
 10
8.603992
 20
30.222914
 30
0.0
 10
8.759445
 20
30.694044
 30
0.0
 10
8.875394
 20
31.080472
 30
0.0
 10
8.989583
 20
31.462200
 30
0.0
 10
9.078073
 20
31.669963
 30
0.0
 10
9.494855
 20
32.678941
 30
0.0
 10
9.688171
 20
33.146939
 30
0.0
 10
9.778161
 20
33.313621
 30
0.0
 10
10.044435
 20
33.806987
 30
0.0
 10
10.175711
 20
34.076435
 30
0.0
 10
10.315502
 20
34.363389
 30
0.0
 10
10.919968
 20
35.437913
 30
0.0
 10
10.873078
 20
35.507873
 30
0.0
 10
10.775038
 20
35.654295
 30
0.0
 10
10.743398
 20
35.701595
 30
0.0
 10
9.373654
 20
37.748382
 30
0.0
 10
9.135354
 20
38.104475
 30
0.0
 10
6.330227
 20
42.296092
 30
0.0
 10
11.322124
 20
47.286915
 30
0.0
 10
18.171771
 20
42.702609
 30
0.0
 10
18.995530
 20
43.167260
 30
0.0
 10
19.250048
 20
43.310817
 30
0.0
 10
19.808702
 20
43.583398
 30
0.0
 10
20.514443
 20
43.962810
 30
0.0
 10
20.539543
 20
43.973530
 30
0.0
 10
20.634143
 20
44.013320
 30
0.0
 10
20.914831
 20
44.123176
 30
0.0
 10
22.878564
 20
44.891782
 30
0.0
 10
23.006614
 20
44.937692
 30
0.0
 10
23.008714
 20
44.938300
 30
0.0
 10
23.265206
 20
45.009630
 30
0.0
 10
23.432821
 20
45.056390
 30
0.0
 10
24.743971
 20
45.421762
 30
0.0
 10
25.214512
 20
47.796517
 30
0.0
 10
25.520537
 20
49.341024
 30
0.0
 10
26.344296
 20
53.498479
 30
0.0
 10
27.986453
 20
53.498479
 30
0.0
 10
28.294291
 20
53.498479
 30
0.0
 10
31.535699
 20
53.498479
 30
0.0
 10
33.403101
 20
53.498479
 30
0.0
 10
34.402499
 20
48.454013
 30
0.0
 10
34.532756
 20
47.796517
 30
0.0
 10
35.005571
 20
45.409964
 30
0.0
 10
35.618296
 20
45.251529
 30
0.0
 10
36.569447
 20
44.942008
 30
0.0
 10
36.813734
 20
44.862538
 30
0.0
 10
37.200954
 20
44.745303
 30
0.0
 10
37.583380
 20
44.629827
 30
0.0
 10
37.672300
 20
44.594967
 30
0.0
 10
37.800475
 20
44.541437
 30
0.0
 10
38.722283
 20
44.156694
 30
0.0
 10
39.150241
 20
43.978074
 30
0.0
 10
39.229941
 20
43.940964
 30
0.0
 10
39.308131
 20
43.904604
 30
0.0
 10
39.929995
 20
43.564245
 30
0.0
 10
40.479606
 20
43.294625
 30
0.0
 10
40.487106
 20
43.290425
 30
0.0
 10
41.562381
 20
42.680704
 30
0.0
 10
41.633281
 20
42.728114
 30
0.0
 10
41.716091
 20
42.783564
 30
0.0
 10
43.870567
 20
44.225390
 30
0.0
 10
44.237322
 20
44.470824
 30
0.0
 10
45.103705
 20
45.050631
 30
0.0
 10
45.255629
 20
45.152313
 30
0.0
 10
48.417408
 20
47.268302
 30
0.0
 10
51.928823
 20
43.756878
 30
0.0
 10
52.098434
 20
43.587278
 30
0.0
 10
53.409304
 20
42.276405
 30
0.0
 10
49.007254
 20
35.699480
 30
0.0
 10
48.968644
 20
35.641780
 30
0.0
 10
48.806767
 20
35.399928
 30
0.0
 10
49.117631
 20
34.870555
 30
0.0
 10
49.676296
 20
33.772006
 30
0.0
 10
49.938805
 20
33.279981
 30
0.0
 10
50.050774
 20
33.070126
 30
0.0
 10
50.113084
 20
32.913033
 30
0.0
 10
50.786324
 20
31.216668
 30
0.0
 10
50.851754
 20
31.057385
 30
0.0
 10
50.928444
 20
30.800176
 30
0.0
 10
51.095930
 20
30.222472
 30
0.0
 10
51.489307
 20
28.865627
 30
0.0
 10
54.142927
 20
28.339806
 30
0.0
 10
59.619641
 20
27.254577
 30
0.0
 10
59.619641
 20
25.725044
 30
0.0
 10
59.619641
 20
22.073903
 30
0.0
 10
59.619641
 20
20.194702
 30
0.0
 10
56.094486
 20
19.496435
 30
0.0
 10
54.142951
 20
19.109868
 30
0.0
 10
52.756685
 20
18.835284
 30
0.0
 10
51.944938
 20
18.674492
 30
0.0
 10
51.782008
 20
18.642202
 30
0.0
 10
51.464659
 20
18.579342
 30
0.0
 10
50.799838
 20
16.396691
 30
0.0
 10
50.703088
 20
16.079104
 30
0.0
 10
50.641408
 20
15.932588
 30
0.0
 10
50.170320
 20
14.785760
 30
0.0
 10
50.112290
 20
14.675667
 30
0.0
 10
49.044609
 20
12.648919
 30
0.0
 10
48.889275
 20
12.354062
 30
0.0
 10
48.756272
 20
12.102965
 30
0.0
 10
53.388845
 20
5.182525
 30
0.0
 10
48.396949
 20
0.189558
 30
0.0
 10
45.356119
 20
2.225401
 30
0.0
 10
41.881024
 20
4.551975
 30
0.0
 10
41.832434
 20
4.584585
 30
0.0
 10
41.771614
 20
4.625345
 30
0.0
 10
41.712944
 20
4.664605
 30
0.0
 10
41.668434
 20
4.694415
 30
0.0
 10
41.458321
 20
4.835088
 30
0.0
 10
40.137508
 20
4.109728
 30
0.0
 10
40.136979
 20
4.109463
 30
0.0
 10
39.097304
 20
3.594687
 30
0.0
 10
38.980432
 20
3.536767
 30
0.0
 10
37.784692
 20
3.024494
 30
0.0
 10
37.579421
 20
2.945334
 30
0.0
 10
37.578892
 20
2.945074
 30
0.0
 10
37.540702
 20
3.103822
 30
0.0
 10
37.247879
 20
4.316291
 30
0.0
 10
37.216239
 20
4.446902
 30
0.0
 10
37.197689
 20
4.523482
 30
0.0
  0
SPLINE
  5
133
100
AcDbEntity
  8
BASE
 62
7
100
AcDbSpline
 70
8
 71
3
 72
8
 73
4
 74
0
 40
0
 40
0
 40
0
 40
0
 40
1
 40
1
 40
1
 40
1
 10
38.888628
 20
25.725479
 30
0.0
 10
38.881428
 20
25.767199
 30
0.0
 10
38.873708
 20
25.808879
 30
0.0
 10
38.865368
 20
25.850506
 30
0.0
  0
SPLINE
  5
134
100
AcDbEntity
  8
BASE
 62
7
100
AcDbSpline
 70
8
 71
3
 72
8
 73
4
 74
0
 40
0
 40
0
 40
0
 40
0
 40
1
 40
1
 40
1
 40
1
 10
38.865368
 20
25.850506
 30
0.0
 10
38.857068
 20
25.892136
 30
0.0
 10
38.848138
 20
25.933706
 30
0.0
 10
38.838718
 20
25.975220
 30
0.0
  0
SPLINE
  5
135
100
AcDbEntity
  8
BASE
 62
7
100
AcDbSpline
 70
8
 71
3
 72
8
 73
4
 74
0
 40
0
 40
0
 40
0
 40
0
 40
1
 40
1
 40
1
 40
1
 10
38.838718
 20
25.975220
 30
0.0
 10
38.829318
 20
26.016730
 30
0.0
 10
38.819298
 20
26.058190
 30
0.0
 10
38.808818
 20
26.099576
 30
0.0
  0
SPLINE
  5
136
100
AcDbEntity
  8
BASE
 62
7
100
AcDbSpline
 70
8
 71
3
 72
8
 73
4
 74
0
 40
0
 40
0
 40
0
 40
0
 40
1
 40
1
 40
1
 40
1
 10
38.808818
 20
26.099576
 30
0.0
 10
38.798338
 20
26.140966
 30
0.0
 10
38.787308
 20
26.182286
 30
0.0
 10
38.775818
 20
26.223539
 30
0.0
  0
SPLINE
  5
137
100
AcDbEntity
  8
BASE
 62
7
100
AcDbSpline
 70
8
 71
3
 72
8
 73
4
 74
0
 40
0
 40
0
 40
0
 40
0
 40
1
 40
1
 40
1
 40
1
 10
38.775818
 20
26.223539
 30
0.0
 10
38.764308
 20
26.264789
 30
0.0
 10
38.752318
 20
26.305969
 30
0.0
 10
38.739858
 20
26.347068
 30
0.0
  0
SPLINE
  5
138
100
AcDbEntity
  8
BASE
 62
7
100
AcDbSpline
 70
8
 71
3
 72
8
 73
4
 74
0
 40
0
 40
0
 40
0
 40
0
 40
1
 40
1
 40
1
 40
1
 10
38.739858
 20
26.347068
 30
0.0
 10
38.727398
 20
26.388168
 30
0.0
 10
38.714458
 20
26.429188
 30
0.0
 10
38.701088
 20
26.470128
 30
0.0
  0
SPLINE
  5
139
100
AcDbEntity
  8
BASE
 62
7
100
AcDbSpline
 70
8
 71
3
 72
8
 73
4
 74
0
 40
0
 40
0
 40
0
 40
0
 40
1
 40
1
 40
1
 40
1
 10
38.701088
 20
26.470128
 30
0.0
 10
38.687698
 20
26.511068
 30
0.0
 10
38.673888
 20
26.551918
 30
0.0
 10
38.659648
 20
26.592678
 30
0.0
  0
SPLINE
  5
13a
100
AcDbEntity
  8
BASE
 62
7
100
AcDbSpline
 70
8
 71
3
 72
8
 73
4
 74
0
 40
0
 40
0
 40
0
 40
0
 40
1
 40
1
 40
1
 40
1
 10
38.659648
 20
26.592678
 30
0.0
 10
38.645418
 20
26.633438
 30
0.0
 10
38.630748
 20
26.674108
 30
0.0
 10
38.615688
 20
26.714680
 30
0.0
  0
SPLINE
  5
13b
100
AcDbEntity
  8
BASE
 62
7
100
AcDbSpline
 70
8
 71
3
 72
8
 73
4
 74
0
 40
0
 40
0
 40
0
 40
0
 40
1
 40
1
 40
1
 40
1
 10
38.615688
 20
26.714680
 30
0.0
 10
38.600628
 20
26.755250
 30
0.0
 10
38.585178
 20
26.795720
 30
0.0
 10
38.569348
 20
26.836092
 30
0.0
  0
SPLINE
  5
13c
100
AcDbEntity
  8
BASE
 62
7
100
AcDbSpline
 70
8
 71
3
 72
8
 73
4
 74
0
 40
0
 40
0
 40
0
 40
0
 40
1
 40
1
 40
1
 40
1
 10
38.569348
 20
26.836092
 30
0.0
 10
38.553528
 20
26.876462
 30
0.0
 10
38.537328
 20
26.916722
 30
0.0
 10
38.520778
 20
26.956879
 30
0.0
  0
SPLINE
  5
13d
100
AcDbEntity
  8
BASE
 62
7
100
AcDbSpline
 70
8
 71
3
 72
8
 73
4
 74
0
 40
0
 40
0
 40
0
 40
0
 40
1
 40
1
 40
1
 40
1
 10
38.520778
 20
26.956879
 30
0.0
 10
38.504238
 20
26.997029
 30
0.0
 10
38.487338
 20
27.037079
 30
0.0
 10
38.470128
 20
27.077003
 30
0.0
  0
SPLINE
  5
13e
100
AcDbEntity
  8
BASE
 62
7
100
AcDbSpline
 70
8
 71
3
 72
8
 73
4
 74
0
 40
0
 40
0
 40
0
 40
0
 40
1
 40
1
 40
1
 40
1
 10
38.470128
 20
27.077003
 30
0.0
 10
38.452908
 20
27.116933
 30
0.0
 10
38.435378
 20
27.156733
 30
0.0
 10
38.417538
 20
27.196421
 30
0.0
  0
SPLINE
  5
13f
100
AcDbEntity
  8
BASE
 62
7
100
AcDbSpline
 70
8
 71
3
 72
8
 73
4
 74
0
 40
0
 40
0
 40
0
 40
0
 40
1
 40
1
 40
1
 40
1
 10
38.417538
 20
27.196421
 30
0.0
 10
38.399708
 20
27.236111
 30
0.0
 10
38.381558
 20
27.275671
 30
0.0
 10
38.363148
 20
27.315098
 30
0.0
  0
SPLINE
  5
140
100
AcDbEntity
  8
BASE
 62
7
100
AcDbSpline
 70
8
 71
3
 72
8
 73
4
 74
0
 40
0
 40
0
 40
0
 40
0
 40
1
 40
1
 40
1
 40
1
 10
38.363148
 20
27.315098
 30
0.0
 10
38.344738
 20
27.354528
 30
0.0
 10
38.326048
 20
27.393828
 30
0.0
 10
38.307108
 20
27.432994
 30
0.0
  0
SPLINE
  5
141
100
AcDbEntity
  8
BASE
 62
7
100
AcDbSpline
 70
8
 71
3
 72
8
 73
4
 74
0
 40
0
 40
0
 40
0
 40
0
 40
1
 40
1
 40
1
 40
1
 10
38.307108
 20
27.432994
 30
0.0
 10
38.288168
 20
27.472154
 30
0.0
 10
38.268978
 20
27.511184
 30
0.0
 10
38.249568
 20
27.550070
 30
0.0
  0
SPLINE
  5
142
100
AcDbEntity
  8
BASE
 62
7
100
AcDbSpline
 70
8
 71
3
 72
8
 73
4
 74
0
 40
0
 40
0
 40
0
 40
0
 40
1
 40
1
 40
1
 40
1
 10
38.249568
 20
27.550070
 30
0.0
 10
38.230148
 20
27.588960
 30
0.0
 10
38.210518
 20
27.627700
 30
0.0
 10
38.190668
 20
27.666289
 30
0.0
  0
SPLINE
  5
143
100
AcDbEntity
  8
BASE
 62
7
100
AcDbSpline
 70
8
 71
3
 72
8
 73
4
 74
0
 40
0
 40
0
 40
0
 40
0
 40
1
 40
1
 40
1
 40
1
 10
38.190668
 20
27.666289
 30
0.0
 10
38.170828
 20
27.704879
 30
0.0
 10
38.150778
 20
27.743319
 30
0.0
 10
38.130558
 20
27.781609
 30
0.0
  0
SPLINE
  5
144
100
AcDbEntity
  8
BASE
 62
7
100
AcDbSpline
 70
8
 71
3
 72
8
 73
4
 74
0
 40
0
 40
0
 40
0
 40
0
 40
1
 40
1
 40
1
 40
1
 10
38.130558
 20
27.781609
 30
0.0
 10
38.110348
 20
27.819899
 30
0.0
 10
38.089938
 20
27.858029
 30
0.0
 10
38.069378
 20
27.895995
 30
0.0
  0
SPLINE
  5
145
100
AcDbEntity
  8
BASE
 62
7
100
AcDbSpline
 70
8
 71
3
 72
8
 73
4
 74
0
 40
0
 40
0
 40
0
 40
0
 40
1
 40
1
 40
1
 40
1
 10
38.069378
 20
27.895995
 30
0.0
 10
38.048818
 20
27.933965
 30
0.0
 10
38.028108
 20
27.971765
 30
0.0
 10
38.007278
 20
28.009405
 30
0.0
  0
SPLINE
  5
146
100
AcDbEntity
  8
BASE
 62
7
100
AcDbSpline
 70
8
 71
3
 72
8
 73
4
 74
0
 40
0
 40
0
 40
0
 40
0
 40
1
 40
1
 40
1
 40
1
 10
38.007278
 20
28.009405
 30
0.0
 10
37.986428
 20
28.047045
 30
0.0
 10
37.965468
 20
28.084515
 30
0.0
 10
37.944398
 20
28.121802
 30
0.0
  0
SPLINE
  5
147
100
AcDbEntity
  8
BASE
 62
7
100
AcDbSpline
 70
8
 71
3
 72
8
 73
4
 74
0
 40
0
 40
0
 40
0
 40
0
 40
1
 40
1
 40
1
 40
1
 10
37.944398
 20
28.121802
 30
0.0
 10
37.923338
 20
28.159092
 30
0.0
 10
37.902148
 20
28.196212
 30
0.0
 10
37.880888
 20
28.233148
 30
0.0
  0
SPLINE
  5
148
100
AcDbEntity
  8
BASE
 62
7
100
AcDbSpline
 70
8
 71
3
 72
8
 73
4
 74
0
 40
0
 40
0
 40
0
 40
0
 40
1
 40
1
 40
1
 40
1
 10
37.880888
 20
28.233148
 30
0.0
 10
37.859618
 20
28.270078
 30
0.0
 10
37.838288
 20
28.306838
 30
0.0
 10
37.816888
 20
28.343402
 30
0.0
  0
SPLINE
  5
149
100
AcDbEntity
  8
BASE
 62
7
100
AcDbSpline
 70
8
 71
3
 72
8
 73
4
 74
0
 40
0
 40
0
 40
0
 40
0
 40
1
 40
1
 40
1
 40
1
 10
37.816888
 20
28.343402
 30
0.0
 10
37.795488
 20
28.379962
 30
0.0
 10
37.774038
 20
28.416342
 30
0.0
 10
37.752548
 20
28.452527
 30
0.0
  0
SPLINE
  5
14a
100
AcDbEntity
  8
BASE
 62
7
100
AcDbSpline
 70
8
 71
3
 72
8
 73
4
 74
0
 40
0
 40
0
 40
0
 40
0
 40
1
 40
1
 40
1
 40
1
 10
37.752548
 20
28.452527
 30
0.0
 10
37.731068
 20
28.488707
 30
0.0
 10
37.709538
 20
28.524697
 30
0.0
 10
37.688008
 20
28.560484
 30
0.0
  0
SPLINE
  5
14b
100
AcDbEntity
  8
BASE
 62
7
100
AcDbSpline
 70
8
 71
3
 72
8
 73
4
 74
0
 40
0
 40
0
 40
0
 40
0
 40
1
 40
1
 40
1
 40
1
 10
37.688008
 20
28.560484
 30
0.0
 10
37.666468
 20
28.596274
 30
0.0
 10
37.644938
 20
28.631854
 30
0.0
 10
37.623418
 20
28.667234
 30
0.0
  0
SPLINE
  5
14c
100
AcDbEntity
  8
BASE
 62
7
100
AcDbSpline
 70
8
 71
3
 72
8
 73
4
 74
0
 40
0
 40
0
 40
0
 40
0
 40
1
 40
1
 40
1
 40
1
 10
37.623418
 20
28.667234
 30
0.0
 10
37.601908
 20
28.702614
 30
0.0
 10
37.580388
 20
28.737784
 30
0.0
 10
37.558918
 20
28.772739
 30
0.0
  0
SPLINE
  5
14d
100
AcDbEntity
  8
BASE
 62
7
100
AcDbSpline
 70
8
 71
3
 72
8
 73
4
 74
0
 40
0
 40
0
 40
0
 40
0
 40
1
 40
1
 40
1
 40
1
 10
37.558918
 20
28.772739
 30
0.0
 10
37.537458
 20
28.807699
 30
0.0
 10
37.516028
 20
28.842439
 30
0.0
 10
37.494658
 20
28.876959
 30
0.0
  0
SPLINE
  5
14e
100
AcDbEntity
  8
BASE
 62
7
100
AcDbSpline
 70
8
 71
3
 72
8
 73
4
 74
0
 40
0
 40
0
 40
0
 40
0
 40
1
 40
1
 40
1
 40
1
 10
37.494658
 20
28.876959
 30
0.0
 10
37.473308
 20
28.911479
 30
0.0
 10
37.451998
 20
28.945779
 30
0.0
 10
37.430788
 20
28.979855
 30
0.0
  0
SPLINE
  5
14f
100
AcDbEntity
  8
BASE
 62
7
100
AcDbSpline
 70
8
 71
3
 72
8
 73
4
 74
0
 40
0
 40
0
 40
0
 40
0
 40
1
 40
1
 40
1
 40
1
 10
37.430788
 20
28.979855
 30
0.0
 10
37.409568
 20
29.013925
 30
0.0
 10
37.388458
 20
29.047775
 30
0.0
 10
37.367448
 20
29.081391
 30
0.0
  0
SPLINE
  5
150
100
AcDbEntity
  8
BASE
 62
7
100
AcDbSpline
 70
8
 71
3
 72
8
 73
4
 74
0
 40
0
 40
0
 40
0
 40
0
 40
1
 40
1
 40
1
 40
1
 10
37.367448
 20
29.081391
 30
0.0
 10
37.346438
 20
29.115001
 30
0.0
 10
37.325538
 20
29.148381
 30
0.0
 10
37.304778
 20
29.181526
 30
0.0
  0
SPLINE
  5
151
100
AcDbEntity
  8
BASE
 62
7
100
AcDbSpline
 70
8
 71
3
 72
8
 73
4
 74
0
 40
0
 40
0
 40
0
 40
0
 40
1
 40
1
 40
1
 40
1
 10
37.304778
 20
29.181526
 30
0.0
 10
37.284008
 20
29.214666
 30
0.0
 10
37.263398
 20
29.247566
 30
0.0
 10
37.242928
 20
29.280226
 30
0.0
  0
SPLINE
  5
152
100
AcDbEntity
  8
BASE
 62
7
100
AcDbSpline
 70
8
 71
3
 72
8
 73
4
 74
0
 40
0
 40
0
 40
0
 40
0
 40
1
 40
1
 40
1
 40
1
 10
37.242928
 20
29.280226
 30
0.0
 10
37.222478
 20
29.312886
 30
0.0
 10
37.202168
 20
29.345286
 30
0.0
 10
37.182048
 20
29.377446
 30
0.0
  0
SPLINE
  5
153
100
AcDbEntity
  8
BASE
 62
7
100
AcDbSpline
 70
8
 71
3
 72
8
 73
4
 74
0
 40
0
 40
0
 40
0
 40
0
 40
1
 40
1
 40
1
 40
1
 10
37.182048
 20
29.377446
 30
0.0
 10
37.161698
 20
29.408196
 30
0.0
 10
37.140938
 20
29.438766
 30
0.0
 10
37.119798
 20
29.469156
 30
0.0
  0
SPLINE
  5
154
100
AcDbEntity
  8
BASE
 62
7
100
AcDbSpline
 70
8
 71
3
 72
8
 73
4
 74
0
 40
0
 40
0
 40
0
 40
0
 40
1
 40
1
 40
1
 40
1
 10
37.119798
 20
29.469156
 30
0.0
 10
37.098658
 20
29.499546
 30
0.0
 10
37.077118
 20
29.529746
 30
0.0
 10
37.055218
 20
29.559776
 30
0.0
  0
SPLINE
  5
155
100
AcDbEntity
  8
BASE
 62
7
100
AcDbSpline
 70
8
 71
3
 72
8
 73
4
 74
0
 40
0
 40
0
 40
0
 40
0
 40
1
 40
1
 40
1
 40
1
 10
37.055218
 20
29.559776
 30
0.0
 10
37.033308
 20
29.589796
 30
0.0
 10
37.011048
 20
29.619636
 30
0.0
 10
36.988438
 20
29.649296
 30
0.0
  0
SPLINE
  5
156
100
AcDbEntity
  8
BASE
 62
7
100
AcDbSpline
 70
8
 71
3
 72
8
 73
4
 74
0
 40
0
 40
0
 40
0
 40
0
 40
1
 40
1
 40
1
 40
1
 10
36.988438
 20
29.649296
 30
0.0
 10
36.965818
 20
29.678946
 30
0.0
 10
36.942868
 20
29.708416
 30
0.0
 10
36.919578
 20
29.737696
 30
0.0
  0
SPLINE
  5
157
100
AcDbEntity
  8
BASE
 62
7
100
AcDbSpline
 70
8
 71
3
 72
8
 73
4
 74
0
 40
0
 40
0
 40
0
 40
0
 40
1
 40
1
 40
1
 40
1
 10
36.919578
 20
29.737696
 30
0.0
 10
36.896298
 20
29.766976
 30
0.0
 10
36.872678
 20
29.796056
 30
0.0
 10
36.848758
 20
29.824956
 30
0.0
  0
SPLINE
  5
158
100
AcDbEntity
  8
BASE
 62
7
100
AcDbSpline
 70
8
 71
3
 72
8
 73
4
 74
0
 40
0
 40
0
 40
0
 40
0
 40
1
 40
1
 40
1
 40
1
 10
36.848758
 20
29.824956
 30
0.0
 10
36.824838
 20
29.853846
 30
0.0
 10
36.800618
 20
29.882556
 30
0.0
 10
36.776108
 20
29.911056
 30
0.0
  0
SPLINE
  5
159
100
AcDbEntity
  8
BASE
 62
7
100
AcDbSpline
 70
8
 71
3
 72
8
 73
4
 74
0
 40
0
 40
0
 40
0
 40
0
 40
1
 40
1
 40
1
 40
1
 10
36.776108
 20
29.911056
 30
0.0
 10
36.751608
 20
29.939566
 30
0.0
 10
36.726798
 20
29.967876
 30
0.0
 10
36.701748
 20
29.995986
 30
0.0
  0
SPLINE
  5
15a
100
AcDbEntity
  8
BASE
 62
7
100
AcDbSpline
 70
8
 71
3
 72
8
 73
4
 74
0
 40
0
 40
0
 40
0
 40
0
 40
1
 40
1
 40
1
 40
1
 10
36.701748
 20
29.995986
 30
0.0
 10
36.676688
 20
30.024096
 30
0.0
 10
36.651368
 20
30.052016
 30
0.0
 10
36.625798
 20
30.079726
 30
0.0
  0
SPLINE
  5
15b
100
AcDbEntity
  8
BASE
 62
7
100
AcDbSpline
 70
8
 71
3
 72
8
 73
4
 74
0
 40
0
 40
0
 40
0
 40
0
 40
1
 40
1
 40
1
 40
1
 10
36.625798
 20
30.079726
 30
0.0
 10
36.600238
 20
30.107436
 30
0.0
 10
36.574418
 20
30.134956
 30
0.0
 10
36.548388
 20
30.162256
 30
0.0
  0
SPLINE
  5
15c
100
AcDbEntity
  8
BASE
 62
7
100
AcDbSpline
 70
8
 71
3
 72
8
 73
4
 74
0
 40
0
 40
0
 40
0
 40
0
 40
1
 40
1
 40
1
 40
1
 10
36.548388
 20
30.162256
 30
0.0
 10
36.522348
 20
30.189566
 30
0.0
 10
36.496098
 20
30.216666
 30
0.0
 10
36.469638
 20
30.243566
 30
0.0
  0
SPLINE
  5
15d
100
AcDbEntity
  8
BASE
 62
7
100
AcDbSpline
 70
8
 71
3
 72
8
 73
4
 74
0
 40
0
 40
0
 40
0
 40
0
 40
1
 40
1
 40
1
 40
1
 10
36.469638
 20
30.243566
 30
0.0
 10
36.443178
 20
30.270466
 30
0.0
 10
36.416518
 20
30.297156
 30
0.0
 10
36.389668
 20
30.323626
 30
0.0
  0
SPLINE
  5
15e
100
AcDbEntity
  8
BASE
 62
7
100
AcDbSpline
 70
8
 71
3
 72
8
 73
4
 74
0
 40
0
 40
0
 40
0
 40
0
 40
1
 40
1
 40
1
 40
1
 10
36.389668
 20
30.323626
 30
0.0
 10
36.362818
 20
30.350106
 30
0.0
 10
36.335798
 20
30.376376
 30
0.0
 10
36.308608
 20
30.402426
 30
0.0
  0
SPLINE
  5
15f
100
AcDbEntity
  8
BASE
 62
7
100
AcDbSpline
 70
8
 71
3
 72
8
 73
4
 74
0
 40
0
 40
0
 40
0
 40
0
 40
1
 40
1
 40
1
 40
1
 10
36.308608
 20
30.402426
 30
0.0
 10
36.281418
 20
30.428486
 30
0.0
 10
36.254068
 20
30.454326
 30
0.0
 10
36.226578
 20
30.479956
 30
0.0
  0
SPLINE
  5
160
100
AcDbEntity
  8
BASE
 62
7
100
AcDbSpline
 70
8
 71
3
 72
8
 73
4
 74
0
 40
0
 40
0
 40
0
 40
0
 40
1
 40
1
 40
1
 40
1
 10
36.226578
 20
30.479956
 30
0.0
 10
36.199088
 20
30.505586
 30
0.0
 10
36.171458
 20
30.530996
 30
0.0
 10
36.143698
 20
30.556186
 30
0.0
  0
SPLINE
  5
161
100
AcDbEntity
  8
BASE
 62
7
100
AcDbSpline
 70
8
 71
3
 72
8
 73
4
 74
0
 40
0
 40
0
 40
0
 40
0
 40
1
 40
1
 40
1
 40
1
 10
36.143698
 20
30.556186
 30
0.0
 10
36.115948
 20
30.581376
 30
0.0
 10
36.088068
 20
30.606346
 30
0.0
 10
36.060098
 20
30.631096
 30
0.0
  0
SPLINE
  5
162
100
AcDbEntity
  8
BASE
 62
7
100
AcDbSpline
 70
8
 71
3
 72
8
 73
4
 74
0
 40
0
 40
0
 40
0
 40
0
 40
1
 40
1
 40
1
 40
1
 10
36.060098
 20
30.631096
 30
0.0
 10
36.032128
 20
30.655846
 30
0.0
 10
36.004048
 20
30.680376
 30
0.0
 10
35.975898
 20
30.704676
 30
0.0
  0
SPLINE
  5
163
100
AcDbEntity
  8
BASE
 62
7
100
AcDbSpline
 70
8
 71
3
 72
8
 73
4
 74
0
 40
0
 40
0
 40
0
 40
0
 40
1
 40
1
 40
1
 40
1
 10
35.975898
 20
30.704676
 30
0.0
 10
35.947748
 20
30.728976
 30
0.0
 10
35.919518
 20
30.753056
 30
0.0
 10
35.891228
 20
30.776906
 30
0.0
  0
SPLINE
  5
164
100
AcDbEntity
  8
BASE
 62
7
100
AcDbSpline
 70
8
 71
3
 72
8
 73
4
 74
0
 40
0
 40
0
 40
0
 40
0
 40
1
 40
1
 40
1
 40
1
 10
35.891228
 20
30.776906
 30
0.0
 10
35.862938
 20
30.800756
 30
0.0
 10
35.834588
 20
30.824376
 30
0.0
 10
35.806198
 20
30.847776
 30
0.0
  0
SPLINE
  5
165
100
AcDbEntity
  8
BASE
 62
7
100
AcDbSpline
 70
8
 71
3
 72
8
 73
4
 74
0
 40
0
 40
0
 40
0
 40
0
 40
1
 40
1
 40
1
 40
1
 10
35.806198
 20
30.847776
 30
0.0
 10
35.777808
 20
30.871166
 30
0.0
 10
35.749388
 20
30.894336
 30
0.0
 10
35.720948
 20
30.917256
 30
0.0
  0
SPLINE
  5
166
100
AcDbEntity
  8
BASE
 62
7
100
AcDbSpline
 70
8
 71
3
 72
8
 73
4
 74
0
 40
0
 40
0
 40
0
 40
0
 40
1
 40
1
 40
1
 40
1
 10
35.720948
 20
30.917256
 30
0.0
 10
35.692508
 20
30.940186
 30
0.0
 10
35.664048
 20
30.962876
 30
0.0
 10
35.635588
 20
30.985336
 30
0.0
  0
SPLINE
  5
167
100
AcDbEntity
  8
BASE
 62
7
100
AcDbSpline
 70
8
 71
3
 72
8
 73
4
 74
0
 40
0
 40
0
 40
0
 40
0
 40
1
 40
1
 40
1
 40
1
 10
35.635588
 20
30.985336
 30
0.0
 10
35.607128
 20
31.007796
 30
0.0
 10
35.578678
 20
31.030016
 30
0.0
 10
35.550248
 20
31.051996
 30
0.0
  0
SPLINE
  5
168
100
AcDbEntity
  8
BASE
 62
7
100
AcDbSpline
 70
8
 71
3
 72
8
 73
4
 74
0
 40
0
 40
0
 40
0
 40
0
 40
1
 40
1
 40
1
 40
1
 10
35.550248
 20
31.051996
 30
0.0
 10
35.521818
 20
31.073976
 30
0.0
 10
35.493408
 20
31.095716
 30
0.0
 10
35.465048
 20
31.117216
 30
0.0
  0
SPLINE
  5
169
100
AcDbEntity
  8
BASE
 62
7
100
AcDbSpline
 70
8
 71
3
 72
8
 73
4
 74
0
 40
0
 40
0
 40
0
 40
0
 40
1
 40
1
 40
1
 40
1
 10
35.465048
 20
31.117216
 30
0.0
 10
35.436688
 20
31.138716
 30
0.0
 10
35.408368
 20
31.159976
 30
0.0
 10
35.380118
 20
31.180986
 30
0.0
  0
SPLINE
  5
16a
100
AcDbEntity
  8
BASE
 62
7
100
AcDbSpline
 70
8
 71
3
 72
8
 73
4
 74
0
 40
0
 40
0
 40
0
 40
0
 40
1
 40
1
 40
1
 40
1
 10
35.380118
 20
31.180986
 30
0.0
 10
35.351868
 20
31.201996
 30
0.0
 10
35.323678
 20
31.222766
 30
0.0
 10
35.295568
 20
31.243286
 30
0.0
  0
SPLINE
  5
16b
100
AcDbEntity
  8
BASE
 62
7
100
AcDbSpline
 70
8
 71
3
 72
8
 73
4
 74
0
 40
0
 40
0
 40
0
 40
0
 40
1
 40
1
 40
1
 40
1
 10
35.295568
 20
31.243286
 30
0.0
 10
35.267468
 20
31.263806
 30
0.0
 10
35.239448
 20
31.284076
 30
0.0
 10
35.211538
 20
31.304096
 30
0.0
  0
SPLINE
  5
16c
100
AcDbEntity
  8
BASE
 62
7
100
AcDbSpline
 70
8
 71
3
 72
8
 73
4
 74
0
 40
0
 40
0
 40
0
 40
0
 40
1
 40
1
 40
1
 40
1
 10
35.211538
 20
31.304096
 30
0.0
 10
35.183628
 20
31.324116
 30
0.0
 10
35.155818
 20
31.343886
 30
0.0
 10
35.128138
 20
31.363396
 30
0.0
  0
SPLINE
  5
16d
100
AcDbEntity
  8
BASE
 62
7
100
AcDbSpline
 70
8
 71
3
 72
8
 73
4
 74
0
 40
0
 40
0
 40
0
 40
0
 40
1
 40
1
 40
1
 40
1
 10
35.128138
 20
31.363396
 30
0.0
 10
35.100458
 20
31.382906
 30
0.0
 10
35.072908
 20
31.402166
 30
0.0
 10
35.045498
 20
31.421166
 30
0.0
  0
SPLINE
  5
16e
100
AcDbEntity
  8
BASE
 62
7
100
AcDbSpline
 70
8
 71
3
 72
8
 73
4
 74
0
 40
0
 40
0
 40
0
 40
0
 40
1
 40
1
 40
1
 40
1
 10
35.045498
 20
31.421166
 30
0.0
 10
35.018088
 20
31.440166
 30
0.0
 10
34.990838
 20
31.458916
 30
0.0
 10
34.963738
 20
31.477396
 30
0.0
  0
SPLINE
  5
16f
100
AcDbEntity
  8
BASE
 62
7
100
AcDbSpline
 70
8
 71
3
 72
8
 73
4
 74
0
 40
0
 40
0
 40
0
 40
0
 40
1
 40
1
 40
1
 40
1
 10
34.963738
 20
31.477396
 30
0.0
 10
34.936648
 20
31.495886
 30
0.0
 10
34.909728
 20
31.514106
 30
0.0
 10
34.882988
 20
31.532066
 30
0.0
  0
SPLINE
  5
170
100
AcDbEntity
  8
BASE
 62
7
100
AcDbSpline
 70
8
 71
3
 72
8
 73
4
 74
0
 40
0
 40
0
 40
0
 40
0
 40
1
 40
1
 40
1
 40
1
 10
34.882988
 20
31.532066
 30
0.0
 10
34.856248
 20
31.550026
 30
0.0
 10
34.829708
 20
31.567726
 30
0.0
 10
34.803368
 20
31.585156
 30
0.0
  0
SPLINE
  5
171
100
AcDbEntity
  8
BASE
 62
7
100
AcDbSpline
 70
8
 71
3
 72
8
 73
4
 74
0
 40
0
 40
0
 40
0
 40
0
 40
1
 40
1
 40
1
 40
1
 10
34.803368
 20
31.585156
 30
0.0
 10
34.777038
 20
31.602586
 30
0.0
 10
34.750898
 20
31.619756
 30
0.0
 10
34.725008
 20
31.636646
 30
0.0
  0
SPLINE
  5
172
100
AcDbEntity
  8
BASE
 62
7
100
AcDbSpline
 70
8
 71
3
 72
8
 73
4
 74
0
 40
0
 40
0
 40
0
 40
0
 40
1
 40
1
 40
1
 40
1
 10
34.725008
 20
31.636646
 30
0.0
 10
34.699108
 20
31.653546
 30
0.0
 10
34.673438
 20
31.670176
 30
0.0
 10
34.648018
 20
31.686526
 30
0.0
  0
SPLINE
  5
173
100
AcDbEntity
  8
BASE
 62
7
100
AcDbSpline
 70
8
 71
3
 72
8
 73
4
 74
0
 40
0
 40
0
 40
0
 40
0
 40
1
 40
1
 40
1
 40
1
 10
34.648018
 20
31.686526
 30
0.0
 10
34.605268
 20
31.711066
 30
0.0
 10
34.562468
 20
31.735206
 30
0.0
 10
34.519616
 20
31.758956
 30
0.0
  0
SPLINE
  5
174
100
AcDbEntity
  8
BASE
 62
7
100
AcDbSpline
 70
8
 71
3
 72
8
 73
4
 74
0
 40
0
 40
0
 40
0
 40
0
 40
1
 40
1
 40
1
 40
1
 10
34.519616
 20
31.758956
 30
0.0
 10
34.476756
 20
31.782706
 30
0.0
 10
34.433846
 20
31.806056
 30
0.0
 10
34.390888
 20
31.829016
 30
0.0
  0
SPLINE
  5
175
100
AcDbEntity
  8
BASE
 62
7
100
AcDbSpline
 70
8
 71
3
 72
8
 73
4
 74
0
 40
0
 40
0
 40
0
 40
0
 40
1
 40
1
 40
1
 40
1
 10
34.390888
 20
31.829016
 30
0.0
 10
34.347928
 20
31.851976
 30
0.0
 10
34.304908
 20
31.874556
 30
0.0
 10
34.261846
 20
31.896746
 30
0.0
  0
SPLINE
  5
176
100
AcDbEntity
  8
BASE
 62
7
100
AcDbSpline
 70
8
 71
3
 72
8
 73
4
 74
0
 40
0
 40
0
 40
0
 40
0
 40
1
 40
1
 40
1
 40
1
 10
34.261846
 20
31.896746
 30
0.0
 10
34.218786
 20
31.918936
 30
0.0
 10
34.175666
 20
31.940756
 30
0.0
 10
34.132499
 20
31.962186
 30
0.0
  0
SPLINE
  5
177
100
AcDbEntity
  8
BASE
 62
7
100
AcDbSpline
 70
8
 71
3
 72
8
 73
4
 74
0
 40
0
 40
0
 40
0
 40
0
 40
1
 40
1
 40
1
 40
1
 10
34.132499
 20
31.962186
 30
0.0
 10
34.089329
 20
31.983626
 30
0.0
 10
34.046119
 20
32.004686
 30
0.0
 10
34.002858
 20
32.025376
 30
0.0
  0
SPLINE
  5
178
100
AcDbEntity
  8
BASE
 62
7
100
AcDbSpline
 70
8
 71
3
 72
8
 73
4
 74
0
 40
0
 40
0
 40
0
 40
0
 40
1
 40
1
 40
1
 40
1
 10
34.002858
 20
32.025376
 30
0.0
 10
33.959598
 20
32.046066
 30
0.0
 10
33.916288
 20
32.066396
 30
0.0
 10
33.872932
 20
32.086346
 30
0.0
  0
SPLINE
  5
179
100
AcDbEntity
  8
BASE
 62
7
100
AcDbSpline
 70
8
 71
3
 72
8
 73
4
 74
0
 40
0
 40
0
 40
0
 40
0
 40
1
 40
1
 40
1
 40
1
 10
33.872932
 20
32.086346
 30
0.0
 10
33.829582
 20
32.106306
 30
0.0
 10
33.786182
 20
32.125906
 30
0.0
 10
33.742736
 20
32.145136
 30
0.0
  0
SPLINE
  5
17a
100
AcDbEntity
  8
BASE
 62
7
100
AcDbSpline
 70
8
 71
3
 72
8
 73
4
 74
0
 40
0
 40
0
 40
0
 40
0
 40
1
 40
1
 40
1
 40
1
 10
33.742736
 20
32.145136
 30
0.0
 10
33.699296
 20
32.164376
 30
0.0
 10
33.655806
 20
32.183256
 30
0.0
 10
33.612272
 20
32.201786
 30
0.0
  0
SPLINE
  5
17b
100
AcDbEntity
  8
BASE
 62
7
100
AcDbSpline
 70
8
 71
3
 72
8
 73
4
 74
0
 40
0
 40
0
 40
0
 40
0
 40
1
 40
1
 40
1
 40
1
 10
33.612272
 20
32.201786
 30
0.0
 10
33.568742
 20
32.220316
 30
0.0
 10
33.525172
 20
32.238496
 30
0.0
 10
33.481560
 20
32.256336
 30
0.0
  0
SPLINE
  5
17c
100
AcDbEntity
  8
BASE
 62
7
100
AcDbSpline
 70
8
 71
3
 72
8
 73
4
 74
0
 40
0
 40
0
 40
0
 40
0
 40
1
 40
1
 40
1
 40
1
 10
33.481560
 20
32.256336
 30
0.0
 10
33.437950
 20
32.274176
 30
0.0
 10
33.394300
 20
32.291666
 30
0.0
 10
33.350602
 20
32.308816
 30
0.0
  0
SPLINE
  5
17d
100
AcDbEntity
  8
BASE
 62
7
100
AcDbSpline
 70
8
 71
3
 72
8
 73
4
 74
0
 40
0
 40
0
 40
0
 40
0
 40
1
 40
1
 40
1
 40
1
 10
33.350602
 20
32.308816
 30
0.0
 10
33.306912
 20
32.325966
 30
0.0
 10
33.263182
 20
32.342786
 30
0.0
 10
33.219414
 20
32.359266
 30
0.0
  0
SPLINE
  5
17e
100
AcDbEntity
  8
BASE
 62
7
100
AcDbSpline
 70
8
 71
3
 72
8
 73
4
 74
0
 40
0
 40
0
 40
0
 40
0
 40
1
 40
1
 40
1
 40
1
 10
33.219414
 20
32.359266
 30
0.0
 10
33.175644
 20
32.375746
 30
0.0
 10
33.131844
 20
32.391896
 30
0.0
 10
33.088000
 20
32.407726
 30
0.0
  0
SPLINE
  5
17f
100
AcDbEntity
  8
BASE
 62
7
100
AcDbSpline
 70
8
 71
3
 72
8
 73
4
 74
0
 40
0
 40
0
 40
0
 40
0
 40
1
 40
1
 40
1
 40
1
 10
33.088000
 20
32.407726
 30
0.0
 10
33.044160
 20
32.423546
 30
0.0
 10
33.000280
 20
32.439046
 30
0.0
 10
32.956376
 20
32.454226
 30
0.0
  0
SPLINE
  5
180
100
AcDbEntity
  8
BASE
 62
7
100
AcDbSpline
 70
8
 71
3
 72
8
 73
4
 74
0
 40
0
 40
0
 40
0
 40
0
 40
1
 40
1
 40
1
 40
1
 10
32.956376
 20
32.454226
 30
0.0
 10
32.912466
 20
32.469406
 30
0.0
 10
32.868526
 20
32.484266
 30
0.0
 10
32.824550
 20
32.498806
 30
0.0
  0
SPLINE
  5
181
100
AcDbEntity
  8
BASE
 62
7
100
AcDbSpline
 70
8
 71
3
 72
8
 73
4
 74
0
 40
0
 40
0
 40
0
 40
0
 40
1
 40
1
 40
1
 40
1
 10
32.824550
 20
32.498806
 30
0.0
 10
32.780580
 20
32.513346
 30
0.0
 10
32.736570
 20
32.527576
 30
0.0
 10
32.692530
 20
32.541506
 30
0.0
  0
SPLINE
  5
182
100
AcDbEntity
  8
BASE
 62
7
100
AcDbSpline
 70
8
 71
3
 72
8
 73
4
 74
0
 40
0
 40
0
 40
0
 40
0
 40
1
 40
1
 40
1
 40
1
 10
32.692530
 20
32.541506
 30
0.0
 10
32.648490
 20
32.555426
 30
0.0
 10
32.604430
 20
32.569046
 30
0.0
 10
32.560331
 20
32.582356
 30
0.0
  0
SPLINE
  5
183
100
AcDbEntity
  8
BASE
 62
7
100
AcDbSpline
 70
8
 71
3
 72
8
 73
4
 74
0
 40
0
 40
0
 40
0
 40
0
 40
1
 40
1
 40
1
 40
1
 10
32.560331
 20
32.582356
 30
0.0
 10
32.516231
 20
32.595666
 30
0.0
 10
32.472111
 20
32.608686
 30
0.0
 10
32.427960
 20
32.621396
 30
0.0
  0
SPLINE
  5
184
100
AcDbEntity
  8
BASE
 62
7
100
AcDbSpline
 70
8
 71
3
 72
8
 73
4
 74
0
 40
0
 40
0
 40
0
 40
0
 40
1
 40
1
 40
1
 40
1
 10
32.427960
 20
32.621396
 30
0.0
 10
32.383810
 20
32.634116
 30
0.0
 10
32.339630
 20
32.646536
 30
0.0
 10
32.295425
 20
32.658666
 30
0.0
  0
SPLINE
  5
185
100
AcDbEntity
  8
BASE
 62
7
100
AcDbSpline
 70
8
 71
3
 72
8
 73
4
 74
0
 40
0
 40
0
 40
0
 40
0
 40
1
 40
1
 40
1
 40
1
 10
32.295425
 20
32.658666
 30
0.0
 10
32.251225
 20
32.670796
 30
0.0
 10
32.206995
 20
32.682646
 30
0.0
 10
32.162745
 20
32.694206
 30
0.0
  0
SPLINE
  5
186
100
AcDbEntity
  8
BASE
 62
7
100
AcDbSpline
 70
8
 71
3
 72
8
 73
4
 74
0
 40
0
 40
0
 40
0
 40
0
 40
1
 40
1
 40
1
 40
1
 10
32.162745
 20
32.694206
 30
0.0
 10
32.118495
 20
32.705766
 30
0.0
 10
32.074215
 20
32.717046
 30
0.0
 10
32.029918
 20
32.728046
 30
0.0
  0
SPLINE
  5
187
100
AcDbEntity
  8
BASE
 62
7
100
AcDbSpline
 70
8
 71
3
 72
8
 73
4
 74
0
 40
0
 40
0
 40
0
 40
0
 40
1
 40
1
 40
1
 40
1
 10
32.029918
 20
32.728046
 30
0.0
 10
31.985618
 20
32.739046
 30
0.0
 10
31.941298
 20
32.749776
 30
0.0
 10
31.896963
 20
32.760226
 30
0.0
  0
SPLINE
  5
188
100
AcDbEntity
  8
BASE
 62
7
100
AcDbSpline
 70
8
 71
3
 72
8
 73
4
 74
0
 40
0
 40
0
 40
0
 40
0
 40
1
 40
1
 40
1
 40
1
 10
31.896963
 20
32.760226
 30
0.0
 10
31.852623
 20
32.770686
 30
0.0
 10
31.808263
 20
32.780866
 30
0.0
 10
31.763888
 20
32.790786
 30
0.0
  0
SPLINE
  5
189
100
AcDbEntity
  8
BASE
 62
7
100
AcDbSpline
 70
8
 71
3
 72
8
 73
4
 74
0
 40
0
 40
0
 40
0
 40
0
 40
1
 40
1
 40
1
 40
1
 10
31.763888
 20
32.790786
 30
0.0
 10
31.719508
 20
32.800686
 30
0.0
 10
31.675118
 20
32.810366
 30
0.0
 10
31.630702
 20
32.819756
 30
0.0
  0
SPLINE
  5
18a
100
AcDbEntity
  8
BASE
 62
7
100
AcDbSpline
 70
8
 71
3
 72
8
 73
4
 74
0
 40
0
 40
0
 40
0
 40
0
 40
1
 40
1
 40
1
 40
1
 10
31.630702
 20
32.819756
 30
0.0
 10
31.586292
 20
32.829156
 30
0.0
 10
31.541862
 20
32.838296
 30
0.0
 10
31.497415
 20
32.847186
 30
0.0
  0
SPLINE
  5
18b
100
AcDbEntity
  8
BASE
 62
7
100
AcDbSpline
 70
8
 71
3
 72
8
 73
4
 74
0
 40
0
 40
0
 40
0
 40
0
 40
1
 40
1
 40
1
 40
1
 10
31.497415
 20
32.847186
 30
0.0
 10
31.452975
 20
32.856086
 30
0.0
 10
31.408515
 20
32.864716
 30
0.0
 10
31.364039
 20
32.873106
 30
0.0
  0
SPLINE
  5
18c
100
AcDbEntity
  8
BASE
 62
7
100
AcDbSpline
 70
8
 71
3
 72
8
 73
4
 74
0
 40
0
 40
0
 40
0
 40
0
 40
1
 40
1
 40
1
 40
1
 10
31.364039
 20
32.873106
 30
0.0
 10
31.319569
 20
32.881506
 30
0.0
 10
31.275079
 20
32.889646
 30
0.0
 10
31.230583
 20
32.897546
 30
0.0
  0
SPLINE
  5
18d
100
AcDbEntity
  8
BASE
 62
7
100
AcDbSpline
 70
8
 71
3
 72
8
 73
4
 74
0
 40
0
 40
0
 40
0
 40
0
 40
1
 40
1
 40
1
 40
1
 10
31.230583
 20
32.897546
 30
0.0
 10
31.186083
 20
32.905446
 30
0.0
 10
31.141573
 20
32.913116
 30
0.0
 10
31.097059
 20
32.920556
 30
0.0
  0
SPLINE
  5
18e
100
AcDbEntity
  8
BASE
 62
7
100
AcDbSpline
 70
8
 71
3
 72
8
 73
4
 74
0
 40
0
 40
0
 40
0
 40
0
 40
1
 40
1
 40
1
 40
1
 10
31.097059
 20
32.920556
 30
0.0
 10
31.052539
 20
32.927956
 30
0.0
 10
31.008009
 20
32.935186
 30
0.0
 10
30.963476
 20
32.942156
 30
0.0
  0
SPLINE
  5
18f
100
AcDbEntity
  8
BASE
 62
7
100
AcDbSpline
 70
8
 71
3
 72
8
 73
4
 74
0
 40
0
 40
0
 40
0
 40
0
 40
1
 40
1
 40
1
 40
1
 10
30.963476
 20
32.942156
 30
0.0
 10
30.918936
 20
32.949156
 30
0.0
 10
30.874396
 20
32.955876
 30
0.0
 10
30.829843
 20
32.962396
 30
0.0
  0
SPLINE
  5
190
100
AcDbEntity
  8
BASE
 62
7
100
AcDbSpline
 70
8
 71
3
 72
8
 73
4
 74
0
 40
0
 40
0
 40
0
 40
0
 40
1
 40
1
 40
1
 40
1
 10
30.829843
 20
32.962396
 30
0.0
 10
30.785293
 20
32.968896
 30
0.0
 10
30.740733
 20
32.975226
 30
0.0
 10
30.696170
 20
32.981316
 30
0.0
  0
SPLINE
  5
191
100
AcDbEntity
  8
BASE
 62
7
100
AcDbSpline
 70
8
 71
3
 72
8
 73
4
 74
0
 40
0
 40
0
 40
0
 40
0
 40
1
 40
1
 40
1
 40
1
 10
30.696170
 20
32.981316
 30
0.0
 10
30.651610
 20
32.987416
 30
0.0
 10
30.607040
 20
32.993276
 30
0.0
 10
30.562471
 20
32.998946
 30
0.0
  0
SPLINE
  5
192
100
AcDbEntity
  8
BASE
 62
7
100
AcDbSpline
 70
8
 71
3
 72
8
 73
4
 74
0
 40
0
 40
0
 40
0
 40
0
 40
1
 40
1
 40
1
 40
1
 10
30.562471
 20
32.998946
 30
0.0
 10
30.517901
 20
33.004646
 30
0.0
 10
30.473331
 20
33.010066
 30
0.0
 10
30.428750
 20
33.015326
 30
0.0
  0
SPLINE
  5
193
100
AcDbEntity
  8
BASE
 62
7
100
AcDbSpline
 70
8
 71
3
 72
8
 73
4
 74
0
 40
0
 40
0
 40
0
 40
0
 40
1
 40
1
 40
1
 40
1
 10
30.428750
 20
33.015326
 30
0.0
 10
30.376700
 20
33.019626
 30
0.0
 10
30.324716
 20
33.023326
 30
0.0
 10
30.272805
 20
33.026296
 30
0.0
  0
SPLINE
  5
194
100
AcDbEntity
  8
BASE
 62
7
100
AcDbSpline
 70
8
 71
3
 72
8
 73
4
 74
0
 40
0
 40
0
 40
0
 40
0
 40
1
 40
1
 40
1
 40
1
 10
30.272805
 20
33.026296
 30
0.0
 10
30.220895
 20
33.029296
 30
0.0
 10
30.169051
 20
33.031696
 30
0.0
 10
30.117283
 20
33.033396
 30
0.0
  0
SPLINE
  5
195
100
AcDbEntity
  8
BASE
 62
7
100
AcDbSpline
 70
8
 71
3
 72
8
 73
4
 74
0
 40
0
 40
0
 40
0
 40
0
 40
1
 40
1
 40
1
 40
1
 10
30.117283
 20
33.033396
 30
0.0
 10
30.065513
 20
33.035196
 30
0.0
 10
30.013823
 20
33.036296
 30
0.0
 10
29.962205
 20
33.036796
 30
0.0
  0
SPLINE
  5
196
100
AcDbEntity
  8
BASE
 62
7
100
AcDbSpline
 70
8
 71
3
 72
8
 73
4
 74
0
 40
0
 40
0
 40
0
 40
0
 40
1
 40
1
 40
1
 40
1
 10
29.962205
 20
33.036796
 30
0.0
 10
29.910585
 20
33.037325
 30
0.0
 10
29.859049
 20
33.037273
 30
0.0
 10
29.807588
 20
33.036643
 30
0.0
  0
SPLINE
  5
197
100
AcDbEntity
  8
BASE
 62
7
100
AcDbSpline
 70
8
 71
3
 72
8
 73
4
 74
0
 40
0
 40
0
 40
0
 40
0
 40
1
 40
1
 40
1
 40
1
 10
29.807588
 20
33.036643
 30
0.0
 10
29.756128
 20
33.036008
 30
0.0
 10
29.704747
 20
33.034743
 30
0.0
 10
29.653450
 20
33.033043
 30
0.0
  0
SPLINE
  5
198
100
AcDbEntity
  8
BASE
 62
7
100
AcDbSpline
 70
8
 71
3
 72
8
 73
4
 74
0
 40
0
 40
0
 40
0
 40
0
 40
1
 40
1
 40
1
 40
1
 10
29.653450
 20
33.033043
 30
0.0
 10
29.602150
 20
33.031243
 30
0.0
 10
29.550939
 20
33.028943
 30
0.0
 10
29.499809
 20
33.026043
 30
0.0
  0
SPLINE
  5
199
100
AcDbEntity
  8
BASE
 62
7
100
AcDbSpline
 70
8
 71
3
 72
8
 73
4
 74
0
 40
0
 40
0
 40
0
 40
0
 40
1
 40
1
 40
1
 40
1
 10
29.499809
 20
33.026043
 30
0.0
 10
29.448679
 20
33.023143
 30
0.0
 10
29.397637
 20
33.019743
 30
0.0
 10
29.346681
 20
33.015823
 30
0.0
  0
SPLINE
  5
19a
100
AcDbEntity
  8
BASE
 62
7
100
AcDbSpline
 70
8
 71
3
 72
8
 73
4
 74
0
 40
0
 40
0
 40
0
 40
0
 40
1
 40
1
 40
1
 40
1
 10
29.346681
 20
33.015823
 30
0.0
 10
29.295731
 20
33.011923
 30
0.0
 10
29.244861
 20
33.007423
 30
0.0
 10
29.194088
 20
33.002473
 30
0.0
  0
SPLINE
  5
19b
100
AcDbEntity
  8
BASE
 62
7
100
AcDbSpline
 70
8
 71
3
 72
8
 73
4
 74
0
 40
0
 40
0
 40
0
 40
0
 40
1
 40
1
 40
1
 40
1
 10
29.194088
 20
33.002473
 30
0.0
 10
29.143308
 20
32.997473
 30
0.0
 10
29.092631
 20
32.992053
 30
0.0
 10
29.042042
 20
32.986113
 30
0.0
  0
SPLINE
  5
19c
100
AcDbEntity
  8
BASE
 62
7
100
AcDbSpline
 70
8
 71
3
 72
8
 73
4
 74
0
 40
0
 40
0
 40
0
 40
0
 40
1
 40
1
 40
1
 40
1
 10
29.042042
 20
32.986113
 30
0.0
 10
28.991452
 20
32.980213
 30
0.0
 10
28.940961
 20
32.973743
 30
0.0
 10
28.890563
 20
32.966863
 30
0.0
  0
SPLINE
  5
19d
100
AcDbEntity
  8
BASE
 62
7
100
AcDbSpline
 70
8
 71
3
 72
8
 73
4
 74
0
 40
0
 40
0
 40
0
 40
0
 40
1
 40
1
 40
1
 40
1
 10
28.890563
 20
32.966863
 30
0.0
 10
28.840163
 20
32.959963
 30
0.0
 10
28.789871
 20
32.952633
 30
0.0
 10
28.739674
 20
32.944833
 30
0.0
  0
SPLINE
  5
19e
100
AcDbEntity
  8
BASE
 62
7
100
AcDbSpline
 70
8
 71
3
 72
8
 73
4
 74
0
 40
0
 40
0
 40
0
 40
0
 40
1
 40
1
 40
1
 40
1
 10
28.739674
 20
32.944833
 30
0.0
 10
28.689474
 20
32.937033
 30
0.0
 10
28.639378
 20
32.928803
 30
0.0
 10
28.589385
 20
32.920143
 30
0.0
  0
SPLINE
  5
19f
100
AcDbEntity
  8
BASE
 62
7
100
AcDbSpline
 70
8
 71
3
 72
8
 73
4
 74
0
 40
0
 40
0
 40
0
 40
0
 40
1
 40
1
 40
1
 40
1
 10
28.589385
 20
32.920143
 30
0.0
 10
28.539395
 20
32.911443
 30
0.0
 10
28.489505
 20
32.902403
 30
0.0
 10
28.439716
 20
32.892913
 30
0.0
  0
SPLINE
  5
1a0
100
AcDbEntity
  8
BASE
 62
7
100
AcDbSpline
 70
8
 71
3
 72
8
 73
4
 74
0
 40
0
 40
0
 40
0
 40
0
 40
1
 40
1
 40
1
 40
1
 10
28.439716
 20
32.892913
 30
0.0
 10
28.389936
 20
32.883413
 30
0.0
 10
28.340256
 20
32.873533
 30
0.0
 10
28.290687
 20
32.863253
 30
0.0
  0
SPLINE
  5
1a1
100
AcDbEntity
  8
BASE
 62
7
100
AcDbSpline
 70
8
 71
3
 72
8
 73
4
 74
0
 40
0
 40
0
 40
0
 40
0
 40
1
 40
1
 40
1
 40
1
 10
28.290687
 20
32.863253
 30
0.0
 10
28.241117
 20
32.852973
 30
0.0
 10
28.191657
 20
32.842313
 30
0.0
 10
28.142316
 20
32.831283
 30
0.0
  0
SPLINE
  5
1a2
100
AcDbEntity
  8
BASE
 62
7
100
AcDbSpline
 70
8
 71
3
 72
8
 73
4
 74
0
 40
0
 40
0
 40
0
 40
0
 40
1
 40
1
 40
1
 40
1
 10
28.142316
 20
32.831283
 30
0.0
 10
28.092966
 20
32.820253
 30
0.0
 10
28.043736
 20
32.808853
 30
0.0
 10
27.994618
 20
32.797113
 30
0.0
  0
SPLINE
  5
1a3
100
AcDbEntity
  8
BASE
 62
7
100
AcDbSpline
 70
8
 71
3
 72
8
 73
4
 74
0
 40
0
 40
0
 40
0
 40
0
 40
1
 40
1
 40
1
 40
1
 10
27.994618
 20
32.797113
 30
0.0
 10
27.945498
 20
32.785373
 30
0.0
 10
27.896498
 20
32.773283
 30
0.0
 10
27.847613
 20
32.760863
 30
0.0
  0
SPLINE
  5
1a4
100
AcDbEntity
  8
BASE
 62
7
100
AcDbSpline
 70
8
 71
3
 72
8
 73
4
 74
0
 40
0
 40
0
 40
0
 40
0
 40
1
 40
1
 40
1
 40
1
 10
27.847613
 20
32.760863
 30
0.0
 10
27.798723
 20
32.748443
 30
0.0
 10
27.749963
 20
32.735703
 30
0.0
 10
27.701314
 20
32.722653
 30
0.0
  0
SPLINE
  5
1a5
100
AcDbEntity
  8
BASE
 62
7
100
AcDbSpline
 70
8
 71
3
 72
8
 73
4
 74
0
 40
0
 40
0
 40
0
 40
0
 40
1
 40
1
 40
1
 40
1
 10
27.701314
 20
32.722653
 30
0.0
 10
27.652664
 20
32.709603
 30
0.0
 10
27.604144
 20
32.696243
 30
0.0
 10
27.555746
 20
32.682593
 30
0.0
  0
SPLINE
  5
1a6
100
AcDbEntity
  8
BASE
 62
7
100
AcDbSpline
 70
8
 71
3
 72
8
 73
4
 74
0
 40
0
 40
0
 40
0
 40
0
 40
1
 40
1
 40
1
 40
1
 10
27.555746
 20
32.682593
 30
0.0
 10
27.507346
 20
32.668943
 30
0.0
 10
27.459076
 20
32.655013
 30
0.0
 10
27.410923
 20
32.640803
 30
0.0
  0
SPLINE
  5
1a7
100
AcDbEntity
  8
BASE
 62
7
100
AcDbSpline
 70
8
 71
3
 72
8
 73
4
 74
0
 40
0
 40
0
 40
0
 40
0
 40
1
 40
1
 40
1
 40
1
 10
27.410923
 20
32.640803
 30
0.0
 10
27.362773
 20
32.626593
 30
0.0
 10
27.314753
 20
32.612123
 30
0.0
 10
27.266860
 20
32.597393
 30
0.0
  0
SPLINE
  5
1a8
100
AcDbEntity
  8
BASE
 62
7
100
AcDbSpline
 70
8
 71
3
 72
8
 73
4
 74
0
 40
0
 40
0
 40
0
 40
0
 40
1
 40
1
 40
1
 40
1
 10
27.266860
 20
32.597393
 30
0.0
 10
27.218970
 20
32.582673
 30
0.0
 10
27.171210
 20
32.567693
 30
0.0
 10
27.123583
 20
32.552493
 30
0.0
  0
SPLINE
  5
1a9
100
AcDbEntity
  8
BASE
 62
7
100
AcDbSpline
 70
8
 71
3
 72
8
 73
4
 74
0
 40
0
 40
0
 40
0
 40
0
 40
1
 40
1
 40
1
 40
1
 10
27.123583
 20
32.552493
 30
0.0
 10
27.075953
 20
32.537293
 30
0.0
 10
27.028463
 20
32.521853
 30
0.0
 10
26.981102
 20
32.506203
 30
0.0
  0
SPLINE
  5
1aa
100
AcDbEntity
  8
BASE
 62
7
100
AcDbSpline
 70
8
 71
3
 72
8
 73
4
 74
0
 40
0
 40
0
 40
0
 40
0
 40
1
 40
1
 40
1
 40
1
 10
26.981102
 20
32.506203
 30
0.0
 10
26.933742
 20
32.490553
 30
0.0
 10
26.886522
 20
32.474703
 30
0.0
 10
26.839436
 20
32.458653
 30
0.0
  0
SPLINE
  5
1ab
100
AcDbEntity
  8
BASE
 62
7
100
AcDbSpline
 70
8
 71
3
 72
8
 73
4
 74
0
 40
0
 40
0
 40
0
 40
0
 40
1
 40
1
 40
1
 40
1
 10
26.839436
 20
32.458653
 30
0.0
 10
26.792356
 20
32.442603
 30
0.0
 10
26.745406
 20
32.426363
 30
0.0
 10
26.698607
 20
32.409953
 30
0.0
  0
SPLINE
  5
1ac
100
AcDbEntity
  8
BASE
 62
7
100
AcDbSpline
 70
8
 71
3
 72
8
 73
4
 74
0
 40
0
 40
0
 40
0
 40
0
 40
1
 40
1
 40
1
 40
1
 10
26.698607
 20
32.409953
 30
0.0
 10
26.651807
 20
32.393543
 30
0.0
 10
26.605147
 20
32.376953
 30
0.0
 10
26.558626
 20
32.360213
 30
0.0
  0
SPLINE
  5
1ad
100
AcDbEntity
  8
BASE
 62
7
100
AcDbSpline
 70
8
 71
3
 72
8
 73
4
 74
0
 40
0
 40
0
 40
0
 40
0
 40
1
 40
1
 40
1
 40
1
 10
26.558626
 20
32.360213
 30
0.0
 10
26.512106
 20
32.343473
 30
0.0
 10
26.465736
 20
32.326583
 30
0.0
 10
26.419518
 20
32.309553
 30
0.0
  0
SPLINE
  5
1ae
100
AcDbEntity
  8
BASE
 62
7
100
AcDbSpline
 70
8
 71
3
 72
8
 73
4
 74
0
 40
0
 40
0
 40
0
 40
0
 40
1
 40
1
 40
1
 40
1
 10
26.419518
 20
32.309553
 30
0.0
 10
26.373298
 20
32.292523
 30
0.0
 10
26.327218
 20
32.275363
 30
0.0
 10
26.281297
 20
32.258093
 30
0.0
  0
SPLINE
  5
1af
100
AcDbEntity
  8
BASE
 62
7
100
AcDbSpline
 70
8
 71
3
 72
8
 73
4
 74
0
 40
0
 40
0
 40
0
 40
0
 40
1
 40
1
 40
1
 40
1
 10
26.281297
 20
32.258093
 30
0.0
 10
26.235377
 20
32.240823
 30
0.0
 10
26.189597
 20
32.223433
 30
0.0
 10
26.143980
 20
32.205943
 30
0.0
  0
SPLINE
  5
1b0
100
AcDbEntity
  8
BASE
 62
7
100
AcDbSpline
 70
8
 71
3
 72
8
 73
4
 74
0
 40
0
 40
0
 40
0
 40
0
 40
1
 40
1
 40
1
 40
1
 10
26.143980
 20
32.205943
 30
0.0
 10
26.098360
 20
32.188463
 30
0.0
 10
26.052900
 20
32.170883
 30
0.0
 10
26.007587
 20
32.153233
 30
0.0
  0
SPLINE
  5
1b1
100
AcDbEntity
  8
BASE
 62
7
100
AcDbSpline
 70
8
 71
3
 72
8
 73
4
 74
0
 40
0
 40
0
 40
0
 40
0
 40
1
 40
1
 40
1
 40
1
 10
26.007587
 20
32.153233
 30
0.0
 10
25.962277
 20
32.135583
 30
0.0
 10
25.917127
 20
32.117853
 30
0.0
 10
25.872134
 20
32.100063
 30
0.0
  0
SPLINE
  5
1b2
100
AcDbEntity
  8
BASE
 62
7
100
AcDbSpline
 70
8
 71
3
 72
8
 73
4
 74
0
 40
0
 40
0
 40
0
 40
0
 40
1
 40
1
 40
1
 40
1
 10
25.872134
 20
32.100063
 30
0.0
 10
25.827144
 20
32.082283
 30
0.0
 10
25.782314
 20
32.064433
 30
0.0
 10
25.737640
 20
32.046553
 30
0.0
  0
SPLINE
  5
1b3
100
AcDbEntity
  8
BASE
 62
7
100
AcDbSpline
 70
8
 71
3
 72
8
 73
4
 74
0
 40
0
 40
0
 40
0
 40
0
 40
1
 40
1
 40
1
 40
1
 10
25.737640
 20
32.046553
 30
0.0
 10
25.692510
 20
32.023653
 30
0.0
 10
25.647660
 20
32.000443
 30
0.0
 10
25.603098
 20
31.976923
 30
0.0
  0
SPLINE
  5
1b4
100
AcDbEntity
  8
BASE
 62
7
100
AcDbSpline
 70
8
 71
3
 72
8
 73
4
 74
0
 40
0
 40
0
 40
0
 40
0
 40
1
 40
1
 40
1
 40
1
 10
25.603098
 20
31.976923
 30
0.0
 10
25.558538
 20
31.953403
 30
0.0
 10
25.514258
 20
31.929563
 30
0.0
 10
25.470266
 20
31.905413
 30
0.0
  0
SPLINE
  5
1b5
100
AcDbEntity
  8
BASE
 62
7
100
AcDbSpline
 70
8
 71
3
 72
8
 73
4
 74
0
 40
0
 40
0
 40
0
 40
0
 40
1
 40
1
 40
1
 40
1
 10
25.470266
 20
31.905413
 30
0.0
 10
25.426276
 20
31.881263
 30
0.0
 10
25.382556
 20
31.856813
 30
0.0
 10
25.339126
 20
31.832043
 30
0.0
  0
SPLINE
  5
1b6
100
AcDbEntity
  8
BASE
 62
7
100
AcDbSpline
 70
8
 71
3
 72
8
 73
4
 74
0
 40
0
 40
0
 40
0
 40
0
 40
1
 40
1
 40
1
 40
1
 10
25.339126
 20
31.832043
 30
0.0
 10
25.295696
 20
31.807273
 30
0.0
 10
25.252536
 20
31.782203
 30
0.0
 10
25.209662
 20
31.756823
 30
0.0
  0
SPLINE
  5
1b7
100
AcDbEntity
  8
BASE
 62
7
100
AcDbSpline
 70
8
 71
3
 72
8
 73
4
 74
0
 40
0
 40
0
 40
0
 40
0
 40
1
 40
1
 40
1
 40
1
 10
25.209662
 20
31.756823
 30
0.0
 10
25.166782
 20
31.731443
 30
0.0
 10
25.124182
 20
31.705763
 30
0.0
 10
25.081856
 20
31.679773
 30
0.0
  0
SPLINE
  5
1b8
100
AcDbEntity
  8
BASE
 62
7
100
AcDbSpline
 70
8
 71
3
 72
8
 73
4
 74
0
 40
0
 40
0
 40
0
 40
0
 40
1
 40
1
 40
1
 40
1
 10
25.081856
 20
31.679773
 30
0.0
 10
25.039526
 20
31.653783
 30
0.0
 10
24.997476
 20
31.627493
 30
0.0
 10
24.955693
 20
31.600903
 30
0.0
  0
SPLINE
  5
1b9
100
AcDbEntity
  8
BASE
 62
7
100
AcDbSpline
 70
8
 71
3
 72
8
 73
4
 74
0
 40
0
 40
0
 40
0
 40
0
 40
1
 40
1
 40
1
 40
1
 10
24.955693
 20
31.600903
 30
0.0
 10
24.913913
 20
31.574313
 30
0.0
 10
24.872403
 20
31.547413
 30
0.0
 10
24.831155
 20
31.520223
 30
0.0
  0
SPLINE
  5
1ba
100
AcDbEntity
  8
BASE
 62
7
100
AcDbSpline
 70
8
 71
3
 72
8
 73
4
 74
0
 40
0
 40
0
 40
0
 40
0
 40
1
 40
1
 40
1
 40
1
 10
24.831155
 20
31.520223
 30
0.0
 10
24.789915
 20
31.493033
 30
0.0
 10
24.748935
 20
31.465533
 30
0.0
 10
24.708225
 20
31.437743
 30
0.0
  0
SPLINE
  5
1bb
100
AcDbEntity
  8
BASE
 62
7
100
AcDbSpline
 70
8
 71
3
 72
8
 73
4
 74
0
 40
0
 40
0
 40
0
 40
0
 40
1
 40
1
 40
1
 40
1
 10
24.708225
 20
31.437743
 30
0.0
 10
24.667515
 20
31.409953
 30
0.0
 10
24.627065
 20
31.381863
 30
0.0
 10
24.586886
 20
31.353483
 30
0.0
  0
SPLINE
  5
1bc
100
AcDbEntity
  8
BASE
 62
7
100
AcDbSpline
 70
8
 71
3
 72
8
 73
4
 74
0
 40
0
 40
0
 40
0
 40
0
 40
1
 40
1
 40
1
 40
1
 10
24.586886
 20
31.353483
 30
0.0
 10
24.546706
 20
31.325103
 30
0.0
 10
24.506786
 20
31.296423
 30
0.0
 10
24.467121
 20
31.267453
 30
0.0
  0
SPLINE
  5
1bd
100
AcDbEntity
  8
BASE
 62
7
100
AcDbSpline
 70
8
 71
3
 72
8
 73
4
 74
0
 40
0
 40
0
 40
0
 40
0
 40
1
 40
1
 40
1
 40
1
 10
24.467121
 20
31.267453
 30
0.0
 10
24.427461
 20
31.238483
 30
0.0
 10
24.388061
 20
31.209223
 30
0.0
 10
24.348914
 20
31.179663
 30
0.0
  0
SPLINE
  5
1be
100
AcDbEntity
  8
BASE
 62
7
100
AcDbSpline
 70
8
 71
3
 72
8
 73
4
 74
0
 40
0
 40
0
 40
0
 40
0
 40
1
 40
1
 40
1
 40
1
 10
24.348914
 20
31.179663
 30
0.0
 10
24.309764
 20
31.150113
 30
0.0
 10
24.270884
 20
31.120263
 30
0.0
 10
24.232247
 20
31.090133
 30
0.0
  0
SPLINE
  5
1bf
100
AcDbEntity
  8
BASE
 62
7
100
AcDbSpline
 70
8
 71
3
 72
8
 73
4
 74
0
 40
0
 40
0
 40
0
 40
0
 40
1
 40
1
 40
1
 40
1
 10
24.232247
 20
31.090133
 30
0.0
 10
24.193617
 20
31.060003
 30
0.0
 10
24.155227
 20
31.029583
 30
0.0
 10
24.117103
 20
30.998873
 30
0.0
  0
SPLINE
  5
1c0
100
AcDbEntity
  8
BASE
 62
7
100
AcDbSpline
 70
8
 71
3
 72
8
 73
4
 74
0
 40
0
 40
0
 40
0
 40
0
 40
1
 40
1
 40
1
 40
1
 10
24.117103
 20
30.998873
 30
0.0
 10
24.078973
 20
30.968163
 30
0.0
 10
24.041093
 20
30.937173
 30
0.0
 10
24.003467
 20
30.905893
 30
0.0
  0
SPLINE
  5
1c1
100
AcDbEntity
  8
BASE
 62
7
100
AcDbSpline
 70
8
 71
3
 72
8
 73
4
 74
0
 40
0
 40
0
 40
0
 40
0
 40
1
 40
1
 40
1
 40
1
 10
24.003467
 20
30.905893
 30
0.0
 10
23.965837
 20
30.874613
 30
0.0
 10
23.928457
 20
30.843053
 30
0.0
 10
23.891320
 20
30.811213
 30
0.0
  0
SPLINE
  5
1c2
100
AcDbEntity
  8
BASE
 62
7
100
AcDbSpline
 70
8
 71
3
 72
8
 73
4
 74
0
 40
0
 40
0
 40
0
 40
0
 40
1
 40
1
 40
1
 40
1
 10
23.891320
 20
30.811213
 30
0.0
 10
23.854180
 20
30.779373
 30
0.0
 10
23.817290
 20
30.747243
 30
0.0
 10
23.780646
 20
30.714843
 30
0.0
  0
SPLINE
  5
1c3
100
AcDbEntity
  8
BASE
 62
7
100
AcDbSpline
 70
8
 71
3
 72
8
 73
4
 74
0
 40
0
 40
0
 40
0
 40
0
 40
1
 40
1
 40
1
 40
1
 10
23.780646
 20
30.714843
 30
0.0
 10
23.743996
 20
30.682443
 30
0.0
 10
23.707596
 20
30.649753
 30
0.0
 10
23.671428
 20
30.616793
 30
0.0
  0
SPLINE
  5
1c4
100
AcDbEntity
  8
BASE
 62
7
100
AcDbSpline
 70
8
 71
3
 72
8
 73
4
 74
0
 40
0
 40
0
 40
0
 40
0
 40
1
 40
1
 40
1
 40
1
 10
23.671428
 20
30.616793
 30
0.0
 10
23.635258
 20
30.583833
 30
0.0
 10
23.599338
 20
30.550593
 30
0.0
 10
23.563649
 20
30.517083
 30
0.0
  0
SPLINE
  5
1c5
100
AcDbEntity
  8
BASE
 62
7
100
AcDbSpline
 70
8
 71
3
 72
8
 73
4
 74
0
 40
0
 40
0
 40
0
 40
0
 40
1
 40
1
 40
1
 40
1
 10
23.563649
 20
30.517083
 30
0.0
 10
23.527959
 20
30.483573
 30
0.0
 10
23.492509
 20
30.449783
 30
0.0
 10
23.457292
 20
30.415721
 30
0.0
  0
SPLINE
  5
1c6
100
AcDbEntity
  8
BASE
 62
7
100
AcDbSpline
 70
8
 71
3
 72
8
 73
4
 74
0
 40
0
 40
0
 40
0
 40
0
 40
1
 40
1
 40
1
 40
1
 10
23.457292
 20
30.415721
 30
0.0
 10
23.422072
 20
30.381661
 30
0.0
 10
23.387092
 20
30.347321
 30
0.0
 10
23.352340
 20
30.312722
 30
0.0
  0
SPLINE
  5
1c7
100
AcDbEntity
  8
BASE
 62
7
100
AcDbSpline
 70
8
 71
3
 72
8
 73
4
 74
0
 40
0
 40
0
 40
0
 40
0
 40
1
 40
1
 40
1
 40
1
 10
23.352340
 20
30.312722
 30
0.0
 10
23.317590
 20
30.278122
 30
0.0
 10
23.283070
 20
30.243242
 30
0.0
 10
23.248777
 20
30.208098
 30
0.0
  0
SPLINE
  5
1c8
100
AcDbEntity
  8
BASE
 62
7
100
AcDbSpline
 70
8
 71
3
 72
8
 73
4
 74
0
 40
0
 40
0
 40
0
 40
0
 40
1
 40
1
 40
1
 40
1
 10
23.248777
 20
30.208098
 30
0.0
 10
23.214487
 20
30.172958
 30
0.0
 10
23.180417
 20
30.137548
 30
0.0
 10
23.146585
 20
30.101864
 30
0.0
  0
SPLINE
  5
1c9
100
AcDbEntity
  8
BASE
 62
7
100
AcDbSpline
 70
8
 71
3
 72
8
 73
4
 74
0
 40
0
 40
0
 40
0
 40
0
 40
1
 40
1
 40
1
 40
1
 10
23.146585
 20
30.101864
 30
0.0
 10
23.112745
 20
30.066184
 30
0.0
 10
23.079135
 20
30.030244
 30
0.0
 10
23.045747
 20
29.994032
 30
0.0
  0
SPLINE
  5
1ca
100
AcDbEntity
  8
BASE
 62
7
100
AcDbSpline
 70
8
 71
3
 72
8
 73
4
 74
0
 40
0
 40
0
 40
0
 40
0
 40
1
 40
1
 40
1
 40
1
 10
23.045747
 20
29.994032
 30
0.0
 10
23.012357
 20
29.957822
 30
0.0
 10
22.979197
 20
29.921352
 30
0.0
 10
22.946247
 20
29.884616
 30
0.0
  0
SPLINE
  5
1cb
100
AcDbEntity
  8
BASE
 62
7
100
AcDbSpline
 70
8
 71
3
 72
8
 73
4
 74
0
 40
0
 40
0
 40
0
 40
0
 40
1
 40
1
 40
1
 40
1
 10
22.946247
 20
29.884616
 30
0.0
 10
22.913297
 20
29.847876
 30
0.0
 10
22.880577
 20
29.810886
 30
0.0
 10
22.848067
 20
29.773628
 30
0.0
  0
SPLINE
  5
1cc
100
AcDbEntity
  8
BASE
 62
7
100
AcDbSpline
 70
8
 71
3
 72
8
 73
4
 74
0
 40
0
 40
0
 40
0
 40
0
 40
1
 40
1
 40
1
 40
1
 10
22.848067
 20
29.773628
 30
0.0
 10
22.815557
 20
29.736368
 30
0.0
 10
22.783267
 20
29.698858
 30
0.0
 10
22.751187
 20
29.661082
 30
0.0
  0
SPLINE
  5
1cd
100
AcDbEntity
  8
BASE
 62
7
100
AcDbSpline
 70
8
 71
3
 72
8
 73
4
 74
0
 40
0
 40
0
 40
0
 40
0
 40
1
 40
1
 40
1
 40
1
 10
22.751187
 20
29.661082
 30
0.0
 10
22.719107
 20
29.623312
 30
0.0
 10
22.687247
 20
29.585282
 30
0.0
 10
22.655597
 20
29.546991
 30
0.0
  0
SPLINE
  5
1ce
100
AcDbEntity
  8
BASE
 62
7
100
AcDbSpline
 70
8
 71
3
 72
8
 73
4
 74
0
 40
0
 40
0
 40
0
 40
0
 40
1
 40
1
 40
1
 40
1
 10
22.655597
 20
29.546991
 30
0.0
 10
22.623947
 20
29.508701
 30
0.0
 10
22.592507
 20
29.470161
 30
0.0
 10
22.561277
 20
29.431369
 30
0.0
  0
SPLINE
  5
1cf
100
AcDbEntity
  8
BASE
 62
7
100
AcDbSpline
 70
8
 71
3
 72
8
 73
4
 74
0
 40
0
 40
0
 40
0
 40
0
 40
1
 40
1
 40
1
 40
1
 10
22.561277
 20
29.431369
 30
0.0
 10
22.530047
 20
29.392569
 30
0.0
 10
22.499027
 20
29.353529
 30
0.0
 10
22.468207
 20
29.314228
 30
0.0
  0
SPLINE
  5
1d0
100
AcDbEntity
  8
BASE
 62
7
100
AcDbSpline
 70
8
 71
3
 72
8
 73
4
 74
0
 40
0
 40
0
 40
0
 40
0
 40
1
 40
1
 40
1
 40
1
 10
22.468207
 20
29.314228
 30
0.0
 10
22.437387
 20
29.274928
 30
0.0
 10
22.406787
 20
29.235378
 30
0.0
 10
22.376377
 20
29.195582
 30
0.0
  0
SPLINE
  5
1d1
100
AcDbEntity
  8
BASE
 62
7
100
AcDbSpline
 70
8
 71
3
 72
8
 73
4
 74
0
 40
0
 40
0
 40
0
 40
0
 40
1
 40
1
 40
1
 40
1
 10
22.376377
 20
29.195582
 30
0.0
 10
22.345967
 20
29.155782
 30
0.0
 10
22.315767
 20
29.115732
 30
0.0
 10
22.285767
 20
29.075444
 30
0.0
  0
SPLINE
  5
1d2
100
AcDbEntity
  8
BASE
 62
7
100
AcDbSpline
 70
8
 71
3
 72
8
 73
4
 74
0
 40
0
 40
0
 40
0
 40
0
 40
1
 40
1
 40
1
 40
1
 10
22.285767
 20
29.075444
 30
0.0
 10
22.255767
 20
29.035154
 30
0.0
 10
22.225967
 20
28.994614
 30
0.0
 10
22.196357
 20
28.953827
 30
0.0
  0
SPLINE
  5
1d3
100
AcDbEntity
  8
BASE
 62
7
100
AcDbSpline
 70
8
 71
3
 72
8
 73
4
 74
0
 40
0
 40
0
 40
0
 40
0
 40
1
 40
1
 40
1
 40
1
 10
22.196357
 20
28.953827
 30
0.0
 10
22.177457
 20
28.923637
 30
0.0
 10
22.158627
 20
28.893437
 30
0.0
 10
22.139887
 20
28.863227
 30
0.0
  0
SPLINE
  5
1d4
100
AcDbEntity
  8
BASE
 62
7
100
AcDbSpline
 70
8
 71
3
 72
8
 73
4
 74
0
 40
0
 40
0
 40
0
 40
0
 40
1
 40
1
 40
1
 40
1
 10
22.139887
 20
28.863227
 30
0.0
 10
22.121147
 20
28.833017
 30
0.0
 10
22.102497
 20
28.802787
 30
0.0
 10
22.083937
 20
28.772547
 30
0.0
  0
SPLINE
  5
1d5
100
AcDbEntity
  8
BASE
 62
7
100
AcDbSpline
 70
8
 71
3
 72
8
 73
4
 74
0
 40
0
 40
0
 40
0
 40
0
 40
1
 40
1
 40
1
 40
1
 10
22.083937
 20
28.772547
 30
0.0
 10
22.065377
 20
28.742307
 30
0.0
 10
22.046917
 20
28.712037
 30
0.0
 10
22.028547
 20
28.681757
 30
0.0
  0
SPLINE
  5
1d6
100
AcDbEntity
  8
BASE
 62
7
100
AcDbSpline
 70
8
 71
3
 72
8
 73
4
 74
0
 40
0
 40
0
 40
0
 40
0
 40
1
 40
1
 40
1
 40
1
 10
22.028547
 20
28.681757
 30
0.0
 10
22.010187
 20
28.651467
 30
0.0
 10
21.991917
 20
28.621157
 30
0.0
 10
21.973767
 20
28.590817
 30
0.0
  0
SPLINE
  5
1d7
100
AcDbEntity
  8
BASE
 62
7
100
AcDbSpline
 70
8
 71
3
 72
8
 73
4
 74
0
 40
0
 40
0
 40
0
 40
0
 40
1
 40
1
 40
1
 40
1
 10
21.973767
 20
28.590817
 30
0.0
 10
21.955607
 20
28.560477
 30
0.0
 10
21.937567
 20
28.530107
 30
0.0
 10
21.919627
 20
28.499697
 30
0.0
  0
SPLINE
  5
1d8
100
AcDbEntity
  8
BASE
 62
7
100
AcDbSpline
 70
8
 71
3
 72
8
 73
4
 74
0
 40
0
 40
0
 40
0
 40
0
 40
1
 40
1
 40
1
 40
1
 10
21.919627
 20
28.499697
 30
0.0
 10
21.901697
 20
28.469287
 30
0.0
 10
21.883877
 20
28.438847
 30
0.0
 10
21.866177
 20
28.408357
 30
0.0
  0
SPLINE
  5
1d9
100
AcDbEntity
  8
BASE
 62
7
100
AcDbSpline
 70
8
 71
3
 72
8
 73
4
 74
0
 40
0
 40
0
 40
0
 40
0
 40
1
 40
1
 40
1
 40
1
 10
21.866177
 20
28.408357
 30
0.0
 10
21.848487
 20
28.377867
 30
0.0
 10
21.830907
 20
28.347347
 30
0.0
 10
21.813467
 20
28.316767
 30
0.0
  0
SPLINE
  5
1da
100
AcDbEntity
  8
BASE
 62
7
100
AcDbSpline
 70
8
 71
3
 72
8
 73
4
 74
0
 40
0
 40
0
 40
0
 40
0
 40
1
 40
1
 40
1
 40
1
 10
21.813467
 20
28.316767
 30
0.0
 10
21.796027
 20
28.286197
 30
0.0
 10
21.778707
 20
28.255567
 30
0.0
 10
21.761537
 20
28.224897
 30
0.0
  0
SPLINE
  5
1db
100
AcDbEntity
  8
BASE
 62
7
100
AcDbSpline
 70
8
 71
3
 72
8
 73
4
 74
0
 40
0
 40
0
 40
0
 40
0
 40
1
 40
1
 40
1
 40
1
 10
21.761537
 20
28.224897
 30
0.0
 10
21.744357
 20
28.194227
 30
0.0
 10
21.727327
 20
28.163497
 30
0.0
 10
21.710427
 20
28.132707
 30
0.0
  0
SPLINE
  5
1dc
100
AcDbEntity
  8
BASE
 62
7
100
AcDbSpline
 70
8
 71
3
 72
8
 73
4
 74
0
 40
0
 40
0
 40
0
 40
0
 40
1
 40
1
 40
1
 40
1
 10
21.710427
 20
28.132707
 30
0.0
 10
21.693537
 20
28.101917
 30
0.0
 10
21.676787
 20
28.071077
 30
0.0
 10
21.660187
 20
28.040157
 30
0.0
  0
SPLINE
  5
1dd
100
AcDbEntity
  8
BASE
 62
7
100
AcDbSpline
 70
8
 71
3
 72
8
 73
4
 74
0
 40
0
 40
0
 40
0
 40
0
 40
1
 40
1
 40
1
 40
1
 10
21.660187
 20
28.040157
 30
0.0
 10
21.643587
 20
28.009247
 30
0.0
 10
21.627137
 20
27.978267
 30
0.0
 10
21.610857
 20
27.947227
 30
0.0
  0
SPLINE
  5
1de
100
AcDbEntity
  8
BASE
 62
7
100
AcDbSpline
 70
8
 71
3
 72
8
 73
4
 74
0
 40
0
 40
0
 40
0
 40
0
 40
1
 40
1
 40
1
 40
1
 10
21.610857
 20
27.947227
 30
0.0
 10
21.594567
 20
27.916177
 30
0.0
 10
21.578437
 20
27.885067
 30
0.0
 10
21.562477
 20
27.853877
 30
0.0
  0
SPLINE
  5
1df
100
AcDbEntity
  8
BASE
 62
7
100
AcDbSpline
 70
8
 71
3
 72
8
 73
4
 74
0
 40
0
 40
0
 40
0
 40
0
 40
1
 40
1
 40
1
 40
1
 10
21.562477
 20
27.853877
 30
0.0
 10
21.546517
 20
27.822687
 30
0.0
 10
21.530717
 20
27.791417
 30
0.0
 10
21.515097
 20
27.760067
 30
0.0
  0
SPLINE
  5
1e0
100
AcDbEntity
  8
BASE
 62
7
100
AcDbSpline
 70
8
 71
3
 72
8
 73
4
 74
0
 40
0
 40
0
 40
0
 40
0
 40
1
 40
1
 40
1
 40
1
 10
21.515097
 20
27.760067
 30
0.0
 10
21.499477
 20
27.728717
 30
0.0
 10
21.484027
 20
27.697287
 30
0.0
 10
21.468757
 20
27.665767
 30
0.0
  0
SPLINE
  5
1e1
100
AcDbEntity
  8
BASE
 62
7
100
AcDbSpline
 70
8
 71
3
 72
8
 73
4
 74
0
 40
0
 40
0
 40
0
 40
0
 40
1
 40
1
 40
1
 40
1
 10
21.468757
 20
27.665767
 30
0.0
 10
21.453487
 20
27.634247
 30
0.0
 10
21.438397
 20
27.602637
 30
0.0
 10
21.423497
 20
27.570937
 30
0.0
  0
SPLINE
  5
1e2
100
AcDbEntity
  8
BASE
 62
7
100
AcDbSpline
 70
8
 71
3
 72
8
 73
4
 74
0
 40
0
 40
0
 40
0
 40
0
 40
1
 40
1
 40
1
 40
1
 10
21.423497
 20
27.570937
 30
0.0
 10
21.408597
 20
27.539237
 30
0.0
 10
21.393887
 20
27.507447
 30
0.0
 10
21.379367
 20
27.475557
 30
0.0
  0
SPLINE
  5
1e3
100
AcDbEntity
  8
BASE
 62
7
100
AcDbSpline
 70
8
 71
3
 72
8
 73
4
 74
0
 40
0
 40
0
 40
0
 40
0
 40
1
 40
1
 40
1
 40
1
 10
21.379367
 20
27.475557
 30
0.0
 10
21.364847
 20
27.443667
 30
0.0
 10
21.350527
 20
27.411677
 30
0.0
 10
21.336407
 20
27.379577
 30
0.0
  0
SPLINE
  5
1e4
100
AcDbEntity
  8
BASE
 62
7
100
AcDbSpline
 70
8
 71
3
 72
8
 73
4
 74
0
 40
0
 40
0
 40
0
 40
0
 40
1
 40
1
 40
1
 40
1
 10
21.336407
 20
27.379577
 30
0.0
 10
21.322287
 20
27.347487
 30
0.0
 10
21.308367
 20
27.315287
 30
0.0
 10
21.294667
 20
27.282977
 30
0.0
  0
SPLINE
  5
1e5
100
AcDbEntity
  8
BASE
 62
7
100
AcDbSpline
 70
8
 71
3
 72
8
 73
4
 74
0
 40
0
 40
0
 40
0
 40
0
 40
1
 40
1
 40
1
 40
1
 10
21.294667
 20
27.282977
 30
0.0
 10
21.280957
 20
27.250667
 30
0.0
 10
21.267467
 20
27.218247
 30
0.0
 10
21.254187
 20
27.185707
 30
0.0
  0
SPLINE
  5
1e6
100
AcDbEntity
  8
BASE
 62
7
100
AcDbSpline
 70
8
 71
3
 72
8
 73
4
 74
0
 40
0
 40
0
 40
0
 40
0
 40
1
 40
1
 40
1
 40
1
 10
21.254187
 20
27.185707
 30
0.0
 10
21.240907
 20
27.153167
 30
0.0
 10
21.227847
 20
27.120517
 30
0.0
 10
21.215007
 20
27.087747
 30
0.0
  0
SPLINE
  5
1e7
100
AcDbEntity
  8
BASE
 62
7
100
AcDbSpline
 70
8
 71
3
 72
8
 73
4
 74
0
 40
0
 40
0
 40
0
 40
0
 40
1
 40
1
 40
1
 40
1
 10
21.215007
 20
27.087747
 30
0.0
 10
21.202167
 20
27.054977
 30
0.0
 10
21.189557
 20
27.022077
 30
0.0
 10
21.177167
 20
26.989057
 30
0.0
  0
SPLINE
  5
1e8
100
AcDbEntity
  8
BASE
 62
7
100
AcDbSpline
 70
8
 71
3
 72
8
 73
4
 74
0
 40
0
 40
0
 40
0
 40
0
 40
1
 40
1
 40
1
 40
1
 10
21.177167
 20
26.989057
 30
0.0
 10
21.164787
 20
26.956037
 30
0.0
 10
21.152637
 20
26.922887
 30
0.0
 10
21.140717
 20
26.889607
 30
0.0
  0
SPLINE
  5
1e9
100
AcDbEntity
  8
BASE
 62
7
100
AcDbSpline
 70
8
 71
3
 72
8
 73
4
 74
0
 40
0
 40
0
 40
0
 40
0
 40
1
 40
1
 40
1
 40
1
 10
21.140717
 20
26.889607
 30
0.0
 10
21.128807
 20
26.856327
 30
0.0
 10
21.117127
 20
26.822907
 30
0.0
 10
21.105707
 20
26.789354
 30
0.0
  0
SPLINE
  5
1ea
100
AcDbEntity
  8
BASE
 62
7
100
AcDbSpline
 70
8
 71
3
 72
8
 73
4
 74
0
 40
0
 40
0
 40
0
 40
0
 40
1
 40
1
 40
1
 40
1
 10
21.105707
 20
26.789354
 30
0.0
 10
21.094277
 20
26.755804
 30
0.0
 10
21.083097
 20
26.722104
 30
0.0
 10
21.072167
 20
26.688267
 30
0.0
  0
SPLINE
  5
1eb
100
AcDbEntity
  8
BASE
 62
7
100
AcDbSpline
 70
8
 71
3
 72
8
 73
4
 74
0
 40
0
 40
0
 40
0
 40
0
 40
1
 40
1
 40
1
 40
1
 10
21.072167
 20
26.688267
 30
0.0
 10
21.061237
 20
26.654427
 30
0.0
 10
21.050567
 20
26.620447
 30
0.0
 10
21.040157
 20
26.586316
 30
0.0
  0
SPLINE
  5
1ec
100
AcDbEntity
  8
BASE
 62
7
100
AcDbSpline
 70
8
 71
3
 72
8
 73
4
 74
0
 40
0
 40
0
 40
0
 40
0
 40
1
 40
1
 40
1
 40
1
 10
21.040157
 20
26.586316
 30
0.0
 10
21.029747
 20
26.552186
 30
0.0
 10
21.019587
 20
26.517896
 30
0.0
 10
21.009707
 20
26.483461
 30
0.0
  0
SPLINE
  5
1ed
100
AcDbEntity
  8
BASE
 62
7
100
AcDbSpline
 70
8
 71
3
 72
8
 73
4
 74
0
 40
0
 40
0
 40
0
 40
0
 40
1
 40
1
 40
1
 40
1
 10
21.009707
 20
26.483461
 30
0.0
 10
20.999807
 20
26.449021
 30
0.0
 10
20.990207
 20
26.414431
 30
0.0
 10
20.980867
 20
26.379671
 30
0.0
  0
SPLINE
  5
1ee
100
AcDbEntity
  8
BASE
 62
7
100
AcDbSpline
 70
8
 71
3
 72
8
 73
4
 74
0
 40
0
 40
0
 40
0
 40
0
 40
1
 40
1
 40
1
 40
1
 10
20.980867
 20
26.379671
 30
0.0
 10
20.971567
 20
26.344911
 30
0.0
 10
20.962457
 20
26.310001
 30
0.0
 10
20.953677
 20
26.274912
 30
0.0
  0
SPLINE
  5
1ef
100
AcDbEntity
  8
BASE
 62
7
100
AcDbSpline
 70
8
 71
3
 72
8
 73
4
 74
0
 40
0
 40
0
 40
0
 40
0
 40
1
 40
1
 40
1
 40
1
 10
20.953677
 20
26.274912
 30
0.0
 10
20.944877
 20
26.239822
 30
0.0
 10
20.936397
 20
26.204572
 30
0.0
 10
20.928187
 20
26.169147
 30
0.0
  0
SPLINE
  5
1f0
100
AcDbEntity
  8
BASE
 62
7
100
AcDbSpline
 70
8
 71
3
 72
8
 73
4
 74
0
 40
0
 40
0
 40
0
 40
0
 40
1
 40
1
 40
1
 40
1
 10
20.928187
 20
26.169147
 30
0.0
 10
20.919987
 20
26.133717
 30
0.0
 10
20.912057
 20
26.098127
 30
0.0
 10
20.904427
 20
26.062345
 30
0.0
  0
SPLINE
  5
1f1
100
AcDbEntity
  8
BASE
 62
7
100
AcDbSpline
 70
8
 71
3
 72
8
 73
4
 74
0
 40
0
 40
0
 40
0
 40
0
 40
1
 40
1
 40
1
 40
1
 10
20.904427
 20
26.062345
 30
0.0
 10
20.896827
 20
26.026565
 30
0.0
 10
20.889477
 20
25.990615
 30
0.0
 10
20.882457
 20
25.954472
 30
0.0
  0
SPLINE
  5
1f2
100
AcDbEntity
  8
BASE
 62
7
100
AcDbSpline
 70
8
 71
3
 72
8
 73
4
 74
0
 40
0
 40
0
 40
0
 40
0
 40
1
 40
1
 40
1
 40
1
 10
20.882457
 20
25.954472
 30
0.0
 10
20.875457
 20
25.918332
 30
0.0
 10
20.868717
 20
25.882002
 30
0.0
 10
20.862307
 20
25.845490
 30
0.0
  0
LWPOLYLINE
  5
1f3
100
AcDbEntity
  8
BASE
 62
7
100
AcDbPolyline
 90
321
 70
0
 10
25.520142
 20
27.573479
 30
0.0
 10
25.606822
 20
27.573479
 30
0.0
 10
25.693502
 20
27.573479
 30
0.0
 10
25.780182
 20
27.573479
 30
0.0
 10
25.866862
 20
27.573479
 30
0.0
 10
25.953542
 20
27.573479
 30
0.0
 10
26.040222
 20
27.573479
 30
0.0
 10
26.126902
 20
27.573479
 30
0.0
 10
26.213582
 20
27.573479
 30
0.0
 10
26.300262
 20
27.573479
 30
0.0
 10
26.386942
 20
27.573479
 30
0.0
 10
26.473622
 20
27.573479
 30
0.0
 10
26.560302
 20
27.573479
 30
0.0
 10
26.646982
 20
27.573479
 30
0.0
 10
26.733662
 20
27.573479
 30
0.0
 10
26.820342
 20
27.573479
 30
0.0
 10
26.907022
 20
27.573479
 30
0.0
 10
26.993702
 20
27.573479
 30
0.0
 10
27.080382
 20
27.573479
 30
0.0
 10
27.167062
 20
27.573479
 30
0.0
 10
27.253742
 20
27.573479
 30
0.0
 10
27.340422
 20
27.573479
 30
0.0
 10
27.427102
 20
27.573479
 30
0.0
 10
27.513782
 20
27.573479
 30
0.0
 10
27.600462
 20
27.573479
 30
0.0
 10
27.687142
 20
27.573479
 30
0.0
 10
27.773822
 20
27.573479
 30
0.0
 10
27.860502
 20
27.573479
 30
0.0
 10
27.947182
 20
27.573479
 30
0.0
 10
28.033862
 20
27.573479
 30
0.0
 10
28.120542
 20
27.573479
 30
0.0
 10
28.207222
 20
27.573479
 30
0.0
 10
28.293902
 20
27.573479
 30
0.0
 10
28.293902
 20
27.515729
 30
0.0
 10
28.293902
 20
27.457979
 30
0.0
 10
28.293902
 20
27.400229
 30
0.0
 10
28.293902
 20
27.342479
 30
0.0
 10
28.293902
 20
27.284729
 30
0.0
 10
28.293902
 20
27.226979
 30
0.0
 10
28.293902
 20
27.169229
 30
0.0
 10
28.293902
 20
27.111479
 30
0.0
 10
28.293902
 20
27.053729
 30
0.0
 10
28.293902
 20
26.995979
 30
0.0
 10
28.293902
 20
26.938229
 30
0.0
 10
28.293902
 20
26.880479
 30
0.0
 10
28.293902
 20
26.822729
 30
0.0
 10
28.293902
 20
26.764979
 30
0.0
 10
28.293902
 20
26.707229
 30
0.0
 10
28.293902
 20
26.649479
 30
0.0
 10
28.293902
 20
26.591729
 30
0.0
 10
28.293902
 20
26.533979
 30
0.0
 10
28.293902
 20
26.476229
 30
0.0
 10
28.293902
 20
26.418479
 30
0.0
 10
28.293902
 20
26.360729
 30
0.0
 10
28.293902
 20
26.302979
 30
0.0
 10
28.293902
 20
26.245229
 30
0.0
 10
28.293902
 20
26.187479
 30
0.0
 10
28.293902
 20
26.129729
 30
0.0
 10
28.293902
 20
26.071979
 30
0.0
 10
28.293902
 20
26.014229
 30
0.0
 10
28.293902
 20
25.956479
 30
0.0
 10
28.293902
 20
25.898729
 30
0.0
 10
28.293902
 20
25.840979
 30
0.0
 10
28.293902
 20
25.783229
 30
0.0
 10
28.293902
 20
25.725479
 30
0.0
 10
28.293902
 20
25.687869
 30
0.0
 10
28.293902
 20
25.650259
 30
0.0
 10
28.293902
 20
25.612649
 30
0.0
 10
28.293902
 20
25.575039
 30
0.0
 10
28.293902
 20
25.537429
 30
0.0
 10
28.293902
 20
25.499819
 30
0.0
 10
28.293902
 20
25.462209
 30
0.0
 10
28.293902
 20
25.424599
 30
0.0
 10
28.293902
 20
25.386989
 30
0.0
 10
28.293902
 20
25.349379
 30
0.0
 10
28.293902
 20
25.311769
 30
0.0
 10
28.293902
 20
25.274159
 30
0.0
 10
28.293902
 20
25.236549
 30
0.0
 10
28.293902
 20
25.198939
 30
0.0
 10
28.293902
 20
25.161329
 30
0.0
 10
28.293902
 20
25.123719
 30
0.0
 10
28.293902
 20
25.086109
 30
0.0
 10
28.293902
 20
25.048499
 30
0.0
 10
28.293902
 20
25.010889
 30
0.0
 10
28.293902
 20
24.973279
 30
0.0
 10
28.293902
 20
24.935669
 30
0.0
 10
28.293902
 20
24.898059
 30
0.0
 10
28.293902
 20
24.860449
 30
0.0
 10
28.293902
 20
24.822839
 30
0.0
 10
28.293902
 20
24.785229
 30
0.0
 10
28.293902
 20
24.747619
 30
0.0
 10
28.293902
 20
24.710009
 30
0.0
 10
28.293902
 20
24.672399
 30
0.0
 10
28.293902
 20
24.634789
 30
0.0
 10
28.293902
 20
24.597179
 30
0.0
 10
28.293902
 20
24.559569
 30
0.0
 10
28.293902
 20
24.521959
 30
0.0
 10
28.329712
 20
24.559569
 30
0.0
 10
28.365522
 20
24.597179
 30
0.0
 10
28.401332
 20
24.634789
 30
0.0
 10
28.437142
 20
24.672399
 30
0.0
 10
28.472952
 20
24.710009
 30
0.0
 10
28.508762
 20
24.747619
 30
0.0
 10
28.544572
 20
24.785229
 30
0.0
 10
28.580382
 20
24.822839
 30
0.0
 10
28.616192
 20
24.860449
 30
0.0
 10
28.652002
 20
24.898059
 30
0.0
 10
28.687812
 20
24.935669
 30
0.0
 10
28.723622
 20
24.973279
 30
0.0
 10
28.759432
 20
25.010889
 30
0.0
 10
28.795242
 20
25.048499
 30
0.0
 10
28.831052
 20
25.086109
 30
0.0
 10
28.866862
 20
25.123719
 30
0.0
 10
28.902672
 20
25.161329
 30
0.0
 10
28.938482
 20
25.198939
 30
0.0
 10
28.974292
 20
25.236549
 30
0.0
 10
29.010102
 20
25.274159
 30
0.0
 10
29.045912
 20
25.311769
 30
0.0
 10
29.081722
 20
25.349379
 30
0.0
 10
29.117532
 20
25.386989
 30
0.0
 10
29.153342
 20
25.424599
 30
0.0
 10
29.189152
 20
25.462209
 30
0.0
 10
29.224962
 20
25.499819
 30
0.0
 10
29.260772
 20
25.537429
 30
0.0
 10
29.296582
 20
25.575039
 30
0.0
 10
29.332392
 20
25.612649
 30
0.0
 10
29.368202
 20
25.650259
 30
0.0
 10
29.404012
 20
25.687869
 30
0.0
 10
29.439822
 20
25.725479
 30
0.0
 10
29.494812
 20
25.783229
 30
0.0
 10
29.549802
 20
25.840979
 30
0.0
 10
29.604792
 20
25.898729
 30
0.0
 10
29.659782
 20
25.956479
 30
0.0
 10
29.714772
 20
26.014229
 30
0.0
 10
29.769762
 20
26.071979
 30
0.0
 10
29.824752
 20
26.129729
 30
0.0
 10
29.879742
 20
26.187479
 30
0.0
 10
29.934732
 20
26.245229
 30
0.0
 10
29.989722
 20
26.302979
 30
0.0
 10
30.044712
 20
26.360729
 30
0.0
 10
30.099702
 20
26.418479
 30
0.0
 10
30.154692
 20
26.476229
 30
0.0
 10
30.209682
 20
26.533979
 30
0.0
 10
30.264672
 20
26.591729
 30
0.0
 10
30.319662
 20
26.649479
 30
0.0
 10
30.374652
 20
26.707229
 30
0.0
 10
30.429642
 20
26.764979
 30
0.0
 10
30.484632
 20
26.822729
 30
0.0
 10
30.539622
 20
26.880479
 30
0.0
 10
30.594612
 20
26.938229
 30
0.0
 10
30.649602
 20
26.995979
 30
0.0
 10
30.704592
 20
27.053729
 30
0.0
 10
30.759582
 20
27.111479
 30
0.0
 10
30.814572
 20
27.169229
 30
0.0
 10
30.869562
 20
27.226979
 30
0.0
 10
30.924552
 20
27.284729
 30
0.0
 10
30.979542
 20
27.342479
 30
0.0
 10
31.034532
 20
27.400229
 30
0.0
 10
31.089522
 20
27.457979
 30
0.0
 10
31.144512
 20
27.515729
 30
0.0
 10
31.199502
 20
27.573479
 30
0.0
 10
31.311035
 20
27.573479
 30
0.0
 10
31.422565
 20
27.573479
 30
0.0
 10
31.534094
 20
27.573479
 30
0.0
 10
31.645624
 20
27.573479
 30
0.0
 10
31.757154
 20
27.573479
 30
0.0
 10
31.868684
 20
27.573479
 30
0.0
 10
31.980214
 20
27.573479
 30
0.0
 10
32.091744
 20
27.573479
 30
0.0
 10
32.203273
 20
27.573479
 30
0.0
 10
32.314803
 20
27.573479
 30
0.0
 10
32.426333
 20
27.573479
 30
0.0
 10
32.537863
 20
27.573479
 30
0.0
 10
32.649393
 20
27.573479
 30
0.0
 10
32.760922
 20
27.573479
 30
0.0
 10
32.872455
 20
27.573479
 30
0.0
 10
32.983982
 20
27.573479
 30
0.0
 10
33.095512
 20
27.573479
 30
0.0
 10
33.207042
 20
27.573479
 30
0.0
 10
33.318571
 20
27.573479
 30
0.0
 10
33.430104
 20
27.573479
 30
0.0
 10
33.541634
 20
27.573479
 30
0.0
 10
33.653164
 20
27.573479
 30
0.0
 10
33.764693
 20
27.573479
 30
0.0
 10
33.876223
 20
27.573479
 30
0.0
 10
33.987753
 20
27.573479
 30
0.0
 10
34.099283
 20
27.573479
 30
0.0
 10
34.210813
 20
27.573479
 30
0.0
 10
34.322342
 20
27.573479
 30
0.0
 10
34.433872
 20
27.573479
 30
0.0
 10
34.545402
 20
27.573479
 30
0.0
 10
34.656932
 20
27.573479
 30
0.0
 10
34.768462
 20
27.573479
 30
0.0
 10
34.772262
 20
27.573479
 30
0.0
 10
34.776062
 20
27.573479
 30
0.0
 10
34.779862
 20
27.573479
 30
0.0
 10
34.783662
 20
27.573479
 30
0.0
 10
34.787462
 20
27.573479
 30
0.0
 10
34.791262
 20
27.573479
 30
0.0
 10
34.795062
 20
27.573479
 30
0.0
 10
34.798862
 20
27.573479
 30
0.0
 10
34.802662
 20
27.573479
 30
0.0
 10
34.806462
 20
27.573479
 30
0.0
 10
34.810262
 20
27.573479
 30
0.0
 10
34.814062
 20
27.573479
 30
0.0
 10
34.817862
 20
27.573479
 30
0.0
 10
34.821662
 20
27.573479
 30
0.0
 10
34.825462
 20
27.573479
 30
0.0
 10
34.829262
 20
27.573479
 30
0.0
 10
34.833062
 20
27.573479
 30
0.0
 10
34.836862
 20
27.573479
 30
0.0
 10
34.840662
 20
27.573479
 30
0.0
 10
34.844462
 20
27.573479
 30
0.0
 10
34.848262
 20
27.573479
 30
0.0
 10
34.852062
 20
27.573479
 30
0.0
 10
34.855862
 20
27.573479
 30
0.0
 10
34.859662
 20
27.573479
 30
0.0
 10
34.863462
 20
27.573479
 30
0.0
 10
34.867262
 20
27.573479
 30
0.0
 10
34.871062
 20
27.573479
 30
0.0
 10
34.874862
 20
27.573479
 30
0.0
 10
34.878662
 20
27.573479
 30
0.0
 10
34.882462
 20
27.573479
 30
0.0
 10
34.886262
 20
27.573479
 30
0.0
 10
34.890062
 20
27.573479
 30
0.0
 10
34.828002
 20
27.515729
 30
0.0
 10
34.765942
 20
27.457979
 30
0.0
 10
34.703882
 20
27.400229
 30
0.0
 10
34.641822
 20
27.342479
 30
0.0
 10
34.579762
 20
27.284729
 30
0.0
 10
34.517702
 20
27.226979
 30
0.0
 10
34.455642
 20
27.169229
 30
0.0
 10
34.393582
 20
27.111479
 30
0.0
 10
34.331522
 20
27.053729
 30
0.0
 10
34.269462
 20
26.995979
 30
0.0
 10
34.207402
 20
26.938229
 30
0.0
 10
34.145342
 20
26.880479
 30
0.0
 10
34.083282
 20
26.822729
 30
0.0
 10
34.021222
 20
26.764979
 30
0.0
 10
33.959162
 20
26.707229
 30
0.0
 10
33.897102
 20
26.649479
 30
0.0
 10
33.835042
 20
26.591729
 30
0.0
 10
33.772982
 20
26.533979
 30
0.0
 10
33.710922
 20
26.476229
 30
0.0
 10
33.648862
 20
26.418479
 30
0.0
 10
33.586802
 20
26.360729
 30
0.0
 10
33.524742
 20
26.302979
 30
0.0
 10
33.462682
 20
26.245229
 30
0.0
 10
33.400622
 20
26.187479
 30
0.0
 10
33.338562
 20
26.129729
 30
0.0
 10
33.276502
 20
26.071979
 30
0.0
 10
33.214442
 20
26.014229
 30
0.0
 10
33.152382
 20
25.956479
 30
0.0
 10
33.090322
 20
25.898729
 30
0.0
 10
33.028262
 20
25.840979
 30
0.0
 10
32.966202
 20
25.783229
 30
0.0
 10
32.904142
 20
25.725479
 30
0.0
 10
33.018696
 20
25.725479
 30
0.0
 10
33.133247
 20
25.725479
 30
0.0
 10
33.247798
 20
25.725479
 30
0.0
 10
33.362350
 20
25.725479
 30
0.0
 10
33.476901
 20
25.725479
 30
0.0
 10
33.591452
 20
25.725479
 30
0.0
 10
33.706004
 20
25.725479
 30
0.0
 10
33.820558
 20
25.725479
 30
0.0
 10
33.935109
 20
25.725479
 30
0.0
 10
34.049660
 20
25.725479
 30
0.0
 10
34.164212
 20
25.725479
 30
0.0
 10
34.278763
 20
25.725479
 30
0.0
 10
34.393314
 20
25.725479
 30
0.0
 10
34.507866
 20
25.725479
 30
0.0
 10
34.622417
 20
25.725479
 30
0.0
 10
34.736971
 20
25.725479
 30
0.0
 10
34.851522
 20
25.725479
 30
0.0
 10
34.966074
 20
25.725479
 30
0.0
 10
35.080625
 20
25.725479
 30
0.0
 10
35.195177
 20
25.725479
 30
0.0
 10
35.309728
 20
25.725479
 30
0.0
 10
35.424279
 20
25.725479
 30
0.0
 10
35.538831
 20
25.725479
 30
0.0
 10
35.653385
 20
25.725479
 30
0.0
 10
35.767936
 20
25.725479
 30
0.0
 10
35.882487
 20
25.725479
 30
0.0
 10
35.997039
 20
25.725479
 30
0.0
 10
36.111590
 20
25.725479
 30
0.0
 10
36.226141
 20
25.725479
 30
0.0
 10
36.340693
 20
25.725479
 30
0.0
 10
36.455244
 20
25.725479
 30
0.0
 10
36.569798
 20
25.725479
 30
0.0
 10
36.642258
 20
25.725479
 30
0.0
 10
36.714728
 20
25.725479
 30
0.0
 10
36.787188
 20
25.725479
 30
0.0
 10
36.859658
 20
25.725479
 30
0.0
 10
36.932118
 20
25.725479
 30
0.0
 10
37.004578
 20
25.725479
 30
0.0
 10
37.077048
 20
25.725479
 30
0.0
 10
37.149508
 20
25.725479
 30
0.0
 10
37.221978
 20
25.725479
 30
0.0
 10
37.294438
 20
25.725479
 30
0.0
 10
37.366898
 20
25.725479
 30
0.0
 10
37.439358
 20
25.725479
 30
0.0
 10
37.511818
 20
25.725479
 30
0.0
 10
37.584288
 20
25.725479
 30
0.0
 10
37.656748
 20
25.725479
 30
0.0
 10
37.729218
 20
25.725479
 30
0.0
 10
37.801678
 20
25.725479
 30
0.0
 10
37.874138
 20
25.725479
 30
0.0
 10
37.946608
 20
25.725479
 30
0.0
 10
38.019068
 20
25.725479
 30
0.0
 10
38.091538
 20
25.725479
 30
0.0
 10
38.163998
 20
25.725479
 30
0.0
 10
38.236458
 20
25.725479
 30
0.0
 10
38.308928
 20
25.725479
 30
0.0
 10
38.381388
 20
25.725479
 30
0.0
 10
38.453848
 20
25.725479
 30
0.0
 10
38.526308
 20
25.725479
 30
0.0
 10
38.598768
 20
25.725479
 30
0.0
 10
38.671238
 20
25.725479
 30
0.0
 10
38.743698
 20
25.725479
 30
0.0
 10
38.816168
 20
25.725479
 30
0.0
 10
38.888628
 20
25.725479
 30
0.0
  0
LWPOLYLINE
  5
1f4
100
AcDbEntity
  8
BASE
 62
7
100
AcDbPolyline
 90
129
 70
0
 10
20.862307
 20
25.845490
 30
0.0
 10
20.861566
 20
25.841790
 30
0.0
 10
20.860825
 20
25.838090
 30
0.0
 10
20.860085
 20
25.834390
 30
0.0
 10
20.859344
 20
25.830690
 30
0.0
 10
20.858603
 20
25.826990
 30
0.0
 10
20.857862
 20
25.823290
 30
0.0
 10
20.857121
 20
25.819590
 30
0.0
 10
20.856380
 20
25.815890
 30
0.0
 10
20.855640
 20
25.812190
 30
0.0
 10
20.854899
 20
25.808490
 30
0.0
 10
20.854158
 20
25.804790
 30
0.0
 10
20.853417
 20
25.801090
 30
0.0
 10
20.852676
 20
25.797390
 30
0.0
 10
20.851935
 20
25.793690
 30
0.0
 10
20.851195
 20
25.789990
 30
0.0
 10
20.850454
 20
25.786290
 30
0.0
 10
20.849713
 20
25.782590
 30
0.0
 10
20.848972
 20
25.778890
 30
0.0
 10
20.848231
 20
25.775190
 30
0.0
 10
20.847490
 20
25.771490
 30
0.0
 10
20.846750
 20
25.767790
 30
0.0
 10
20.846009
 20
25.764090
 30
0.0
 10
20.845268
 20
25.760390
 30
0.0
 10
20.844527
 20
25.756690
 30
0.0
 10
20.843786
 20
25.752990
 30
0.0
 10
20.843045
 20
25.749290
 30
0.0
 10
20.842305
 20
25.745590
 30
0.0
 10
20.841564
 20
25.741890
 30
0.0
 10
20.840823
 20
25.738190
 30
0.0
 10
20.840082
 20
25.734490
 30
0.0
 10
20.839341
 20
25.730790
 30
0.0
 10
20.838600
 20
25.727090
 30
0.0
 10
20.838700
 20
25.727090
 30
0.0
 10
20.838800
 20
25.727090
 30
0.0
 10
20.838900
 20
25.727090
 30
0.0
 10
20.839000
 20
25.727090
 30
0.0
 10
20.839100
 20
25.727090
 30
0.0
 10
20.839200
 20
25.727090
 30
0.0
 10
20.839300
 20
25.727090
 30
0.0
 10
20.839400
 20
25.727090
 30
0.0
 10
20.839500
 20
25.727090
 30
0.0
 10
20.839600
 20
25.727090
 30
0.0
 10
20.839701
 20
25.727090
 30
0.0
 10
20.839801
 20
25.727090
 30
0.0
 10
20.839901
 20
25.727090
 30
0.0
 10
20.840001
 20
25.727090
 30
0.0
 10
20.840101
 20
25.727090
 30
0.0
 10
20.840201
 20
25.727090
 30
0.0
 10
20.840301
 20
25.727090
 30
0.0
 10
20.840401
 20
25.727090
 30
0.0
 10
20.840501
 20
25.727090
 30
0.0
 10
20.840601
 20
25.727090
 30
0.0
 10
20.840700
 20
25.727090
 30
0.0
 10
20.840800
 20
25.727090
 30
0.0
 10
20.840900
 20
25.727090
 30
0.0
 10
20.841000
 20
25.727090
 30
0.0
 10
20.841100
 20
25.727090
 30
0.0
 10
20.841200
 20
25.727090
 30
0.0
 10
20.841300
 20
25.727090
 30
0.0
 10
20.841400
 20
25.727090
 30
0.0
 10
20.841500
 20
25.727090
 30
0.0
 10
20.841600
 20
25.727090
 30
0.0
 10
20.841700
 20
25.727090
 30
0.0
 10
20.841801
 20
25.727090
 30
0.0
 10
20.988010
 20
25.727090
 30
0.0
 10
21.134220
 20
25.727090
 30
0.0
 10
21.280429
 20
25.727090
 30
0.0
 10
21.426638
 20
25.727090
 30
0.0
 10
21.572846
 20
25.727090
 30
0.0
 10
21.719056
 20
25.727090
 30
0.0
 10
21.865265
 20
25.727090
 30
0.0
 10
22.011474
 20
25.727090
 30
0.0
 10
22.157683
 20
25.727090
 30
0.0
 10
22.303894
 20
25.727090
 30
0.0
 10
22.450103
 20
25.727090
 30
0.0
 10
22.596312
 20
25.727090
 30
0.0
 10
22.742521
 20
25.727090
 30
0.0
 10
22.888730
 20
25.727090
 30
0.0
 10
23.034939
 20
25.727090
 30
0.0
 10
23.181148
 20
25.727090
 30
0.0
 10
23.327357
 20
25.727090
 30
0.0
 10
23.473568
 20
25.727090
 30
0.0
 10
23.619777
 20
25.727090
 30
0.0
 10
23.765986
 20
25.727090
 30
0.0
 10
23.912195
 20
25.727090
 30
0.0
 10
24.058405
 20
25.727090
 30
0.0
 10
24.204614
 20
25.727090
 30
0.0
 10
24.350822
 20
25.727090
 30
0.0
 10
24.497031
 20
25.727090
 30
0.0
 10
24.643241
 20
25.727090
 30
0.0
 10
24.789451
 20
25.727090
 30
0.0
 10
24.935660
 20
25.727090
 30
0.0
 10
25.081869
 20
25.727090
 30
0.0
 10
25.228079
 20
25.727090
 30
0.0
 10
25.374288
 20
25.727090
 30
0.0
 10
25.520497
 20
25.727090
 30
0.0
 10
25.520515
 20
25.784810
 30
0.0
 10
25.520536
 20
25.842530
 30
0.0
 10
25.520555
 20
25.900250
 30
0.0
 10
25.520574
 20
25.957970
 30
0.0
 10
25.520593
 20
26.015690
 30
0.0
 10
25.520613
 20
26.073410
 30
0.0
 10
25.520632
 20
26.131130
 30
0.0
 10
25.520651
 20
26.188850
 30
0.0
 10
25.520670
 20
26.246570
 30
0.0
 10
25.520690
 20
26.304290
 30
0.0
 10
25.520709
 20
26.362010
 30
0.0
 10
25.520728
 20
26.419730
 30
0.0
 10
25.520747
 20
26.477450
 30
0.0
 10
25.520767
 20
26.535170
 30
0.0
 10
25.520787
 20
26.592890
 30
0.0
 10
25.520805
 20
26.650610
 30
0.0
 10
25.520824
 20
26.708330
 30
0.0
 10
25.520845
 20
26.766050
 30
0.0
 10
25.520864
 20
26.823770
 30
0.0
 10
25.520883
 20
26.881490
 30
0.0
 10
25.520903
 20
26.939210
 30
0.0
 10
25.520922
 20
26.996930
 30
0.0
 10
25.520941
 20
27.054650
 30
0.0
 10
25.520960
 20
27.112370
 30
0.0
 10
25.520980
 20
27.170090
 30
0.0
 10
25.520999
 20
27.227810
 30
0.0
 10
25.521018
 20
27.285530
 30
0.0
 10
25.521037
 20
27.343250
 30
0.0
 10
25.521057
 20
27.400970
 30
0.0
 10
25.521076
 20
27.458690
 30
0.0
 10
25.521096
 20
27.516410
 30
0.0
 10
25.520142
 20
27.573479
 30
0.0
  0
ENDSEC
  0
SECTION
  2
OBJECTS
  0
DICTIONARY
  5
C
330
0
100
AcDbDictionary
  3
ACAD_GROUP
350
D
  3
ACAD_MLINESTYLE
350
17
  0
DICTIONARY
  5
D
330
C
100
AcDbDictionary
  0
DICTIONARY
  5
1A
330
C
100
AcDbDictionary
  0
DICTIONARY
  5
17
330
C
100
AcDbDictionary
  3
STANDARD
350
18
  0
DICTIONARY
  5
19
330
C
100
AcDbDictionary
  0
ENDSEC
  0
EOF
