  0
SECTION
  2
HEADER
  9
$ACADVER
  1
AC1014
  9
$HANDSEED
  5
FFFF
  9
$MEASUREMENT
 70
     1
  0
ENDSEC
  0
SECTION
  2
TABLES
  0
TABLE
  2
VPORT
  5
8
330
0
100
AcDbSymbolTable
 70
     4
  0
VPORT
  5
2E
330
8
100
AcDbSymbolTableRecord
100
AcDbViewportTableRecord
  2
*ACTIVE
 70
     0
 10
0.0
 20
0.0
 11
1.0
 21
1.0
 12
210.0
 22
148.5
 13
0.0
 23
0.0
 14
10.0
 24
10.0
 15
10.0
 25
10.0
 16
0.0
 26
0.0
 36
1.0
 17
0.0
 27
0.0
 37
0.0
 40
341.0
 41
1.24
 42
50.0
 43
0.0
 44
0.0
 50
0.0
 51
0.0
 71
     0
 72
   100
 73
     1
 74
     3
 75
     0
 76
     0
 77
     0
 78
     0
  0
ENDTAB
  0
TABLE
  2
LTYPE
  5
5
330
0
100
AcDbSymbolTable
 70
     1
  0
LTYPE
  5
14
330
5
100
AcDbSymbolTableRecord
100
AcDbLinetypeTableRecord
  2
BYBLOCK
 70
     0
  3

 72
    65
 73
     0
 40
0.0
  0
LTYPE
  5
15
330
5
100
AcDbSymbolTableRecord
100
AcDbLinetypeTableRecord
  2
BYLAYER
 70
     0
  3

 72
    65
 73
     0
 40
0.0
  0
LTYPE
  5
16
330
5
100
AcDbSymbolTableRecord
100
AcDbLinetypeTableRecord
  2
CONTINUOUS
 70
     0
  3
Solid line
 72
    65
 73
     0
 40
0.0
  0
ENDTAB
  0
TABLE
  2
LAYER
  5
2
100
AcDbSymbolTable
 70
3
  0
LAYER
  5
50
100
AcDbSymbolTableRecord
100
AcDbLayerTableRecord
  2
0
 70
0
  6
CONTINUOUS
  0
LAYER
  5
51
100
AcDbSymbolTableRecord
100
AcDbLayerTableRecord
  2
Layer_1
 70
0
  6
CONTINUOUS
  0
LAYER
  5
52
100
AcDbSymbolTableRecord
100
AcDbLayerTableRecord
  2
BASE
 70
0
  6
CONTINUOUS
  0
ENDTAB
  0
TABLE
  2
STYLE
  5
3
330
0
100
AcDbSymbolTable
 70
     1
  0
STYLE
  5
11
330
3
100
AcDbSymbolTableRecord
100
AcDbTextStyleTableRecord
  2
STANDARD
 70
     0
 40
0.0
 41
1.0
 50
0.0
 71
     0
 42
2.5
  3
txt
  4

  0
ENDTAB
  0
TABLE
  2
VIEW
  5
6
330
0
100
AcDbSymbolTable
 70
     0
  0
ENDTAB
  0
TABLE
  2
UCS
  5
7
330
0
100
AcDbSymbolTable
 70
     0
  0
ENDTAB
  0
TABLE
  2
APPID
  5
9
330
0
100
AcDbSymbolTable
 70
     2
  0
APPID
  5
12
330
9
100
AcDbSymbolTableRecord
100
AcDbRegAppTableRecord
  2
ACAD
 70
     0
  0
ENDTAB
  0
TABLE
  2
DIMSTYLE
  5
A
330
0
100
AcDbSymbolTable
 70
     1
  0
DIMSTYLE
105
27
330
A
100
AcDbSymbolTableRecord
100
AcDbDimStyleTableRecord
  2
ISO-25
 70
     0
  3

  4

  5

  6

  7

 40
1.0
 41
2.5
 42
0.625
 43
3.75
 44
1.25
 45
0.0
 46
0.0
 47
0.0
 48
0.0
140
2.5
141
2.5
142
0.0
143
0.03937007874016
144
1.0
145
0.0
146
1.0
147
0.625
 71
     0
 72
     0
 73
     0
 74
     0
 75
     0
 76
     0
 77
     1
 78
     8
170
     0
171
     3
172
     1
173
     0
174
     0
175
     0
176
     0
177
     0
178
     0
270
     2
271
     2
272
     2
273
     2
274
     3
340
11
275
     0
280
     0
281
     0
282
     0
283
     0
284
     8
285
     0
286
     0
287
     3
288
     0
  0
ENDTAB
  0
TABLE
  2
BLOCK_RECORD
  5
1
330
0
100
AcDbSymbolTable
 70
     1
  0
BLOCK_RECORD
  5
1F
330
1
100
AcDbSymbolTableRecord
100
AcDbBlockTableRecord
  2
*MODEL_SPACE
  0
BLOCK_RECORD
  5
1B
330
1
100
AcDbSymbolTableRecord
100
AcDbBlockTableRecord
  2
*PAPER_SPACE
  0
ENDTAB
  0
ENDSEC
  0
SECTION
  2
BLOCKS
  0
BLOCK
  5
20
330
1F
100
AcDbEntity
  8
0
100
AcDbBlockBegin
  2
*MODEL_SPACE
 70
     0
 10
0.0
 20
0.0
 30
0.0
  3
*MODEL_SPACE
  1

  0
ENDBLK
  5
21
330
1F
100
AcDbEntity
  8
0
100
AcDbBlockEnd
  0
BLOCK
  5
1C
330
1B
100
AcDbEntity
 67
     1
  8
0
100
AcDbBlockBegin
  2
*PAPER_SPACE
  1

  0
ENDBLK
  5
1D
330
1B
100
AcDbEntity
 67
     1
  8
0
100
AcDbBlockEnd
  0
ENDSEC
  0
SECTION
  2
ENTITIES
  0
SPLINE
  5
100
100
AcDbEntity
  8
BASE
 62
7
100
AcDbSpline
 70
8
 71
3
 72
8
 73
4
 74
0
 40
0
 40
0
 40
0
 40
0
 40
1
 40
1
 40
1
 40
1
 10
34.489751
 20
15.714078
 30
0.0
 10
34.616894
 20
15.804948
 30
0.0
 10
34.742351
 20
15.897101
 30
0.0
 10
34.865988
 20
15.990624
 30
0.0
  0
SPLINE
  5
101
100
AcDbEntity
  8
BASE
 62
7
100
AcDbSpline
 70
8
 71
3
 72
8
 73
4
 74
0
 40
0
 40
0
 40
0
 40
0
 40
1
 40
1
 40
1
 40
1
 10
34.865988
 20
15.990624
 30
0.0
 10
34.989628
 20
16.084144
 30
0.0
 10
35.111453
 20
16.179041
 30
0.0
 10
35.231333
 20
16.275403
 30
0.0
  0
SPLINE
  5
102
100
AcDbEntity
  8
BASE
 62
7
100
AcDbSpline
 70
8
 71
3
 72
8
 73
4
 74
0
 40
0
 40
0
 40
0
 40
0
 40
1
 40
1
 40
1
 40
1
 10
35.231333
 20
16.275403
 30
0.0
 10
35.351213
 20
16.371763
 30
0.0
 10
35.469148
 20
16.469586
 30
0.0
 10
35.585017
 20
16.568966
 30
0.0
  0
SPLINE
  5
103
100
AcDbEntity
  8
BASE
 62
7
100
AcDbSpline
 70
8
 71
3
 72
8
 73
4
 74
0
 40
0
 40
0
 40
0
 40
0
 40
1
 40
1
 40
1
 40
1
 10
35.585017
 20
16.568966
 30
0.0
 10
35.700884
 20
16.668346
 30
0.0
 10
35.814684
 20
16.769282
 30
0.0
 10
35.926285
 20
16.871863
 30
0.0
  0
SPLINE
  5
104
100
AcDbEntity
  8
BASE
 62
7
100
AcDbSpline
 70
8
 71
3
 72
8
 73
4
 74
0
 40
0
 40
0
 40
0
 40
0
 40
1
 40
1
 40
1
 40
1
 10
35.926285
 20
16.871863
 30
0.0
 10
36.037884
 20
16.974448
 30
0.0
 10
36.147289
 20
17.078680
 30
0.0
 10
36.254371
 20
17.184654
 30
0.0
  0
SPLINE
  5
105
100
AcDbEntity
  8
BASE
 62
7
100
AcDbSpline
 70
8
 71
3
 72
8
 73
4
 74
0
 40
0
 40
0
 40
0
 40
0
 40
1
 40
1
 40
1
 40
1
 10
36.254371
 20
17.184654
 30
0.0
 10
36.361450
 20
17.290627
 30
0.0
 10
36.466207
 20
17.398342
 30
0.0
 10
36.568513
 20
17.507887
 30
0.0
  0
SPLINE
  5
106
100
AcDbEntity
  8
BASE
 62
7
100
AcDbSpline
 70
8
 71
3
 72
8
 73
4
 74
0
 40
0
 40
0
 40
0
 40
0
 40
1
 40
1
 40
1
 40
1
 10
36.568513
 20
17.507887
 30
0.0
 10
36.670820
 20
17.617433
 30
0.0
 10
36.770676
 20
17.728812
 30
0.0
 10
36.867953
 20
17.842114
 30
0.0
  0
SPLINE
  5
107
100
AcDbEntity
  8
BASE
 62
7
100
AcDbSpline
 70
8
 71
3
 72
8
 73
4
 74
0
 40
0
 40
0
 40
0
 40
0
 40
1
 40
1
 40
1
 40
1
 10
36.867953
 20
17.842114
 30
0.0
 10
36.965233
 20
17.955417
 30
0.0
 10
37.059935
 20
18.070643
 30
0.0
 10
37.151930
 20
18.187888
 30
0.0
  0
SPLINE
  5
108
100
AcDbEntity
  8
BASE
 62
7
100
AcDbSpline
 70
8
 71
3
 72
8
 73
4
 74
0
 40
0
 40
0
 40
0
 40
0
 40
1
 40
1
 40
1
 40
1
 10
37.151930
 20
18.187888
 30
0.0
 10
37.243930
 20
18.305130
 30
0.0
 10
37.333220
 20
18.424391
 30
0.0
 10
37.419681
 20
18.545758
 30
0.0
  0
SPLINE
  5
109
100
AcDbEntity
  8
BASE
 62
7
100
AcDbSpline
 70
8
 71
3
 72
8
 73
4
 74
0
 40
0
 40
0
 40
0
 40
0
 40
1
 40
1
 40
1
 40
1
 10
37.419681
 20
18.545758
 30
0.0
 10
37.506141
 20
18.667127
 30
0.0
 10
37.589771
 20
18.790603
 30
0.0
 10
37.670445
 20
18.916280
 30
0.0
  0
SPLINE
  5
10a
100
AcDbEntity
  8
BASE
 62
7
100
AcDbSpline
 70
8
 71
3
 72
8
 73
4
 74
0
 40
0
 40
0
 40
0
 40
0
 40
1
 40
1
 40
1
 40
1
 10
37.670445
 20
18.916280
 30
0.0
 10
37.751115
 20
19.041957
 30
0.0
 10
37.828830
 20
19.169836
 30
0.0
 10
37.903458
 20
19.300008
 30
0.0
  0
SPLINE
  5
10b
100
AcDbEntity
  8
BASE
 62
7
100
AcDbSpline
 70
8
 71
3
 72
8
 73
4
 74
0
 40
0
 40
0
 40
0
 40
0
 40
1
 40
1
 40
1
 40
1
 10
37.903458
 20
19.300008
 30
0.0
 10
37.978088
 20
19.430178
 30
0.0
 10
38.049630
 20
19.562641
 30
0.0
 10
38.117961
 20
19.697489
 30
0.0
  0
SPLINE
  5
10c
100
AcDbEntity
  8
BASE
 62
7
100
AcDbSpline
 70
8
 71
3
 72
8
 73
4
 74
0
 40
0
 40
0
 40
0
 40
0
 40
1
 40
1
 40
1
 40
1
 10
38.117961
 20
19.697489
 30
0.0
 10
38.186291
 20
19.832337
 30
0.0
 10
38.251411
 20
19.969571
 30
0.0
 10
38.313192
 20
20.109279
 30
0.0
  0
SPLINE
  5
10d
100
AcDbEntity
  8
BASE
 62
7
100
AcDbSpline
 70
8
 71
3
 72
8
 73
4
 74
0
 40
0
 40
0
 40
0
 40
0
 40
1
 40
1
 40
1
 40
1
 10
38.313192
 20
20.109279
 30
0.0
 10
38.374972
 20
20.248986
 30
0.0
 10
38.433416
 20
20.391174
 30
0.0
 10
38.488391
 20
20.535930
 30
0.0
  0
SPLINE
  5
10e
100
AcDbEntity
  8
BASE
 62
7
100
AcDbSpline
 70
8
 71
3
 72
8
 73
4
 74
0
 40
0
 40
0
 40
0
 40
0
 40
1
 40
1
 40
1
 40
1
 10
38.488391
 20
20.535930
 30
0.0
 10
38.543371
 20
20.680683
 30
0.0
 10
38.594878
 20
20.828006
 30
0.0
 10
38.642796
 20
20.977990
 30
0.0
  0
SPLINE
  5
10f
100
AcDbEntity
  8
BASE
 62
7
100
AcDbSpline
 70
8
 71
3
 72
8
 73
4
 74
0
 40
0
 40
0
 40
0
 40
0
 40
1
 40
1
 40
1
 40
1
 10
38.642796
 20
20.977990
 30
0.0
 10
38.690716
 20
21.127975
 30
0.0
 10
38.735036
 20
21.280621
 30
0.0
 10
38.775644
 20
21.436018
 30
0.0
  0
LWPOLYLINE
  5
110
100
AcDbEntity
  8
BASE
 62
7
100
AcDbPolyline
 90
37
 70
0
 10
37.196956
 20
4.523954
 30
0.0
 10
37.098496
 20
4.931370
 30
0.0
 10
36.828520
 20
6.047941
 30
0.0
 10
36.568842
 20
7.121572
 30
0.0
 10
35.231831
 20
12.649387
 30
0.0
 10
35.187851
 20
12.831230
 30
0.0
 10
35.143871
 20
13.013073
 30
0.0
 10
35.099891
 20
13.194916
 30
0.0
 10
35.055911
 20
13.376759
 30
0.0
 10
35.011931
 20
13.558602
 30
0.0
 10
34.967951
 20
13.740444
 30
0.0
 10
34.923971
 20
13.922287
 30
0.0
 10
34.879991
 20
14.104133
 30
0.0
 10
34.836011
 20
14.285976
 30
0.0
 10
34.792031
 20
14.467818
 30
0.0
 10
34.748051
 20
14.649661
 30
0.0
 10
34.704071
 20
14.831504
 30
0.0
 10
34.660091
 20
15.013347
 30
0.0
 10
34.616111
 20
15.195192
 30
0.0
 10
34.572131
 20
15.377035
 30
0.0
 10
34.528151
 20
15.558878
 30
0.0
 10
34.525751
 20
15.568578
 30
0.0
 10
34.523351
 20
15.578278
 30
0.0
 10
34.520951
 20
15.587978
 30
0.0
 10
34.518551
 20
15.597678
 30
0.0
 10
34.516151
 20
15.607378
 30
0.0
 10
34.513751
 20
15.617078
 30
0.0
 10
34.511351
 20
15.626778
 30
0.0
 10
34.508951
 20
15.636478
 30
0.0
 10
34.506551
 20
15.646178
 30
0.0
 10
34.504151
 20
15.655878
 30
0.0
 10
34.501751
 20
15.665578
 30
0.0
 10
34.499351
 20
15.675278
 30
0.0
 10
34.496951
 20
15.684978
 30
0.0
 10
34.494551
 20
15.694678
 30
0.0
 10
34.492151
 20
15.704378
 30
0.0
 10
34.489751
 20
15.714078
 30
0.0
  0
SPLINE
  5
111
100
AcDbEntity
  8
BASE
 62
7
100
AcDbSpline
 70
8
 71
3
 72
8
 73
4
 74
0
 40
0
 40
0
 40
0
 40
0
 40
1
 40
1
 40
1
 40
1
 10
20.809945
 20
22.074665
 30
0.0
 10
20.827445
 20
21.966024
 30
0.0
 10
20.847725
 20
21.857725
 30
0.0
 10
20.870615
 20
21.749868
 30
0.0
  0
SPLINE
  5
112
100
AcDbEntity
  8
BASE
 62
7
100
AcDbSpline
 70
8
 71
3
 72
8
 73
4
 74
0
 40
0
 40
0
 40
0
 40
0
 40
1
 40
1
 40
1
 40
1
 10
20.870615
 20
21.749868
 30
0.0
 10
20.893505
 20
21.642010
 30
0.0
 10
20.919005
 20
21.534597
 30
0.0
 10
20.946925
 20
21.427727
 30
0.0
  0
SPLINE
  5
113
100
AcDbEntity
  8
BASE
 62
7
100
AcDbSpline
 70
8
 71
3
 72
8
 73
4
 74
0
 40
0
 40
0
 40
0
 40
0
 40
1
 40
1
 40
1
 40
1
 10
20.946925
 20
21.427727
 30
0.0
 10
20.974855
 20
21.320854
 30
0.0
 10
21.005215
 20
21.214528
 30
0.0
 10
21.037835
 20
21.108846
 30
0.0
  0
SPLINE
  5
114
100
AcDbEntity
  8
BASE
 62
7
100
AcDbSpline
 70
8
 71
3
 72
8
 73
4
 74
0
 40
0
 40
0
 40
0
 40
0
 40
1
 40
1
 40
1
 40
1
 10
21.037835
 20
21.108846
 30
0.0
 10
21.070455
 20
21.003160
 30
0.0
 10
21.105335
 20
20.898124
 30
0.0
 10
21.142289
 20
20.793827
 30
0.0
  0
SPLINE
  5
115
100
AcDbEntity
  8
BASE
 62
7
100
AcDbSpline
 70
8
 71
3
 72
8
 73
4
 74
0
 40
0
 40
0
 40
0
 40
0
 40
1
 40
1
 40
1
 40
1
 10
21.142289
 20
20.793827
 30
0.0
 10
21.179249
 20
20.689534
 30
0.0
 10
21.218289
 20
20.585984
 30
0.0
 10
21.259237
 20
20.483281
 30
0.0
  0
SPLINE
  5
116
100
AcDbEntity
  8
BASE
 62
7
100
AcDbSpline
 70
8
 71
3
 72
8
 73
4
 74
0
 40
0
 40
0
 40
0
 40
0
 40
1
 40
1
 40
1
 40
1
 10
21.259237
 20
20.483281
 30
0.0
 10
21.300187
 20
20.380577
 30
0.0
 10
21.343037
 20
20.278721
 30
0.0
 10
21.387625
 20
20.177809
 30
0.0
  0
SPLINE
  5
117
100
AcDbEntity
  8
BASE
 62
7
100
AcDbSpline
 70
8
 71
3
 72
8
 73
4
 74
0
 40
0
 40
0
 40
0
 40
0
 40
1
 40
1
 40
1
 40
1
 10
21.387625
 20
20.177809
 30
0.0
 10
21.432215
 20
20.076897
 30
0.0
 10
21.478525
 20
19.976932
 30
0.0
 10
21.526401
 20
19.878012
 30
0.0
  0
SPLINE
  5
118
100
AcDbEntity
  8
BASE
 62
7
100
AcDbSpline
 70
8
 71
3
 72
8
 73
4
 74
0
 40
0
 40
0
 40
0
 40
0
 40
1
 40
1
 40
1
 40
1
 10
21.526401
 20
19.878012
 30
0.0
 10
21.574271
 20
19.779092
 30
0.0
 10
21.623701
 20
19.681223
 30
0.0
 10
21.674514
 20
19.584499
 30
0.0
  0
SPLINE
  5
119
100
AcDbEntity
  8
BASE
 62
7
100
AcDbSpline
 70
8
 71
3
 72
8
 73
4
 74
0
 40
0
 40
0
 40
0
 40
0
 40
1
 40
1
 40
1
 40
1
 10
21.674514
 20
19.584499
 30
0.0
 10
21.725324
 20
19.487779
 30
0.0
 10
21.777516
 20
19.392197
 30
0.0
 10
21.830914
 20
19.297871
 30
0.0
  0
SPLINE
  5
11a
100
AcDbEntity
  8
BASE
 62
7
100
AcDbSpline
 70
8
 71
3
 72
8
 73
4
 74
0
 40
0
 40
0
 40
0
 40
0
 40
1
 40
1
 40
1
 40
1
 10
21.830914
 20
19.297871
 30
0.0
 10
21.884314
 20
19.203541
 30
0.0
 10
21.938914
 20
19.110464
 30
0.0
 10
21.994547
 20
19.018735
 30
0.0
  0
SPLINE
  5
11b
100
AcDbEntity
  8
BASE
 62
7
100
AcDbSpline
 70
8
 71
3
 72
8
 73
4
 74
0
 40
0
 40
0
 40
0
 40
0
 40
1
 40
1
 40
1
 40
1
 10
21.994547
 20
19.018735
 30
0.0
 10
22.050177
 20
18.927005
 30
0.0
 10
22.106843
 20
18.836625
 30
0.0
 10
22.164361
 20
18.747693
 30
0.0
  0
SPLINE
  5
11c
100
AcDbEntity
  8
BASE
 62
7
100
AcDbSpline
 70
8
 71
3
 72
8
 73
4
 74
0
 40
0
 40
0
 40
0
 40
0
 40
1
 40
1
 40
1
 40
1
 10
22.164361
 20
18.747693
 30
0.0
 10
22.221881
 20
18.658763
 30
0.0
 10
22.280253
 20
18.571282
 30
0.0
 10
22.339305
 20
18.485354
 30
0.0
  0
SPLINE
  5
11d
100
AcDbEntity
  8
BASE
 62
7
100
AcDbSpline
 70
8
 71
3
 72
8
 73
4
 74
0
 40
0
 40
0
 40
0
 40
0
 40
1
 40
1
 40
1
 40
1
 10
22.339305
 20
18.485354
 30
0.0
 10
22.398355
 20
18.399424
 30
0.0
 10
22.458091
 20
18.315041
 30
0.0
 10
22.518329
 20
18.232314
 30
0.0
  0
SPLINE
  5
11e
100
AcDbEntity
  8
BASE
 62
7
100
AcDbSpline
 70
8
 71
3
 72
8
 73
4
 74
0
 40
0
 40
0
 40
0
 40
0
 40
1
 40
1
 40
1
 40
1
 10
22.518329
 20
18.232314
 30
0.0
 10
22.578569
 20
18.149584
 30
0.0
 10
22.639309
 20
18.068511
 30
0.0
 10
22.700379
 20
17.989186
 30
0.0
  0
SPLINE
  5
11f
100
AcDbEntity
  8
BASE
 62
7
100
AcDbSpline
 70
8
 71
3
 72
8
 73
4
 74
0
 40
0
 40
0
 40
0
 40
0
 40
1
 40
1
 40
1
 40
1
 10
22.700379
 20
17.989186
 30
0.0
 10
22.761449
 20
17.909866
 30
0.0
 10
22.822852
 20
17.832288
 30
0.0
 10
22.884406
 20
17.756567
 30
0.0
  0
SPLINE
  5
120
100
AcDbEntity
  8
BASE
 62
7
100
AcDbSpline
 70
8
 71
3
 72
8
 73
4
 74
0
 40
0
 40
0
 40
0
 40
0
 40
1
 40
1
 40
1
 40
1
 10
22.884406
 20
17.756567
 30
0.0
 10
22.945956
 20
17.680847
 30
0.0
 10
23.007668
 20
17.606982
 30
0.0
 10
23.069354
 20
17.535068
 30
0.0
  0
SPLINE
  5
121
100
AcDbEntity
  8
BASE
 62
7
100
AcDbSpline
 70
8
 71
3
 72
8
 73
4
 74
0
 40
0
 40
0
 40
0
 40
0
 40
1
 40
1
 40
1
 40
1
 10
23.069354
 20
17.535068
 30
0.0
 10
23.103164
 20
17.493808
 30
0.0
 10
23.137594
 20
17.453268
 30
0.0
 10
23.172609
 20
17.413415
 30
0.0
  0
SPLINE
  5
122
100
AcDbEntity
  8
BASE
 62
7
100
AcDbSpline
 70
8
 71
3
 72
8
 73
4
 74
0
 40
0
 40
0
 40
0
 40
0
 40
1
 40
1
 40
1
 40
1
 10
23.172609
 20
17.413415
 30
0.0
 10
23.207619
 20
17.373555
 30
0.0
 10
23.243219
 20
17.334385
 30
0.0
 10
23.279354
 20
17.295851
 30
0.0
  0
SPLINE
  5
123
100
AcDbEntity
  8
BASE
 62
7
100
AcDbSpline
 70
8
 71
3
 72
8
 73
4
 74
0
 40
0
 40
0
 40
0
 40
0
 40
1
 40
1
 40
1
 40
1
 10
23.279354
 20
17.295851
 30
0.0
 10
23.315494
 20
17.257321
 30
0.0
 10
23.352174
 20
17.219421
 30
0.0
 10
23.389366
 20
17.182122
 30
0.0
  0
SPLINE
  5
124
100
AcDbEntity
  8
BASE
 62
7
100
AcDbSpline
 70
8
 71
3
 72
8
 73
4
 74
0
 40
0
 40
0
 40
0
 40
0
 40
1
 40
1
 40
1
 40
1
 10
23.389366
 20
17.182122
 30
0.0
 10
23.426556
 20
17.144822
 30
0.0
 10
23.464256
 20
17.108122
 30
0.0
 10
23.502425
 20
17.071971
 30
0.0
  0
SPLINE
  5
125
100
AcDbEntity
  8
BASE
 62
7
100
AcDbSpline
 70
8
 71
3
 72
8
 73
4
 74
0
 40
0
 40
0
 40
0
 40
0
 40
1
 40
1
 40
1
 40
1
 10
23.502425
 20
17.071971
 30
0.0
 10
23.540595
 20
17.035821
 30
0.0
 10
23.579235
 20
17.000231
 30
0.0
 10
23.618307
 20
16.965145
 30
0.0
  0
SPLINE
  5
126
100
AcDbEntity
  8
BASE
 62
7
100
AcDbSpline
 70
8
 71
3
 72
8
 73
4
 74
0
 40
0
 40
0
 40
0
 40
0
 40
1
 40
1
 40
1
 40
1
 10
23.618307
 20
16.965145
 30
0.0
 10
23.657377
 20
16.930065
 30
0.0
 10
23.696887
 20
16.895495
 30
0.0
 10
23.736790
 20
16.861391
 30
0.0
  0
SPLINE
  5
127
100
AcDbEntity
  8
BASE
 62
7
100
AcDbSpline
 70
8
 71
3
 72
8
 73
4
 74
0
 40
0
 40
0
 40
0
 40
0
 40
1
 40
1
 40
1
 40
1
 10
23.736790
 20
16.861391
 30
0.0
 10
23.776690
 20
16.827291
 30
0.0
 10
23.816990
 20
16.793661
 30
0.0
 10
23.857653
 20
16.760450
 30
0.0
  0
SPLINE
  5
128
100
AcDbEntity
  8
BASE
 62
7
100
AcDbSpline
 70
8
 71
3
 72
8
 73
4
 74
0
 40
0
 40
0
 40
0
 40
0
 40
1
 40
1
 40
1
 40
1
 10
23.857653
 20
16.760450
 30
0.0
 10
23.898313
 20
16.727240
 30
0.0
 10
23.939333
 20
16.694470
 30
0.0
 10
23.980670
 20
16.662070
 30
0.0
  0
SPLINE
  5
129
100
AcDbEntity
  8
BASE
 62
7
100
AcDbSpline
 70
8
 71
3
 72
8
 73
4
 74
0
 40
0
 40
0
 40
0
 40
0
 40
1
 40
1
 40
1
 40
1
 10
23.980670
 20
16.662070
 30
0.0
 10
24.022010
 20
16.629670
 30
0.0
 10
24.063680
 20
16.597660
 30
0.0
 10
24.105624
 20
16.566000
 30
0.0
  0
SPLINE
  5
12a
100
AcDbEntity
  8
BASE
 62
7
100
AcDbSpline
 70
8
 71
3
 72
8
 73
4
 74
0
 40
0
 40
0
 40
0
 40
0
 40
1
 40
1
 40
1
 40
1
 10
24.105624
 20
16.566000
 30
0.0
 10
24.147574
 20
16.534330
 30
0.0
 10
24.189804
 20
16.503000
 30
0.0
 10
24.232288
 20
16.471980
 30
0.0
  0
SPLINE
  5
12b
100
AcDbEntity
  8
BASE
 62
7
100
AcDbSpline
 70
8
 71
3
 72
8
 73
4
 74
0
 40
0
 40
0
 40
0
 40
0
 40
1
 40
1
 40
1
 40
1
 10
24.232288
 20
16.471980
 30
0.0
 10
24.274768
 20
16.440950
 30
0.0
 10
24.317498
 20
16.410220
 30
0.0
 10
24.360441
 20
16.379750
 30
0.0
  0
SPLINE
  5
12c
100
AcDbEntity
  8
BASE
 62
7
100
AcDbSpline
 70
8
 71
3
 72
8
 73
4
 74
0
 40
0
 40
0
 40
0
 40
0
 40
1
 40
1
 40
1
 40
1
 10
24.360441
 20
16.379750
 30
0.0
 10
24.403381
 20
16.349280
 30
0.0
 10
24.446531
 20
16.319060
 30
0.0
 10
24.489862
 20
16.289060
 30
0.0
  0
SPLINE
  5
12d
100
AcDbEntity
  8
BASE
 62
7
100
AcDbSpline
 70
8
 71
3
 72
8
 73
4
 74
0
 40
0
 40
0
 40
0
 40
0
 40
1
 40
1
 40
1
 40
1
 10
24.489862
 20
16.289060
 30
0.0
 10
24.533192
 20
16.259060
 30
0.0
 10
24.576692
 20
16.229280
 30
0.0
 10
24.620327
 20
16.199660
 30
0.0
  0
SPLINE
  5
12e
100
AcDbEntity
  8
BASE
 62
7
100
AcDbSpline
 70
8
 71
3
 72
8
 73
4
 74
0
 40
0
 40
0
 40
0
 40
0
 40
1
 40
1
 40
1
 40
1
 10
24.620327
 20
16.199660
 30
0.0
 10
24.663967
 20
16.170050
 30
0.0
 10
24.707737
 20
16.140600
 30
0.0
 10
24.751614
 20
16.111290
 30
0.0
  0
SPLINE
  5
12f
100
AcDbEntity
  8
BASE
 62
7
100
AcDbSpline
 70
8
 71
3
 72
8
 73
4
 74
0
 40
0
 40
0
 40
0
 40
0
 40
1
 40
1
 40
1
 40
1
 10
24.751614
 20
16.111290
 30
0.0
 10
24.795484
 20
16.081980
 30
0.0
 10
24.839464
 20
16.052800
 30
0.0
 10
24.883500
 20
16.023700
 30
0.0
  0
SPLINE
  5
130
100
AcDbEntity
  8
BASE
 62
7
100
AcDbSpline
 70
8
 71
3
 72
8
 73
4
 74
0
 40
0
 40
0
 40
0
 40
0
 40
1
 40
1
 40
1
 40
1
 10
24.883500
 20
16.023700
 30
0.0
 10
24.927540
 20
15.994600
 30
0.0
 10
24.971640
 20
15.965600
 30
0.0
 10
25.015765
 20
15.936630
 30
0.0
  0
LWPOLYLINE
  5
131
100
AcDbEntity
  8
BASE
 62
7
100
AcDbPolyline
 90
257
 70
0
 10
38.775644
 20
21.436018
 30
0.0
 10
38.785244
 20
21.475908
 30
0.0
 10
38.794844
 20
21.515798
 30
0.0
 10
38.804444
 20
21.555688
 30
0.0
 10
38.814044
 20
21.595578
 30
0.0
 10
38.823644
 20
21.635468
 30
0.0
 10
38.833244
 20
21.675358
 30
0.0
 10
38.842844
 20
21.715248
 30
0.0
 10
38.852444
 20
21.755138
 30
0.0
 10
38.862044
 20
21.795028
 30
0.0
 10
38.871644
 20
21.834918
 30
0.0
 10
38.881244
 20
21.874808
 30
0.0
 10
38.890844
 20
21.914698
 30
0.0
 10
38.900444
 20
21.954588
 30
0.0
 10
38.910044
 20
21.994478
 30
0.0
 10
38.919644
 20
22.034368
 30
0.0
 10
38.929244
 20
22.074258
 30
0.0
 10
38.925744
 20
22.074258
 30
0.0
 10
38.922244
 20
22.074258
 30
0.0
 10
38.918744
 20
22.074258
 30
0.0
 10
38.915244
 20
22.074258
 30
0.0
 10
38.911744
 20
22.074258
 30
0.0
 10
38.908244
 20
22.074258
 30
0.0
 10
38.904744
 20
22.074258
 30
0.0
 10
38.901244
 20
22.074258
 30
0.0
 10
38.897744
 20
22.074258
 30
0.0
 10
38.894244
 20
22.074258
 30
0.0
 10
38.890744
 20
22.074258
 30
0.0
 10
38.887244
 20
22.074258
 30
0.0
 10
38.883744
 20
22.074258
 30
0.0
 10
38.880244
 20
22.074258
 30
0.0
 10
38.876744
 20
22.074258
 30
0.0
 10
38.873244
 20
22.074258
 30
0.0
 10
38.729906
 20
22.074258
 30
0.0
 10
38.585859
 20
22.074258
 30
0.0
 10
38.441811
 20
22.074258
 30
0.0
 10
38.297767
 20
22.074258
 30
0.0
 10
38.153720
 20
22.074258
 30
0.0
 10
38.009673
 20
22.074258
 30
0.0
 10
37.865626
 20
22.074258
 30
0.0
 10
37.721579
 20
22.074258
 30
0.0
 10
37.577534
 20
22.074258
 30
0.0
 10
37.433487
 20
22.074258
 30
0.0
 10
37.289440
 20
22.074258
 30
0.0
 10
37.145393
 20
22.074258
 30
0.0
 10
37.001348
 20
22.074258
 30
0.0
 10
36.857301
 20
22.074258
 30
0.0
 10
36.713254
 20
22.074258
 30
0.0
 10
36.569207
 20
22.074258
 30
0.0
 10
36.363758
 20
22.074258
 30
0.0
 10
36.158312
 20
22.074258
 30
0.0
 10
35.952865
 20
22.074258
 30
0.0
 10
35.747416
 20
22.074258
 30
0.0
 10
35.541968
 20
22.074258
 30
0.0
 10
35.336521
 20
22.074258
 30
0.0
 10
35.131072
 20
22.074258
 30
0.0
 10
34.925623
 20
22.074258
 30
0.0
 10
34.720177
 20
22.074258
 30
0.0
 10
34.514728
 20
22.074258
 30
0.0
 10
34.309282
 20
22.074258
 30
0.0
 10
34.103833
 20
22.074258
 30
0.0
 10
33.898386
 20
22.074258
 30
0.0
 10
33.692937
 20
22.074258
 30
0.0
 10
33.487491
 20
22.074258
 30
0.0
 10
33.282042
 20
22.074258
 30
0.0
 10
33.391693
 20
21.913166
 30
0.0
 10
33.501345
 20
21.752075
 30
0.0
 10
33.610996
 20
21.590983
 30
0.0
 10
33.720647
 20
21.429892
 30
0.0
 10
33.830301
 20
21.268800
 30
0.0
 10
33.939950
 20
21.107709
 30
0.0
 10
34.049604
 20
20.946617
 30
0.0
 10
34.159255
 20
20.785525
 30
0.0
 10
34.268906
 20
20.624434
 30
0.0
 10
34.378558
 20
20.463342
 30
0.0
 10
34.488209
 20
20.302251
 30
0.0
 10
34.597860
 20
20.141159
 30
0.0
 10
34.707511
 20
19.980068
 30
0.0
 10
34.817165
 20
19.818973
 30
0.0
 10
34.926814
 20
19.657884
 30
0.0
 10
35.036468
 20
19.496790
 30
0.0
 10
34.823440
 20
19.496790
 30
0.0
 10
34.609924
 20
19.496790
 30
0.0
 10
34.396408
 20
19.496790
 30
0.0
 10
34.182892
 20
19.496790
 30
0.0
 10
33.969373
 20
19.496790
 30
0.0
 10
33.755857
 20
19.496790
 30
0.0
 10
33.542341
 20
19.496790
 30
0.0
 10
33.328825
 20
19.496790
 30
0.0
 10
33.115306
 20
19.496790
 30
0.0
 10
32.901790
 20
19.496790
 30
0.0
 10
32.688274
 20
19.496790
 30
0.0
 10
32.474758
 20
19.496790
 30
0.0
 10
32.261239
 20
19.496790
 30
0.0
 10
32.047723
 20
19.496790
 30
0.0
 10
31.834207
 20
19.496790
 30
0.0
 10
31.620691
 20
19.496790
 30
0.0
 10
31.528881
 20
19.657882
 30
0.0
 10
31.437071
 20
19.818971
 30
0.0
 10
31.345261
 20
19.980062
 30
0.0
 10
31.253451
 20
20.141151
 30
0.0
 10
31.161641
 20
20.302243
 30
0.0
 10
31.069831
 20
20.463332
 30
0.0
 10
30.978021
 20
20.624423
 30
0.0
 10
30.886211
 20
20.785512
 30
0.0
 10
30.794401
 20
20.946604
 30
0.0
 10
30.702591
 20
21.107693
 30
0.0
 10
30.610781
 20
21.268782
 30
0.0
 10
30.518971
 20
21.429873
 30
0.0
 10
30.427161
 20
21.590965
 30
0.0
 10
30.335351
 20
21.752054
 30
0.0
 10
30.243541
 20
21.913143
 30
0.0
 10
30.151731
 20
22.074234
 30
0.0
 10
30.125221
 20
22.120754
 30
0.0
 10
30.098711
 20
22.167274
 30
0.0
 10
30.072201
 20
22.213794
 30
0.0
 10
30.045691
 20
22.260314
 30
0.0
 10
30.019181
 20
22.306834
 30
0.0
 10
29.992671
 20
22.353354
 30
0.0
 10
29.966161
 20
22.399874
 30
0.0
 10
29.939651
 20
22.446394
 30
0.0
 10
29.913141
 20
22.492914
 30
0.0
 10
29.886631
 20
22.539434
 30
0.0
 10
29.860121
 20
22.585954
 30
0.0
 10
29.833611
 20
22.632474
 30
0.0
 10
29.807101
 20
22.678994
 30
0.0
 10
29.780591
 20
22.725514
 30
0.0
 10
29.754081
 20
22.772034
 30
0.0
 10
29.727571
 20
22.818554
 30
0.0
 10
29.678241
 20
22.772034
 30
0.0
 10
29.628911
 20
22.725514
 30
0.0
 10
29.579581
 20
22.678994
 30
0.0
 10
29.530251
 20
22.632474
 30
0.0
 10
29.480921
 20
22.585954
 30
0.0
 10
29.431591
 20
22.539434
 30
0.0
 10
29.382261
 20
22.492914
 30
0.0
 10
29.332931
 20
22.446394
 30
0.0
 10
29.283601
 20
22.399874
 30
0.0
 10
29.234271
 20
22.353354
 30
0.0
 10
29.184941
 20
22.306834
 30
0.0
 10
29.135611
 20
22.260314
 30
0.0
 10
29.086281
 20
22.213794
 30
0.0
 10
29.036951
 20
22.167274
 30
0.0
 10
28.987621
 20
22.120754
 30
0.0
 10
28.938291
 20
22.074234
 30
0.0
 10
28.898061
 20
22.036294
 30
0.0
 10
28.857831
 20
21.998354
 30
0.0
 10
28.817601
 20
21.960414
 30
0.0
 10
28.777371
 20
21.922474
 30
0.0
 10
28.737141
 20
21.884534
 30
0.0
 10
28.696911
 20
21.846594
 30
0.0
 10
28.656681
 20
21.808654
 30
0.0
 10
28.616451
 20
21.770714
 30
0.0
 10
28.576221
 20
21.732774
 30
0.0
 10
28.535991
 20
21.694834
 30
0.0
 10
28.495761
 20
21.656894
 30
0.0
 10
28.455531
 20
21.618954
 30
0.0
 10
28.415301
 20
21.581014
 30
0.0
 10
28.375071
 20
21.543074
 30
0.0
 10
28.334841
 20
21.505134
 30
0.0
 10
28.294611
 20
21.467194
 30
0.0
 10
28.294611
 20
21.344046
 30
0.0
 10
28.294611
 20
21.220898
 30
0.0
 10
28.294611
 20
21.097751
 30
0.0
 10
28.294611
 20
20.974600
 30
0.0
 10
28.294611
 20
20.851453
 30
0.0
 10
28.294611
 20
20.728305
 30
0.0
 10
28.294611
 20
20.605155
 30
0.0
 10
28.294611
 20
20.482007
 30
0.0
 10
28.294611
 20
20.358859
 30
0.0
 10
28.294611
 20
20.235712
 30
0.0
 10
28.294611
 20
20.112561
 30
0.0
 10
28.294611
 20
19.989414
 30
0.0
 10
28.294611
 20
19.866266
 30
0.0
 10
28.294611
 20
19.743118
 30
0.0
 10
28.294611
 20
19.619968
 30
0.0
 10
28.294611
 20
19.496820
 30
0.0
 10
28.262631
 20
19.496820
 30
0.0
 10
28.230651
 20
19.496820
 30
0.0
 10
28.198671
 20
19.496820
 30
0.0
 10
28.166691
 20
19.496820
 30
0.0
 10
28.134711
 20
19.496820
 30
0.0
 10
28.102731
 20
19.496820
 30
0.0
 10
28.070751
 20
19.496820
 30
0.0
 10
28.038771
 20
19.496820
 30
0.0
 10
28.006791
 20
19.496820
 30
0.0
 10
27.974811
 20
19.496820
 30
0.0
 10
27.942831
 20
19.496820
 30
0.0
 10
27.910851
 20
19.496820
 30
0.0
 10
27.878871
 20
19.496820
 30
0.0
 10
27.846891
 20
19.496820
 30
0.0
 10
27.814911
 20
19.496820
 30
0.0
 10
27.782931
 20
19.496820
 30
0.0
 10
27.641532
 20
19.496820
 30
0.0
 10
27.500152
 20
19.496820
 30
0.0
 10
27.358769
 20
19.496820
 30
0.0
 10
27.217386
 20
19.496820
 30
0.0
 10
27.076004
 20
19.496820
 30
0.0
 10
26.934621
 20
19.496820
 30
0.0
 10
26.793238
 20
19.496820
 30
0.0
 10
26.651855
 20
19.496820
 30
0.0
 10
26.510473
 20
19.496820
 30
0.0
 10
26.369090
 20
19.496820
 30
0.0
 10
26.227708
 20
19.496820
 30
0.0
 10
26.086325
 20
19.496820
 30
0.0
 10
25.944943
 20
19.496820
 30
0.0
 10
25.803560
 20
19.496820
 30
0.0
 10
25.662178
 20
19.496820
 30
0.0
 10
25.520795
 20
19.496820
 30
0.0
 10
25.520795
 20
19.618336
 30
0.0
 10
25.520795
 20
19.739541
 30
0.0
 10
25.520795
 20
19.860747
 30
0.0
 10
25.520795
 20
19.981952
 30
0.0
 10
25.520795
 20
20.103161
 30
0.0
 10
25.520795
 20
20.224366
 30
0.0
 10
25.520795
 20
20.345572
 30
0.0
 10
25.520795
 20
20.466778
 30
0.0
 10
25.520795
 20
20.587983
 30
0.0
 10
25.520795
 20
20.709189
 30
0.0
 10
25.520795
 20
20.830394
 30
0.0
 10
25.520795
 20
20.951600
 30
0.0
 10
25.520795
 20
21.072806
 30
0.0
 10
25.520795
 20
21.194011
 30
0.0
 10
25.520795
 20
21.315220
 30
0.0
 10
25.520795
 20
21.436425
 30
0.0
 10
25.520795
 20
21.476315
 30
0.0
 10
25.520795
 20
21.516205
 30
0.0
 10
25.520795
 20
21.556095
 30
0.0
 10
25.520795
 20
21.595985
 30
0.0
 10
25.520795
 20
21.635875
 30
0.0
 10
25.520795
 20
21.675765
 30
0.0
 10
25.520795
 20
21.715655
 30
0.0
 10
25.520795
 20
21.755545
 30
0.0
 10
25.520795
 20
21.795435
 30
0.0
 10
25.520795
 20
21.835325
 30
0.0
 10
25.520795
 20
21.875215
 30
0.0
 10
25.520795
 20
21.915105
 30
0.0
 10
25.520795
 20
21.954995
 30
0.0
 10
25.520795
 20
21.994885
 30
0.0
 10
25.520795
 20
22.034775
 30
0.0
 10
25.520795
 20
22.074665
 30
0.0
 10
25.225907
 20
22.074665
 30
0.0
 10
24.931511
 20
22.074665
 30
0.0
 10
24.637112
 20
22.074665
 30
0.0
 10
24.342716
 20
22.074665
 30
0.0
 10
24.048317
 20
22.074665
 30
0.0
 10
23.753921
 20
22.074665
 30
0.0
 10
23.459522
 20
22.074665
 30
0.0
 10
23.165126
 20
22.074665
 30
0.0
 10
22.870727
 20
22.074665
 30
0.0
 10
22.576331
 20
22.074665
 30
0.0
 10
22.281933
 20
22.074665
 30
0.0
 10
21.987536
 20
22.074665
 30
0.0
 10
21.693138
 20
22.074665
 30
0.0
 10
21.398741
 20
22.074665
 30
0.0
 10
21.104343
 20
22.074665
 30
0.0
 10
20.809945
 20
22.074665
 30
0.0
  0
LWPOLYLINE
  5
132
100
AcDbEntity
  8
BASE
 62
7
100
AcDbPolyline
 90
184
 70
0
 10
25.015765
 20
15.936630
 30
0.0
 10
25.034825
 20
15.923670
 30
0.0
 10
25.053885
 20
15.910700
 30
0.0
 10
25.072945
 20
15.897740
 30
0.0
 10
25.092005
 20
15.884770
 30
0.0
 10
25.111065
 20
15.871800
 30
0.0
 10
25.130125
 20
15.858840
 30
0.0
 10
25.149185
 20
15.845870
 30
0.0
 10
25.168245
 20
15.832910
 30
0.0
 10
25.187305
 20
15.819950
 30
0.0
 10
25.206365
 20
15.806990
 30
0.0
 10
25.225425
 20
15.794020
 30
0.0
 10
25.244485
 20
15.781050
 30
0.0
 10
25.263545
 20
15.768090
 30
0.0
 10
25.282605
 20
15.755120
 30
0.0
 10
25.301665
 20
15.742160
 30
0.0
 10
25.320725
 20
15.729190
 30
0.0
 10
25.274175
 20
15.536724
 30
0.0
 10
25.227625
 20
15.344258
 30
0.0
 10
25.181075
 20
15.151792
 30
0.0
 10
25.134525
 20
14.959327
 30
0.0
 10
25.087975
 20
14.766858
 30
0.0
 10
25.041425
 20
14.574392
 30
0.0
 10
24.994875
 20
14.381926
 30
0.0
 10
24.948325
 20
14.189461
 30
0.0
 10
24.901775
 20
13.996995
 30
0.0
 10
24.855225
 20
13.804529
 30
0.0
 10
24.808675
 20
13.612063
 30
0.0
 10
24.762125
 20
13.419597
 30
0.0
 10
24.715575
 20
13.227131
 30
0.0
 10
24.669025
 20
13.034665
 30
0.0
 10
24.622475
 20
12.842200
 30
0.0
 10
24.575925
 20
12.649734
 30
0.0
 10
22.219768
 20
2.907286
 30
0.0
 10
21.828535
 20
3.062274
 30
0.0
 10
21.454013
 20
3.233015
 30
0.0
 10
20.156099
 20
3.784835
 30
0.0
 10
18.995542
 20
4.422211
 30
0.0
 10
18.226486
 20
4.844568
 30
0.0
 10
11.303902
 20
0.210923
 30
0.0
 10
6.312003
 20
5.202811
 30
0.0
 10
10.938142
 20
12.114680
 30
0.0
 10
10.635531
 20
12.649882
 30
0.0
 10
10.326278
 20
13.196686
 30
0.0
 10
10.049944
 20
13.763611
 30
0.0
 10
9.669351
 20
14.470102
 30
0.0
 10
9.425774
 20
15.044171
 30
0.0
 10
9.217570
 20
15.534875
 30
0.0
 10
9.151500
 20
15.693289
 30
0.0
 10
9.120820
 20
15.781459
 30
0.0
 10
8.701862
 20
16.936008
 30
0.0
 10
8.629572
 20
17.193294
 30
0.0
 10
8.577122
 20
17.379876
 30
0.0
 10
8.230917
 20
18.612501
 30
0.0
 10
8.128698
 20
18.632771
 30
0.0
 10
8.082788
 20
18.641371
 30
0.0
 10
1.422043
 20
19.961203
 30
0.0
 10
0.100596
 20
20.223056
 30
0.0
 10
0.100596
 20
22.074357
 30
0.0
 10
0.100596
 20
25.725499
 30
0.0
 10
0.100596
 20
27.281846
 30
0.0
 10
1.422043
 20
27.543572
 30
0.0
 10
8.218060
 20
28.889668
 30
0.0
 10
8.465102
 20
29.801993
 30
0.0
 10
8.603992
 20
30.222914
 30
0.0
 10
8.759445
 20
30.694044
 30
0.0
 10
8.875394
 20
31.080472
 30
0.0
 10
8.989583
 20
31.462200
 30
0.0
 10
9.078073
 20
31.669963
 30
0.0
 10
9.494855
 20
32.678941
 30
0.0
 10
9.688171
 20
33.146939
 30
0.0
 10
9.778161
 20
33.313621
 30
0.0
 10
10.044435
 20
33.806987
 30
0.0
 10
10.175711
 20
34.076435
 30
0.0
 10
10.315502
 20
34.363389
 30
0.0
 10
10.919968
 20
35.437913
 30
0.0
 10
10.873078
 20
35.507873
 30
0.0
 10
10.775038
 20
35.654295
 30
0.0
 10
10.743398
 20
35.701595
 30
0.0
 10
9.373654
 20
37.748382
 30
0.0
 10
9.135354
 20
38.104475
 30
0.0
 10
6.330227
 20
42.296092
 30
0.0
 10
11.322124
 20
47.286915
 30
0.0
 10
18.171771
 20
42.702609
 30
0.0
 10
18.995530
 20
43.167260
 30
0.0
 10
19.250048
 20
43.310817
 30
0.0
 10
19.808702
 20
43.583398
 30
0.0
 10
20.514443
 20
43.962810
 30
0.0
 10
20.539543
 20
43.973530
 30
0.0
 10
20.634143
 20
44.013320
 30
0.0
 10
20.914831
 20
44.123176
 30
0.0
 10
22.878564
 20
44.891782
 30
0.0
 10
23.006614
 20
44.937692
 30
0.0
 10
23.008714
 20
44.938300
 30
0.0
 10
23.265206
 20
45.009630
 30
0.0
 10
23.432821
 20
45.056390
 30
0.0
 10
24.743971
 20
45.421762
 30
0.0
 10
25.214512
 20
47.796517
 30
0.0
 10
25.520537
 20
49.341024
 30
0.0
 10
26.344296
 20
53.498479
 30
0.0
 10
27.986453
 20
53.498479
 30
0.0
 10
28.294291
 20
53.498479
 30
0.0
 10
31.535699
 20
53.498479
 30
0.0
 10
33.403101
 20
53.498479
 30
0.0
 10
34.402499
 20
48.454013
 30
0.0
 10
34.532756
 20
47.796517
 30
0.0
 10
35.005571
 20
45.409964
 30
0.0
 10
35.618296
 20
45.251529
 30
0.0
 10
36.569447
 20
44.942008
 30
0.0
 10
36.813734
 20
44.862538
 30
0.0
 10
37.200954
 20
44.745303
 30
0.0
 10
37.583380
 20
44.629827
 30
0.0
 10
37.672300
 20
44.594967
 30
0.0
 10
37.800475
 20
44.541437
 30
0.0
 10
38.722283
 20
44.156694
 30
0.0
 10
39.150241
 20
43.978074
 30
0.0
 10
39.229941
 20
43.940964
 30
0.0
 10
39.308131
 20
43.904604
 30
0.0
 10
39.929995
 20
43.564245
 30
0.0
 10
40.479606
 20
43.294625
 30
0.0
 10
40.487106
 20
43.290425
 30
0.0
 10
41.562381
 20
42.680704
 30
0.0
 10
41.633281
 20
42.728114
 30
0.0
 10
41.716091
 20
42.783564
 30
0.0
 10
43.870567
 20
44.225390
 30
0.0
 10
44.237322
 20
44.470824
 30
0.0
 10
45.103705
 20
45.050631
 30
0.0
 10
45.255629
 20
45.152313
 30
0.0
 10
48.417408
 20
47.268302
 30
0.0
 10
51.928823
 20
43.756878
 30
0.0
 10
52.098434
 20
43.587278
 30
0.0
 10
53.409304
 20
42.276405
 30
0.0
 10
49.007254
 20
35.699480
 30
0.0
 10
48.968644
 20
35.641780
 30
0.0
 10
48.806767
 20
35.399928
 30
0.0
 10
49.117631
 20
34.870555
 30
0.0
 10
49.676296
 20
33.772006
 30
0.0
 10
49.938805
 20
33.279981
 30
0.0
 10
50.050774
 20
33.070126
 30
0.0
 10
50.113084
 20
32.913033
 30
0.0
 10
50.786324
 20
31.216668
 30
0.0
 10
50.851754
 20
31.057385
 30
0.0
 10
50.928444
 20
30.800176
 30
0.0
 10
51.095930
 20
30.222472
 30
0.0
 10
51.489307
 20
28.865627
 30
0.0
 10
54.142927
 20
28.339806
 30
0.0
 10
59.619641
 20
27.254577
 30
0.0
 10
59.619641
 20
25.725044
 30
0.0
 10
59.619641
 20
22.073903
 30
0.0
 10
59.619641
 20
20.194702
 30
0.0
 10
56.094486
 20
19.496435
 30
0.0
 10
54.142951
 20
19.109868
 30
0.0
 10
52.756685
 20
18.835284
 30
0.0
 10
51.944938
 20
18.674492
 30
0.0
 10
51.782008
 20
18.642202
 30
0.0
 10
51.464659
 20
18.579342
 30
0.0
 10
50.799838
 20
16.396691
 30
0.0
 10
50.703088
 20
16.079104
 30
0.0
 10
50.641408
 20
15.932588
 30
0.0
 10
50.170320
 20
14.785760
 30
0.0
 10
50.112290
 20
14.675667
 30
0.0
 10
49.044609
 20
12.648919
 30
0.0
 10
48.889275
 20
12.354062
 30
0.0
 10
48.756272
 20
12.102965
 30
0.0
 10
53.388845
 20
5.182525
 30
0.0
 10
48.396949
 20
0.189558
 30
0.0
 10
45.356119
 20
2.225401
 30
0.0
 10
41.881024
 20
4.551975
 30
0.0
 10
41.832434
 20
4.584585
 30
0.0
 10
41.771614
 20
4.625345
 30
0.0
 10
41.712944
 20
4.664605
 30
0.0
 10
41.668434
 20
4.694415
 30
0.0
 10
41.458321
 20
4.835088
 30
0.0
 10
40.137508
 20
4.109728
 30
0.0
 10
40.136979
 20
4.109463
 30
0.0
 10
39.097304
 20
3.594687
 30
0.0
 10
38.980432
 20
3.536767
 30
0.0
 10
37.784692
 20
3.024494
 30
0.0
 10
37.579421
 20
2.945334
 30
0.0
 10
37.578892
 20
2.945074
 30
0.0
 10
37.540702
 20
3.103822
 30
0.0
 10
37.247879
 20
4.316291
 30
0.0
 10
37.216239
 20
4.446902
 30
0.0
 10
37.197689
 20
4.523482
 30
0.0
  0
ENDSEC
  0
SECTION
  2
OBJECTS
  0
DICTIONARY
  5
C
330
0
100
AcDbDictionary
  3
ACAD_GROUP
350
D
  3
ACAD_MLINESTYLE
350
17
  0
DICTIONARY
  5
D
330
C
100
AcDbDictionary
  0
DICTIONARY
  5
1A
330
C
100
AcDbDictionary
  0
DICTIONARY
  5
17
330
C
100
AcDbDictionary
  3
STANDARD
350
18
  0
DICTIONARY
  5
19
330
C
100
AcDbDictionary
  0
ENDSEC
  0
EOF
